<svg width="36" height="35" viewBox="0 0 36 35" fill="none" xmlns="http://www.w3.org/2000/svg">
<g filter="url(#filter0_b_45_2273)">
<circle cx="18.0657" cy="17.5" r="17.3506" fill="#272C33"/>
</g>
<g clip-path="url(#clip0_45_2273)">
<path d="M23.0921 19.1185C23.1007 17.8338 22.3402 16.9796 21.3021 16.4998C20.791 16.2813 20.2673 16.1029 19.768 15.9796C19.091 15.8083 18.4581 15.6946 17.784 15.5035C17.2378 15.3743 16.5689 14.9553 16.5496 14.463C16.6738 13.5897 17.7374 13.3921 18.3836 13.3873C19.3499 13.3504 19.9555 13.8351 20.3763 14.5512C20.6846 15.0677 20.9347 15.3747 21.505 15.38C22.1257 15.3451 22.6078 14.8546 22.6159 14.2867C22.5292 13.0077 21.3878 12.2703 20.3411 11.9236C18.9892 11.582 17.5049 11.5718 16.2498 12.047C15.056 12.488 14.2352 13.4793 14.2218 14.657C14.2817 16.8211 16.4575 17.4433 18.0838 17.7959C18.5792 17.8947 19.0567 17.9978 19.5122 18.1486C20.1215 18.3698 20.6324 18.7039 20.6408 19.3478C20.6408 19.7357 20.4469 20.059 20.0589 20.3177C19.2288 20.7261 18.2038 20.9461 17.3784 20.5116C16.7892 20.2301 16.5034 19.7548 16.2674 19.2243C16.0208 18.6755 15.717 18.3312 15.1388 18.3249C14.5327 18.3475 14.0011 18.7825 13.9926 19.3478C14.0886 20.4786 14.8791 21.4105 15.7737 21.8871C17.4677 22.5828 19.3368 22.7176 20.9758 22.0458C22.2499 21.4991 23.0788 20.3876 23.0921 19.1185ZM26.1605 18.8011C26.4662 19.436 26.619 20.1061 26.619 20.8114C26.5921 22.0425 26.1042 23.1838 25.3052 23.9945C24.3866 24.8543 23.2815 25.2999 22.1222 25.3083C21.3567 25.2954 20.6369 25.1151 20.006 24.7792C18.5326 25.0352 16.8172 24.8238 15.5621 24.2942C13.6576 23.4341 12.1974 21.9126 11.4268 20.1589C10.835 18.5792 10.672 17.0951 10.9771 15.574C9.96648 13.7482 10.2677 11.5428 11.6737 10.116C13.2314 8.62648 15.4822 8.43743 17.255 9.49002C19.7744 9.08319 22.3577 9.97929 24.062 11.6591C25.5309 13.1915 26.3228 15.1997 26.3369 17.1435C26.3345 17.7173 26.2727 18.2801 26.1605 18.8011Z" fill="white"/>
</g>
<defs>
<filter id="filter0_b_45_2273" x="-19.2849" y="-19.8506" width="74.7012" height="74.7012" filterUnits="userSpaceOnUse" color-interpolation-filters="sRGB">
<feFlood flood-opacity="0" result="BackgroundImageFix"/>
<feGaussianBlur in="BackgroundImageFix" stdDeviation="10"/>
<feComposite in2="SourceAlpha" operator="in" result="effect1_backgroundBlur_45_2273"/>
<feBlend mode="normal" in="SourceGraphic" in2="effect1_backgroundBlur_45_2273" result="shape"/>
</filter>
<clipPath id="clip0_45_2273">
<rect width="16.4831" height="16.4831" fill="white" transform="translate(10.2579 8.8252)"/>
</clipPath>
</defs>
</svg>
