<svg width="64" height="63" viewBox="0 0 64 63" fill="none" xmlns="http://www.w3.org/2000/svg">
<g filter="url(#filter0_b_45_2624)">
<rect width="64" height="62.4762" rx="31.2381" fill="url(#paint0_linear_45_2624)"/>
<rect x="0.882439" y="0.882439" width="62.2351" height="60.7113" rx="30.3557" stroke="url(#paint1_linear_45_2624)" stroke-opacity="0.15" stroke-width="1.76488"/>
<path d="M24.25 44.1546C23.5396 44.1546 22.9314 43.9017 22.4255 43.3958C21.9196 42.8899 21.6667 42.2817 21.6667 41.5713V20.9046C21.6667 20.1942 21.9196 19.586 22.4255 19.0801C22.9314 18.5742 23.5396 18.3213 24.25 18.3213H39.75C40.4604 18.3213 41.0686 18.5742 41.5745 19.0801C42.0804 19.586 42.3334 20.1942 42.3334 20.9046V41.5713C42.3334 42.2817 42.0804 42.8899 41.5745 43.3958C41.0686 43.9017 40.4604 44.1546 39.75 44.1546H24.25ZM30.7084 29.9463L33.9375 28.0088L37.1667 29.9463V20.9046H30.7084V29.9463Z" fill="#2F3132"/>
</g>
<defs>
<filter id="filter0_b_45_2624" x="-37.6507" y="-37.6507" width="139.301" height="137.778" filterUnits="userSpaceOnUse" color-interpolation-filters="sRGB">
<feFlood flood-opacity="0" result="BackgroundImageFix"/>
<feGaussianBlur in="BackgroundImageFix" stdDeviation="18.8254"/>
<feComposite in2="SourceAlpha" operator="in" result="effect1_backgroundBlur_45_2624"/>
<feBlend mode="normal" in="SourceGraphic" in2="effect1_backgroundBlur_45_2624" result="shape"/>
</filter>
<linearGradient id="paint0_linear_45_2624" x1="11.883" y1="-1.16333e-07" x2="51.7357" y2="62.4762" gradientUnits="userSpaceOnUse">
<stop stop-color="#DCF8C5"/>
<stop offset="1" stop-color="#98D664"/>
</linearGradient>
<linearGradient id="paint1_linear_45_2624" x1="32" y1="0" x2="32" y2="62.4762" gradientUnits="userSpaceOnUse">
<stop stop-color="#E2E2E2"/>
<stop offset="1" stop-color="#E2E2E2" stop-opacity="0"/>
</linearGradient>
</defs>
</svg>
