<svg width="77" height="76" viewBox="0 0 77 76" fill="none" xmlns="http://www.w3.org/2000/svg">
<rect x="0.905731" y="0.445312" width="75.191" height="75.191" rx="16.7091" fill="#E9EFFE"/>
<path d="M38.5012 18.1992C33.2388 18.1992 28.1919 20.2897 24.4708 24.0108C20.7497 27.7319 18.6592 32.7788 18.6592 38.0413C18.6592 43.3037 20.7497 48.3506 24.4708 52.0717C28.1919 55.7928 33.2388 57.8833 38.5012 57.8833L38.5012 38.0413V18.1992Z" fill="#2563EB"/>
<path d="M38.5012 57.8828C43.7637 57.8828 48.8106 55.7923 52.5317 52.0712C56.2528 48.3501 58.3433 43.3032 58.3433 38.0408C58.3433 32.7783 56.2528 27.7314 52.5317 24.0103C48.8106 20.2892 43.7637 18.1987 38.5012 18.1987L38.5012 38.0408L38.5012 57.8828Z" fill="#A7C2FF"/>
</svg>
