<svg width="76" height="76" viewBox="0 0 76 76" fill="none" xmlns="http://www.w3.org/2000/svg">
<rect x="0.152588" y="0.445312" width="75.191" height="75.191" rx="16.7091" fill="#E9EFFE"/>
<path d="M59.85 49.1594L59.8597 49.1541H59.8408L48.7436 43.1409L37.6279 37.1172L26.5118 43.1409L15.4146 49.1541H15.3958L15.4054 49.1594L15.3958 49.1647H15.4146L26.5118 55.1779L37.6279 61.2016L48.7436 55.1779L59.8408 49.1647H59.8597L59.85 49.1594Z" fill="#C8D9FF"/>
<path d="M59.85 26.0637L59.8597 26.0588H59.8408L48.7436 20.0452L37.6279 14.0215L26.5118 20.0452L15.4146 26.0588H15.3958L15.4054 26.0637L15.3958 26.069H15.4146L26.5118 32.0826L37.6279 38.1063L48.7436 32.0826L59.8408 26.069H59.8597L59.85 26.0637Z" fill="#2563EB"/>
<path d="M15.4146 25.5742V49.6485L37.6279 37.6116L15.4146 25.5742Z" fill="#A7C2FF"/>
<path d="M59.8407 25.5742V49.6485L37.6278 37.6116L59.8407 25.5742Z" fill="#A7C2FF"/>
</svg>
