<svg width="64" height="63" viewBox="0 0 64 63" fill="none" xmlns="http://www.w3.org/2000/svg">
<g filter="url(#filter0_b_45_2615)">
<rect width="64" height="62.4762" rx="31.2381" fill="url(#paint0_linear_45_2615)"/>
<rect x="0.882439" y="0.882439" width="62.2351" height="60.7113" rx="30.3557" stroke="url(#paint1_linear_45_2615)" stroke-opacity="0.15" stroke-width="1.76488"/>
<path d="M32 32.5299V20.9049C32 20.539 32.1238 20.2322 32.3714 19.9846C32.6189 19.7371 32.9257 19.6133 33.2917 19.6133H42.3333C42.6993 19.6133 43.0061 19.7371 43.2536 19.9846C43.5012 20.2322 43.625 20.539 43.625 20.9049V27.3633C43.625 27.7293 43.5012 28.036 43.2536 28.2836C43.0061 28.5312 42.6993 28.6549 42.3333 28.6549H35.875L32 32.5299ZM42.2687 42.8633C39.5778 42.8633 36.9191 42.2766 34.2927 41.1034C31.6663 39.9301 29.2767 38.2671 27.124 36.1143C24.9712 33.9615 23.3082 31.572 22.1349 28.9456C20.9616 26.3192 20.375 23.6605 20.375 20.9695C20.375 20.582 20.5042 20.2591 20.7625 20.0008C21.0208 19.7424 21.3438 19.6133 21.7312 19.6133H26.9625C27.2639 19.6133 27.533 19.7155 27.7698 19.9201C28.0066 20.1246 28.1465 20.3668 28.1896 20.6466L29.0292 25.1674C29.0722 25.5119 29.0615 25.8025 28.9969 26.0393C28.9323 26.2761 28.8139 26.4806 28.6417 26.6529L25.5094 29.8174C25.9399 30.614 26.4512 31.3836 27.0432 32.1263C27.6352 32.869 28.2865 33.5848 28.9969 34.2737C29.6642 34.9411 30.3639 35.56 31.0958 36.1305C31.8278 36.701 32.6028 37.223 33.4208 37.6966L36.4562 34.6612C36.65 34.4674 36.903 34.3221 37.2151 34.2253C37.5273 34.1284 37.834 34.1015 38.1354 34.1445L42.5917 35.0487C42.8931 35.1348 43.1406 35.2909 43.3344 35.5169C43.5281 35.743 43.625 35.9959 43.625 36.2758V41.507C43.625 41.8945 43.4958 42.2174 43.2375 42.4758C42.9792 42.7341 42.6562 42.8633 42.2687 42.8633Z" fill="#2F3132"/>
</g>
<defs>
<filter id="filter0_b_45_2615" x="-37.6507" y="-37.6507" width="139.301" height="137.778" filterUnits="userSpaceOnUse" color-interpolation-filters="sRGB">
<feFlood flood-opacity="0" result="BackgroundImageFix"/>
<feGaussianBlur in="BackgroundImageFix" stdDeviation="18.8254"/>
<feComposite in2="SourceAlpha" operator="in" result="effect1_backgroundBlur_45_2615"/>
<feBlend mode="normal" in="SourceGraphic" in2="effect1_backgroundBlur_45_2615" result="shape"/>
</filter>
<linearGradient id="paint0_linear_45_2615" x1="11.883" y1="-1.16333e-07" x2="51.7357" y2="62.4762" gradientUnits="userSpaceOnUse">
<stop stop-color="#DCF8C5"/>
<stop offset="1" stop-color="#98D664"/>
</linearGradient>
<linearGradient id="paint1_linear_45_2615" x1="32" y1="0" x2="32" y2="62.4762" gradientUnits="userSpaceOnUse">
<stop stop-color="#E2E2E2"/>
<stop offset="1" stop-color="#E2E2E2" stop-opacity="0"/>
</linearGradient>
</defs>
</svg>
