<svg width="22" height="22" viewBox="0 0 22 22" fill="none" xmlns="http://www.w3.org/2000/svg">
<path d="M11.1873 19.4554C9.96474 19.4554 8.81578 19.2234 7.74048 18.7594C6.66518 18.2954 5.72981 17.6657 4.93439 16.8702C4.13896 16.0748 3.50924 15.1394 3.04524 14.0641C2.58124 12.9888 2.34924 11.8399 2.34924 10.6173C2.34924 9.39467 2.58124 8.24571 3.04524 7.17041C3.50924 6.09511 4.13896 5.15975 4.93439 4.36432C5.72981 3.56889 6.66518 2.93917 7.74048 2.47517C8.81578 2.01117 9.96474 1.77917 11.1873 1.77917C12.4099 1.77917 13.5589 2.01117 14.6342 2.47517C15.7095 2.93917 16.6449 3.56889 17.4403 4.36432C18.2357 5.15975 18.8654 6.09511 19.3294 7.17041C19.7934 8.24571 20.0254 9.39467 20.0254 10.6173V11.8988C20.0254 12.7679 19.7271 13.5081 19.1306 14.1194C18.534 14.7307 17.8012 15.0363 16.9321 15.0363C16.4165 15.0363 15.9304 14.9258 15.4738 14.7049C15.0172 14.4839 14.6342 14.1672 14.3249 13.7548C13.8977 14.182 13.4153 14.5023 12.8776 14.7159C12.34 14.9295 11.7765 15.0363 11.1873 15.0363C9.96474 15.0363 8.92258 14.6055 8.06086 13.7437C7.19915 12.882 6.76829 11.8399 6.76829 10.6173C6.76829 9.39467 7.19915 8.35251 8.06086 7.49079C8.92258 6.62908 9.96474 6.19822 11.1873 6.19822C12.4099 6.19822 13.4521 6.62908 14.3138 7.49079C15.1755 8.35251 15.6064 9.39467 15.6064 10.6173V11.8988C15.6064 12.2818 15.7316 12.6058 15.982 12.871C16.2324 13.1361 16.5491 13.2687 16.9321 13.2687C17.3151 13.2687 17.6318 13.1361 17.8822 12.871C18.1326 12.6058 18.2578 12.2818 18.2578 11.8988V10.6173C18.2578 8.64343 17.5729 6.97156 16.203 5.60165C14.8331 4.23175 13.1612 3.54679 11.1873 3.54679C9.2135 3.54679 7.54162 4.23175 6.17172 5.60165C4.80181 6.97156 4.11686 8.64343 4.11686 10.6173C4.11686 12.5911 4.80181 14.263 6.17172 15.6329C7.54162 17.0028 9.2135 17.6877 11.1873 17.6877H15.6064V19.4554H11.1873ZM11.1873 13.2687C11.9238 13.2687 12.5499 13.0109 13.0654 12.4954C13.581 11.9798 13.8388 11.3538 13.8388 10.6173C13.8388 9.88076 13.581 9.25473 13.0654 8.73917C12.5499 8.22362 11.9238 7.96584 11.1873 7.96584C10.4508 7.96584 9.8248 8.22362 9.30924 8.73917C8.79369 9.25473 8.53591 9.88076 8.53591 10.6173C8.53591 11.3538 8.79369 11.9798 9.30924 12.4954C9.8248 13.0109 10.4508 13.2687 11.1873 13.2687Z" fill="#5F6368"/>
</svg>
