<svg width="22" height="22" viewBox="0 0 22 22" fill="none" xmlns="http://www.w3.org/2000/svg">
<path d="M17.7197 18.5717C15.8784 18.5717 14.0593 18.1703 12.2622 17.3675C10.4651 16.5647 8.83006 15.4268 7.35704 13.9538C5.88402 12.4807 4.74612 10.8457 3.94333 9.04861C3.14053 7.25153 2.73914 5.43236 2.73914 3.59109C2.73914 3.32594 2.82752 3.10499 3.00428 2.92823C3.18104 2.75147 3.40199 2.66309 3.66714 2.66309H7.24656C7.45279 2.66309 7.63691 2.73305 7.79894 2.87299C7.96098 3.01293 8.05672 3.17864 8.08618 3.37013L8.66066 6.46347C8.69012 6.69915 8.68275 6.89801 8.63856 7.06004C8.59437 7.22207 8.51336 7.36201 8.39552 7.47985L6.25228 9.64518C6.54688 10.1902 6.89672 10.7168 7.3018 11.225C7.70688 11.7332 8.15247 12.223 8.63856 12.6943C9.0952 13.151 9.57393 13.5745 10.0748 13.9648C10.5756 14.3551 11.1059 14.7124 11.6656 15.0364L13.7426 12.9595C13.8751 12.8269 14.0482 12.7275 14.2618 12.6612C14.4754 12.5949 14.6853 12.5765 14.8915 12.6059L17.9407 13.2246C18.1469 13.2835 18.3163 13.3903 18.4488 13.545C18.5814 13.6997 18.6477 13.8727 18.6477 14.0642V17.6437C18.6477 17.9088 18.5593 18.1298 18.3826 18.3065C18.2058 18.4833 17.9848 18.5717 17.7197 18.5717ZM5.41266 7.96594L6.87094 6.50766L6.49533 4.4307H4.52885C4.6025 5.03464 4.70561 5.63121 4.83818 6.22042C4.97075 6.80963 5.16225 7.39147 5.41266 7.96594ZM13.3228 15.876C13.8972 16.1265 14.4828 16.3253 15.0793 16.4726C15.6759 16.6199 16.2762 16.7157 16.8801 16.7598V14.8155L14.8031 14.3957L13.3228 15.876Z" fill="#5F6368"/>
</svg>
