<svg width="618" height="207" viewBox="0 0 618 207" fill="none" xmlns="http://www.w3.org/2000/svg">
<g filter="url(#filter0_dddddd_45_2647)">
<rect x="65.1917" y="25" width="488" height="78" rx="39" fill="#F1F1F1"/>
<rect x="66.1178" y="25.9261" width="486.148" height="76.1478" rx="38.0739" stroke="url(#paint0_linear_45_2647)" stroke-width="1.85223"/>
<g clip-path="url(#clip0_45_2647)">
<path d="M104.83 62.7407C104.55 62.6979 104.269 62.6738 103.987 62.6687C103.352 62.6608 103.083 62.8936 103.085 62.8933C102.897 63.0253 102.807 63.2222 102.807 63.494C102.807 63.6673 102.838 63.8026 102.9 63.8977C102.94 63.9609 102.957 63.9848 103.079 64.082L103.081 64.0831C103.079 64.0824 103.359 64.3025 103.991 64.2644C104.436 64.2376 104.83 64.1528 104.83 64.1528H104.83V62.7407Z" fill="#00A1E2"/>
<path d="M123.418 60.8931C123.008 60.8931 122.718 61.0328 122.528 61.3244C122.336 61.6178 122.238 62.0354 122.238 62.5671C122.238 63.0989 122.335 63.5204 122.528 63.8158C122.719 64.1085 123.01 64.2511 123.418 64.2511C123.826 64.2511 124.118 64.1074 124.312 63.8138C124.506 63.5166 124.605 63.0974 124.606 62.5662C124.605 62.0349 124.507 61.6175 124.312 61.3244C124.119 61.0343 123.828 60.8931 123.418 60.8931Z" fill="#00A1E2"/>
<path d="M110.936 60.8701C110.528 60.8701 110.238 61.0296 110.048 61.3211C109.921 61.5121 109.839 61.7582 109.796 62.0534L112.011 62.0538C111.99 61.7681 111.934 61.5132 111.806 61.3211C111.613 61.0304 111.343 60.8701 110.936 60.8701Z" fill="#00A1E2"/>
<path d="M131.758 50.0444C130.15 50.0436 128.559 50.3826 127.09 51.0391C125.436 48.1045 122.364 46.1349 118.818 46.1349C116.159 46.1349 113.753 47.2496 112.023 49.0498L112.025 49.0601C110.135 46.5686 107.121 44.9634 103.753 44.9634C98.0023 44.9634 93.3344 49.6116 93.3344 55.3627C93.3329 56.7856 93.6246 58.1935 94.1912 59.4988C91.5204 61.0743 89.7202 63.9893 89.7202 67.3374C89.7202 72.3205 93.7184 76.3776 98.662 76.3776C99.2802 76.378 99.8967 76.3139 100.502 76.1863C101.86 79.8693 105.386 82.4888 109.542 82.4888C113.52 82.4888 116.937 80.0661 118.405 76.6196C119.558 77.1819 120.824 77.4729 122.107 77.4704C125.259 77.4704 128.026 75.7176 129.474 73.1374C130.218 73.2855 130.978 73.3638 131.758 73.3638C138.14 73.3638 143.32 68.1446 143.32 61.7042C143.32 55.2638 138.14 50.0444 131.758 50.0444ZM101.241 63.5669C101.241 64.5082 100.558 65.0932 99.4589 65.0932C98.9192 65.0932 98.4032 65.0085 97.8557 64.719C97.7533 64.6598 97.651 64.607 97.5504 64.5341C97.5395 64.5186 97.4939 64.5001 97.5276 64.4123L97.5268 64.4107L97.7435 63.8081C97.7777 63.7048 97.8565 63.7393 97.888 63.7583C97.9477 63.7948 97.9919 63.8272 98.0693 63.8724C98.7094 64.2769 99.3001 64.2802 99.4853 64.2802C99.962 64.2802 100.259 64.026 100.259 63.6853V63.6667C100.259 63.2965 99.8024 63.1554 99.2746 62.9932L99.158 62.9569C98.4333 62.75 97.6572 62.4507 97.6572 61.5328V61.5141C97.6572 60.6436 98.3604 60.035 99.3667 60.035L99.4765 60.0345C100.067 60.0345 100.638 60.2059 101.052 60.458C101.09 60.4805 101.126 60.5239 101.105 60.5817C101.086 60.6368 100.902 61.1287 100.881 61.1844C100.842 61.2874 100.735 61.2184 100.735 61.2184C100.375 61.0194 99.8117 60.862 99.339 60.862C98.9136 60.862 98.6378 61.0885 98.6378 61.3958V61.4141C98.6378 61.7726 99.1085 61.9266 99.6541 62.1034L99.7484 62.134C100.469 62.3606 101.241 62.6775 101.241 63.5481L101.241 63.5669ZM105.75 64.7781C105.75 64.7781 105.635 64.8094 105.531 64.8331C105.272 64.8894 105.011 64.94 104.749 64.9851C104.442 65.037 104.125 65.0638 103.806 65.0638C103.503 65.0638 103.227 65.0356 102.983 64.9798C102.736 64.9247 102.523 64.8318 102.35 64.7062C102.177 64.5803 102.037 64.413 101.945 64.2197C101.85 64.0248 101.802 63.7864 101.802 63.5106C101.802 63.2389 101.858 62.9986 101.969 62.7938C102.078 62.5908 102.232 62.4155 102.419 62.2816C102.607 62.1469 102.825 62.0457 103.068 61.9802C103.308 61.9153 103.566 61.8821 103.832 61.8821C104.027 61.8821 104.19 61.8866 104.316 61.896L104.319 61.9032C104.319 61.9032 104.565 61.9255 104.831 61.964V61.8326C104.831 61.4191 104.745 61.2223 104.575 61.0921C104.402 60.9591 104.142 60.8912 103.807 60.8912C103.807 60.8912 103.051 60.8813 102.454 61.2064C102.427 61.2227 102.403 61.2319 102.403 61.2319C102.403 61.2319 102.328 61.2582 102.301 61.1816L102.08 60.5907C102.047 60.5051 102.108 60.4672 102.108 60.4672C102.388 60.2481 103.066 60.1165 103.066 60.1165C103.29 60.0714 103.666 60.04 103.899 60.04C104.519 60.04 104.998 60.1837 105.325 60.4694C105.653 60.755 105.819 61.2178 105.819 61.8403L105.821 64.6764C105.821 64.6764 105.827 64.7585 105.75 64.7781ZM107.834 64.8781C107.834 64.9301 107.796 64.9724 107.745 64.9724H106.921C106.868 64.9724 106.831 64.9301 106.831 64.8781V58.247C106.831 58.1952 106.869 58.1532 106.921 58.1532H107.745C107.797 58.1532 107.834 58.1951 107.834 58.247V64.8781ZM112.983 62.7415C112.974 62.8216 112.892 62.8222 112.892 62.8222L109.78 62.8199C109.798 63.2927 109.912 63.6255 110.141 63.8539C110.365 64.0771 110.724 64.2195 111.204 64.2203C111.943 64.2223 112.258 64.073 112.481 63.9899C112.481 63.9899 112.567 63.9591 112.598 64.0441L112.801 64.6133C112.842 64.7093 112.809 64.7425 112.775 64.7619C112.582 64.8701 112.109 65.07 111.211 65.0731C110.774 65.0744 110.395 65.0116 110.082 64.8905C109.767 64.7683 109.505 64.5951 109.3 64.3725C109.098 64.1519 108.946 63.8862 108.851 63.5828C108.757 63.2814 108.71 62.9485 108.71 62.5901C108.71 62.2395 108.756 61.9048 108.846 61.5994C108.937 61.2902 109.079 61.0204 109.268 60.7919C109.457 60.5634 109.697 60.3806 109.983 60.2463C110.268 60.113 110.621 60.0474 111.009 60.0474C111.315 60.0469 111.618 60.1083 111.899 60.2281C112.094 60.3108 112.289 60.4625 112.49 60.6771C112.616 60.8131 112.81 61.1105 112.888 61.4038L112.89 61.4045C113.089 62.1033 112.986 62.7084 112.983 62.7415ZM115.55 65.0916C115.01 65.0916 114.494 65.0068 113.946 64.7174C113.844 64.6581 113.741 64.6053 113.641 64.5324C113.63 64.5169 113.584 64.4986 113.618 64.4107L113.615 64.4091L113.832 63.8064C113.864 63.708 113.957 63.7441 113.977 63.7568C114.035 63.7946 114.08 63.8256 114.158 63.8708C114.796 64.2753 115.388 64.2785 115.574 64.2785C116.051 64.2785 116.348 64.0244 116.348 63.6837V63.6652C116.348 63.2949 115.893 63.1539 115.363 62.9915L115.247 62.9553C114.522 62.7484 113.746 62.449 113.746 61.5312V61.5125C113.746 60.6419 114.449 60.0333 115.456 60.0333L115.566 60.033C116.156 60.033 116.728 60.2043 117.141 60.4564C117.179 60.4788 117.215 60.5224 117.194 60.5802C117.177 60.6352 116.993 61.1271 116.972 61.1828C116.933 61.2857 116.826 61.2169 116.826 61.2169C116.464 61.0177 115.902 60.8604 115.43 60.8604C115.004 60.8604 114.729 61.0868 114.729 61.3942V61.4125C114.729 61.771 115.199 61.9251 115.745 62.1019L115.839 62.1324C116.562 62.3589 117.332 62.676 117.332 63.5465V63.5651C117.332 64.5066 116.649 65.0916 115.55 65.0916ZM120.988 60.891C120.97 60.9846 120.884 60.9813 120.884 60.9813H119.86L119.16 64.9419C119.087 65.3513 118.995 65.7028 118.887 65.9857C118.778 66.2714 118.664 66.4808 118.483 66.6806C118.316 66.866 118.127 67.0029 117.909 67.0815C117.693 67.1595 117.433 67.1997 117.147 67.1997C117.01 67.1997 116.865 67.1972 116.692 67.1563C116.567 67.127 116.499 67.1061 116.408 67.0734C116.369 67.0594 116.338 67.0109 116.36 66.9495C116.382 66.8872 116.565 66.3841 116.59 66.318C116.622 66.2373 116.703 66.268 116.703 66.268C116.758 66.2912 116.796 66.3078 116.87 66.3224C116.944 66.3372 117.044 66.3498 117.119 66.3498C117.254 66.3498 117.378 66.3333 117.485 66.2972C117.615 66.2536 117.69 66.179 117.769 66.0775C117.851 65.9728 117.918 65.8284 117.986 65.6358C118.055 65.4406 118.118 65.183 118.172 64.8699L118.869 60.9813H118.182C118.1 60.9817 118.073 60.9431 118.081 60.8812L118.197 60.2352C118.215 60.1413 118.301 60.1449 118.301 60.1449H119.006L119.044 59.9342C119.15 59.3105 119.36 58.8365 119.669 58.5253C119.98 58.2117 120.422 58.0529 120.984 58.0529C121.126 58.0514 121.267 58.0624 121.407 58.0856C121.51 58.1037 121.613 58.128 121.714 58.1585C121.736 58.1671 121.795 58.1966 121.771 58.2667L121.533 58.919C121.514 58.9681 121.5 58.998 121.399 58.967C121.373 58.9596 121.336 58.9487 121.24 58.9283C121.17 58.9137 121.078 58.9025 120.985 58.9025C120.872 58.9009 120.759 58.9172 120.651 58.9505C120.553 58.9829 120.463 59.0383 120.391 59.1125C120.313 59.1902 120.222 59.3035 120.173 59.4439C120.059 59.7729 120.014 60.1222 120.009 60.1447H121.002C121.085 60.1442 121.112 60.1829 121.104 60.2447L120.988 60.891ZM125.522 63.5543C125.431 63.8596 125.291 64.1275 125.104 64.352C124.917 64.5766 124.679 64.7561 124.399 64.8837C124.119 65.0114 123.788 65.0763 123.416 65.0763C123.044 65.0763 122.713 65.0114 122.431 64.8837C122.152 64.7557 121.914 64.5765 121.726 64.352C121.539 64.1273 121.399 63.8596 121.309 63.5543C121.219 63.251 121.174 62.9201 121.174 62.5675C121.174 62.215 121.219 61.8841 121.309 61.5808C121.399 61.2755 121.539 61.0076 121.726 60.7831C121.913 60.5586 122.152 60.3782 122.431 60.2475C122.713 60.1168 123.042 60.0504 123.416 60.0504C123.79 60.0504 124.121 60.1164 124.401 60.2475C124.682 60.3774 124.919 60.5587 125.106 60.7831C125.293 61.0077 125.433 61.2755 125.524 61.5808H125.522C125.611 61.884 125.656 62.2169 125.656 62.5675C125.656 62.9202 125.611 63.251 125.522 63.5543ZM129.33 60.2948L129.332 60.282C129.302 60.3667 129.151 60.7919 129.097 60.934C129.077 60.988 129.044 61.0246 128.984 61.0179C128.984 61.0179 128.805 60.9762 128.643 60.9762C128.502 60.9762 128.361 60.9959 128.225 61.0349C128.081 61.0798 127.949 61.1589 127.841 61.2653C127.728 61.3757 127.637 61.5295 127.569 61.7223C127.501 61.9172 127.467 62.2265 127.467 62.5377V64.8617C127.467 64.9138 127.425 64.9558 127.373 64.9559H126.557C126.505 64.9558 126.463 64.9138 126.463 64.8617V60.2332C126.463 60.1812 126.5 60.1393 126.552 60.1393H127.348C127.4 60.1393 127.437 60.1812 127.437 60.2332L127.437 60.6114C127.556 60.4498 127.769 60.3102 127.961 60.2234C128.156 60.1359 128.373 60.0701 128.763 60.0946C128.966 60.1072 129.23 60.1629 129.283 60.1831C129.284 60.1834 129.285 60.1838 129.285 60.1841C129.328 60.2025 129.348 60.252 129.33 60.2948ZM133.255 64.8334C132.908 64.9707 132.426 65.0658 131.955 65.0658C131.159 65.0658 130.549 64.8373 130.143 64.3844C129.737 63.9333 129.532 63.3169 129.532 62.5565C129.532 62.2041 129.583 61.8712 129.682 61.5679C129.782 61.2626 129.932 60.9947 130.129 60.7703C130.326 60.5456 130.574 60.3651 130.868 60.2345C131.161 60.1037 131.504 60.0378 131.89 60.0378C132.15 60.0378 132.38 60.0535 132.579 60.0838C132.792 60.116 133.073 60.1921 133.192 60.2387C133.214 60.2472 133.273 60.2767 133.249 60.3466C133.163 60.5908 133.103 60.7503 133.023 60.9728C132.988 61.0676 132.916 61.0362 132.916 61.0362C132.613 60.9413 132.323 60.8974 131.945 60.8974C131.492 60.8974 131.149 61.051 130.927 61.3465C130.701 61.6458 130.576 62.0358 130.574 62.5558C130.572 63.127 130.714 63.5483 130.968 63.8104C131.22 64.0721 131.575 64.2043 132.018 64.2043C132.197 64.2043 132.367 64.1923 132.52 64.1682C132.672 64.1445 132.814 64.0973 132.948 64.0463C132.948 64.0463 133.035 64.0126 133.065 64.1018H133.066L133.292 64.7242C133.321 64.8014 133.255 64.8334 133.255 64.8334ZM137.86 62.7415C137.852 62.8216 137.77 62.8222 137.77 62.8222L134.658 62.8199C134.675 63.2927 134.79 63.6255 135.018 63.8539C135.243 64.0771 135.599 64.2195 136.082 64.2203C136.82 64.2223 137.135 64.073 137.358 63.9899C137.358 63.9899 137.444 63.9591 137.475 64.0441L137.678 64.6133C137.718 64.7093 137.686 64.7425 137.651 64.7619C137.458 64.8701 136.986 65.07 136.088 65.0731C135.652 65.0744 135.272 65.0116 134.959 64.8905C134.644 64.7683 134.382 64.5951 134.177 64.3725C133.972 64.1519 133.82 63.8862 133.726 63.5828C133.633 63.2814 133.585 62.9485 133.585 62.5901C133.585 62.2395 133.631 61.9048 133.722 61.5994C133.812 61.2902 133.954 61.0204 134.143 60.7919C134.332 60.5634 134.572 60.3806 134.858 60.2463C135.144 60.113 135.496 60.0474 135.884 60.0474C136.19 60.0469 136.493 60.1083 136.774 60.2281C136.969 60.3108 137.164 60.4625 137.365 60.6771C137.491 60.8131 137.685 61.1105 137.763 61.4038L137.767 61.4045C137.967 62.1033 137.863 62.7084 137.86 62.7415Z" fill="#00A1E2"/>
<path d="M135.811 60.8701C135.404 60.8701 135.113 61.0296 134.923 61.3211C134.796 61.5121 134.715 61.7582 134.671 62.0534L136.887 62.0538C136.866 61.7681 136.81 61.5132 136.682 61.3211C136.489 61.0304 136.219 60.8701 135.811 60.8701Z" fill="#00A1E2"/>
</g>
<g clip-path="url(#clip1_45_2647)">
<path d="M308.584 65.103C305.872 65.103 303.666 67.3089 303.666 70.0204V82.3086C303.666 85.0201 305.872 87.226 308.584 87.226C311.295 87.2261 313.501 85.0202 313.501 82.3087V70.0204C313.501 67.3089 311.295 65.103 308.584 65.103Z" fill="#FF4340"/>
<path d="M300.912 65.103H296.152C293.527 65.103 291.391 67.2387 291.391 69.8636C291.391 72.4886 293.527 74.6242 296.152 74.6242C298.777 74.6242 300.912 72.4885 300.912 69.8636V65.103Z" fill="#FF4340"/>
<path d="M291.378 57.4315C291.378 60.143 293.584 62.3489 296.296 62.3489H308.584C311.295 62.3489 313.501 60.143 313.501 57.4315C313.501 54.72 311.295 52.5142 308.584 52.5142H296.296C293.584 52.5141 291.378 54.72 291.378 57.4315Z" fill="#36C6FF"/>
<path d="M308.741 49.7604H313.501V44.9998C313.501 42.3748 311.366 40.2393 308.741 40.2393C306.116 40.2393 303.98 42.3749 303.98 44.9998C303.98 47.6248 306.116 49.7604 308.741 49.7604Z" fill="#36C6FF"/>
<path d="M321.173 62.3491C323.884 62.3491 326.09 60.1432 326.09 57.4317V45.1434C326.09 42.432 323.884 40.2261 321.173 40.2261C318.461 40.2261 316.255 42.432 316.255 45.1434V57.4317C316.255 60.1432 318.461 62.3491 321.173 62.3491Z" fill="#0DC46E"/>
<path d="M328.844 62.3493H333.604C336.229 62.3493 338.365 60.2136 338.365 57.5887C338.365 54.9637 336.229 52.8281 333.604 52.8281C330.98 52.8281 328.844 54.9638 328.844 57.5887V62.3493Z" fill="#0DC46E"/>
<path d="M338.378 70.0204C338.378 67.3089 336.172 65.103 333.461 65.103H321.173C318.461 65.103 316.255 67.3089 316.255 70.0204C316.255 72.7319 318.461 74.9378 321.173 74.9378H333.461C336.172 74.9379 338.378 72.7319 338.378 70.0204Z" fill="#FDCB02"/>
<path d="M321.016 77.6919H316.255V82.4525C316.255 85.0775 318.391 87.2131 321.016 87.2131C323.641 87.2131 325.776 85.0774 325.776 82.4525C325.776 79.8276 323.641 77.6919 321.016 77.6919Z" fill="#FDCB02"/>
</g>
<g clip-path="url(#clip2_45_2647)">
<path d="M399.324 68.6286L397.688 74.736L391.708 74.8625C389.921 71.548 388.907 67.7558 388.907 63.7259C388.907 59.829 389.855 56.1542 391.535 52.9185H391.536L396.86 53.8944L399.192 59.186C398.704 60.6089 398.438 62.1364 398.438 63.7259C398.438 65.4509 398.75 67.1037 399.324 68.6286Z" fill="#FBBB00"/>
<path d="M435.497 59.3359C435.767 60.7575 435.907 62.2256 435.907 63.726C435.907 65.4085 435.731 67.0496 435.394 68.6327C434.25 74.0196 431.26 78.7234 427.12 82.0522L427.118 82.0509L420.413 81.7088L419.464 75.7847C422.212 74.1733 424.359 71.6515 425.49 68.6327H412.924V59.3359H425.673H435.497Z" fill="#518EF8"/>
<path d="M427.118 82.051L427.12 82.0523C423.092 85.2893 417.976 87.2261 412.407 87.2261C403.458 87.2261 395.677 82.224 391.708 74.8628L399.324 68.6289C401.308 73.9254 406.418 77.6958 412.407 77.6958C414.982 77.6958 417.394 76.9998 419.464 75.7847L427.118 82.051Z" fill="#28B446"/>
<path d="M427.407 45.6362L419.794 51.8689C417.652 50.5299 415.12 49.7564 412.407 49.7564C406.282 49.7564 401.077 53.6997 399.192 59.1862L391.536 52.9186H391.535C395.446 45.378 403.325 40.2261 412.407 40.2261C418.109 40.2261 423.338 42.2572 427.407 45.6362Z" fill="#F14336"/>
</g>
<g clip-path="url(#clip3_45_2647)">
<path d="M506.7 43.9366L531.437 40.2261V62.2419H506.7V43.9366Z" fill="#90C300"/>
<path d="M484.437 47.1522L503.402 44.3486V62.489H484.437V47.1522Z" fill="#F8672C"/>
<path d="M506.7 83.5157L531.437 87.2262V65.7876H506.7V83.5157Z" fill="#FFC400"/>
<path d="M484.437 80.2999L503.402 83.1034V65.7876H484.437V80.2999Z" fill="#00B4F2"/>
</g>
<g clip-path="url(#clip4_45_2647)">
<path d="M235.77 87.2261H198.927C196.123 87.2261 193.849 84.9523 193.849 82.1475V45.3047C193.849 42.4999 196.123 40.2261 198.927 40.2261H235.77C238.575 40.2261 240.849 42.4999 240.849 45.3047V82.1474C240.849 84.9523 238.575 87.2261 235.77 87.2261Z" fill="#FE7A57"/>
<path d="M235.77 87.2261H198.927C196.123 87.2261 193.849 84.9523 193.849 82.1475V45.3047C193.849 42.4999 196.123 40.2261 198.927 40.2261H235.77C238.575 40.2261 240.849 42.4999 240.849 45.3047V82.1474C240.849 84.9523 238.575 87.2261 235.77 87.2261Z" fill="#FE7A57"/>
<path d="M225.588 58.2874V54.4829C226.616 54.0028 227.275 52.9729 227.28 51.8385V51.7495C227.275 50.1326 225.966 48.8229 224.349 48.8186H224.26C222.643 48.8229 221.333 50.1327 221.329 51.7495V51.8385C221.334 52.9729 221.993 54.0028 223.021 54.4829V58.2953C221.573 58.5168 220.209 59.1167 219.068 60.0346L208.605 51.886C209.08 50.1048 208.022 48.2752 206.241 47.7994C204.46 47.3237 202.63 48.3819 202.155 50.1631C201.679 51.9443 202.737 53.7738 204.518 54.2495C205.37 54.477 206.277 54.3584 207.041 53.9195L217.329 61.9279C215.432 64.7888 215.483 68.5196 217.457 71.3276L214.326 74.4582C214.075 74.3782 213.813 74.3355 213.55 74.3317C212.049 74.3317 210.832 75.5484 210.832 77.0492C210.832 78.55 212.049 79.7667 213.55 79.7667C215.051 79.7667 216.267 78.5499 216.267 77.0492C216.264 76.7855 216.221 76.5237 216.141 76.2725L219.238 73.1755C222.903 75.9748 228.143 75.2731 230.942 71.6082C233.741 67.9433 233.04 62.7029 229.375 59.9037C228.266 59.0563 226.961 58.5005 225.582 58.2874M224.299 70.8218C221.933 70.8163 220.019 68.8936 220.024 66.5271C220.03 64.1607 221.952 62.2468 224.319 62.2522C226.682 62.2576 228.595 64.1757 228.594 66.539C228.594 68.9054 226.676 70.8238 224.309 70.8238" fill="white"/>
</g>
<line opacity="0.14" x1="165.32" y1="42.6758" x2="165.32" y2="85.3247" stroke="black"/>
<line opacity="0.14" x1="265.32" y1="42.6758" x2="265.32" y2="85.3247" stroke="black"/>
<line opacity="0.14" x1="365.32" y1="42.6758" x2="365.32" y2="85.3247" stroke="black"/>
<line opacity="0.14" x1="462.32" y1="42.6758" x2="462.32" y2="85.3247" stroke="black"/>
</g>
<defs>
<filter id="filter0_dddddd_45_2647" x="0.981009" y="0.303576" width="616.421" height="206.421" filterUnits="userSpaceOnUse" color-interpolation-filters="sRGB">
<feFlood flood-opacity="0" result="BackgroundImageFix"/>
<feColorMatrix in="SourceAlpha" type="matrix" values="0 0 0 0 0 0 0 0 0 0 0 0 0 0 0 0 0 0 127 0" result="hardAlpha"/>
<feMorphology radius="4.93928" operator="erode" in="SourceAlpha" result="effect1_dropShadow_45_2647"/>
<feOffset dy="6.17411"/>
<feGaussianBlur stdDeviation="0.926116"/>
<feComposite in2="hardAlpha" operator="out"/>
<feColorMatrix type="matrix" values="0 0 0 0 0.0313726 0 0 0 0 0.0313726 0 0 0 0 0.0313726 0 0 0 0.05 0"/>
<feBlend mode="normal" in2="BackgroundImageFix" result="effect1_dropShadow_45_2647"/>
<feColorMatrix in="SourceAlpha" type="matrix" values="0 0 0 0 0 0 0 0 0 0 0 0 0 0 0 0 0 0 127 0" result="hardAlpha"/>
<feMorphology radius="4.93928" operator="erode" in="SourceAlpha" result="effect2_dropShadow_45_2647"/>
<feOffset dy="7.40893"/>
<feGaussianBlur stdDeviation="2.46964"/>
<feComposite in2="hardAlpha" operator="out"/>
<feColorMatrix type="matrix" values="0 0 0 0 0.0313726 0 0 0 0 0.0313726 0 0 0 0 0.0313726 0 0 0 0.05 0"/>
<feBlend mode="normal" in2="effect1_dropShadow_45_2647" result="effect2_dropShadow_45_2647"/>
<feColorMatrix in="SourceAlpha" type="matrix" values="0 0 0 0 0 0 0 0 0 0 0 0 0 0 0 0 0 0 127 0" result="hardAlpha"/>
<feOffset dy="7.40893"/>
<feGaussianBlur stdDeviation="8.02634"/>
<feComposite in2="hardAlpha" operator="out"/>
<feColorMatrix type="matrix" values="0 0 0 0 0.0313726 0 0 0 0 0.0313726 0 0 0 0 0.0313726 0 0 0 0.03 0"/>
<feBlend mode="normal" in2="effect2_dropShadow_45_2647" result="effect3_dropShadow_45_2647"/>
<feColorMatrix in="SourceAlpha" type="matrix" values="0 0 0 0 0 0 0 0 0 0 0 0 0 0 0 0 0 0 127 0" result="hardAlpha"/>
<feMorphology radius="19.7571" operator="erode" in="SourceAlpha" result="effect4_dropShadow_45_2647"/>
<feOffset dy="29.6357"/>
<feGaussianBlur stdDeviation="14.8179"/>
<feComposite in2="hardAlpha" operator="out"/>
<feColorMatrix type="matrix" values="0 0 0 0 0.0313726 0 0 0 0 0.0313726 0 0 0 0 0.0313726 0 0 0 0.04 0"/>
<feBlend mode="normal" in2="effect3_dropShadow_45_2647" result="effect4_dropShadow_45_2647"/>
<feColorMatrix in="SourceAlpha" type="matrix" values="0 0 0 0 0 0 0 0 0 0 0 0 0 0 0 0 0 0 127 0" result="hardAlpha"/>
<feMorphology radius="2.46964" operator="erode" in="SourceAlpha" result="effect5_dropShadow_45_2647"/>
<feOffset dy="2.65487"/>
<feGaussianBlur stdDeviation="0.308705"/>
<feComposite in2="hardAlpha" operator="out"/>
<feColorMatrix type="matrix" values="0 0 0 0 0 0 0 0 0 0 0 0 0 0 0 0 0 0 0.25 0"/>
<feBlend mode="normal" in2="effect4_dropShadow_45_2647" result="effect5_dropShadow_45_2647"/>
<feColorMatrix in="SourceAlpha" type="matrix" values="0 0 0 0 0 0 0 0 0 0 0 0 0 0 0 0 0 0 127 0" result="hardAlpha"/>
<feMorphology radius="14.8179" operator="erode" in="SourceAlpha" result="effect6_dropShadow_45_2647"/>
<feOffset dy="39.5143"/>
<feGaussianBlur stdDeviation="39.5143"/>
<feComposite in2="hardAlpha" operator="out"/>
<feColorMatrix type="matrix" values="0 0 0 0 0 0 0 0 0 0 0 0 0 0 0 0 0 0 0.075 0"/>
<feBlend mode="multiply" in2="effect5_dropShadow_45_2647" result="effect6_dropShadow_45_2647"/>
<feBlend mode="normal" in="SourceGraphic" in2="effect6_dropShadow_45_2647" result="shape"/>
</filter>
<linearGradient id="paint0_linear_45_2647" x1="309.192" y1="25" x2="309.192" y2="103" gradientUnits="userSpaceOnUse">
<stop stop-color="#F6F6F6"/>
<stop offset="1" stop-color="#E6E6E6"/>
</linearGradient>
<clipPath id="clip0_45_2647">
<rect width="53.5994" height="53.5994" fill="white" transform="translate(89.7202 36.9263)"/>
</clipPath>
<clipPath id="clip1_45_2647">
<rect width="47" height="47" fill="white" transform="translate(291.378 40.2261)"/>
</clipPath>
<clipPath id="clip2_45_2647">
<rect width="47" height="47" fill="white" transform="translate(388.907 40.2261)"/>
</clipPath>
<clipPath id="clip3_45_2647">
<rect width="47" height="47" fill="white" transform="translate(484.437 40.2261)"/>
</clipPath>
<clipPath id="clip4_45_2647">
<rect width="47" height="47" fill="white" transform="translate(193.849 40.2261)"/>
</clipPath>
</defs>
</svg>
