<svg width="216" height="51" viewBox="0 0 216 51" fill="none" xmlns="http://www.w3.org/2000/svg">
<circle cx="30.9141" cy="25.6758" r="14.4212" fill="white"/>
<path d="M30.9141 6.45703C27.113 6.45703 23.3972 7.58419 20.2367 9.69597C17.0762 11.8078 14.6129 14.8093 13.1583 18.3211C11.7036 21.8329 11.323 25.6971 12.0646 29.4252C12.8062 33.1532 14.6366 36.5777 17.3244 39.2655C20.0122 41.9533 23.4366 43.7837 27.1647 44.5252C30.8928 45.2668 34.757 44.8862 38.2688 43.4316C41.7805 41.977 44.7821 39.5137 46.8939 36.3531C49.0057 33.1926 50.1328 29.4769 50.1328 25.6758C50.1328 20.5787 48.108 15.6903 44.5038 12.0861C40.8996 8.48186 36.0112 6.45703 30.9141 6.45703ZM31.7379 18.2625C33.4849 18.2645 35.1598 18.9594 36.3951 20.1947C37.6305 21.4301 38.3253 23.1049 38.3274 24.8519H36.6797C36.6783 23.5417 36.1573 22.2855 35.2308 21.3591C34.3043 20.4326 33.0481 19.9115 31.7379 19.9102V18.2625ZM37.0743 37.207C37.0244 37.207 32.0774 37.1225 25.716 30.8738C19.4674 24.515 19.3828 19.5655 19.3828 19.5155C19.3828 18.8993 23.2266 14.1445 24.076 14.1445C24.3707 14.1445 24.6001 14.3444 24.8512 14.6442C25.4559 15.3643 28.1299 19.5847 28.0069 20.2881C27.948 20.6187 27.6674 20.8698 26.8628 21.545C26.4663 21.8567 26.0953 22.1995 25.7532 22.57C25.917 23.2481 26.1604 23.9044 26.4784 24.5252C27.6629 26.9608 29.6311 28.928 32.0672 30.1115C32.6881 30.4294 33.3444 30.6728 34.0224 30.8367C34.393 30.4946 34.7357 30.1236 35.0474 29.7271C35.7226 28.9225 35.9737 28.6419 36.3043 28.5829C37.0077 28.4548 41.2281 31.1339 41.9482 31.7387C42.248 31.9949 42.4479 32.2191 42.4479 32.5138C42.4453 33.3633 37.6906 37.207 37.0743 37.207ZM40.7976 24.8519C40.7949 22.45 39.8395 20.1472 38.1411 18.4487C36.4427 16.7503 34.1399 15.7949 31.7379 15.7922V14.1445C34.5767 14.1479 37.2982 15.2771 39.3055 17.2844C41.3127 19.2917 42.4419 22.0132 42.4453 24.8519H40.7976Z" fill="url(#paint0_linear_45_594)"/>
<path d="M82.0056 22.2345H77.1119C77.0225 21.6014 76.8401 21.039 76.5645 20.5474C76.2889 20.0484 75.9351 19.6238 75.503 19.2737C75.071 18.9236 74.572 18.6555 74.0059 18.4693C73.4472 18.2831 72.8402 18.19 72.1847 18.19C71.0004 18.19 69.9688 18.4842 69.0898 19.0726C68.2109 19.6536 67.5293 20.5027 67.0452 21.62C66.561 22.7299 66.3189 24.0781 66.3189 25.6646C66.3189 27.2958 66.561 28.6664 67.0452 29.7762C67.5368 30.8861 68.2221 31.724 69.101 32.2901C69.9799 32.8562 70.9967 33.1393 72.1512 33.1393C72.7992 33.1393 73.3988 33.0536 73.95 32.8823C74.5087 32.711 75.004 32.4614 75.436 32.1337C75.868 31.7985 76.2256 31.3926 76.5086 30.9159C76.7991 30.4391 77.0002 29.8954 77.1119 29.2846L82.0056 29.307C81.879 30.3572 81.5625 31.3702 81.056 32.346C80.5569 33.3143 79.8828 34.1821 79.0337 34.9493C78.192 35.709 77.1864 36.3123 76.017 36.7593C74.855 37.1987 73.5403 37.4185 72.073 37.4185C70.0321 37.4185 68.2072 36.9566 66.5983 36.033C64.9968 35.1094 63.7306 33.7724 62.7995 32.022C61.8759 30.2716 61.4141 28.1524 61.4141 25.6646C61.4141 23.1693 61.8833 21.0465 62.8218 19.2961C63.7604 17.5457 65.0341 16.2124 66.643 15.2962C68.2519 14.3726 70.0619 13.9108 72.073 13.9108C73.3988 13.9108 74.6278 14.097 75.76 14.4694C76.8996 14.8418 77.9089 15.3856 78.7879 16.1006C79.6668 16.8083 80.3819 17.676 80.9331 18.7039C81.4917 19.7318 81.8492 20.9087 82.0056 22.2345Z" fill="white"/>
<path d="M90.2792 37.4296C89.1842 37.4296 88.2084 37.2397 87.3519 36.8598C86.4953 36.4725 85.8175 35.9027 85.3184 35.1504C84.8268 34.3906 84.581 33.4446 84.581 32.3125C84.581 31.359 84.756 30.5583 85.1061 29.9103C85.4562 29.2623 85.9329 28.7409 86.5362 28.3461C87.1396 27.9513 87.8248 27.6534 88.592 27.4523C89.3667 27.2512 90.1786 27.1096 91.0277 27.0277C92.0258 26.9234 92.8303 26.8266 93.4411 26.7372C94.0519 26.6404 94.495 26.4988 94.7706 26.3126C95.0462 26.1264 95.184 25.8508 95.184 25.4858V25.4188C95.184 24.7112 94.9606 24.1637 94.5137 23.7764C94.0742 23.3891 93.4485 23.1954 92.6366 23.1954C91.78 23.1954 91.0985 23.3853 90.592 23.7652C90.0855 24.1377 89.7503 24.6069 89.5864 25.173L85.1843 24.8155C85.4078 23.7727 85.8472 22.8714 86.5027 22.1116C87.1582 21.3444 88.0036 20.756 89.039 20.3463C90.0818 19.9292 91.2884 19.7206 92.659 19.7206C93.6124 19.7206 94.5248 19.8324 95.3963 20.0558C96.2753 20.2793 97.0536 20.6256 97.7314 21.0949C98.4167 21.5642 98.9567 22.1675 99.3515 22.9049C99.7463 23.6349 99.9437 24.5101 99.9437 25.5305V37.1056H95.4298V34.7258H95.2958C95.0202 35.2621 94.6515 35.7351 94.1897 36.1448C93.7278 36.547 93.1729 36.8635 92.5249 37.0944C91.8769 37.3179 91.1283 37.4296 90.2792 37.4296ZM91.6422 34.1448C92.3424 34.1448 92.9606 34.007 93.4969 33.7314C94.0332 33.4484 94.4541 33.0685 94.7595 32.5918C95.0649 32.1151 95.2176 31.5751 95.2176 30.9717V29.1505C95.0686 29.2474 94.8638 29.3368 94.6031 29.4187C94.3498 29.4932 94.063 29.5639 93.7427 29.631C93.4224 29.6906 93.1022 29.7464 92.7819 29.7986C92.4616 29.8433 92.1711 29.8842 91.9104 29.9215C91.3517 30.0034 90.8639 30.1338 90.4467 30.3125C90.0296 30.4913 89.7056 30.7334 89.4747 31.0388C89.2438 31.3367 89.1283 31.7091 89.1283 32.156C89.1283 32.8041 89.363 33.2994 89.8322 33.642C90.3089 33.9772 90.9123 34.1448 91.6422 34.1448Z" fill="white"/>
<path d="M108.396 14.2236V37.1056H103.636V14.2236H108.396Z" fill="white"/>
<path d="M116.968 14.2236V37.1056H112.209V14.2236H116.968Z" fill="white"/>
<path d="M120.87 37.1056V14.2236H130.032C131.716 14.2236 133.12 14.4731 134.244 14.9722C135.369 15.4712 136.215 16.164 136.781 17.0503C137.347 17.9293 137.63 18.9423 137.63 20.0894C137.63 20.9832 137.451 21.769 137.093 22.4468C136.736 23.1172 136.244 23.6684 135.619 24.1004C135 24.525 134.293 24.8266 133.496 25.0054V25.2289C134.367 25.2661 135.183 25.5119 135.943 25.9663C136.71 26.4206 137.332 27.0575 137.809 27.8768C138.285 28.6887 138.524 29.657 138.524 30.7818C138.524 31.9959 138.222 33.0797 137.619 34.0331C137.023 34.979 136.14 35.7276 134.971 36.2788C133.801 36.83 132.36 37.1056 130.647 37.1056H120.87ZM125.708 33.1504H129.652C131.001 33.1504 131.984 32.8934 132.602 32.3795C133.22 31.8581 133.529 31.1654 133.529 30.3013C133.529 29.6682 133.377 29.1096 133.071 28.6254C132.766 28.1413 132.33 27.7614 131.764 27.4858C131.205 27.2102 130.539 27.0724 129.764 27.0724H125.708V33.1504ZM125.708 23.7987H129.295C129.958 23.7987 130.546 23.6833 131.06 23.4524C131.581 23.214 131.991 22.8788 132.289 22.4468C132.594 22.0148 132.747 21.4971 132.747 20.8938C132.747 20.067 132.453 19.4004 131.865 18.8939C131.284 18.3874 130.457 18.1341 129.384 18.1341H125.708V23.7987Z" fill="white"/>
<path d="M149.403 37.4408C147.638 37.4408 146.118 37.0833 144.845 36.3682C143.578 35.6457 142.603 34.6252 141.917 33.3068C141.232 31.981 140.889 30.4131 140.889 28.6031C140.889 26.8378 141.232 25.2885 141.917 23.9552C142.603 22.6219 143.567 21.5828 144.811 20.8379C146.062 20.0931 147.53 19.7206 149.213 19.7206C150.345 19.7206 151.399 19.9031 152.375 20.2681C153.358 20.6256 154.215 21.1657 154.945 21.8882C155.682 22.6107 156.256 23.5194 156.666 24.6144C157.075 25.7019 157.28 26.9756 157.28 28.4355V29.7427H142.789V26.7931H152.8C152.8 26.1078 152.651 25.5007 152.353 24.9719C152.055 24.443 151.641 24.0296 151.113 23.7317C150.591 23.4263 149.984 23.2736 149.291 23.2736C148.569 23.2736 147.928 23.4412 147.37 23.7764C146.818 24.1041 146.386 24.5473 146.074 25.106C145.761 25.6572 145.601 26.2717 145.593 26.9495V29.7539C145.593 30.603 145.75 31.3367 146.062 31.9549C146.383 32.5732 146.833 33.0499 147.414 33.3851C147.995 33.7202 148.684 33.8878 149.481 33.8878C150.01 33.8878 150.494 33.8133 150.934 33.6644C151.373 33.5154 151.749 33.2919 152.062 32.994C152.375 32.6961 152.613 32.3311 152.777 31.8991L157.179 32.1896C156.956 33.2473 156.498 34.1709 155.805 34.9604C155.12 35.7425 154.234 36.3533 153.146 36.7928C152.066 37.2248 150.818 37.4408 149.403 37.4408Z" fill="white"/>
<path d="M165.28 37.4296C164.185 37.4296 163.209 37.2397 162.352 36.8598C161.496 36.4725 160.818 35.9027 160.319 35.1504C159.827 34.3906 159.582 33.4446 159.582 32.3125C159.582 31.359 159.757 30.5583 160.107 29.9103C160.457 29.2623 160.934 28.7409 161.537 28.3461C162.14 27.9513 162.825 27.6534 163.593 27.4523C164.367 27.2512 165.179 27.1096 166.028 27.0277C167.026 26.9234 167.831 26.8266 168.442 26.7372C169.052 26.6404 169.496 26.4988 169.771 26.3126C170.047 26.1264 170.185 25.8508 170.185 25.4858V25.4188C170.185 24.7112 169.961 24.1637 169.514 23.7764C169.075 23.3891 168.449 23.1954 167.637 23.1954C166.781 23.1954 166.099 23.3853 165.593 23.7652C165.086 24.1377 164.751 24.6069 164.587 25.173L160.185 24.8155C160.408 23.7727 160.848 22.8714 161.503 22.1116C162.159 21.3444 163.004 20.756 164.04 20.3463C165.082 19.9292 166.289 19.7206 167.66 19.7206C168.613 19.7206 169.525 19.8324 170.397 20.0558C171.276 20.2793 172.054 20.6256 172.732 21.0949C173.417 21.5642 173.957 22.1675 174.352 22.9049C174.747 23.6349 174.944 24.5101 174.944 25.5305V37.1056H170.43V34.7258H170.296C170.021 35.2621 169.652 35.7351 169.19 36.1448C168.728 36.547 168.174 36.8635 167.526 37.0944C166.878 37.3179 166.129 37.4296 165.28 37.4296ZM166.643 34.1448C167.343 34.1448 167.961 34.007 168.498 33.7314C169.034 33.4484 169.455 33.0685 169.76 32.5918C170.065 32.1151 170.218 31.5751 170.218 30.9717V29.1505C170.069 29.2474 169.864 29.3368 169.604 29.4187C169.35 29.4932 169.064 29.5639 168.743 29.631C168.423 29.6906 168.103 29.7464 167.783 29.7986C167.462 29.8433 167.172 29.8842 166.911 29.9215C166.352 30.0034 165.864 30.1338 165.447 30.3125C165.03 30.4913 164.706 30.7334 164.475 31.0388C164.244 31.3367 164.129 31.7091 164.129 32.156C164.129 32.8041 164.364 33.2994 164.833 33.642C165.31 33.9772 165.913 34.1448 166.643 34.1448Z" fill="white"/>
<path d="M192.916 24.8378L188.558 25.106C188.484 24.7335 188.324 24.3984 188.078 24.1004C187.832 23.795 187.508 23.5529 187.106 23.3742C186.711 23.188 186.238 23.0949 185.687 23.0949C184.95 23.0949 184.328 23.2513 183.821 23.5641C183.315 23.8695 183.061 24.2792 183.061 24.7931C183.061 25.2028 183.225 25.5492 183.553 25.8322C183.881 26.1152 184.443 26.3424 185.24 26.5137L188.346 27.1394C190.015 27.4821 191.259 28.0333 192.078 28.793C192.897 29.5528 193.307 30.5509 193.307 31.7873C193.307 32.9121 192.975 33.899 192.313 34.7481C191.657 35.5973 190.756 36.2602 189.609 36.7369C188.469 37.2062 187.154 37.4408 185.665 37.4408C183.393 37.4408 181.583 36.9678 180.235 36.0219C178.894 35.0684 178.108 33.7724 177.877 32.1337L182.559 31.8879C182.7 32.5806 183.043 33.1095 183.587 33.4744C184.13 33.832 184.827 34.0107 185.676 34.0107C186.51 34.0107 187.18 33.8506 187.687 33.5303C188.201 33.2026 188.462 32.7817 188.469 32.2678C188.462 31.8358 188.279 31.4819 187.922 31.2063C187.564 30.9233 187.013 30.7073 186.268 30.5583L183.296 29.9662C181.62 29.631 180.372 29.05 179.553 28.2232C178.741 27.3964 178.335 26.3424 178.335 25.0613C178.335 23.9589 178.633 23.0092 179.229 22.2122C179.832 21.4152 180.678 20.8007 181.765 20.3687C182.86 19.9367 184.141 19.7206 185.609 19.7206C187.776 19.7206 189.482 20.1787 190.726 21.0949C191.977 22.0111 192.707 23.2587 192.916 24.8378Z" fill="white"/>
<path d="M205.432 19.9441V23.5194H195.097V19.9441H205.432ZM197.444 15.8325H202.203V31.832C202.203 32.2715 202.27 32.6141 202.404 32.8599C202.538 33.0983 202.725 33.2659 202.963 33.3627C203.209 33.4595 203.492 33.508 203.812 33.508C204.036 33.508 204.259 33.4893 204.483 33.4521C204.706 33.4074 204.877 33.3739 204.997 33.3515L205.745 36.8933C205.507 36.9678 205.172 37.0535 204.74 37.1503C204.308 37.2546 203.782 37.3179 203.164 37.3402C202.017 37.3849 201.012 37.2322 200.147 36.8822C199.291 36.5321 198.624 35.9883 198.148 35.2509C197.671 34.5135 197.436 33.5824 197.444 32.4577V15.8325Z" fill="white"/>
<defs>
<linearGradient id="paint0_linear_45_594" x1="76.8768" y1="76.0221" x2="10.3388" y2="70.7012" gradientUnits="userSpaceOnUse">
<stop stop-color="#779DFF"/>
<stop offset="1" stop-color="#2563EB"/>
</linearGradient>
</defs>
</svg>
