<svg width="216" height="51" viewBox="0 0 216 51" fill="none" xmlns="http://www.w3.org/2000/svg">
<circle cx="21.7619" cy="25.4416" r="15.2532" fill="white"/>
<path d="M21.7619 5.11475C17.7415 5.11475 13.8113 6.30694 10.4685 8.54055C7.12565 10.7742 4.52022 13.9489 2.98168 17.6633C1.44313 21.3776 1.04058 25.4648 1.82492 29.408C2.60927 33.3511 4.54528 36.9732 7.38813 39.816C10.231 42.6589 13.853 44.5949 17.7962 45.3792C21.7393 46.1636 25.8265 45.761 29.5409 44.2225C33.2553 42.6839 36.43 40.0785 38.6636 36.7357C40.8972 33.3928 42.0894 29.4627 42.0894 25.4423C42.0894 20.0511 39.9478 14.8807 36.1356 11.0685C32.3235 7.25639 27.1531 5.11475 21.7619 5.11475ZM22.6332 17.6013C24.481 17.6034 26.2526 18.3384 27.5591 19.645C28.8657 20.9516 29.6007 22.7231 29.6029 24.5709H27.8601C27.8587 23.1851 27.3075 21.8564 26.3276 20.8765C25.3477 19.8966 24.0191 19.3455 22.6332 19.344V17.6013ZM28.2775 37.6388C28.2247 37.6388 22.9924 37.5494 16.264 30.9402C9.65479 24.2145 9.56535 18.9795 9.56535 18.9266C9.56535 18.2748 13.6309 13.2458 14.5293 13.2458C14.841 13.2458 15.0836 13.4572 15.3492 13.7743C15.9889 14.5359 18.8171 18.9998 18.687 19.7438C18.6247 20.0934 18.3279 20.359 17.4768 21.0732C17.0575 21.4029 16.6651 21.7654 16.3033 22.1574C16.4765 22.8745 16.734 23.5687 17.0703 24.2253C18.3232 26.8014 20.4049 28.8822 22.9815 30.1339C23.6382 30.4702 24.3324 30.7276 25.0495 30.9009C25.4415 30.5391 25.804 30.1467 26.1336 29.7273C26.8478 28.8763 27.1134 28.5795 27.4631 28.5172C28.2071 28.3816 32.671 31.2153 33.4326 31.8549C33.7497 32.126 33.9611 32.3631 33.9611 32.6748C33.9584 33.5733 28.9294 37.6388 28.2775 37.6388ZM32.2156 24.5709C32.2128 22.0304 31.2023 19.5947 29.4059 17.7983C27.6094 16.0019 25.1738 14.9914 22.6332 14.9885V13.2458C25.6358 13.2493 28.5143 14.4437 30.6374 16.5668C32.7605 18.6899 33.9548 21.5684 33.9584 24.5709H32.2156Z" fill="url(#paint0_linear_45_1656)"/>
<path d="M76.7763 21.572H71.2733C71.1728 20.86 70.9676 20.2276 70.6577 19.6748C70.3478 19.1136 69.95 18.6362 69.4641 18.2426C68.9783 17.8489 68.4172 17.5474 67.7806 17.338C67.1524 17.1286 66.4698 17.0239 65.7327 17.0239C64.4009 17.0239 63.2409 17.3547 62.2525 18.0164C61.2642 18.6697 60.4978 19.6246 59.9533 20.881C59.4089 22.129 59.1367 23.645 59.1367 25.4291C59.1367 27.2634 59.4089 28.8045 59.9533 30.0526C60.5061 31.3006 61.2767 32.2428 62.2651 32.8794C63.2534 33.516 64.3967 33.8343 65.695 33.8343C66.4237 33.8343 67.098 33.7379 67.7178 33.5453C68.346 33.3527 68.903 33.0721 69.3888 32.7035C69.8746 32.3266 70.2766 31.8701 70.5949 31.3341C70.9216 30.798 71.1477 30.1866 71.2733 29.4997L76.7763 29.5249C76.6339 30.7059 76.2779 31.845 75.7084 32.9422C75.1472 34.0311 74.3892 35.0069 73.4343 35.8696C72.4878 36.7239 71.3571 37.4024 70.0421 37.9049C68.7354 38.3991 67.2571 38.6462 65.6071 38.6462C63.3121 38.6462 61.26 38.1269 59.4508 37.0883C57.65 36.0497 56.2261 34.5462 55.1791 32.5779C54.1405 30.6096 53.6212 28.2266 53.6212 25.4291C53.6212 22.6231 54.1488 20.236 55.2042 18.2677C56.2596 16.2993 57.6918 14.8001 59.501 13.7698C61.3102 12.7312 63.3456 12.2119 65.6071 12.2119C67.098 12.2119 68.48 12.4213 69.7531 12.8401C71.0346 13.2589 72.1696 13.8703 73.1579 14.6744C74.1463 15.4701 74.9504 16.4459 75.5702 17.6018C76.1984 18.7577 76.6004 20.0811 76.7763 21.572Z" fill="#393939"/>
<path d="M86.0798 38.6588C84.8486 38.6588 83.7513 38.4452 82.7881 38.018C81.8249 37.5825 81.0627 36.9417 80.5015 36.0958C79.9487 35.2414 79.6723 34.1777 79.6723 32.9045C79.6723 31.8324 79.8691 30.932 80.2628 30.2033C80.6564 29.4746 81.1925 28.8883 81.8709 28.4444C82.5494 28.0005 83.32 27.6654 84.1827 27.4393C85.0538 27.2131 85.9667 27.054 86.9216 26.9619C88.044 26.8446 88.9486 26.7357 89.6354 26.6352C90.3222 26.5263 90.8206 26.3672 91.1305 26.1578C91.4404 25.9484 91.5953 25.6385 91.5953 25.228V25.1527C91.5953 24.357 91.3441 23.7413 90.8415 23.3058C90.3473 22.8702 89.6438 22.6525 88.7308 22.6525C87.7676 22.6525 87.0012 22.866 86.4316 23.2932C85.862 23.712 85.4851 24.2397 85.3009 24.8763L80.3507 24.4742C80.602 23.3016 81.0962 22.2881 81.8332 21.4338C82.5703 20.571 83.521 19.9094 84.6852 19.4487C85.8579 18.9796 87.2147 18.7451 88.7559 18.7451C89.828 18.7451 90.8541 18.8707 91.8341 19.122C92.8224 19.3733 93.6977 19.7628 94.4599 20.2905C95.2305 20.8181 95.8377 21.4966 96.2816 22.3258C96.7256 23.1466 96.9475 24.1308 96.9475 25.2783V38.2944H91.8717V35.6183H91.721C91.4111 36.2214 90.9965 36.7533 90.4772 37.2139C89.9579 37.6662 89.3339 38.0222 88.6051 38.2819C87.8764 38.5331 87.0347 38.6588 86.0798 38.6588ZM87.6126 34.965C88.3999 34.965 89.0951 34.8101 89.6982 34.5002C90.3013 34.1819 90.7745 33.7547 91.1179 33.2186C91.4613 32.6826 91.633 32.0753 91.633 31.3969V29.349C91.4655 29.4579 91.2352 29.5584 90.942 29.6505C90.6572 29.7343 90.3348 29.8138 89.9746 29.8892C89.6144 29.9562 89.2543 30.0191 88.8941 30.0777C88.534 30.1279 88.2073 30.174 87.9141 30.2159C87.2859 30.308 86.7373 30.4546 86.2683 30.6556C85.7992 30.8566 85.4349 31.1289 85.1752 31.4723C84.9156 31.8073 84.7857 32.2261 84.7857 32.7286C84.7857 33.4574 85.0496 34.0143 85.5773 34.3996C86.1133 34.7766 86.7918 34.965 87.6126 34.965Z" fill="#393939"/>
<path d="M106.452 12.5637V38.2944H101.1V12.5637H106.452Z" fill="#393939"/>
<path d="M116.092 12.5637V38.2944H110.739V12.5637H116.092Z" fill="#393939"/>
<path d="M120.48 38.2944V12.5637H130.782C132.675 12.5637 134.254 12.8443 135.519 13.4055C136.783 13.9667 137.734 14.7456 138.37 15.7424C139.007 16.7307 139.325 17.8698 139.325 19.1597C139.325 20.1648 139.124 21.0485 138.722 21.8107C138.32 22.5645 137.767 23.1843 137.064 23.6701C136.369 24.1476 135.573 24.4868 134.677 24.6878V24.9391C135.657 24.981 136.574 25.2574 137.428 25.7683C138.291 26.2792 138.99 26.9954 139.526 27.9167C140.062 28.8297 140.33 29.9185 140.33 31.1833C140.33 32.5486 139.991 33.7673 139.313 34.8394C138.643 35.9031 137.65 36.7449 136.335 37.3647C135.02 37.9845 133.399 38.2944 131.473 38.2944H120.48ZM125.92 33.8468H130.355C131.871 33.8468 132.976 33.5579 133.672 32.9799C134.367 32.3936 134.714 31.6147 134.714 30.6431C134.714 29.9311 134.543 29.3029 134.199 28.7585C133.856 28.214 133.366 27.7869 132.729 27.477C132.101 27.1671 131.351 27.0121 130.48 27.0121H125.92V33.8468ZM125.92 23.3309H129.953C130.698 23.3309 131.36 23.2011 131.938 22.9414C132.524 22.6734 132.985 22.2965 133.32 21.8107C133.663 21.3249 133.835 20.7428 133.835 20.0643C133.835 19.1346 133.504 18.3849 132.842 17.8154C132.189 17.2458 131.259 16.961 130.053 16.961H125.92V23.3309Z" fill="#393939"/>
<path d="M152.564 38.6713C150.579 38.6713 148.871 38.2693 147.438 37.4652C146.015 36.6528 144.917 35.5053 144.147 34.0227C143.376 32.5318 142.991 30.7687 142.991 28.7334C142.991 26.7483 143.376 25.0061 144.147 23.5068C144.917 22.0075 146.002 20.8391 147.401 20.0015C148.808 19.1639 150.458 18.7451 152.351 18.7451C153.624 18.7451 154.809 18.9503 155.906 19.3607C157.012 19.7628 157.975 20.37 158.796 21.1825C159.625 21.995 160.27 23.0168 160.731 24.2481C161.192 25.4709 161.422 26.9032 161.422 28.5449V30.0149H145.127V26.698H156.384C156.384 25.9274 156.216 25.2448 155.881 24.6501C155.546 24.0554 155.081 23.5906 154.487 23.2555C153.9 22.9121 153.218 22.7404 152.439 22.7404C151.626 22.7404 150.906 22.9289 150.278 23.3058C149.658 23.6743 149.172 24.1727 148.82 24.8009C148.469 25.4207 148.289 26.1117 148.28 26.8739V30.0274C148.28 30.9823 148.456 31.8073 148.808 32.5025C149.168 33.1977 149.675 33.7338 150.328 34.1107C150.981 34.4876 151.756 34.676 152.652 34.676C153.247 34.676 153.792 34.5923 154.286 34.4248C154.78 34.2572 155.203 34.006 155.555 33.6709C155.906 33.3359 156.174 32.9255 156.359 32.4397L161.309 32.7663C161.058 33.9557 160.543 34.9943 159.764 35.8822C158.993 36.7616 157.996 37.4485 156.773 37.9426C155.559 38.4284 154.156 38.6713 152.564 38.6713Z" fill="#393939"/>
<path d="M170.418 38.6588C169.186 38.6588 168.089 38.4452 167.126 38.018C166.163 37.5825 165.401 36.9417 164.839 36.0958C164.287 35.2414 164.01 34.1777 164.01 32.9045C164.01 31.8324 164.207 30.932 164.601 30.2033C164.994 29.4746 165.53 28.8883 166.209 28.4444C166.887 28.0005 167.658 27.6654 168.521 27.4393C169.392 27.2131 170.305 27.054 171.259 26.9619C172.382 26.8446 173.286 26.7357 173.973 26.6352C174.66 26.5263 175.158 26.3672 175.468 26.1578C175.778 25.9484 175.933 25.6385 175.933 25.228V25.1527C175.933 24.357 175.682 23.7413 175.179 23.3058C174.685 22.8702 173.982 22.6525 173.069 22.6525C172.105 22.6525 171.339 22.866 170.769 23.2932C170.2 23.712 169.823 24.2397 169.639 24.8763L164.689 24.4742C164.94 23.3016 165.434 22.2881 166.171 21.4338C166.908 20.571 167.859 19.9094 169.023 19.4487C170.196 18.9796 171.553 18.7451 173.094 18.7451C174.166 18.7451 175.192 18.8707 176.172 19.122C177.16 19.3733 178.036 19.7628 178.798 20.2905C179.568 20.8181 180.176 21.4966 180.62 22.3258C181.063 23.1466 181.285 24.1308 181.285 25.2783V38.2944H176.21V35.6183H176.059C175.749 36.2214 175.334 36.7533 174.815 37.2139C174.296 37.6662 173.672 38.0222 172.943 38.2819C172.214 38.5331 171.373 38.6588 170.418 38.6588ZM171.95 34.965C172.738 34.965 173.433 34.8101 174.036 34.5002C174.639 34.1819 175.112 33.7547 175.456 33.2186C175.799 32.6826 175.971 32.0753 175.971 31.3969V29.349C175.803 29.4579 175.573 29.5584 175.28 29.6505C174.995 29.7343 174.673 29.8138 174.312 29.8892C173.952 29.9562 173.592 30.0191 173.232 30.0777C172.872 30.1279 172.545 30.174 172.252 30.2159C171.624 30.308 171.075 30.4546 170.606 30.6556C170.137 30.8566 169.773 31.1289 169.513 31.4723C169.253 31.8073 169.124 32.2261 169.124 32.7286C169.124 33.4574 169.387 34.0143 169.915 34.3996C170.451 34.7766 171.13 34.965 171.95 34.965Z" fill="#393939"/>
<path d="M201.494 24.4993L196.594 24.8009C196.511 24.3821 196.331 24.0052 196.054 23.6701C195.778 23.3267 195.413 23.0545 194.961 22.8535C194.517 22.6441 193.985 22.5394 193.366 22.5394C192.536 22.5394 191.837 22.7153 191.267 23.0671C190.698 23.4105 190.413 23.8711 190.413 24.4491C190.413 24.9098 190.597 25.2992 190.966 25.6175C191.334 25.9358 191.967 26.1913 192.863 26.3839L196.356 27.0875C198.232 27.4728 199.631 28.0926 200.552 28.9469C201.473 29.8013 201.934 30.9236 201.934 32.314C201.934 33.5788 201.561 34.6886 200.816 35.6435C200.079 36.5983 199.065 37.3438 197.775 37.8798C196.494 38.4075 195.016 38.6713 193.34 38.6713C190.786 38.6713 188.75 38.1395 187.234 37.0757C185.727 36.0036 184.843 34.5462 184.583 32.7035L189.848 32.4271C190.007 33.2061 190.392 33.8008 191.004 34.2112C191.615 34.6132 192.398 34.8142 193.353 34.8142C194.291 34.8142 195.045 34.6342 195.614 34.274C196.192 33.9055 196.486 33.4322 196.494 32.8543C196.486 32.3685 196.28 31.9706 195.878 31.6607C195.476 31.3424 194.856 31.0995 194.019 30.932L190.677 30.2661C188.792 29.8892 187.389 29.2359 186.468 28.3062C185.555 27.3765 185.099 26.1913 185.099 24.7506C185.099 23.511 185.434 22.4431 186.104 21.5468C186.782 20.6506 187.733 19.9596 188.956 19.4738C190.187 18.988 191.628 18.7451 193.278 18.7451C195.715 18.7451 197.633 19.2602 199.032 20.2905C200.439 21.3207 201.26 22.7237 201.494 24.4993Z" fill="#393939"/>
<path d="M215.569 18.9964V23.0168H203.947V18.9964H215.569ZM206.586 14.3729H211.938V32.3643C211.938 32.8585 212.013 33.2438 212.164 33.5202C212.315 33.7882 212.524 33.9767 212.792 34.0855C213.069 34.1944 213.387 34.2489 213.747 34.2489C213.998 34.2489 214.25 34.2279 214.501 34.1861C214.752 34.1358 214.945 34.0981 215.079 34.073L215.921 38.0557C215.653 38.1395 215.276 38.2358 214.79 38.3447C214.304 38.4619 213.714 38.5331 213.019 38.5583C211.729 38.6085 210.598 38.4368 209.626 38.0432C208.663 37.6495 207.913 37.038 207.377 36.2088C206.841 35.3796 206.577 34.3326 206.586 33.0679V14.3729Z" fill="#393939"/>
<defs>
<linearGradient id="paint0_linear_45_1656" x1="70.3763" y1="78.6933" x2="-0.000461408" y2="73.0654" gradientUnits="userSpaceOnUse">
<stop stop-color="#779DFF"/>
<stop offset="1" stop-color="#2563EB"/>
</linearGradient>
</defs>
</svg>
