<svg width="295" height="204" viewBox="0 0 295 204" fill="none" xmlns="http://www.w3.org/2000/svg">
<g opacity="0.86" filter="url(#filter0_d_45_3333)">
<g clip-path="url(#clip0_45_3333)">
<g filter="url(#filter1_bd_45_3333)">
<rect x="55.3115" y="48.8938" width="289.587" height="101.425" rx="16.5996" fill="#FDFDFD" fill-opacity="0.5" shape-rendering="crispEdges"/>
<rect x="56.5565" y="50.1388" width="287.097" height="98.9346" rx="15.3546" stroke="#FDFDFD" stroke-opacity="0.25" stroke-width="2.48993" shape-rendering="crispEdges"/>
</g>
<path d="M105.438 77.1548L101.932 67.2615H103.618L106.487 75.7073H106.155L109.01 67.2615H110.696L107.19 77.1548H105.438ZM114.253 77.3141C113.563 77.3141 112.93 77.1504 112.354 76.8228C111.787 76.4952 111.336 76.0481 111 75.4816C110.663 74.915 110.495 74.2731 110.495 73.556C110.495 72.83 110.663 72.1882 111 71.6305C111.336 71.0639 111.787 70.6212 112.354 70.3025C112.921 69.9749 113.554 69.8111 114.253 69.8111C114.961 69.8111 115.594 69.9749 116.152 70.3025C116.719 70.6212 117.166 71.0639 117.493 71.6305C117.83 72.1882 117.998 72.83 117.998 73.556C117.998 74.282 117.83 74.9282 117.493 75.4948C117.157 76.0614 116.705 76.5085 116.139 76.8361C115.572 77.1548 114.944 77.3141 114.253 77.3141ZM114.253 75.9198C114.678 75.9198 115.054 75.818 115.382 75.6143C115.709 75.4107 115.966 75.1319 116.152 74.7777C116.347 74.4148 116.444 74.0075 116.444 73.556C116.444 73.1045 116.347 72.7017 116.152 72.3476C115.966 71.9934 115.709 71.7146 115.382 71.5109C115.054 71.3073 114.678 71.2055 114.253 71.2055C113.837 71.2055 113.461 71.3073 113.124 71.5109C112.797 71.7146 112.536 71.9934 112.341 72.3476C112.155 72.7017 112.062 73.1045 112.062 73.556C112.062 74.0075 112.155 74.4148 112.341 74.7777C112.536 75.1319 112.797 75.4107 113.124 75.6143C113.461 75.818 113.837 75.9198 114.253 75.9198ZM119.197 77.1548V69.9705H120.698V77.1548H119.197ZM119.197 68.9878V67.2615H120.698V68.9878H119.197ZM125.6 77.3141C124.883 77.3141 124.245 77.1504 123.687 76.8228C123.139 76.4864 122.7 76.0349 122.373 75.4683C122.054 74.9017 121.895 74.2598 121.895 73.5427C121.895 72.8345 122.054 72.1971 122.373 71.6305C122.691 71.0639 123.13 70.6212 123.687 70.3025C124.245 69.9749 124.883 69.8111 125.6 69.8111C126.087 69.8111 126.543 69.8997 126.967 70.0767C127.392 70.2449 127.76 70.4796 128.07 70.7806C128.388 71.0816 128.623 71.4313 128.774 71.8296L127.459 72.4405C127.308 72.0687 127.065 71.7721 126.728 71.5508C126.401 71.3206 126.025 71.2055 125.6 71.2055C125.192 71.2055 124.825 71.3073 124.497 71.5109C124.179 71.7057 123.926 71.9846 123.741 72.3476C123.555 72.7017 123.462 73.1045 123.462 73.556C123.462 74.0075 123.555 74.4148 123.741 74.7777C123.926 75.1319 124.179 75.4107 124.497 75.6143C124.825 75.818 125.192 75.9198 125.6 75.9198C126.033 75.9198 126.41 75.8091 126.728 75.5878C127.056 75.3576 127.299 75.0522 127.459 74.6715L128.774 75.2956C128.632 75.6763 128.402 76.0216 128.083 76.3314C127.773 76.6325 127.406 76.8715 126.981 77.0485C126.556 77.2256 126.095 77.3141 125.6 77.3141ZM133.348 77.3141C132.631 77.3141 131.993 77.1504 131.435 76.8228C130.886 76.4864 130.457 76.0349 130.147 75.4683C129.837 74.8928 129.682 74.251 129.682 73.5427C129.682 72.8168 129.837 72.1749 130.147 71.6172C130.466 71.0594 130.891 70.6212 131.422 70.3025C131.953 69.9749 132.555 69.8111 133.228 69.8111C133.768 69.8111 134.251 69.9041 134.676 70.09C135.101 70.2759 135.459 70.5327 135.751 70.8602C136.043 71.1789 136.265 71.5464 136.415 71.9624C136.575 72.3785 136.654 72.8212 136.654 73.2904C136.654 73.4055 136.65 73.525 136.641 73.649C136.632 73.7729 136.614 73.888 136.588 73.9942H130.864V72.7991H135.738L135.021 73.3435C135.109 72.9097 135.078 72.5246 134.928 72.1882C134.786 71.8429 134.565 71.5729 134.264 71.3781C133.972 71.1745 133.626 71.0727 133.228 71.0727C132.83 71.0727 132.476 71.1745 132.166 71.3781C131.856 71.5729 131.617 71.8562 131.449 72.228C131.28 72.591 131.214 73.0337 131.249 73.556C131.205 74.0429 131.272 74.4679 131.449 74.8308C131.635 75.1938 131.891 75.4771 132.219 75.6807C132.555 75.8844 132.936 75.9862 133.361 75.9862C133.795 75.9862 134.162 75.8888 134.463 75.694C134.773 75.4993 135.016 75.2469 135.193 74.9371L136.415 75.5347C136.274 75.8711 136.052 76.1765 135.751 76.451C135.459 76.7166 135.105 76.929 134.689 77.0884C134.282 77.2389 133.835 77.3141 133.348 77.3141Z" fill="#1B1B1B"/>
<path d="M138.437 77.1548V75.5612H139.726V77.1548H138.437ZM141.882 77.1548V69.9971H143.09V71.4578L142.918 71.2321C143.095 70.7806 143.378 70.4353 143.768 70.1963C144.157 69.9572 144.595 69.8377 145.082 69.8377C145.64 69.8377 146.14 69.9926 146.583 70.3025C147.034 70.6123 147.344 71.0196 147.513 71.5242L147.167 71.5375C147.353 70.9798 147.667 70.5592 148.11 70.2759C148.553 69.9838 149.044 69.8377 149.584 69.8377C150.08 69.8377 150.527 69.9528 150.925 70.183C151.333 70.4132 151.656 70.7319 151.895 71.1391C152.134 71.5464 152.253 72.0067 152.253 72.5202V77.1548H151.005V72.9186C151.005 72.5202 150.934 72.1838 150.793 71.9093C150.651 71.6349 150.456 71.4224 150.208 71.2719C149.969 71.1125 149.686 71.0329 149.358 71.0329C149.04 71.0329 148.752 71.1125 148.495 71.2719C148.247 71.4224 148.048 71.6393 147.898 71.9226C147.756 72.1971 147.685 72.529 147.685 72.9186V77.1548H146.437V72.9186C146.437 72.5202 146.366 72.1838 146.224 71.9093C146.083 71.6349 145.888 71.4224 145.64 71.2719C145.401 71.1125 145.118 71.0329 144.79 71.0329C144.471 71.0329 144.184 71.1125 143.927 71.2719C143.679 71.4224 143.48 71.6393 143.329 71.9226C143.188 72.1971 143.117 72.529 143.117 72.9186V77.1548H141.882ZM153.742 79.8107V69.9971H154.95V71.5375L154.791 71.2321C155.057 70.8071 155.419 70.4707 155.88 70.2228C156.34 69.9661 156.867 69.8377 157.46 69.8377C158.133 69.8377 158.735 70.0015 159.266 70.3291C159.806 70.6566 160.231 71.1037 160.541 71.6703C160.851 72.228 161.006 72.8655 161.006 73.5826C161.006 74.282 160.851 74.915 160.541 75.4816C160.231 76.0481 159.806 76.4952 159.266 76.8228C158.735 77.1504 158.129 77.3141 157.447 77.3141C156.871 77.3141 156.345 77.1858 155.867 76.929C155.397 76.6723 155.034 76.3093 154.778 75.8401L154.977 75.6276V79.8107H153.742ZM157.354 76.119C157.805 76.119 158.208 76.0083 158.562 75.787C158.916 75.5657 159.191 75.2646 159.386 74.884C159.589 74.4944 159.691 74.0606 159.691 73.5826C159.691 73.0868 159.589 72.653 159.386 72.2812C159.191 71.9005 158.916 71.5995 158.562 71.3781C158.208 71.148 157.805 71.0329 157.354 71.0329C156.902 71.0329 156.495 71.1435 156.132 71.3649C155.778 71.5862 155.495 71.8916 155.282 72.2812C155.079 72.6618 154.977 73.0956 154.977 73.5826C154.977 74.0606 155.079 74.4944 155.282 74.884C155.495 75.2646 155.778 75.5657 156.132 75.787C156.495 76.0083 156.902 76.119 157.354 76.119ZM165.308 77.3141C164.785 77.3141 164.298 77.2212 163.847 77.0353C163.395 76.8494 163.006 76.5882 162.678 76.2518C162.351 75.9065 162.107 75.4993 161.948 75.03L163.05 74.5785C163.236 75.0743 163.528 75.4594 163.927 75.7339C164.325 76.0083 164.785 76.1455 165.308 76.1455C165.715 76.1455 166.078 76.0659 166.397 75.9065C166.715 75.7471 166.963 75.517 167.14 75.216C167.326 74.915 167.419 74.552 167.419 74.127C167.419 73.6932 167.326 73.3302 167.14 73.0381C166.963 72.7371 166.715 72.5069 166.397 72.3476C166.078 72.1882 165.71 72.1085 165.294 72.1085C165.162 72.1085 165.016 72.1174 164.856 72.1351C164.706 72.1528 164.577 72.1793 164.471 72.2148L164.192 71.6172L166.835 68.3902H162.453V67.2615H168.309V68.3504L165.786 71.4578L165.706 71.1125C166.299 71.1303 166.822 71.2675 167.273 71.5242C167.725 71.781 168.079 72.1307 168.335 72.5733C168.592 73.0071 168.721 73.5162 168.721 74.1005C168.721 74.7025 168.574 75.2469 168.282 75.7339C167.99 76.2208 167.587 76.6059 167.074 76.8892C166.56 77.1725 165.972 77.3141 165.308 77.3141Z" fill="#727272"/>
<circle cx="81.8732" cy="72.133" r="6.63982" fill="#00A656"/>
<g filter="url(#filter2_f_45_3333)">
<circle cx="81.8695" cy="75.4513" r="4.97987" fill="#00A656"/>
</g>
<rect opacity="0.6" x="70.2573" y="102.606" width="106.237" height="6.63982" rx="3.31991" fill="#A8A8A8"/>
<rect opacity="0.3" x="70.2573" y="116.624" width="138.338" height="6.63982" rx="3.31991" fill="#A8A8A8"/>
</g>
</g>
<defs>
<filter id="filter0_d_45_3333" x="0.308838" y="0" width="294" height="204" filterUnits="userSpaceOnUse" color-interpolation-filters="sRGB">
<feFlood flood-opacity="0" result="BackgroundImageFix"/>
<feColorMatrix in="SourceAlpha" type="matrix" values="0 0 0 0 0 0 0 0 0 0 0 0 0 0 0 0 0 0 127 0" result="hardAlpha"/>
<feMorphology radius="14" operator="dilate" in="SourceAlpha" result="effect1_dropShadow_45_3333"/>
<feOffset dy="6"/>
<feGaussianBlur stdDeviation="20.5"/>
<feComposite in2="hardAlpha" operator="out"/>
<feColorMatrix type="matrix" values="0 0 0 0 0.0460069 0 0 0 0 0.0588021 0 0 0 0 0.104167 0 0 0 0.08 0"/>
<feBlend mode="normal" in2="BackgroundImageFix" result="effect1_dropShadow_45_3333"/>
<feBlend mode="normal" in="SourceGraphic" in2="effect1_dropShadow_45_3333" result="shape"/>
</filter>
<filter id="filter1_bd_45_3333" x="2.19296" y="-4.22476" width="395.825" height="207.662" filterUnits="userSpaceOnUse" color-interpolation-filters="sRGB">
<feFlood flood-opacity="0" result="BackgroundImageFix"/>
<feGaussianBlur in="BackgroundImageFix" stdDeviation="26.5593"/>
<feComposite in2="SourceAlpha" operator="in" result="effect1_backgroundBlur_45_3333"/>
<feColorMatrix in="SourceAlpha" type="matrix" values="0 0 0 0 0 0 0 0 0 0 0 0 0 0 0 0 0 0 127 0" result="hardAlpha"/>
<feMorphology radius="6.63982" operator="erode" in="SourceAlpha" result="effect2_dropShadow_45_3333"/>
<feOffset dy="1.65996"/>
<feGaussianBlur stdDeviation="6.63982"/>
<feComposite in2="hardAlpha" operator="out"/>
<feColorMatrix type="matrix" values="0 0 0 0 0 0 0 0 0 0 0 0 0 0 0 0 0 0 0.2 0"/>
<feBlend mode="multiply" in2="effect1_backgroundBlur_45_3333" result="effect2_dropShadow_45_3333"/>
<feBlend mode="normal" in="SourceGraphic" in2="effect2_dropShadow_45_3333" result="shape"/>
</filter>
<filter id="filter2_f_45_3333" x="63.61" y="57.1918" width="36.519" height="36.519" filterUnits="userSpaceOnUse" color-interpolation-filters="sRGB">
<feFlood flood-opacity="0" result="BackgroundImageFix"/>
<feBlend mode="normal" in="SourceGraphic" in2="BackgroundImageFix" result="shape"/>
<feGaussianBlur stdDeviation="6.63982" result="effect1_foregroundBlur_45_3333"/>
</filter>
<clipPath id="clip0_45_3333">
<rect x="55.3088" y="49" width="184" height="94" rx="16" fill="white"/>
</clipPath>
</defs>
</svg>
