<svg width="25" height="25" viewBox="0 0 25 25" fill="none" xmlns="http://www.w3.org/2000/svg">
<path d="M5.51587 18.5V16.6C5.51587 16.25 5.60337 15.9208 5.77837 15.6125C5.95337 15.3042 6.19087 15.0583 6.49087 14.875C7.34087 14.375 8.24087 14.0083 9.19087 13.775C10.1409 13.5417 11.1159 13.4583 12.1159 13.525C12.0825 13.6917 12.0575 13.8542 12.0409 14.0125C12.0242 14.1708 12.0159 14.3333 12.0159 14.5C12.0159 15.3 12.1909 16.0458 12.5409 16.7375C12.8909 17.4292 13.3825 18.0167 14.0159 18.5H5.51587ZM11.5159 12.5C10.6659 12.5 9.95337 12.2125 9.37837 11.6375C8.80337 11.0625 8.51587 10.35 8.51587 9.5C8.51587 8.66667 8.80337 7.95833 9.37837 7.375C9.95337 6.79167 10.6659 6.5 11.5159 6.5C12.3492 6.5 13.0575 6.79167 13.6409 7.375C14.2242 7.95833 14.5159 8.66667 14.5159 9.5C14.5159 10.35 14.2242 11.0625 13.6409 11.6375C13.0575 12.2125 12.3492 12.5 11.5159 12.5ZM4.51587 22.5C3.96587 22.5 3.49504 22.3042 3.10337 21.9125C2.7117 21.5208 2.51587 21.05 2.51587 20.5V16.5H4.51587V20.5H8.51587V22.5H4.51587ZM2.51587 8.5V4.5C2.51587 3.95 2.7117 3.47917 3.10337 3.0875C3.49504 2.69583 3.96587 2.5 4.51587 2.5H8.51587V4.5H4.51587V8.5H2.51587ZM16.5159 22.5V20.5H20.5159V16.5H22.5159V20.5C22.5159 21.05 22.32 21.5208 21.9284 21.9125C21.5367 22.3042 21.0659 22.5 20.5159 22.5H16.5159ZM20.5159 8.5V4.5H16.5159V2.5H20.5159C21.0659 2.5 21.5367 2.69583 21.9284 3.0875C22.32 3.47917 22.5159 3.95 22.5159 4.5V8.5H20.5159ZM16.5159 18.5V16.95C15.7992 16.8167 15.2034 16.4792 14.7284 15.9375C14.2534 15.3958 14.0159 14.75 14.0159 14H15.0159C15.0159 14.55 15.2117 15.0208 15.6034 15.4125C15.995 15.8042 16.4659 16 17.0159 16C17.5659 16 18.0367 15.8042 18.4284 15.4125C18.82 15.0208 19.0159 14.55 19.0159 14H20.0159C20.0159 14.75 19.7784 15.3958 19.3034 15.9375C18.8284 16.4792 18.2325 16.8167 17.5159 16.95V18.5H16.5159ZM17.0159 15C16.6659 15 16.37 14.8792 16.1284 14.6375C15.8867 14.3958 15.7659 14.1 15.7659 13.75V11.75C15.7659 11.4 15.8867 11.1042 16.1284 10.8625C16.37 10.6208 16.6659 10.5 17.0159 10.5C17.3659 10.5 17.6617 10.6208 17.9034 10.8625C18.145 11.1042 18.2659 11.4 18.2659 11.75V13.75C18.2659 14.1 18.145 14.3958 17.9034 14.6375C17.6617 14.8792 17.3659 15 17.0159 15Z" fill="#2563EB"/>
</svg>
