<svg width="25" height="25" viewBox="0 0 25 25" fill="none" xmlns="http://www.w3.org/2000/svg">
<path d="M18.0659 16.1499C18.5325 16.1499 18.9867 16.0416 19.4284 15.8249C19.87 15.6082 20.2742 15.2999 20.6409 14.8999V12.2499C20.2575 12.2999 19.9034 12.3582 19.5784 12.4249C19.2534 12.4916 18.9492 12.5666 18.6659 12.6499C17.9159 12.8832 17.3534 13.1749 16.9784 13.5249C16.6034 13.8749 16.4159 14.2832 16.4159 14.7499C16.4159 15.1832 16.5659 15.5249 16.8659 15.7749C17.1659 16.0249 17.5659 16.1499 18.0659 16.1499ZM17.4909 17.8499C16.5409 17.8499 15.7909 17.5791 15.2409 17.0374C14.6909 16.4957 14.4159 15.7582 14.4159 14.8249C14.4159 13.9582 14.6909 13.2499 15.2409 12.6999C15.7909 12.1499 16.6742 11.7082 17.8909 11.3749C18.2742 11.2749 18.695 11.1832 19.1534 11.0999C19.6117 11.0166 20.1075 10.9416 20.6409 10.8749C20.6075 10.0916 20.4242 9.52074 20.0909 9.1624C19.7575 8.80407 19.2409 8.6249 18.5409 8.6249C18.1075 8.6249 17.6784 8.70407 17.2534 8.8624C16.8284 9.02074 16.2825 9.2999 15.6159 9.6999L14.8159 8.2999C15.3659 7.88324 16.0117 7.54574 16.7534 7.2874C17.495 7.02907 18.2492 6.8999 19.0159 6.8999C20.1992 6.8999 21.0992 7.26657 21.7159 7.9999C22.3325 8.73324 22.6409 9.7999 22.6409 11.1999V17.6249H20.9659L20.8159 16.4999C20.3492 16.9166 19.8367 17.2457 19.2784 17.4874C18.72 17.7291 18.1242 17.8499 17.4909 17.8499ZM6.69087 16.7999H10.9159V12.7749H7.56587C7.43254 13.4582 7.29504 14.1332 7.15337 14.7999C7.0117 15.4666 6.85754 16.1332 6.69087 16.7999ZM2.39087 17.9999V16.7999H5.36587C5.53254 16.1332 5.6867 15.4666 5.82837 14.7999C5.97004 14.1332 6.10754 13.4582 6.24087 12.7749H3.71587V11.5249H6.46587C6.5492 11.0916 6.62837 10.6499 6.70337 10.1999C6.77837 9.7499 6.85754 9.30824 6.94087 8.8749H3.24087V7.6749H13.3409V8.8749H8.29087C8.20754 9.30824 8.1242 9.7499 8.04087 10.1999C7.95754 10.6499 7.8742 11.0916 7.79087 11.5249H12.1159V16.7999H14.3159V17.9999H2.39087Z" fill="#2563EB"/>
</svg>
