<svg width="417" height="75" viewBox="0 0 417 75" fill="none" xmlns="http://www.w3.org/2000/svg">
<g clip-path="url(#clip0_45_3255)">
<path d="M36.8062 74.2122C57.0952 74.2122 73.5427 57.7646 73.5427 37.4756C73.5427 17.1865 57.0952 0.739014 36.8062 0.739014C16.5171 0.739014 0.0695801 17.1865 0.0695801 37.4756C0.0695801 57.7646 16.5171 74.2122 36.8062 74.2122Z" fill="#F0F0F0"/>
<path d="M7.66355 15.1099C4.77787 18.8643 2.60194 23.1916 1.33496 27.8926H20.4463L7.66355 15.1099Z" fill="#0052B4"/>
<path d="M72.2771 27.8927C71.0101 23.1919 68.834 18.8646 65.9485 15.1101L53.166 27.8927H72.2771Z" fill="#0052B4"/>
<path d="M1.33496 47.0591C2.60209 51.7599 4.77801 56.0872 7.66355 59.8415L20.4459 47.0591H1.33496Z" fill="#0052B4"/>
<path d="M59.172 8.33337C55.4176 5.44769 51.0904 3.27176 46.3894 2.00464V21.1158L59.172 8.33337Z" fill="#0052B4"/>
<path d="M14.4399 66.6178C18.1944 69.5035 22.5217 71.6794 27.2225 72.9465V53.8354L14.4399 66.6178Z" fill="#0052B4"/>
<path d="M27.2224 2.00464C22.5216 3.27176 18.1942 5.44769 14.4399 8.33323L27.2224 21.1157V2.00464Z" fill="#0052B4"/>
<path d="M46.3894 72.9465C51.0903 71.6794 55.4176 69.5035 59.1719 66.6179L46.3894 53.8354V72.9465Z" fill="#0052B4"/>
<path d="M53.166 47.0591L65.9485 59.8417C68.834 56.0874 71.0101 51.7599 72.2771 47.0591H53.166Z" fill="#0052B4"/>
<path d="M73.2318 32.6839H41.5981H41.598V1.04998C40.0294 0.845779 38.4302 0.739014 36.8062 0.739014C35.1819 0.739014 33.5829 0.845779 32.0145 1.04998V32.6836V32.6838H0.380549C0.176346 34.2524 0.0695801 35.8516 0.0695801 37.4756C0.0695801 39.0999 0.176346 40.6988 0.380549 42.2673H32.0142H32.0143V73.9012C33.583 74.1054 35.1819 74.2122 36.8062 74.2122C38.4302 74.2122 40.0294 74.1055 41.5978 73.9012V42.2676V42.2674H73.2318C73.436 40.6988 73.5427 39.0999 73.5427 37.4756C73.5427 35.8516 73.436 34.2524 73.2318 32.6839Z" fill="#D80027"/>
<path d="M46.3896 47.0592L62.7828 63.4523C63.5367 62.6987 64.256 61.9107 64.9422 61.0939L50.9074 47.0591H46.3896V47.0592Z" fill="#D80027"/>
<path d="M27.2226 47.0591H27.2223L10.8293 63.4521C11.583 64.206 12.371 64.9253 13.1878 65.6115L27.2226 51.5764V47.0591Z" fill="#D80027"/>
<path d="M27.2227 27.8923V27.892L10.8296 11.4988C10.0756 12.2525 9.35639 13.0404 8.67017 13.8572L22.7051 27.8922L27.2227 27.8923Z" fill="#D80027"/>
<path d="M46.3896 27.8925L62.7829 11.4991C62.0292 10.7452 61.2413 10.0259 60.4245 9.33984L46.3896 23.3748V27.8925Z" fill="#D80027"/>
</g>
<g clip-path="url(#clip1_45_3255)">
<path d="M114.543 37.4758C114.543 41.9694 115.351 46.2739 116.828 50.2537L151.279 53.4482L185.731 50.2537C187.208 46.2739 188.016 41.9694 188.016 37.4758C188.016 32.9822 187.208 28.6777 185.731 24.6979L151.279 21.5034L116.828 24.6979C115.351 28.6777 114.543 32.9822 114.543 37.4758Z" fill="#FFDA44"/>
<path d="M185.731 24.6977C180.54 10.7085 167.075 0.739014 151.279 0.739014C135.484 0.739014 122.018 10.7085 116.828 24.6977H185.731Z" fill="#D80027"/>
<path d="M116.828 50.2537C122.018 64.2428 135.484 74.2124 151.279 74.2124C167.075 74.2124 180.54 64.2428 185.731 50.2537H116.828Z" fill="#D80027"/>
</g>
<g clip-path="url(#clip2_45_3255)">
<path d="M265.752 74.2122C286.041 74.2122 302.489 57.7646 302.489 37.4756C302.489 17.1865 286.041 0.739014 265.752 0.739014C245.463 0.739014 229.016 17.1865 229.016 37.4756C229.016 57.7646 245.463 74.2122 265.752 74.2122Z" fill="#F0F0F0"/>
<path d="M278.53 37.4756C278.53 40.6701 272.809 48.6563 265.752 48.6563C258.695 48.6563 252.975 40.6701 252.975 37.4756C252.975 30.4185 258.695 24.6978 265.752 24.6978C272.809 24.6978 278.53 30.4185 278.53 37.4756Z" fill="#D80027"/>
<path d="M278.53 37.4758C278.53 44.533 272.809 50.2537 265.752 50.2537C258.695 50.2537 252.975 44.533 252.975 37.4758" fill="#0052B4"/>
<path d="M279.295 48.7705L282.683 45.3828L284.942 47.6413L281.554 51.029L279.295 48.7705Z" fill="black"/>
<path d="M273.647 54.417L277.035 51.0293L279.294 53.2878L275.906 56.6755L273.647 54.417Z" fill="black"/>
<path d="M286.072 55.5457L289.459 52.1579L291.718 54.4164L288.33 57.8042L286.072 55.5457Z" fill="black"/>
<path d="M280.424 61.1929L283.811 57.8052L286.07 60.0637L282.682 63.4514L280.424 61.1929Z" fill="black"/>
<path d="M282.683 52.1584L286.071 48.7707L288.33 51.0292L284.942 54.417L282.683 52.1584Z" fill="black"/>
<path d="M277.037 57.8044L280.425 54.4167L282.683 56.6752L279.295 60.063L277.037 57.8044Z" fill="black"/>
<path d="M286.086 26.1873L277.052 17.1533L279.311 14.8948L288.345 23.9287L286.086 26.1873Z" fill="black"/>
<path d="M277.051 23.9297L273.663 20.542L275.921 18.2836L279.309 21.6713L277.051 23.9297Z" fill="black"/>
<path d="M282.697 29.5771L279.309 26.1894L281.568 23.931L284.955 27.3187L282.697 29.5771Z" fill="black"/>
<path d="M283.825 17.1526L280.438 13.7649L282.696 11.5064L286.084 14.8941L283.825 17.1526Z" fill="black"/>
<path d="M289.475 22.8013L286.087 19.4136L288.346 17.155L291.733 20.5428L289.475 22.8013Z" fill="black"/>
<path d="M242.039 52.1519L251.073 61.1858L248.815 63.4443L239.781 54.4104L242.039 52.1519Z" fill="black"/>
<path d="M251.073 54.4087L254.461 57.7964L252.202 60.0548L248.815 56.6671L251.073 54.4087Z" fill="black"/>
<path d="M245.426 48.7634L248.814 52.1511L246.555 54.4097L243.168 51.0219L245.426 48.7634Z" fill="black"/>
<path d="M248.814 45.375L257.848 54.409L255.59 56.6675L246.556 47.6335L248.814 45.375Z" fill="black"/>
<path d="M251.072 13.7581L242.038 22.792L239.78 20.5335L248.814 11.4995L251.072 13.7581Z" fill="black"/>
<path d="M254.46 17.1458L245.426 26.1797L243.168 23.9212L252.202 14.8872L254.46 17.1458Z" fill="black"/>
<path d="M257.851 20.5354L248.817 29.5694L246.559 27.3109L255.593 18.277L257.851 20.5354Z" fill="black"/>
</g>
<g clip-path="url(#clip3_45_3255)">
<path d="M343.489 37.4758C343.489 53.271 353.458 66.7366 367.447 71.9272L370.642 37.4756L367.447 3.02417C353.458 8.21493 343.489 21.6803 343.489 37.4758Z" fill="#6DA544"/>
<path d="M416.962 37.4756C416.962 17.1867 400.515 0.739014 380.226 0.739014C375.732 0.739014 371.427 1.54736 367.448 3.024V71.9272C371.427 73.404 375.732 74.2122 380.226 74.2122C400.515 74.2122 416.962 57.7645 416.962 37.4756Z" fill="#D80027"/>
<path d="M367.448 50.2535C374.505 50.2535 380.226 44.5326 380.226 37.4756C380.226 30.4186 374.505 24.6978 367.448 24.6978C360.391 24.6978 354.67 30.4186 354.67 37.4756C354.67 44.5326 360.391 50.2535 367.448 50.2535Z" fill="#FFDA44"/>
<path d="M360.26 31.0864V39.0726C360.26 43.0422 363.478 46.2602 367.448 46.2602C371.417 46.2602 374.635 43.0423 374.635 39.0726V31.0864H360.26Z" fill="#D80027"/>
<path d="M367.448 41.4689C366.127 41.4689 365.052 40.3941 365.052 39.073V35.8787H369.843V39.0732C369.843 40.3941 368.769 41.4689 367.448 41.4689Z" fill="#F0F0F0"/>
</g>
<defs>
<clipPath id="clip0_45_3255">
<rect width="73.4731" height="73.4731" fill="white" transform="translate(0.0695801 0.739014)"/>
</clipPath>
<clipPath id="clip1_45_3255">
<rect width="73.4731" height="73.4731" fill="white" transform="translate(114.543 0.739014)"/>
</clipPath>
<clipPath id="clip2_45_3255">
<rect width="73.4731" height="73.4731" fill="white" transform="translate(229.016 0.739014)"/>
</clipPath>
<clipPath id="clip3_45_3255">
<rect width="73.4731" height="73.4731" fill="white" transform="translate(343.489 0.739014)"/>
</clipPath>
</defs>
</svg>
