<svg width="25" height="25" viewBox="0 0 25 25" fill="none" xmlns="http://www.w3.org/2000/svg">
<path d="M12.5156 12.2229C11.4156 12.2229 10.474 11.8312 9.69063 11.0479C8.90729 10.2646 8.51562 9.3229 8.51562 8.2229C8.51562 7.1229 8.90729 6.18123 9.69063 5.3979C10.474 4.61457 11.4156 4.2229 12.5156 4.2229C13.6156 4.2229 14.5573 4.61457 15.3406 5.3979C16.124 6.18123 16.5156 7.1229 16.5156 8.2229C16.5156 9.3229 16.124 10.2646 15.3406 11.0479C14.5573 11.8312 13.6156 12.2229 12.5156 12.2229ZM4.51562 20.2229V17.4229C4.51562 16.8562 4.66146 16.3354 4.95312 15.8604C5.24479 15.3854 5.63229 15.0229 6.11563 14.7729C7.14896 14.2562 8.19896 13.8687 9.26562 13.6104C10.3323 13.3521 11.4156 13.2229 12.5156 13.2229C13.6156 13.2229 14.699 13.3521 15.7656 13.6104C16.8323 13.8687 17.8823 14.2562 18.9156 14.7729C19.399 15.0229 19.7865 15.3854 20.0781 15.8604C20.3698 16.3354 20.5156 16.8562 20.5156 17.4229V20.2229H4.51562ZM6.51562 18.2229H18.5156V17.4229C18.5156 17.2396 18.4698 17.0729 18.3781 16.9229C18.2865 16.7729 18.1656 16.6562 18.0156 16.5729C17.1156 16.1229 16.2073 15.7854 15.2906 15.5604C14.374 15.3354 13.449 15.2229 12.5156 15.2229C11.5823 15.2229 10.6573 15.3354 9.74062 15.5604C8.82396 15.7854 7.91563 16.1229 7.01562 16.5729C6.86563 16.6562 6.74479 16.7729 6.65313 16.9229C6.56146 17.0729 6.51562 17.2396 6.51562 17.4229V18.2229ZM12.5156 10.2229C13.0656 10.2229 13.5365 10.0271 13.9281 9.6354C14.3198 9.24373 14.5156 8.7729 14.5156 8.2229C14.5156 7.6729 14.3198 7.20207 13.9281 6.8104C13.5365 6.41873 13.0656 6.2229 12.5156 6.2229C11.9656 6.2229 11.4948 6.41873 11.1031 6.8104C10.7115 7.20207 10.5156 7.6729 10.5156 8.2229C10.5156 8.7729 10.7115 9.24373 11.1031 9.6354C11.4948 10.0271 11.9656 10.2229 12.5156 10.2229Z" fill="#5F6368"/>
</svg>
