<svg width="119" height="116" viewBox="0 0 119 116" fill="none" xmlns="http://www.w3.org/2000/svg">
<g filter="url(#filter0_b_45_936)">
<rect width="118.276" height="115.459" rx="57.7297" fill="url(#paint0_linear_45_936)"/>
<rect x="1.6308" y="1.6308" width="115.014" height="112.198" rx="56.0989" stroke="url(#paint1_linear_45_936)" stroke-opacity="0.15" stroke-width="3.26159"/>
<g clip-path="url(#clip0_45_936)">
<path d="M79.5837 68.5538C78.5815 68.5538 77.7296 68.203 77.028 67.5014C76.3264 66.7998 75.9756 65.9479 75.9756 64.9457V58.9322C75.9756 57.9299 76.3264 57.078 77.028 56.3764C77.7296 55.6748 78.5815 55.324 79.5837 55.324C80.586 55.324 81.4379 55.6748 82.1395 56.3764C82.8411 57.078 83.1918 57.9299 83.1918 58.9322V64.9457C83.1918 65.9479 82.8411 66.7998 82.1395 67.5014C81.4379 68.203 80.586 68.5538 79.5837 68.5538ZM78.381 76.9727V73.2443C76.3364 72.9236 74.6226 71.9915 73.2395 70.448C71.8564 68.9046 71.1648 67.0704 71.1648 64.9457H73.5702C73.5702 66.6295 74.1515 68.0527 75.3141 69.2153C76.4767 70.3779 77.8999 70.9592 79.5837 70.9592C81.2675 70.9592 82.6907 70.3779 83.8533 69.2153C85.0159 68.0527 85.5972 66.6295 85.5972 64.9457H88.0027C88.0027 67.0704 87.3111 68.9046 85.928 70.448C84.5449 71.9915 82.831 72.9236 80.7864 73.2443V76.9727H78.381ZM51.9216 57.7295C49.2756 57.7295 47.0105 56.7873 45.1263 54.9031C43.2421 53.0189 42.2999 50.7538 42.2999 48.1078C42.2999 45.4619 43.2421 43.1968 45.1263 41.3126C47.0105 39.4283 49.2756 38.4862 51.9216 38.4862C52.4828 38.4862 53.0341 38.5263 53.5753 38.6065C54.1165 38.6867 54.6477 38.827 55.1689 39.0274C54.1265 40.2702 53.3247 41.6633 52.7635 43.2068C52.2022 44.7503 51.9216 46.384 51.9216 48.1078C51.9216 49.8317 52.2022 51.4654 52.7635 53.0088C53.3247 54.5523 54.1265 55.9454 55.1689 57.1882C54.6477 57.3887 54.1165 57.529 53.5753 57.6092C53.0341 57.6894 52.4828 57.7295 51.9216 57.7295ZM32.6783 76.9727V70.2977C32.6783 68.9346 33.0191 67.6718 33.7006 66.5092C34.3821 65.3466 35.3243 64.4646 36.527 63.8632C38.0504 63.0614 39.7041 62.3699 41.4881 61.7886C43.2721 61.2073 45.2265 60.7563 47.3513 60.4355C45.7477 61.5581 44.5049 62.9813 43.6229 64.7051C42.7409 66.429 42.2999 68.2932 42.2999 70.2977V76.9727H32.6783ZM66.354 57.7295C63.7081 57.7295 61.443 56.7873 59.5587 54.9031C57.6745 53.0189 56.7324 50.7538 56.7324 48.1078C56.7324 45.4619 57.6745 43.1968 59.5587 41.3126C61.443 39.4283 63.7081 38.4862 66.354 38.4862C68.9999 38.4862 71.265 39.4283 73.1493 41.3126C75.0335 43.1968 75.9756 45.4619 75.9756 48.1078C75.9756 50.7538 75.0335 53.0189 73.1493 54.9031C71.265 56.7873 68.9999 57.7295 66.354 57.7295ZM47.1108 76.9727V70.2977C47.1108 68.9346 47.4515 67.6718 48.133 66.5092C48.8146 65.3466 49.7567 64.4646 50.9594 63.8632C53.004 62.8209 55.3192 61.9389 57.905 61.2173C60.4908 60.4957 63.3072 60.1349 66.354 60.1349C66.8351 60.1349 67.3061 60.1449 67.7672 60.1649C68.2282 60.185 68.6792 60.215 69.1202 60.2551C67.4364 63.302 67.1157 66.4691 68.1581 69.7565C69.2004 73.0439 71.265 75.4493 74.352 76.9727H47.1108Z" fill="#2F3132"/>
</g>
</g>
<defs>
<filter id="filter0_b_45_936" x="-69.5806" y="-69.5806" width="257.437" height="254.621" filterUnits="userSpaceOnUse" color-interpolation-filters="sRGB">
<feFlood flood-opacity="0" result="BackgroundImageFix"/>
<feGaussianBlur in="BackgroundImageFix" stdDeviation="34.7903"/>
<feComposite in2="SourceAlpha" operator="in" result="effect1_backgroundBlur_45_936"/>
<feBlend mode="normal" in="SourceGraphic" in2="effect1_backgroundBlur_45_936" result="shape"/>
</filter>
<linearGradient id="paint0_linear_45_936" x1="21.9604" y1="-2.14991e-07" x2="95.6104" y2="115.459" gradientUnits="userSpaceOnUse">
<stop stop-color="#DCF8C5"/>
<stop offset="1" stop-color="#98D664"/>
</linearGradient>
<linearGradient id="paint1_linear_45_936" x1="59.1378" y1="0" x2="59.1378" y2="115.459" gradientUnits="userSpaceOnUse">
<stop stop-color="#E2E2E2"/>
<stop offset="1" stop-color="#E2E2E2" stop-opacity="0"/>
</linearGradient>
<clipPath id="clip0_45_936">
<rect width="57.7297" height="57.7297" fill="white" transform="translate(30.2729 28.8649)"/>
</clipPath>
</defs>
</svg>
