<svg width="120" height="116" viewBox="0 0 120 116" fill="none" xmlns="http://www.w3.org/2000/svg">
<g filter="url(#filter0_b_45_1006)">
<rect x="0.914062" width="118.276" height="115.459" rx="57.7297" fill="url(#paint0_linear_45_1006)"/>
<rect x="2.54486" y="1.6308" width="115.014" height="112.198" rx="56.0989" stroke="url(#paint1_linear_45_1006)" stroke-opacity="0.15" stroke-width="3.26159"/>
<path d="M65.464 81.6636C64.7023 81.8641 64.0107 81.7338 63.3893 81.2727C62.7679 80.8117 62.4572 80.1803 62.4572 79.3785V67.3514C62.4572 66.5496 62.7679 65.9181 63.3893 65.4571C64.0107 64.9961 64.7223 64.8658 65.5241 65.0662C67.0075 65.4671 68.4908 65.7478 69.9742 65.9081C71.4575 66.0685 72.9609 66.1487 74.4843 66.1487C76.0077 66.1487 77.5212 66.0685 79.0245 65.9081C80.5279 65.7478 82.0213 65.4671 83.5046 65.0662C84.2663 64.8658 84.9579 64.9961 85.5793 65.4571C86.2007 65.9181 86.5114 66.5496 86.5114 67.3514V79.3785C86.5114 80.1803 86.2007 80.8117 85.5793 81.2727C84.9579 81.7338 84.2663 81.8641 83.5046 81.6636C82.0213 81.2627 80.5279 80.9821 79.0245 80.8217C77.5212 80.6613 76.0077 80.5812 74.4843 80.5812C72.9609 80.5812 71.4475 80.6613 69.9441 80.8217C68.4407 80.9821 66.9473 81.2627 65.464 81.6636ZM53.4369 81.7839L52.4748 74.0865C51.9536 73.8861 51.4625 73.6455 51.0014 73.3649C50.5404 73.0843 50.0894 72.7836 49.6484 72.4629L42.4923 75.4697L35.8774 64.0439L42.0713 59.3534C42.0312 59.0727 42.0112 58.8021 42.0112 58.5415V56.9179C42.0112 56.6573 42.0312 56.3867 42.0713 56.106L35.8774 51.4155L42.4923 39.9898L49.6484 42.9965C50.0894 42.6758 50.5504 42.3751 51.0315 42.0945C51.5126 41.8139 51.9937 41.5733 52.4748 41.3729L53.4369 33.6755H66.6667L67.6289 41.3729C68.1501 41.5733 68.6412 41.8139 69.1022 42.0945C69.5632 42.3751 70.0143 42.6758 70.4552 42.9965L77.6114 39.9898L84.2263 51.4155L78.0323 56.106C78.0724 56.3867 78.0924 56.6573 78.0924 56.9179V58.9324C78.0924 59.3333 78.0524 59.7342 77.9722 60.1351H68.2302C68.3505 59.7342 68.4407 59.3433 68.5008 58.9625C68.561 58.5816 68.591 58.1707 68.591 57.7297C68.591 55.4045 67.7692 53.42 66.1255 51.7763C64.4818 50.1326 62.4973 49.3107 60.1721 49.3107C57.8068 49.3107 55.8123 50.1326 54.1886 51.7763C52.565 53.42 51.7531 55.4045 51.7531 57.7297C51.7531 59.654 52.3044 61.3378 53.4069 62.7811C54.5093 64.2243 55.9225 65.2266 57.6464 65.7878V81.7839H53.4369Z" fill="#2F3132"/>
</g>
<defs>
<filter id="filter0_b_45_1006" x="-68.6666" y="-69.5806" width="257.437" height="254.621" filterUnits="userSpaceOnUse" color-interpolation-filters="sRGB">
<feFlood flood-opacity="0" result="BackgroundImageFix"/>
<feGaussianBlur in="BackgroundImageFix" stdDeviation="34.7903"/>
<feComposite in2="SourceAlpha" operator="in" result="effect1_backgroundBlur_45_1006"/>
<feBlend mode="normal" in="SourceGraphic" in2="effect1_backgroundBlur_45_1006" result="shape"/>
</filter>
<linearGradient id="paint0_linear_45_1006" x1="12.2313" y1="-13.5665" x2="97.5103" y2="115.459" gradientUnits="userSpaceOnUse">
<stop stop-color="#ECE9FF"/>
<stop offset="1" stop-color="#AA99FF"/>
</linearGradient>
<linearGradient id="paint1_linear_45_1006" x1="60.0518" y1="0" x2="60.0518" y2="115.459" gradientUnits="userSpaceOnUse">
<stop stop-color="#E2E2E2"/>
<stop offset="1" stop-color="#E2E2E2" stop-opacity="0"/>
</linearGradient>
</defs>
</svg>
