<svg width="126" height="107" viewBox="0 0 126 107" fill="none" xmlns="http://www.w3.org/2000/svg">
<circle cx="63" cy="35.695" r="24.4162" fill="white"/>
<path d="M63 3.15576C56.5644 3.15576 50.2733 5.06414 44.9223 8.63956C39.5713 12.215 35.4007 17.2969 32.938 23.2426C30.4752 29.1883 29.8308 35.7308 31.0863 42.0427C32.3418 48.3546 35.4409 54.1525 39.9915 58.7032C44.5422 63.2538 50.34 66.3529 56.652 67.6084C62.9639 68.8639 69.5064 68.2195 75.4521 65.7567C81.3978 63.2939 86.4797 59.1233 90.0551 53.7723C93.6306 48.4213 95.5389 42.1303 95.5389 35.6947C95.5389 27.0648 92.1107 18.7884 86.0085 12.6862C79.9063 6.58396 71.6299 3.15576 63 3.15576ZM64.3948 23.1433C67.3527 23.1468 70.1884 24.3233 72.2799 26.4148C74.3714 28.5063 75.5479 31.342 75.5513 34.2998H72.7617C72.7594 32.0815 71.8771 29.9547 70.3085 28.3861C68.74 26.8175 66.6132 25.9353 64.3948 25.933V23.1433ZM73.4298 55.218C73.3452 55.218 64.9697 55.0749 54.1993 44.4954C43.6198 33.7293 43.4766 25.3495 43.4766 25.2649C43.4766 24.2215 49.9844 16.1713 51.4226 16.1713C51.9216 16.1713 52.3099 16.5097 52.7351 17.0173C53.7589 18.2365 58.2862 25.382 58.0779 26.5729C57.9782 27.1326 57.5031 27.5578 56.1408 28.701C55.4695 29.2287 54.8414 29.809 54.2622 30.4364C54.5396 31.5844 54.9517 32.6955 55.49 33.7467C57.4956 37.8703 60.8278 41.201 64.9523 43.2047C66.0035 43.743 67.1147 44.1551 68.2626 44.4325C68.89 43.8533 69.4703 43.2251 69.998 42.5539C71.1412 41.1916 71.5664 40.7165 72.1261 40.6167C73.317 40.3998 80.4626 44.9357 81.6817 45.9596C82.1893 46.3935 82.5277 46.7731 82.5277 47.272C82.5234 48.7103 74.4732 55.218 73.4298 55.218ZM79.7337 34.2998C79.7291 30.2331 78.1116 26.3343 75.236 23.4587C72.3604 20.5831 68.4615 18.9656 64.3948 18.961V16.1713C69.2011 16.1771 73.8088 18.0889 77.2073 21.4874C80.6058 24.8859 82.5176 29.4936 82.5234 34.2998H79.7337Z" fill="url(#paint0_linear_45_1571)"/>
<path d="M18.0905 93.2111H13.8291C13.7513 92.6598 13.5924 92.1701 13.3524 91.742C13.1124 91.3074 12.8043 90.9377 12.4281 90.6329C12.0519 90.328 11.6174 90.0945 11.1244 89.9324C10.638 89.7702 10.1094 89.6891 9.53858 89.6891C8.5073 89.6891 7.60898 89.9453 6.84362 90.4577C6.07827 90.9636 5.48479 91.7031 5.0632 92.676C4.6416 93.6424 4.43081 94.8164 4.43081 96.1979C4.43081 97.6184 4.6416 98.8118 5.0632 99.7782C5.49128 100.745 6.088 101.474 6.85335 101.967C7.61871 102.46 8.50406 102.707 9.5094 102.707C10.0737 102.707 10.5958 102.632 11.0758 102.483C11.5622 102.334 11.9936 102.116 12.3698 101.831C12.7459 101.539 13.0573 101.186 13.3037 100.771C13.5567 100.355 13.7318 99.882 13.8291 99.3501L18.0905 99.3696C17.9802 100.284 17.7045 101.166 17.2635 102.016C16.8289 102.859 16.2419 103.615 15.5025 104.283C14.7696 104.944 13.894 105.47 12.8757 105.859C11.8638 106.242 10.719 106.433 9.44129 106.433C7.66411 106.433 6.07502 106.031 4.67403 105.227C3.27953 104.422 2.1769 103.258 1.36614 101.734C0.561865 100.21 0.159729 98.3643 0.159729 96.1979C0.159729 94.0251 0.568351 92.1765 1.3856 90.6523C2.20284 89.1281 3.31196 87.9671 4.71295 87.1693C6.11394 86.365 7.69006 85.9629 9.44129 85.9629C10.5958 85.9629 11.666 86.125 12.6519 86.4493C13.6443 86.7736 14.5231 87.2471 15.2885 87.8698C16.0538 88.486 16.6765 89.2416 17.1565 90.1367C17.6429 91.0318 17.9543 92.0566 18.0905 93.2111Z" fill="white"/>
<path d="M25.2949 106.443C24.3414 106.443 23.4917 106.277 22.7458 105.946C21.9999 105.609 21.4097 105.113 20.9751 104.458C20.5471 103.796 20.333 102.973 20.333 101.987C20.333 101.157 20.4854 100.459 20.7903 99.895C21.0951 99.3307 21.5102 98.8767 22.0356 98.5329C22.561 98.1891 23.1577 97.9297 23.8258 97.7546C24.5003 97.5794 25.2073 97.4562 25.9467 97.3849C26.8158 97.2941 27.5163 97.2097 28.0482 97.1319C28.5801 97.0476 28.966 96.9243 29.206 96.7622C29.4459 96.6 29.5659 96.3601 29.5659 96.0422V95.9839C29.5659 95.3677 29.3714 94.891 28.9822 94.5537C28.5995 94.2164 28.0547 94.0478 27.3477 94.0478C26.6018 94.0478 26.0083 94.2132 25.5673 94.544C25.1262 94.8683 24.8344 95.2769 24.6917 95.7698L20.8584 95.4585C21.053 94.5504 21.4357 93.7656 22.0064 93.1041C22.5772 92.436 23.3134 91.9236 24.2149 91.5669C25.123 91.2036 26.1737 91.022 27.3672 91.022C28.1974 91.022 28.9919 91.1193 29.7508 91.3139C30.5161 91.5085 31.1939 91.8101 31.7842 92.2187C32.3809 92.6273 32.8511 93.1527 33.1949 93.7948C33.5387 94.4305 33.7105 95.1926 33.7105 96.0812V106.161H29.78V104.088H29.6632C29.4232 104.555 29.1022 104.967 28.7001 105.324C28.2979 105.674 27.8147 105.95 27.2504 106.151C26.6861 106.345 26.0343 106.443 25.2949 106.443ZM26.4818 103.582C27.0915 103.582 27.6298 103.462 28.0968 103.222C28.5638 102.976 28.9303 102.645 29.1962 102.23C29.4622 101.815 29.5951 101.345 29.5951 100.819V99.2334C29.4654 99.3177 29.287 99.3955 29.06 99.4669C28.8395 99.5317 28.5898 99.5934 28.3109 99.6517C28.032 99.7036 27.7531 99.7523 27.4742 99.7977C27.1953 99.8366 26.9423 99.8723 26.7153 99.9047C26.2289 99.976 25.804 100.09 25.4408 100.245C25.0776 100.401 24.7954 100.612 24.5944 100.878C24.3933 101.137 24.2928 101.461 24.2928 101.851C24.2928 102.415 24.4971 102.846 24.9057 103.144C25.3208 103.436 25.8462 103.582 26.4818 103.582Z" fill="white"/>
<path d="M41.0706 86.2353V106.161H36.926V86.2353H41.0706Z" fill="white"/>
<path d="M48.5353 86.2353V106.161H44.3907V86.2353H48.5353Z" fill="white"/>
<path d="M51.9332 106.161V86.2353H59.911C61.3769 86.2353 62.5995 86.4526 63.5789 86.8872C64.5583 87.3217 65.2944 87.9249 65.7874 88.6968C66.2803 89.4621 66.5268 90.3442 66.5268 91.3431C66.5268 92.1214 66.3711 92.8057 66.0598 93.3959C65.7485 93.9797 65.3204 94.4596 64.7756 94.8358C64.2372 95.2055 63.621 95.4682 62.927 95.6239V95.8185C63.6859 95.8509 64.3961 96.0649 65.0577 96.4606C65.7258 96.8562 66.2674 97.4108 66.6825 98.1243C67.0976 98.8312 67.3051 99.6744 67.3051 100.654C67.3051 101.711 67.0424 102.655 66.5171 103.485C65.9982 104.309 65.2296 104.961 64.2113 105.441C63.193 105.921 61.9379 106.161 60.4461 106.161H51.9332ZM56.1458 102.716H59.5802C60.7542 102.716 61.6104 102.493 62.1487 102.045C62.687 101.591 62.9562 100.988 62.9562 100.235C62.9562 99.6842 62.8233 99.1977 62.5573 98.7761C62.2914 98.3545 61.912 98.0237 61.419 97.7837C60.9326 97.5438 60.3521 97.4238 59.6775 97.4238H56.1458V102.716ZM56.1458 94.5731H59.2689C59.8462 94.5731 60.3586 94.4726 60.8061 94.2715C61.2601 94.064 61.6168 93.7721 61.8763 93.3959C62.1422 93.0197 62.2752 92.569 62.2752 92.0436C62.2752 91.3236 62.019 90.7431 61.5066 90.3021C61.0007 89.861 60.2807 89.6405 59.3467 89.6405H56.1458V94.5731Z" fill="white"/>
<path d="M76.7788 106.452C75.2416 106.452 73.9185 106.141 72.8094 105.518C71.7067 104.889 70.8571 104.001 70.2603 102.853C69.6636 101.698 69.3653 100.333 69.3653 98.7567C69.3653 97.2195 69.6636 95.8704 70.2603 94.7094C70.8571 93.5483 71.697 92.6435 72.7802 91.9949C73.8698 91.3463 75.1476 91.022 76.6134 91.022C77.5993 91.022 78.5171 91.1809 79.3668 91.4987C80.2229 91.8101 80.9688 92.2803 81.6045 92.9095C82.2466 93.5386 82.746 94.3299 83.1028 95.2834C83.4595 96.2303 83.6379 97.3395 83.6379 98.6107V99.749H71.0192V97.1805H79.7365C79.7365 96.5838 79.6068 96.0552 79.3473 95.5947C79.0879 95.1342 78.7279 94.7742 78.2674 94.5148C77.8134 94.2488 77.2848 94.1159 76.6816 94.1159C76.0524 94.1159 75.4946 94.2618 75.0081 94.5537C74.5282 94.8391 74.152 95.225 73.8796 95.7114C73.6072 96.1914 73.4677 96.7265 73.4612 97.3168V99.7588C73.4612 100.498 73.5974 101.137 73.8698 101.675C74.1487 102.214 74.5412 102.629 75.0471 102.921C75.553 103.213 76.1529 103.359 76.8469 103.359C77.3075 103.359 77.729 103.294 78.1117 103.164C78.4944 103.034 78.822 102.84 79.0944 102.58C79.3668 102.321 79.5743 102.003 79.717 101.627L83.5503 101.88C83.3557 102.801 82.9568 103.605 82.3536 104.293C81.7569 104.974 80.9851 105.505 80.0381 105.888C79.0976 106.264 78.0112 106.452 76.7788 106.452Z" fill="white"/>
<path d="M90.6039 106.443C89.6504 106.443 88.8008 106.277 88.0549 105.946C87.309 105.609 86.7187 105.113 86.2842 104.458C85.8561 103.796 85.6421 102.973 85.6421 101.987C85.6421 101.157 85.7945 100.459 86.0993 99.895C86.4042 99.3307 86.8193 98.8767 87.3447 98.5329C87.87 98.1891 88.4667 97.9297 89.1348 97.7546C89.8094 97.5794 90.5163 97.4562 91.2557 97.3849C92.1249 97.2941 92.8254 97.2097 93.3572 97.1319C93.8891 97.0476 94.275 96.9243 94.515 96.7622C94.755 96.6 94.875 96.3601 94.875 96.0422V95.9839C94.875 95.3677 94.6804 94.891 94.2912 94.5537C93.9085 94.2164 93.3637 94.0478 92.6567 94.0478C91.9108 94.0478 91.3174 94.2132 90.8763 94.544C90.4353 94.8683 90.1434 95.2769 90.0007 95.7698L86.1674 95.4585C86.362 94.5504 86.7447 93.7656 87.3155 93.1041C87.8862 92.436 88.6224 91.9236 89.524 91.5669C90.432 91.2036 91.4828 91.022 92.6762 91.022C93.5064 91.022 94.301 91.1193 95.0598 91.3139C95.8252 91.5085 96.503 91.8101 97.0932 92.2187C97.6899 92.6273 98.1602 93.1527 98.5039 93.7948C98.8477 94.4305 99.0196 95.1926 99.0196 96.0812V106.161H95.089V104.088H94.9723C94.7323 104.555 94.4112 104.967 94.0091 105.324C93.6069 105.674 93.1237 105.95 92.5594 106.151C91.9952 106.345 91.3433 106.443 90.6039 106.443ZM91.7908 103.582C92.4005 103.582 92.9389 103.462 93.4059 103.222C93.8729 102.976 94.2393 102.645 94.5053 102.23C94.7712 101.815 94.9042 101.345 94.9042 100.819V99.2334C94.7744 99.3177 94.5961 99.3955 94.3691 99.4669C94.1485 99.5317 93.8988 99.5934 93.6199 99.6517C93.341 99.7036 93.0621 99.7523 92.7832 99.7977C92.5043 99.8366 92.2514 99.8723 92.0243 99.9047C91.5379 99.976 91.1131 100.09 90.7498 100.245C90.3866 100.401 90.1045 100.612 89.9034 100.878C89.7023 101.137 89.6018 101.461 89.6018 101.851C89.6018 102.415 89.8061 102.846 90.2147 103.144C90.6298 103.436 91.1552 103.582 91.7908 103.582Z" fill="white"/>
<path d="M114.669 95.478L110.874 95.7114C110.81 95.3871 110.67 95.0953 110.456 94.8358C110.242 94.5699 109.96 94.3591 109.61 94.2034C109.266 94.0413 108.854 93.9602 108.374 93.9602C107.732 93.9602 107.19 94.0964 106.749 94.3688C106.308 94.6348 106.088 94.9915 106.088 95.439C106.088 95.7958 106.23 96.0974 106.516 96.3438C106.801 96.5903 107.291 96.7881 107.985 96.9373L110.69 97.4821C112.143 97.7805 113.226 98.2605 113.939 98.9221C114.653 99.5836 115.009 100.453 115.009 101.529C115.009 102.509 114.721 103.368 114.143 104.108C113.573 104.847 112.788 105.424 111.789 105.839C110.797 106.248 109.652 106.452 108.355 106.452C106.376 106.452 104.8 106.041 103.626 105.217C102.459 104.387 101.775 103.258 101.573 101.831L105.65 101.617C105.773 102.22 106.072 102.681 106.545 102.999C107.019 103.31 107.625 103.466 108.364 103.466C109.091 103.466 109.675 103.326 110.116 103.047C110.563 102.762 110.79 102.395 110.797 101.948C110.79 101.572 110.631 101.264 110.32 101.024C110.009 100.777 109.529 100.589 108.88 100.459L106.292 99.9436C104.833 99.6517 103.746 99.1458 103.033 98.4259C102.326 97.7059 101.972 96.7881 101.972 95.6725C101.972 94.7126 102.232 93.8856 102.751 93.1916C103.276 92.4976 104.012 91.9625 104.959 91.5863C105.913 91.2101 107.028 91.022 108.306 91.022C110.193 91.022 111.679 91.4209 112.762 92.2187C113.852 93.0165 114.487 94.1029 114.669 95.478Z" fill="white"/>
<path d="M125.568 91.2166V94.3299H116.568V91.2166H125.568ZM118.612 87.6363H122.756V101.568C122.756 101.951 122.815 102.249 122.931 102.463C123.048 102.671 123.21 102.817 123.418 102.901C123.632 102.986 123.878 103.028 124.157 103.028C124.352 103.028 124.546 103.012 124.741 102.979C124.935 102.94 125.085 102.911 125.188 102.892L125.84 105.976C125.633 106.041 125.341 106.115 124.965 106.199C124.588 106.29 124.131 106.345 123.593 106.365C122.594 106.404 121.718 106.271 120.966 105.966C120.22 105.661 119.64 105.188 119.224 104.545C118.809 103.903 118.605 103.093 118.612 102.113V87.6363Z" fill="white"/>
<defs>
<linearGradient id="paint0_linear_45_1571" x1="140.819" y1="120.935" x2="28.1644" y2="111.926" gradientUnits="userSpaceOnUse">
<stop stop-color="#779DFF"/>
<stop offset="1" stop-color="#2563EB"/>
</linearGradient>
</defs>
</svg>
