<svg width="304" height="387" viewBox="0 0 304 387" fill="none" xmlns="http://www.w3.org/2000/svg">
<g filter="url(#filter0_b_45_607)">
<path d="M-18.0996 60.242C-11.5875 39.4999 -8.33148 29.1288 -1.80751 22.4737C3.93114 16.6197 11.3757 12.7327 19.4593 11.3699C28.6491 9.82047 39.0201 13.0765 59.7622 19.5886L226.953 72.0792C247.695 78.5913 258.066 81.8473 264.722 88.3713C270.576 94.1099 274.463 101.555 275.825 109.638C277.375 118.828 274.119 129.199 267.607 149.941L231.727 264.224C225.215 284.966 221.959 295.337 215.435 301.992C209.696 307.846 202.252 311.733 194.168 313.096C184.978 314.645 174.607 311.389 153.865 304.877L-13.3259 252.386C-34.068 245.874 -44.439 242.618 -51.0941 236.094C-56.9481 230.356 -60.8351 222.911 -62.198 214.827C-63.7474 205.638 -60.4913 195.267 -53.9792 174.525L-18.0996 60.242Z" fill="url(#paint0_linear_45_607)"/>
<path d="M-17.1076 60.5534C-13.8464 50.166 -11.4185 42.4353 -8.99464 36.4664C-6.57539 30.5088 -4.19262 26.3921 -1.065 23.2016C4.51994 17.5044 11.7651 13.7216 19.6322 12.3952C24.0378 11.6524 28.7777 12.0502 35.049 13.4703C41.3322 14.8931 49.0633 17.3195 59.4508 20.5807L226.642 73.0712C237.029 76.3324 244.76 78.7603 250.729 81.1841C256.687 83.6034 260.803 85.9862 263.994 89.1138C269.691 94.6987 273.474 101.944 274.8 109.811C275.543 114.217 275.145 118.956 273.725 125.228C272.302 131.511 269.876 139.242 266.615 149.63L230.735 263.912C227.474 274.3 225.046 282.03 222.622 287.999C220.203 293.957 217.82 298.073 214.692 301.264C209.108 306.961 201.862 310.744 193.995 312.07C189.59 312.813 184.85 312.415 178.578 310.995C172.295 309.572 164.564 307.146 154.177 303.885L-13.0144 251.394C-23.4018 248.133 -31.1325 245.705 -37.1014 243.281C-43.0591 240.862 -47.1758 238.479 -50.3662 235.352C-56.0634 229.767 -59.8463 222.522 -61.1727 214.655C-61.9155 210.249 -61.5177 205.509 -60.0976 199.238C-58.6748 192.955 -56.2484 185.223 -52.9872 174.836L-17.1076 60.5534Z" stroke="url(#paint1_linear_45_607)" stroke-width="2.07956"/>
</g>
<rect opacity="0.15" x="13.8531" y="37.1487" width="44.3639" height="5.54549" rx="2.77274" transform="rotate(17.43 13.8531 37.1487)" fill="#1B1B1B"/>
<path d="M248.097 123.578L244.979 117.606M244.979 117.606C246.879 116.614 248.401 114.897 249.094 112.69C250.479 108.277 248.025 103.576 243.611 102.19C239.198 100.804 234.496 103.259 233.111 107.672C231.725 112.086 234.18 116.787 238.593 118.173C240.8 118.866 243.079 118.598 244.979 117.606Z" stroke="#A8A8A8" stroke-width="2.07956" stroke-linecap="round" stroke-linejoin="round"/>
<g filter="url(#filter1_dddddd_45_607)">
<path d="M-18.8132 99.5418C-14.1617 84.726 -11.836 77.3181 -7.17602 72.5645C-3.07698 68.3831 2.24059 65.6066 8.01455 64.6332C14.5787 63.5265 21.9866 65.8522 36.8024 70.5037L216.692 126.981C231.507 131.632 238.915 133.958 243.669 138.618C247.85 142.717 250.627 148.035 251.6 153.809C252.707 160.373 250.381 167.781 245.73 182.596L219.152 267.25C214.501 282.066 212.175 289.474 207.515 294.228C203.416 298.409 198.098 301.185 192.324 302.159C185.76 303.266 178.352 300.94 163.537 296.288L-16.3526 239.811C-31.1684 235.16 -38.5763 232.834 -43.3299 228.174C-47.5114 224.075 -50.2878 218.757 -51.2613 212.983C-52.368 206.419 -50.0422 199.011 -45.3907 184.196L-18.8132 99.5418Z" fill="#F1F1F1"/>
<path d="M-17.8212 99.8533C-15.4903 92.429 -13.7601 86.9207 -12.0344 82.671C-10.3133 78.4327 -8.62914 75.5321 -6.4335 73.2924C-2.48818 69.2678 2.62998 66.5954 8.18742 65.6585C11.2802 65.137 14.6229 65.4129 19.0844 66.4232C23.5579 67.4362 29.0666 69.1648 36.4909 71.4957L216.38 127.973C223.804 130.304 229.313 132.034 233.562 133.76C237.801 135.481 240.701 137.165 242.941 139.361C246.966 143.306 249.638 148.424 250.575 153.982C251.096 157.074 250.82 160.417 249.81 164.879C248.797 169.352 247.069 174.861 244.738 182.285L218.16 266.939C215.829 274.363 214.099 279.871 212.373 284.121C210.652 288.359 208.968 291.26 206.772 293.5C202.827 297.524 197.709 300.197 192.151 301.134C189.059 301.655 185.716 301.379 181.254 300.369C176.781 299.356 171.272 297.627 163.848 295.296L-16.0412 238.819C-23.4654 236.488 -28.9737 234.758 -33.2234 233.032C-37.4618 231.311 -40.3623 229.627 -42.6021 227.431C-46.6267 223.486 -49.299 218.368 -50.236 212.81C-50.7574 209.718 -50.4815 206.375 -49.4712 201.913C-48.4582 197.44 -46.7296 191.931 -44.3987 184.507L-17.8212 99.8533Z" stroke="url(#paint2_linear_45_607)" stroke-width="2.07956"/>
</g>
<circle cx="11.7188" cy="90.2353" r="4.15911" transform="rotate(17.43 11.7188 90.2353)" fill="#00A656"/>
<g filter="url(#filter2_f_45_607)">
<circle cx="11.7173" cy="90.227" r="2.77274" transform="rotate(17.43 11.7173 90.227)" fill="#00A656"/>
</g>
<path d="M28.2118 99.7222C27.7321 99.5715 27.3435 99.3527 27.0462 99.0656C26.7581 98.7736 26.572 98.4285 26.4878 98.0301C26.4129 97.6268 26.4475 97.1959 26.5914 96.7374L27.6678 93.3089C27.814 92.8433 28.0319 92.47 28.3217 92.1889C28.6184 91.9101 28.9673 91.7368 29.3684 91.669C29.7787 91.5963 30.2237 91.6353 30.7034 91.7859C31.1831 91.9365 31.567 92.1577 31.8551 92.4497C32.1524 92.7368 32.3397 93.0784 32.4168 93.4746C32.5009 93.873 32.471 94.3015 32.3271 94.7601L31.2474 98.1991C31.1034 98.6577 30.8819 99.0299 30.5829 99.3157C30.2932 99.5968 29.9432 99.7736 29.5329 99.8463C29.1318 99.9141 28.6915 99.8728 28.2118 99.7222ZM28.5307 98.7063C28.9187 98.8281 29.2447 98.8142 29.5086 98.6646C29.7819 98.5101 29.9805 98.2354 30.1045 97.8403L31.1809 94.4119C31.3072 94.0097 31.3012 93.6708 31.1631 93.3949C31.032 93.1213 30.7725 92.9235 30.3845 92.8017C30.0035 92.6821 29.6776 92.696 29.4065 92.8434C29.1355 92.9908 28.9369 93.2656 28.8106 93.6677L27.7342 97.0962C27.6102 97.4912 27.6162 97.8302 27.7521 98.1131C27.8902 98.389 28.1498 98.5867 28.5307 98.7063ZM32.0926 100.824L33.9198 95.0044L35.052 95.3598L34.7032 96.4709L34.9783 96.5573L34.6202 96.7355C34.7663 96.2699 35.018 95.9498 35.375 95.7751C35.7321 95.6005 36.154 95.5896 36.6408 95.7424C37.2192 95.924 37.6226 96.256 37.8509 96.7384C38.0814 97.2138 38.0981 97.7654 37.901 98.3932L36.6851 102.266L35.5422 101.907L36.7183 98.1614C36.8379 97.7805 36.8275 97.4556 36.6872 97.1868C36.5468 96.918 36.3003 96.7282 35.9476 96.6175C35.5878 96.5045 35.2677 96.5242 34.9874 96.6764C34.7164 96.8238 34.5167 97.1021 34.3882 97.5113L33.2354 101.183L32.0926 100.824ZM41.3475 103.73C40.9877 103.617 40.6959 103.448 40.4721 103.223C40.2506 102.99 40.1043 102.716 40.0332 102.399C39.9693 102.084 39.9926 101.751 40.1034 101.398L41.6482 96.4775L39.7435 95.8795L40.0691 94.8425L43.1166 95.7993L41.2462 101.757C41.1753 101.983 41.1823 102.182 41.2672 102.356C41.3544 102.523 41.5073 102.641 41.7259 102.71L43.5248 103.274L43.1993 104.311L41.3475 103.73ZM44.3274 104.665L44.6529 103.628L46.6952 104.27L47.8713 100.524L46.0935 99.9656L46.4191 98.9286L49.3079 99.8356L47.8063 104.618L49.6793 105.207L49.3537 106.244L44.3274 104.665ZM48.9569 98.621C48.71 98.5435 48.5324 98.418 48.4241 98.2445C48.318 98.0639 48.2993 97.8643 48.368 97.6456C48.4389 97.4199 48.5683 97.2668 48.7563 97.1863C48.9466 97.0988 49.1651 97.0938 49.412 97.1713C49.6589 97.2488 49.8354 97.3778 49.9415 97.5584C50.0498 97.7319 50.0685 97.9315 49.9976 98.1572C49.9289 98.3759 49.7995 98.529 49.6093 98.6166C49.4213 98.697 49.2038 98.6985 48.9569 98.621ZM50.4924 106.601L52.3196 100.781L53.4518 101.137L53.103 102.248L53.3781 102.334L53.0199 102.512C53.1661 102.047 53.4177 101.726 53.7748 101.552C54.1319 101.377 54.5538 101.366 55.0406 101.519C55.619 101.701 56.0224 102.033 56.2507 102.515C56.4812 102.99 56.4979 103.542 56.3008 104.17L55.0848 108.043L53.942 107.684L55.1181 103.938C55.2377 103.557 55.2273 103.232 55.0869 102.964C54.9466 102.695 54.7001 102.505 54.3473 102.394C53.9876 102.281 53.6675 102.301 53.3872 102.453C53.1162 102.601 52.9165 102.879 52.788 103.288L51.6352 106.96L50.4924 106.601ZM58.8781 109.35C58.4054 109.202 58.018 108.979 57.7158 108.683C57.4229 108.382 57.2343 108.032 57.1502 107.633C57.066 107.235 57.0948 106.81 57.2366 106.359L57.7149 104.835C57.8589 104.376 58.0782 104.011 58.3727 103.739C58.6695 103.461 59.0231 103.285 59.4334 103.212C59.853 103.135 60.2991 103.17 60.7717 103.318C61.2514 103.469 61.6377 103.695 61.9307 103.996C62.2258 104.29 62.4154 104.637 62.4996 105.035C62.586 105.426 62.5572 105.851 62.4132 106.31L62.0877 107.347L58.4899 106.217L58.3371 106.704C58.202 107.134 58.2048 107.496 58.3455 107.788C58.4934 108.082 58.7718 108.294 59.181 108.422C59.5126 108.526 59.7984 108.554 60.0384 108.505C60.2806 108.45 60.4618 108.317 60.5821 108.106L61.7143 108.462C61.4747 108.929 61.0967 109.244 60.5804 109.408C60.0663 109.564 59.4989 109.545 58.8781 109.35ZM61.2031 106.314L61.3161 105.954C61.4489 105.53 61.4461 105.169 61.3076 104.87C61.169 104.571 60.8952 104.357 60.486 104.228C60.0839 104.102 59.737 104.121 59.4452 104.285C59.1605 104.452 58.9506 104.75 58.8154 105.18L58.7324 105.445L61.3177 106.245L61.2031 106.314Z" fill="#727272"/>
<path d="M-2.94299 123.865L7.44607 109.806L11.1708 110.975L11.6598 128.45L8.52759 127.466L8.46903 123.728L2.37396 121.814L0.168038 124.842L-2.94299 123.865ZM3.99666 119.534L8.44098 120.929L8.28178 112.254L9.08599 112.506L3.99666 119.534ZM11.4296 133.027L16.373 117.282L18.9761 118.099L18.2585 120.385L18.1839 119.733C18.7739 119.237 19.4606 118.925 20.2442 118.799C21.0322 118.659 21.8706 118.729 22.7594 119.008C23.8458 119.349 24.7422 119.925 25.4487 120.736C26.1551 121.546 26.6205 122.483 26.845 123.545C27.0835 124.612 27.0256 125.71 26.6712 126.839C26.3213 127.953 25.7484 128.889 24.9525 129.647C24.1567 130.405 23.2372 130.914 22.1942 131.176C21.1555 131.423 20.0789 131.372 18.9643 131.022C18.1318 130.761 17.4138 130.357 16.8103 129.811C16.2252 129.255 15.8256 128.603 15.6113 127.854L16.2285 127.443L14.202 133.898L11.4296 133.027ZM19.4441 128.383C20.079 128.582 20.6899 128.611 21.2767 128.47C21.8636 128.329 22.373 128.039 22.8049 127.601C23.251 127.168 23.5804 126.612 23.793 125.935C24.0056 125.258 24.0506 124.621 23.9278 124.024C23.8237 123.418 23.5712 122.89 23.1704 122.438C22.774 121.973 22.2584 121.64 21.6235 121.441C21.0168 121.251 20.4201 121.226 19.8332 121.367C19.2605 121.513 18.7489 121.81 18.2984 122.257C17.8664 122.695 17.5463 123.245 17.3381 123.909C17.1255 124.586 17.0713 125.227 17.1755 125.834C17.2938 126.444 17.5462 126.973 17.9329 127.42C18.3337 127.871 18.8375 128.192 19.4441 128.383ZM25.2255 137.359L30.1689 121.613L32.772 122.43L32.0544 124.716L31.9799 124.065C32.5698 123.568 33.2566 123.257 34.0401 123.131C34.8281 122.991 35.6665 123.06 36.5553 123.339C37.6417 123.68 38.5381 124.256 39.2446 125.067C39.951 125.878 40.4164 126.814 40.6409 127.877C40.8794 128.944 40.8215 130.041 40.4671 131.17C40.1172 132.285 39.5443 133.221 38.7485 133.978C37.9526 134.736 37.0331 135.246 35.9901 135.507C34.9514 135.754 33.8748 135.703 32.7602 135.353C31.9278 135.092 31.2098 134.688 30.6062 134.142C30.0212 133.587 29.6215 132.934 29.4073 132.185L30.0244 131.774L27.9979 138.229L25.2255 137.359ZM33.2401 132.714C33.875 132.913 34.4858 132.942 35.0727 132.801C35.6595 132.66 36.1689 132.37 36.6009 131.932C37.0469 131.499 37.3763 130.944 37.5889 130.266C37.8015 129.589 37.8465 128.952 37.7238 128.356C37.6196 127.75 37.3671 127.221 36.9663 126.769C36.5699 126.304 36.0543 125.972 35.4194 125.772C34.8127 125.582 34.216 125.557 33.6291 125.699C33.0564 125.844 32.5448 126.141 32.0943 126.588C31.6623 127.026 31.3422 127.577 31.1341 128.24C30.9214 128.917 30.8672 129.559 30.9714 130.165C31.0897 130.776 31.3422 131.304 31.7288 131.751C32.1296 132.203 32.6334 132.523 33.2401 132.714ZM45.9 139.479C44.7713 139.124 43.8233 138.54 43.056 137.725C42.3028 136.915 41.7928 135.973 41.5261 134.897C41.2734 133.826 41.3287 132.712 41.692 131.555C42.0552 130.398 42.6466 129.452 43.4662 128.717C44.3 127.987 45.2573 127.505 46.3383 127.271C47.4193 127.037 48.5312 127.099 49.674 127.458C50.8027 127.812 51.7437 128.394 52.4969 129.204C53.2501 130.014 53.753 130.955 54.0056 132.026C54.2768 133.088 54.2286 134.204 53.8609 135.375C53.4977 136.532 52.8992 137.476 52.0655 138.206C51.2317 138.936 50.2744 139.418 49.1934 139.652C48.1124 139.886 47.0146 139.828 45.9 139.479ZM46.6974 136.939C47.3181 137.134 47.9078 137.156 48.4665 137.006C49.0392 136.86 49.5415 136.569 49.9735 136.131C50.424 135.683 50.7534 135.128 50.9615 134.465C51.1742 133.788 51.2191 133.151 51.0964 132.554C50.9922 131.948 50.7468 131.421 50.3601 130.975C49.992 130.518 49.4975 130.192 48.8767 129.997C48.2418 129.798 47.6358 129.778 47.0586 129.938C46.4859 130.084 45.9765 130.373 45.5304 130.807C45.1029 131.23 44.7828 131.781 44.5702 132.458C44.362 133.121 44.3078 133.763 44.4075 134.383C44.5258 134.994 44.7783 135.523 45.165 135.97C45.5517 136.417 46.0624 136.74 46.6974 136.939ZM53.7328 141.659L57.3474 130.146L60.1198 131.016L56.5053 142.529L53.7328 141.659ZM57.7527 128.855L58.6829 125.892L61.4553 126.762L60.5251 129.725L57.7527 128.855ZM58.6418 143.2L62.2563 131.687L64.8594 132.504L64.1485 134.769L64.0631 134.3C64.5482 133.693 65.1495 133.308 65.8669 133.146C66.6029 132.974 67.38 133.017 68.1983 133.274C69.0449 133.539 69.735 133.957 70.2689 134.528C70.8168 135.103 71.1701 135.78 71.3288 136.558C71.4918 137.322 71.4383 138.135 71.1681 138.995L68.8425 146.402L66.0701 145.532L68.1897 138.781C68.3492 138.273 68.3877 137.805 68.3054 137.376C68.223 136.947 68.0365 136.578 67.7458 136.27C67.4736 135.952 67.1047 135.72 66.6391 135.574C66.1876 135.432 65.7523 135.412 65.3331 135.513C64.9184 135.599 64.5547 135.795 64.242 136.1C63.9293 136.405 63.6932 136.811 63.5337 137.319L61.4142 144.07L58.6418 143.2ZM75.9723 148.78C74.6743 148.373 73.7762 147.703 73.2781 146.772C72.7986 145.831 72.7626 144.712 73.1701 143.414L74.7648 138.334L72.7754 137.71L73.5528 135.234L73.7644 135.3C74.3288 135.477 74.8127 135.466 75.2161 135.268C75.6195 135.069 75.9098 134.687 76.087 134.123L76.3661 133.234L79.1385 134.104L78.3146 136.729L80.96 137.559L80.1826 140.035L77.5372 139.205L75.989 144.136C75.8694 144.517 75.831 144.861 75.8739 145.169C75.9308 145.481 76.0782 145.752 76.3161 145.982C76.5681 146.216 76.9198 146.404 77.3713 146.546C77.4701 146.577 77.5851 146.605 77.7166 146.631C77.8621 146.661 78.0005 146.689 78.1319 146.715L77.3878 149.085C77.1814 149.052 76.9468 149.009 76.684 148.957C76.4212 148.906 76.1839 148.847 75.9723 148.78ZM79.0827 149.617L82.6972 138.105L85.3003 138.922L84.4631 141.588L84.3064 141.051C84.7793 140.285 85.3975 139.797 86.1609 139.587C86.9242 139.377 87.7362 139.408 88.5969 139.678C89.5422 139.975 90.2971 140.483 90.8616 141.203C91.4261 141.922 91.688 142.717 91.6471 143.588L90.8441 143.406C91.4848 142.599 92.2287 142.081 93.0759 141.851C93.9275 141.607 94.8119 141.629 95.729 141.917C96.5473 142.174 97.2163 142.585 97.736 143.152C98.2699 143.722 98.6161 144.397 98.7748 145.175C98.9378 145.939 98.8843 146.751 98.6141 147.612L96.2885 155.019L93.5161 154.149L95.6357 147.398C95.7951 146.89 95.8408 146.424 95.7725 145.999C95.7043 145.575 95.5389 145.213 95.2764 144.914C95.0183 144.6 94.6565 144.37 94.1909 144.224C93.7535 144.087 93.3323 144.071 92.9273 144.176C92.5266 144.267 92.177 144.467 91.8784 144.777C91.5799 145.086 91.3508 145.495 91.1914 146.002L89.0718 152.754L86.2994 151.883L88.419 145.132C88.5784 144.624 88.624 144.158 88.5558 143.734C88.4875 143.309 88.3151 142.945 88.0385 142.641C87.7804 142.328 87.4257 142.1 86.9742 141.958C86.5368 141.821 86.1156 141.805 85.7105 141.91C85.3099 142.001 84.9603 142.202 84.6617 142.511C84.3631 142.82 84.1341 143.229 83.9746 143.737L81.8551 150.488L79.0827 149.617ZM103.591 157.591C102.406 157.219 101.453 156.625 100.733 155.81C100.012 154.995 99.5489 154.051 99.343 152.979C99.1371 151.907 99.2092 150.814 99.5591 149.699C99.9223 148.542 100.49 147.597 101.263 146.863C102.055 146.119 102.963 145.622 103.987 145.37C105.026 145.122 106.081 145.167 107.154 145.504C108.057 145.787 108.8 146.183 109.384 146.692C109.983 147.206 110.44 147.799 110.756 148.471C111.071 149.144 111.25 149.859 111.291 150.616C111.337 151.359 111.238 152.118 110.994 152.894C110.932 153.092 110.854 153.292 110.759 153.494C110.679 153.702 110.586 153.874 110.481 154.011L101.592 151.221L102.257 149.104L109.579 151.403L107.955 151.986C108.286 151.377 108.432 150.787 108.394 150.218C108.37 149.652 108.186 149.152 107.841 148.719C107.511 148.29 107.043 147.98 106.436 147.789C105.858 147.608 105.296 147.594 104.752 147.749C104.211 147.889 103.733 148.204 103.316 148.693C102.917 149.172 102.622 149.816 102.431 150.624C102.153 151.312 102.047 151.968 102.114 152.594C102.2 153.21 102.436 153.741 102.823 154.188C103.224 154.639 103.742 154.965 104.376 155.164C105.011 155.363 105.59 155.397 106.111 155.267C106.647 155.14 107.112 154.891 107.508 154.52L109.406 156.324C109.007 156.804 108.502 157.18 107.889 157.452C107.277 157.725 106.601 157.877 105.863 157.909C105.139 157.945 104.381 157.839 103.591 157.591ZM110.746 159.558L114.361 148.045L116.964 148.863L116.253 151.127L116.167 150.659C116.652 150.051 117.254 149.667 117.971 149.504C118.707 149.333 119.484 149.375 120.303 149.632C121.149 149.898 121.839 150.316 122.373 150.886C122.921 151.461 123.274 152.138 123.433 152.916C123.596 153.681 123.542 154.493 123.272 155.354L120.947 162.761L118.174 161.89L120.294 155.139C120.453 154.631 120.492 154.163 120.41 153.734C120.327 153.305 120.141 152.937 119.85 152.629C119.578 152.311 119.209 152.079 118.743 151.932C118.292 151.791 117.856 151.77 117.437 151.871C117.023 151.958 116.659 152.154 116.346 152.458C116.033 152.763 115.797 153.17 115.638 153.678L113.518 160.429L110.746 159.558ZM128.076 165.139C126.778 164.731 125.88 164.062 125.382 163.13C124.903 162.189 124.867 161.07 125.274 159.772L126.869 154.693L124.88 154.068L125.657 151.592L125.869 151.658C126.433 151.836 126.917 151.825 127.32 151.626C127.724 151.427 128.014 151.046 128.191 150.481L128.47 149.592L131.243 150.463L130.419 153.087L133.064 153.918L132.287 156.394L129.641 155.563L128.093 160.494C127.974 160.875 127.935 161.22 127.978 161.527C128.035 161.84 128.182 162.111 128.42 162.341C128.672 162.575 129.024 162.763 129.476 162.904C129.574 162.935 129.689 162.964 129.821 162.989C129.966 163.02 130.105 163.048 130.236 163.073L129.492 165.444C129.286 165.41 129.051 165.367 128.788 165.316C128.525 165.264 128.288 165.205 128.076 165.139Z" fill="#1B1B1B"/>
<rect opacity="0.15" x="-10.9441" y="148.517" width="44.3639" height="5.54549" rx="2.77274" transform="rotate(17.43 -10.9441 148.517)" fill="#1B1B1B"/>
<rect opacity="0.1" x="-14.2663" y="159.098" width="88.7278" height="5.54549" rx="2.77274" transform="rotate(17.43 -14.2663 159.098)" fill="#727272"/>
<rect opacity="0.15" x="129.266" y="192.532" width="44.3639" height="5.54549" rx="2.77274" transform="rotate(17.43 129.266 192.532)" fill="#1B1B1B"/>
<rect opacity="0.1" x="125.944" y="203.114" width="88.7278" height="5.54549" rx="2.77274" transform="rotate(17.43 125.944 203.114)" fill="#727272"/>
<path d="M-23.0646 198.253C-23.5513 198.1 -23.9447 197.872 -24.2447 197.569C-24.5376 197.267 -24.7297 196.916 -24.8209 196.516C-24.9099 196.108 -24.8824 195.675 -24.7384 195.217L-23.682 191.852C-23.5358 191.386 -23.3143 191.014 -23.0175 190.735C-22.7137 190.458 -22.352 190.281 -21.9324 190.204C-21.5128 190.126 -21.0597 190.164 -20.5729 190.317C-20.0791 190.472 -19.6857 190.7 -19.3928 191.001C-19.0928 191.304 -18.9008 191.655 -18.8166 192.054C-18.7254 192.454 -18.7529 192.888 -18.899 193.353L-19.9555 196.718C-20.0995 197.177 -20.3245 197.548 -20.6305 197.831C-20.9343 198.108 -21.2961 198.285 -21.7156 198.363C-22.1282 198.442 -22.5778 198.406 -23.0646 198.253ZM-22.7556 197.269C-22.3605 197.393 -22.009 197.372 -21.7009 197.205C-21.3857 197.04 -21.1672 196.764 -21.0454 196.376L-19.989 193.011C-19.8671 192.623 -19.8885 192.271 -20.0531 191.956C-20.2106 191.643 -20.4868 191.425 -20.8819 191.301C-21.2769 191.177 -21.632 191.197 -21.9472 191.362C-22.2553 191.528 -22.4702 191.806 -22.5921 192.194L-23.6485 195.559C-23.7703 195.947 -23.7525 196.297 -23.595 196.61C-23.4304 196.925 -23.1506 197.145 -22.7556 197.269ZM-22.0247 194.941C-22.2222 194.879 -22.3646 194.764 -22.4517 194.598C-22.5317 194.433 -22.5396 194.248 -22.4754 194.044C-22.4134 193.846 -22.3036 193.706 -22.146 193.624C-21.9792 193.537 -21.797 193.524 -21.5995 193.586C-21.4019 193.648 -21.2631 193.762 -21.1831 193.926C-21.0938 194.086 -21.0801 194.265 -21.1421 194.462C-21.2063 194.667 -21.3219 194.813 -21.4887 194.9C-21.6485 194.989 -21.8272 195.003 -22.0247 194.941ZM-15.5659 195.829C-15.841 195.743 -16.0424 195.595 -16.17 195.384C-16.2906 195.176 -16.311 194.945 -16.2313 194.691C-16.1516 194.437 -16.0038 194.262 -15.788 194.167C-15.5629 194.067 -15.3128 194.061 -15.0376 194.147C-14.7555 194.236 -14.5541 194.384 -14.4335 194.592C-14.3107 194.794 -14.2892 195.021 -14.3689 195.275C-14.4486 195.529 -14.5975 195.707 -14.8156 195.809C-15.0336 195.911 -15.2837 195.918 -15.5659 195.829ZM-16.9313 200.179C-17.2064 200.092 -17.4078 199.944 -17.5354 199.733C-17.656 199.525 -17.6775 199.297 -17.6 199.05C-17.5181 198.789 -17.3692 198.611 -17.1534 198.516C-16.9283 198.416 -16.6782 198.41 -16.4031 198.496C-16.1209 198.585 -15.9195 198.733 -15.7989 198.941C-15.6761 199.143 -15.6557 199.374 -15.7376 199.635C-15.8152 199.882 -15.9629 200.056 -16.181 200.158C-16.399 200.26 -16.6491 200.267 -16.9313 200.179ZM-9.70663 202.331L-9.20166 200.722L-12.6619 199.636L-12.1237 197.922L-7.73645 194.463L-6.46665 194.862L-11.1096 198.542L-11.2391 198.955L-8.87941 199.696L-8.31132 197.886L-7.17907 198.242L-8.57439 202.686L-9.70663 202.331ZM-4.66477 204.03C-5.15858 203.875 -5.5588 203.656 -5.86542 203.374C-6.17205 203.091 -6.37539 202.764 -6.47547 202.392C-6.57333 202.012 -6.55692 201.614 -6.42625 201.198C-6.28007 200.733 -6.02796 200.374 -5.6699 200.122C-5.31184 199.87 -4.82951 199.704 -4.22291 199.623L-2.94904 199.453C-2.62478 199.408 -2.35072 199.3 -2.12687 199.13C-1.9008 198.953 -1.74568 198.731 -1.66152 198.463C-1.56185 198.145 -1.58552 197.863 -1.73251 197.615C-1.87951 197.367 -2.12937 197.188 -2.48209 197.078C-2.83481 196.967 -3.14689 196.973 -3.41833 197.097C-3.68049 197.217 -3.86141 197.435 -3.96107 197.752C-4.04302 198.013 -4.04183 198.281 -3.9575 198.556C-3.87096 198.823 -3.71359 199.062 -3.48539 199.273L-2.53377 200.13C-2.05842 200.566 -1.75044 200.992 -1.60984 201.408C-1.45998 201.82 -1.45703 202.255 -1.60099 202.713C-1.80032 203.348 -2.17736 203.784 -2.73213 204.02C-3.27983 204.259 -3.92405 204.262 -4.66477 204.03ZM-4.35248 203.035C-3.95743 203.159 -3.61139 203.155 -3.31436 203.024C-3.01512 202.885 -2.81235 202.647 -2.70604 202.308C-2.61966 202.033 -2.61753 201.755 -2.69964 201.473C-2.77953 201.185 -2.936 200.93 -3.16905 200.71L-4.14244 199.811C-4.58695 199.4 -4.88636 198.996 -5.04065 198.599C-5.19495 198.202 -5.20233 197.781 -5.0628 197.337C-4.94099 196.949 -4.74186 196.635 -4.46542 196.397C-4.18193 196.16 -3.84541 196.014 -3.45585 195.958C-3.06408 195.895 -2.6354 195.937 -2.1698 196.083C-1.70421 196.229 -1.32868 196.44 -1.04322 196.716C-0.755547 196.984 -0.566512 197.295 -0.476117 197.649C-0.385722 198.003 -0.401431 198.374 -0.523244 198.762C-0.664991 199.213 -0.91157 199.555 -1.26298 199.785C-1.60734 200.018 -2.08503 200.182 -2.69607 200.277L-4.01891 200.454C-4.32684 200.497 -4.59495 200.611 -4.82324 200.795C-5.04447 200.981 -5.19717 201.208 -5.28133 201.476C-5.38986 201.822 -5.36094 202.137 -5.19459 202.422C-5.02823 202.707 -4.74753 202.911 -4.35248 203.035Z" fill="#727272"/>
<path d="M171.798 259.32L172.117 258.305L174.169 258.949L175.963 253.235L173.418 254.121L173.807 252.883L175.979 252.147L177.419 252.599L175.312 259.308L176.974 259.829L176.655 260.845L171.798 259.32ZM181.517 257.71C181.242 257.624 181.041 257.475 180.913 257.265C180.792 257.057 180.772 256.825 180.852 256.571C180.931 256.317 181.079 256.143 181.295 256.048C181.52 255.948 181.77 255.941 182.045 256.028C182.327 256.116 182.529 256.265 182.649 256.473C182.772 256.675 182.794 256.902 182.714 257.156C182.634 257.41 182.485 257.588 182.267 257.69C182.049 257.792 181.799 257.799 181.517 257.71ZM180.152 262.059C179.877 261.973 179.675 261.825 179.548 261.614C179.427 261.406 179.405 261.178 179.483 260.931C179.565 260.67 179.714 260.492 179.93 260.397C180.155 260.297 180.405 260.29 180.68 260.377C180.962 260.465 181.163 260.614 181.284 260.822C181.407 261.024 181.427 261.255 181.345 261.516C181.268 261.763 181.12 261.937 180.902 262.039C180.684 262.141 180.434 262.148 180.152 262.059ZM186.264 263.978C185.594 263.768 185.104 263.428 184.794 262.959C184.486 262.482 184.398 261.947 184.53 261.353L185.663 261.709C185.609 262.002 185.661 262.258 185.816 262.478C185.972 262.697 186.23 262.863 186.59 262.976C186.992 263.103 187.329 263.092 187.6 262.945C187.88 262.792 188.081 262.522 188.203 262.134L188.439 261.383C188.563 260.988 188.556 260.652 188.417 260.377C188.282 260.094 188.013 259.889 187.61 259.763C187.356 259.683 187.119 259.674 186.898 259.737C186.679 259.792 186.495 259.909 186.346 260.087L185.214 259.731L186.606 255.483L190.817 256.806L190.492 257.843L187.37 256.863L186.595 259.258L186.891 259.351L186.498 259.53C186.602 259.198 186.814 258.978 187.135 258.87C187.456 258.761 187.835 258.776 188.273 258.913C188.9 259.11 189.326 259.457 189.55 259.953C189.783 260.445 189.79 261.04 189.571 261.738L189.335 262.49C189.12 263.174 188.742 263.652 188.199 263.923C187.657 264.195 187.012 264.213 186.264 263.978ZM191.15 265.396L194.509 262.545L194.466 262.497C194.261 262.657 194.021 262.756 193.746 262.793C193.48 262.826 193.202 262.797 192.913 262.706C192.496 262.576 192.164 262.363 191.916 262.068C191.667 261.773 191.515 261.419 191.459 261.006C191.402 260.593 191.449 260.147 191.6 259.667C191.757 259.166 191.999 258.765 192.326 258.465C192.655 258.158 193.039 257.96 193.477 257.873C193.924 257.781 194.398 257.814 194.899 257.971C195.407 258.13 195.818 258.376 196.133 258.707C196.447 259.038 196.651 259.427 196.743 259.875C196.835 260.322 196.801 260.8 196.642 261.308C196.524 261.682 196.345 262.044 196.103 262.394C195.868 262.747 195.586 263.065 195.257 263.349L192.42 265.795L191.15 265.396ZM193.657 261.964C194.081 262.096 194.462 262.065 194.803 261.87C195.143 261.674 195.384 261.351 195.526 260.899C195.668 260.448 195.655 260.045 195.487 259.69C195.32 259.335 195.024 259.091 194.601 258.958C194.178 258.825 193.796 258.857 193.455 259.052C193.115 259.247 192.874 259.571 192.732 260.022C192.591 260.474 192.603 260.877 192.771 261.232C192.939 261.587 193.234 261.831 193.657 261.964Z" fill="#727272"/>
<rect x="-29.2127" y="206.707" width="232.91" height="5.54549" rx="2.77274" transform="rotate(17.43 -29.2127 206.707)" fill="#E2E2E2"/>
<rect x="-29.2127" y="206.707" width="83.1823" height="5.54549" rx="2.77274" transform="rotate(17.43 -29.2127 206.707)" fill="#1B1B1B"/>
<defs>
<filter id="filter0_b_45_607" x="-106.943" y="-33.3754" width="427.514" height="391.216" filterUnits="userSpaceOnUse" color-interpolation-filters="sRGB">
<feFlood flood-opacity="0" result="BackgroundImageFix"/>
<feGaussianBlur in="BackgroundImageFix" stdDeviation="22.1819"/>
<feComposite in2="SourceAlpha" operator="in" result="effect1_backgroundBlur_45_607"/>
<feBlend mode="normal" in="SourceGraphic" in2="effect1_backgroundBlur_45_607" result="shape"/>
</filter>
<filter id="filter1_dddddd_45_607" x="-110.679" y="37.215" width="421.698" height="356.362" filterUnits="userSpaceOnUse" color-interpolation-filters="sRGB">
<feFlood flood-opacity="0" result="BackgroundImageFix"/>
<feColorMatrix in="SourceAlpha" type="matrix" values="0 0 0 0 0 0 0 0 0 0 0 0 0 0 0 0 0 0 127 0" result="hardAlpha"/>
<feMorphology radius="4" operator="erode" in="SourceAlpha" result="effect1_dropShadow_45_607"/>
<feOffset dy="5"/>
<feGaussianBlur stdDeviation="0.75"/>
<feComposite in2="hardAlpha" operator="out"/>
<feColorMatrix type="matrix" values="0 0 0 0 0.0313726 0 0 0 0 0.0313726 0 0 0 0 0.0313726 0 0 0 0.05 0"/>
<feBlend mode="normal" in2="BackgroundImageFix" result="effect1_dropShadow_45_607"/>
<feColorMatrix in="SourceAlpha" type="matrix" values="0 0 0 0 0 0 0 0 0 0 0 0 0 0 0 0 0 0 127 0" result="hardAlpha"/>
<feMorphology radius="4" operator="erode" in="SourceAlpha" result="effect2_dropShadow_45_607"/>
<feOffset dy="6"/>
<feGaussianBlur stdDeviation="2"/>
<feComposite in2="hardAlpha" operator="out"/>
<feColorMatrix type="matrix" values="0 0 0 0 0.0313726 0 0 0 0 0.0313726 0 0 0 0 0.0313726 0 0 0 0.05 0"/>
<feBlend mode="normal" in2="effect1_dropShadow_45_607" result="effect2_dropShadow_45_607"/>
<feColorMatrix in="SourceAlpha" type="matrix" values="0 0 0 0 0 0 0 0 0 0 0 0 0 0 0 0 0 0 127 0" result="hardAlpha"/>
<feOffset dy="6"/>
<feGaussianBlur stdDeviation="6.5"/>
<feComposite in2="hardAlpha" operator="out"/>
<feColorMatrix type="matrix" values="0 0 0 0 0.0313726 0 0 0 0 0.0313726 0 0 0 0 0.0313726 0 0 0 0.03 0"/>
<feBlend mode="normal" in2="effect2_dropShadow_45_607" result="effect3_dropShadow_45_607"/>
<feColorMatrix in="SourceAlpha" type="matrix" values="0 0 0 0 0 0 0 0 0 0 0 0 0 0 0 0 0 0 127 0" result="hardAlpha"/>
<feMorphology radius="16" operator="erode" in="SourceAlpha" result="effect4_dropShadow_45_607"/>
<feOffset dy="24"/>
<feGaussianBlur stdDeviation="12"/>
<feComposite in2="hardAlpha" operator="out"/>
<feColorMatrix type="matrix" values="0 0 0 0 0.0313726 0 0 0 0 0.0313726 0 0 0 0 0.0313726 0 0 0 0.04 0"/>
<feBlend mode="normal" in2="effect3_dropShadow_45_607" result="effect4_dropShadow_45_607"/>
<feColorMatrix in="SourceAlpha" type="matrix" values="0 0 0 0 0 0 0 0 0 0 0 0 0 0 0 0 0 0 127 0" result="hardAlpha"/>
<feMorphology radius="2" operator="erode" in="SourceAlpha" result="effect5_dropShadow_45_607"/>
<feOffset dy="2.15"/>
<feGaussianBlur stdDeviation="0.25"/>
<feComposite in2="hardAlpha" operator="out"/>
<feColorMatrix type="matrix" values="0 0 0 0 0 0 0 0 0 0 0 0 0 0 0 0 0 0 0.25 0"/>
<feBlend mode="normal" in2="effect4_dropShadow_45_607" result="effect5_dropShadow_45_607"/>
<feColorMatrix in="SourceAlpha" type="matrix" values="0 0 0 0 0 0 0 0 0 0 0 0 0 0 0 0 0 0 127 0" result="hardAlpha"/>
<feMorphology radius="12" operator="erode" in="SourceAlpha" result="effect6_dropShadow_45_607"/>
<feOffset dy="32"/>
<feGaussianBlur stdDeviation="32"/>
<feComposite in2="hardAlpha" operator="out"/>
<feColorMatrix type="matrix" values="0 0 0 0 0 0 0 0 0 0 0 0 0 0 0 0 0 0 0.075 0"/>
<feBlend mode="multiply" in2="effect5_dropShadow_45_607" result="effect6_dropShadow_45_607"/>
<feBlend mode="normal" in="SourceGraphic" in2="effect6_dropShadow_45_607" result="shape"/>
</filter>
<filter id="filter2_f_45_607" x="0.625633" y="79.1353" width="22.1834" height="22.1834" filterUnits="userSpaceOnUse" color-interpolation-filters="sRGB">
<feFlood flood-opacity="0" result="BackgroundImageFix"/>
<feBlend mode="normal" in="SourceGraphic" in2="BackgroundImageFix" result="shape"/>
<feGaussianBlur stdDeviation="4.15911" result="effect1_foregroundBlur_45_607"/>
</filter>
<linearGradient id="paint0_linear_45_607" x1="143.358" y1="45.8339" x2="70.2697" y2="278.632" gradientUnits="userSpaceOnUse">
<stop stop-color="#FDFDFD" stop-opacity="0.3"/>
<stop offset="1" stop-color="#FDFDFD"/>
</linearGradient>
<linearGradient id="paint1_linear_45_607" x1="143.358" y1="45.8339" x2="70.2697" y2="278.632" gradientUnits="userSpaceOnUse">
<stop stop-color="#E2E2E2"/>
<stop offset="1" stop-color="#E2E2E2" stop-opacity="0.75"/>
</linearGradient>
<linearGradient id="paint2_linear_45_607" x1="126.747" y1="98.7423" x2="73.592" y2="268.05" gradientUnits="userSpaceOnUse">
<stop stop-color="#F6F6F6"/>
<stop offset="1" stop-color="#E6E6E6"/>
</linearGradient>
</defs>
</svg>
