<svg width="321" height="303" viewBox="0 0 321 303" fill="none" xmlns="http://www.w3.org/2000/svg">
<g filter="url(#filter0_b_45_646)">
<path d="M-32.2019 56.0577C-27.2116 37.4334 -24.7164 28.1213 -19.1858 21.979C-14.321 16.576 -7.87059 12.8519 -0.759084 11.3403C7.32562 9.6218 16.6377 12.117 35.262 17.1073L232.888 70.0611C251.513 75.0515 260.825 77.5467 266.967 83.0773C272.37 87.9421 276.094 94.3925 277.606 101.504C279.324 109.589 276.829 118.901 271.839 137.525L259.619 183.131C254.628 201.755 252.133 211.068 246.602 217.21C241.738 222.613 235.287 226.337 228.176 227.849C220.091 229.567 210.779 227.072 192.155 222.081L-5.47169 169.128C-24.096 164.137 -33.4081 161.642 -39.5504 156.112C-44.9534 151.247 -48.6775 144.796 -50.1891 137.685C-51.9076 129.6 -49.4124 120.288 -44.4221 101.664L-32.2019 56.0577Z" fill="url(#paint0_linear_45_646)"/>
<path d="M-31.3112 56.2963C-28.8121 46.9695 -26.9514 40.0282 -25.0281 34.648C-23.1085 29.278 -21.1519 25.5407 -18.5005 22.596C-13.766 17.3378 -7.48837 13.7134 -0.567354 12.2423C3.3085 11.4184 7.52342 11.5927 13.1338 12.6152C18.7548 13.6397 25.6965 15.499 35.0233 17.9981L232.65 70.9519C241.976 73.451 248.918 75.3117 254.298 77.235C259.668 79.1546 263.405 81.1112 266.35 83.7626C271.608 88.4971 275.233 94.7747 276.704 101.696C277.528 105.572 277.353 109.787 276.331 115.397C275.306 121.018 273.447 127.96 270.948 137.286L258.728 182.892C256.229 192.219 254.368 199.161 252.445 204.541C250.525 209.911 248.569 213.648 245.917 216.593C241.183 221.851 234.905 225.475 227.984 226.947C224.108 227.77 219.893 227.596 214.283 226.574C208.662 225.549 201.72 223.69 192.393 221.191L-5.23302 168.237C-14.5599 165.738 -21.5012 163.877 -26.8814 161.954C-32.2514 160.034 -35.9887 158.078 -38.9334 155.426C-44.1916 150.692 -47.816 144.414 -49.2871 137.493C-50.1109 133.617 -49.9367 129.402 -48.9142 123.792C-47.8897 118.171 -46.0304 111.229 -43.5313 101.902L-31.3112 56.2963Z" stroke="url(#paint1_linear_45_646)" stroke-width="1.84433"/>
</g>
<g filter="url(#filter1_dddddd_45_646)">
<path d="M-21.1783 52.9077C-17.6138 39.6046 -15.8315 32.9531 -11.8811 28.5658C-8.40622 24.7065 -3.79878 22.0464 1.28087 20.9667C7.05566 19.7392 13.7072 21.5215 27.0102 25.086L236.038 81.0949C249.341 84.6594 255.993 86.4417 260.38 90.3921C264.239 93.867 266.899 98.4744 267.979 103.554C269.207 109.329 267.424 115.98 263.86 129.283L248.585 186.291C245.02 199.594 243.238 206.246 239.287 210.633C235.813 214.492 231.205 217.152 226.125 218.232C220.351 219.459 213.699 217.677 200.396 214.113L-8.63178 158.104C-21.9348 154.539 -28.5863 152.757 -32.9737 148.807C-36.833 145.332 -39.4931 140.724 -40.5728 135.645C-41.8003 129.87 -40.018 123.218 -36.4535 109.915L-21.1783 52.9077Z" fill="#F1F1F1"/>
<path d="M-20.2876 53.1463C-18.5014 46.4801 -17.1754 41.5342 -15.8061 37.7038C-14.4404 33.8835 -13.0571 31.25 -11.1958 29.1828C-7.85122 25.4683 -3.41656 22.9079 1.4726 21.8687C4.19349 21.2904 7.16578 21.4091 11.1571 22.1366C15.159 22.8659 20.1053 24.1906 26.7715 25.9768L235.799 81.9856C242.466 83.7718 247.412 85.0978 251.242 86.4671C255.062 87.8328 257.696 89.2161 259.763 91.0774C263.478 94.422 266.038 98.8566 267.077 103.746C267.655 106.467 267.537 109.439 266.809 113.43C266.08 117.432 264.755 122.379 262.969 129.045L247.694 186.052C245.908 192.719 244.582 197.664 243.212 201.495C241.847 205.315 240.463 207.949 238.602 210.016C235.258 213.73 230.823 216.291 225.934 217.33C223.213 217.908 220.241 217.79 216.249 217.062C212.247 216.333 207.301 215.008 200.635 213.222L-8.3931 157.213C-15.0593 155.427 -20.0052 154.101 -23.8357 152.732C-27.656 151.366 -30.2895 149.983 -32.3567 148.121C-36.0712 144.777 -38.6315 140.342 -39.6708 135.453C-40.2491 132.732 -40.1303 129.76 -39.4029 125.768C-38.6735 121.766 -37.3489 116.82 -35.5627 110.154L-20.2876 53.1463Z" stroke="url(#paint2_linear_45_646)" stroke-width="1.84433"/>
</g>
<path d="M92.5626 46.4731L58.5118 173.553" stroke="#3292FF" stroke-width="1.84433"/>
<g filter="url(#filter2_bd_45_646)">
<rect x="82.4824" y="131.601" width="159.842" height="34.4275" rx="12.2955" transform="rotate(15 82.4824 131.601)" fill="#FDFDFD" fill-opacity="0.5" shape-rendering="crispEdges"/>
<rect x="83.1345" y="132.731" width="157.998" height="32.5832" rx="11.3734" transform="rotate(15 83.1345 132.731)" stroke="#FDFDFD" stroke-opacity="0.25" stroke-width="1.84433" shape-rendering="crispEdges"/>
</g>
<path d="M111.153 160.534L113.049 153.455L115.624 154.145C116.099 154.273 116.493 154.473 116.807 154.747C117.122 155.015 117.336 155.344 117.449 155.734C117.57 156.12 117.568 156.543 117.444 157.006C117.313 157.494 117.078 157.878 116.738 158.161C116.404 158.445 116.009 158.611 115.555 158.659L116.426 161.947L115.153 161.606L114.241 158.052L114.858 158.675L112.987 158.174L112.274 160.834L111.153 160.534ZM113.254 157.176L114.727 157.571C114.986 157.64 115.225 157.65 115.442 157.6C115.659 157.549 115.842 157.449 115.991 157.299C116.148 157.144 116.259 156.943 116.326 156.696C116.392 156.449 116.395 156.222 116.335 156.016C116.283 155.805 116.174 155.627 116.01 155.481C115.847 155.329 115.635 155.218 115.376 155.148L113.903 154.753L113.254 157.176ZM119.17 162.804C118.657 162.667 118.232 162.427 117.896 162.086C117.568 161.74 117.347 161.335 117.234 160.87C117.122 160.399 117.135 159.91 117.27 159.403C117.41 158.884 117.644 158.454 117.972 158.115C118.307 157.777 118.695 157.545 119.136 157.418C119.579 157.286 120.041 157.284 120.523 157.413C120.909 157.517 121.236 157.676 121.505 157.89C121.773 158.105 121.981 158.357 122.127 158.647C122.275 158.932 122.363 159.237 122.391 159.563C122.425 159.892 122.397 160.224 122.307 160.559C122.285 160.642 122.259 160.726 122.229 160.813C122.199 160.9 122.164 160.979 122.125 161.05L118.03 159.953L118.259 159.098L121.746 160.032L121.128 160.284C121.275 159.991 121.326 159.709 121.283 159.44C121.248 159.166 121.141 158.93 120.963 158.733C120.793 158.531 120.566 158.392 120.281 158.316C119.996 158.239 119.723 158.244 119.462 158.331C119.203 158.411 118.978 158.567 118.786 158.801C118.596 159.029 118.464 159.333 118.389 159.713C118.264 160.053 118.23 160.37 118.287 160.663C118.351 160.959 118.48 161.211 118.675 161.419C118.877 161.629 119.13 161.775 119.434 161.857C119.744 161.94 120.026 161.941 120.278 161.859C120.538 161.779 120.76 161.645 120.946 161.457L121.706 162.119C121.54 162.333 121.323 162.509 121.055 162.648C120.795 162.782 120.501 162.866 120.173 162.9C119.852 162.93 119.518 162.898 119.17 162.804ZM124.835 164.322C124.322 164.185 123.897 163.945 123.561 163.604C123.233 163.258 123.006 162.851 122.88 162.383C122.761 161.917 122.77 161.427 122.907 160.914C123.043 160.407 123.279 159.981 123.616 159.637C123.953 159.293 124.351 159.06 124.811 158.939C125.273 158.812 125.761 158.817 126.274 158.954C126.622 159.047 126.931 159.198 127.201 159.406C127.473 159.608 127.691 159.846 127.855 160.121C128.025 160.398 128.126 160.693 128.157 161.007L127.1 161.192C127.063 160.897 126.946 160.638 126.748 160.415C126.557 160.188 126.31 160.033 126.006 159.952C125.715 159.874 125.433 159.876 125.159 159.959C124.894 160.037 124.66 160.188 124.457 160.412C124.256 160.63 124.113 160.901 124.026 161.224C123.939 161.547 123.928 161.856 123.991 162.151C124.056 162.44 124.183 162.688 124.372 162.895C124.568 163.103 124.811 163.247 125.103 163.325C125.413 163.408 125.703 163.401 125.974 163.304C126.252 163.202 126.485 163.03 126.672 162.788L127.493 163.487C127.319 163.732 127.088 163.935 126.8 164.095C126.521 164.251 126.212 164.352 125.874 164.397C125.536 164.442 125.19 164.417 124.835 164.322ZM130.445 165.826C129.951 165.693 129.53 165.455 129.181 165.11C128.838 164.767 128.601 164.36 128.469 163.891C128.337 163.421 128.339 162.929 128.477 162.416C128.616 161.897 128.859 161.47 129.207 161.135C129.556 160.794 129.964 160.564 130.431 160.445C130.899 160.319 131.383 160.323 131.884 160.457C132.39 160.593 132.812 160.832 133.148 161.173C133.492 161.51 133.727 161.912 133.853 162.38C133.987 162.844 133.984 163.335 133.845 163.855C133.706 164.374 133.462 164.804 133.112 165.145C132.763 165.486 132.354 165.719 131.886 165.845C131.42 165.964 130.939 165.958 130.445 165.826ZM130.713 164.828C131.017 164.909 131.305 164.909 131.579 164.826C131.852 164.743 132.089 164.593 132.29 164.375C132.499 164.152 132.647 163.88 132.733 163.557C132.82 163.234 132.827 162.927 132.756 162.636C132.691 162.347 132.561 162.098 132.365 161.89C132.17 161.681 131.92 161.536 131.616 161.455C131.319 161.375 131.03 161.376 130.75 161.457C130.477 161.54 130.236 161.689 130.029 161.905C129.828 162.123 129.685 162.394 129.598 162.717C129.511 163.04 129.5 163.349 129.563 163.644C129.635 163.935 129.768 164.184 129.963 164.393C130.165 164.603 130.415 164.748 130.713 164.828ZM134.013 166.659L135.391 161.519L136.417 161.794L136.139 162.83L136.085 162.652C136.289 162.347 136.537 162.156 136.829 162.078C137.124 161.994 137.448 161.999 137.803 162.094L138.116 162.178L137.854 163.157L137.407 163.037C137.053 162.942 136.735 162.976 136.454 163.138C136.181 163.296 135.99 163.577 135.881 163.983L135.087 166.947L134.013 166.659ZM139.648 168.292C139.135 168.154 138.711 167.915 138.374 167.573C138.046 167.227 137.826 166.822 137.712 166.357C137.601 165.886 137.613 165.397 137.749 164.89C137.888 164.371 138.122 163.942 138.451 163.602C138.786 163.264 139.174 163.032 139.615 162.906C140.058 162.773 140.52 162.771 141.001 162.9C141.388 163.004 141.715 163.163 141.983 163.377C142.252 163.592 142.459 163.844 142.605 164.135C142.753 164.419 142.841 164.724 142.869 165.051C142.903 165.379 142.876 165.711 142.786 166.047C142.764 166.129 142.737 166.214 142.707 166.301C142.677 166.388 142.643 166.466 142.603 166.537L138.508 165.44L138.737 164.585L142.224 165.519L141.607 165.771C141.753 165.478 141.805 165.197 141.762 164.927C141.727 164.653 141.62 164.417 141.442 164.22C141.272 164.018 141.044 163.879 140.759 163.803C140.474 163.727 140.201 163.732 139.941 163.818C139.682 163.898 139.456 164.055 139.265 164.288C139.075 164.516 138.942 164.82 138.868 165.2C138.743 165.54 138.709 165.857 138.766 166.151C138.829 166.446 138.959 166.698 139.154 166.906C139.356 167.117 139.608 167.262 139.912 167.344C140.223 167.427 140.504 167.428 140.757 167.346C141.016 167.266 141.239 167.132 141.425 166.945L142.184 167.606C142.018 167.82 141.802 167.996 141.534 168.135C141.274 168.269 140.98 168.353 140.651 168.387C140.331 168.417 139.997 168.385 139.648 168.292ZM145.247 169.792C144.753 169.659 144.341 169.423 144.011 169.084C143.689 168.74 143.469 168.334 143.349 167.868C143.236 167.403 143.248 166.917 143.383 166.41C143.519 165.904 143.755 165.478 144.092 165.134C144.429 164.79 144.822 164.552 145.271 164.421C145.72 164.29 146.188 164.29 146.676 164.421C147.088 164.531 147.43 164.711 147.703 164.961C147.975 165.21 148.164 165.505 148.27 165.846L148.042 166.05L148.877 162.933L149.941 163.218L148.014 170.411L146.998 170.139L147.278 169.093L147.348 169.326C147.087 169.589 146.77 169.758 146.397 169.835C146.023 169.911 145.64 169.897 145.247 169.792ZM145.619 168.822C145.917 168.902 146.202 168.9 146.476 168.817C146.756 168.736 146.996 168.587 147.197 168.369C147.406 168.147 147.553 167.874 147.64 167.551C147.727 167.228 147.734 166.921 147.663 166.63C147.597 166.341 147.464 166.092 147.262 165.882C147.067 165.673 146.821 165.529 146.523 165.449C146.225 165.369 145.936 165.37 145.657 165.451C145.377 165.532 145.137 165.682 144.936 165.9C144.735 166.117 144.591 166.388 144.505 166.711C144.418 167.034 144.406 167.343 144.47 167.638C144.535 167.927 144.665 168.176 144.861 168.385C145.062 168.595 145.315 168.741 145.619 168.822Z" fill="#1B1B1B"/>
<path d="M149.496 170.808L149.801 169.668L150.723 169.915L150.417 171.055L149.496 170.808ZM151.96 171.468L153.332 166.347L154.197 166.579L153.917 167.624L153.837 167.429C154.05 167.14 154.319 166.947 154.643 166.851C154.968 166.755 155.304 166.753 155.653 166.847C156.052 166.954 156.38 167.16 156.637 167.467C156.901 167.775 157.044 168.126 157.068 168.519L156.819 168.462C157.058 168.099 157.364 167.858 157.735 167.741C158.108 167.616 158.487 167.606 158.874 167.71C159.228 167.805 159.526 167.973 159.767 168.214C160.014 168.457 160.184 168.747 160.277 169.084C160.37 169.421 160.368 169.773 160.269 170.141L159.381 173.457L158.487 173.217L159.3 170.186C159.376 169.901 159.39 169.647 159.341 169.423C159.292 169.2 159.194 169.011 159.045 168.855C158.905 168.696 158.717 168.584 158.483 168.521C158.255 168.46 158.034 168.462 157.82 168.527C157.613 168.587 157.429 168.704 157.267 168.878C157.113 169.047 156.999 169.271 156.924 169.55L156.112 172.581L155.219 172.341L156.031 169.311C156.108 169.026 156.121 168.771 156.073 168.548C156.024 168.324 155.925 168.135 155.777 167.98C155.636 167.82 155.449 167.708 155.215 167.646C154.987 167.585 154.765 167.586 154.551 167.651C154.345 167.711 154.161 167.828 153.999 168.002C153.845 168.171 153.731 168.395 153.656 168.674L152.844 171.705L151.96 171.468ZM159.936 175.642L161.818 168.621L162.682 168.852L162.387 169.955L162.332 169.705C162.603 169.452 162.927 169.281 163.304 169.192C163.683 169.097 164.084 169.106 164.509 169.22C164.99 169.349 165.389 169.581 165.707 169.917C166.03 170.255 166.249 170.657 166.362 171.121C166.476 171.58 166.465 172.066 166.328 172.579C166.194 173.079 165.961 173.502 165.631 173.848C165.301 174.194 164.911 174.433 164.462 174.563C164.019 174.696 163.554 174.697 163.066 174.566C162.654 174.456 162.302 174.263 162.009 173.988C161.723 173.714 161.532 173.385 161.439 173L161.622 172.886L160.82 175.879L159.936 175.642ZM163.228 173.693C163.552 173.78 163.861 173.778 164.157 173.687C164.453 173.597 164.707 173.434 164.919 173.199C165.139 172.96 165.295 172.669 165.387 172.327C165.482 171.972 165.492 171.642 165.418 171.337C165.352 171.027 165.213 170.759 165.002 170.533C164.793 170.3 164.527 170.141 164.204 170.054C163.881 169.968 163.568 169.969 163.266 170.058C162.97 170.148 162.709 170.312 162.482 170.55C162.263 170.784 162.107 171.074 162.014 171.423C161.922 171.765 161.912 172.095 161.983 172.412C162.062 172.726 162.207 172.995 162.418 173.222C162.635 173.449 162.905 173.607 163.228 173.693ZM168.69 176.073C168.316 175.973 167.986 175.813 167.698 175.594C167.411 175.374 167.182 175.113 167.013 174.809C166.844 174.499 166.748 174.161 166.724 173.795L167.599 173.683C167.637 174.074 167.773 174.405 168.005 174.678C168.237 174.951 168.54 175.137 168.914 175.237C169.206 175.315 169.48 175.328 169.739 175.275C169.998 175.222 170.219 175.105 170.404 174.923C170.594 174.744 170.73 174.502 170.812 174.198C170.895 173.887 170.898 173.61 170.821 173.365C170.752 173.116 170.619 172.904 170.421 172.728C170.224 172.553 169.976 172.426 169.679 172.346C169.584 172.321 169.477 172.299 169.36 172.281C169.249 172.265 169.152 172.259 169.069 172.264L168.984 171.783L171.494 169.981L168.358 169.141L168.575 168.333L172.765 169.456L172.556 170.235L170.155 171.975L170.164 171.712C170.585 171.839 170.932 172.037 171.206 172.307C171.48 172.578 171.666 172.896 171.765 173.262C171.866 173.621 171.86 174.01 171.748 174.428C171.633 174.859 171.424 175.22 171.121 175.513C170.819 175.805 170.457 176.004 170.035 176.108C169.614 176.212 169.165 176.201 168.69 176.073Z" fill="#727272"/>
<circle cx="97.0277" cy="153.321" r="4.91822" transform="rotate(15 97.0277 153.321)" fill="#FDBC15"/>
<g filter="url(#filter3_f_45_646)">
<circle cx="96.3889" cy="155.703" r="3.68866" transform="rotate(15 96.3889 155.703)" fill="#FDBC15"/>
</g>
<rect opacity="0.3" x="190.306" y="175.774" width="29.5093" height="4.91822" rx="2.45911" transform="rotate(15 190.306 175.774)" fill="#A8A8A8"/>
<g style="mix-blend-mode:multiply" opacity="0.5" filter="url(#filter4_f_45_646)">
<rect x="-12.0213" y="75.7396" width="265.584" height="29.5093" rx="14.7547" transform="rotate(15 -12.0213 75.7396)" fill="black" fill-opacity="0.3"/>
</g>
<g filter="url(#filter5_bd_45_646)">
<rect x="-8.19776" y="61.4835" width="265.584" height="34.4275" rx="12.2955" transform="rotate(15 -8.19776 61.4835)" fill="#FDFDFD" fill-opacity="0.5" shape-rendering="crispEdges"/>
<rect x="-7.54569" y="62.6129" width="263.74" height="32.5832" rx="11.3734" transform="rotate(15 -7.54569 62.6129)" stroke="#FDFDFD" stroke-opacity="0.25" stroke-width="1.84433" shape-rendering="crispEdges"/>
</g>
<path d="M22.3536 90.9201L21.7419 83.1695L22.9486 83.4929L23.3817 90.0856L23.1442 90.0219L26.8061 84.5265L28.0128 84.8498L23.6078 91.2561L22.3536 90.9201ZM28.6303 92.7241C28.1363 92.5917 27.7148 92.3532 27.3658 92.0085C27.0232 91.6655 26.7859 91.2591 26.6538 90.7892C26.5218 90.3193 26.5245 89.8279 26.6619 89.3148C26.8011 88.7954 27.0445 88.3684 27.3921 88.0339C27.7415 87.693 28.1494 87.4628 28.6159 87.3434C29.084 87.2177 29.5683 87.2218 30.0687 87.3559C30.5755 87.4917 30.997 87.7302 31.3332 88.0715C31.6775 88.4082 31.9125 88.8106 32.0383 89.2788C32.172 89.7423 32.1693 90.2338 32.0302 90.7532C31.891 91.2726 31.6467 91.7028 31.2974 92.0436C30.9481 92.3845 30.5393 92.6179 30.0712 92.7436C29.6047 92.863 29.1244 92.8565 28.6303 92.7241ZM28.8976 91.7265C29.2017 91.808 29.4904 91.8073 29.7638 91.7244C30.0372 91.6415 30.2744 91.4912 30.4753 91.2734C30.6842 91.0511 30.832 90.7784 30.9185 90.4553C31.0051 90.1323 31.0126 89.8254 30.9412 89.5347C30.876 89.2457 30.7458 88.997 30.5505 88.7885C30.3551 88.58 30.1055 88.435 29.8014 88.3536C29.5037 88.2738 29.215 88.2745 28.9353 88.3557C28.6619 88.4386 28.4215 88.588 28.2143 88.8041C28.0134 89.0218 27.8697 89.2922 27.7831 89.6152C27.6965 89.9383 27.685 90.2474 27.7484 90.5428C27.8199 90.8335 27.9533 91.0831 28.1486 91.2916C28.3502 91.5018 28.5999 91.6467 28.8976 91.7265ZM32.1984 93.558L33.5757 88.4178L34.6493 88.7055L33.272 93.8457L32.1984 93.558ZM33.7641 87.7147L34.0951 86.4795L35.1687 86.7672L34.8377 88.0024L33.7641 87.7147ZM36.7486 94.8994C36.2355 94.7619 35.8108 94.5226 35.4746 94.1813C35.1464 93.8353 34.9194 93.4283 34.7936 92.9601C34.6742 92.4936 34.6833 92.0038 34.8207 91.4908C34.9565 90.984 35.1927 90.5585 35.5294 90.2142C35.866 89.8699 36.2644 89.6372 36.7246 89.5161C37.1864 89.3887 37.6739 89.3937 38.187 89.5312C38.5354 89.6245 38.8446 89.7753 39.1147 89.9834C39.3865 90.1853 39.6044 90.4236 39.7684 90.6983C39.9387 90.9748 40.0395 91.27 40.0708 91.5838L39.0131 91.7689C38.9767 91.474 38.8593 91.2151 38.6611 90.9923C38.4708 90.7648 38.2237 90.6103 37.9197 90.5288C37.6283 90.4508 37.3459 90.4532 37.0725 90.536C36.8071 90.6143 36.5731 90.7655 36.3705 90.9895C36.1696 91.2072 36.0259 91.4776 35.9393 91.8007C35.8528 92.1237 35.8412 92.4329 35.9046 92.7282C35.9698 93.0173 36.0968 93.2652 36.2858 93.4719C36.4812 93.6804 36.7245 93.8237 37.0159 93.9018C37.3263 93.9849 37.6167 93.9779 37.8871 93.8806C38.1656 93.7788 38.3984 93.6069 38.5854 93.3651L39.4063 94.0637C39.232 94.3089 39.0011 94.5118 38.7137 94.6724C38.4343 94.8284 38.1256 94.9289 37.7876 94.9742C37.4496 95.0194 37.1033 94.9945 36.7486 94.8994ZM42.292 96.3848C41.779 96.2473 41.3543 96.0079 41.018 95.6666C40.6898 95.3207 40.4692 94.9153 40.3561 94.4506C40.2447 93.9794 40.2569 93.4905 40.3927 92.9838C40.5319 92.4644 40.7658 92.0348 41.0944 91.6952C41.4294 91.3572 41.8174 91.1252 42.2586 90.999C42.7014 90.8664 43.1635 90.8647 43.6449 90.9936C44.0313 91.0972 44.3587 91.2562 44.6271 91.4707C44.8955 91.6852 45.1028 91.9376 45.2491 92.228C45.397 92.512 45.4849 92.8173 45.5128 93.1439C45.5471 93.4721 45.5192 93.8041 45.4292 94.1398C45.4072 94.2222 45.3811 94.3068 45.351 94.3938C45.3209 94.4808 45.2862 94.5597 45.2468 94.6307L41.1518 93.5334L41.3809 92.6783L44.8679 93.6126L44.2504 93.8647C44.3969 93.5713 44.4486 93.2898 44.4054 93.0202C44.3702 92.7461 44.2636 92.5104 44.0856 92.3134C43.9156 92.1117 43.6881 91.9726 43.4031 91.8963C43.118 91.8199 42.8452 91.8248 42.5844 91.9111C42.3254 91.9911 42.1001 92.1479 41.9084 92.3817C41.7185 92.6092 41.5861 92.9132 41.5113 93.2937C41.3863 93.6336 41.3523 93.9503 41.4094 94.244C41.4729 94.5393 41.6022 94.7912 41.7976 94.9997C41.9992 95.2099 42.2521 95.3557 42.5561 95.4372C42.8665 95.5204 43.148 95.5211 43.4007 95.4395C43.6598 95.3595 43.8823 95.2257 44.0684 95.0379L44.828 95.6997C44.6621 95.9132 44.4452 96.0893 44.1772 96.228C43.9173 96.362 43.6232 96.4461 43.2949 96.4804C42.9747 96.51 42.6404 96.4781 42.292 96.3848Z" fill="#1B1B1B"/>
<path d="M45.9642 97.2465L46.2697 96.1064L47.1914 96.3533L46.8859 97.4935L45.9642 97.2465ZM48.4287 97.9069L49.8009 92.7857L50.6655 93.0174L50.3855 94.0625L50.3053 93.8679C50.5185 93.5788 50.7874 93.3861 51.1119 93.2897C51.4364 93.1934 51.7729 93.1919 52.1213 93.2852C52.5203 93.3922 52.8485 93.5989 53.1058 93.9055C53.3695 94.2137 53.5131 94.5645 53.5367 94.9578L53.2871 94.9011C53.5271 94.5377 53.8325 94.2971 54.2036 94.1792C54.5763 94.0551 54.9558 94.0448 55.3422 94.1483C55.6969 94.2433 55.9947 94.4114 56.2356 94.6525C56.4829 94.8952 56.653 95.1852 56.7459 95.5224C56.8389 95.8596 56.8361 96.2119 56.7377 96.5793L55.8492 99.8952L54.9561 99.6559L55.7682 96.625C55.8446 96.34 55.8584 96.0857 55.8097 95.8622C55.7609 95.6386 55.6623 95.4493 55.5138 95.2941C55.3733 95.1342 55.1859 95.0229 54.9516 94.9601C54.7235 94.899 54.5024 94.9009 54.2882 94.9657C54.0819 95.0258 53.8978 95.1428 53.7359 95.3167C53.5819 95.4859 53.4676 95.7098 53.3929 95.9885L52.5808 99.0194L51.6876 98.7801L52.4998 95.7492C52.5761 95.4642 52.59 95.2099 52.5412 94.9864C52.4925 94.7629 52.3939 94.5735 52.2454 94.4183C52.1049 94.2585 51.9175 94.1472 51.6831 94.0844C51.4551 94.0233 51.234 94.0251 51.0197 94.0899C50.8135 94.1501 50.6294 94.2671 50.4674 94.4409C50.3135 94.6101 50.1991 94.8341 50.1245 95.1128L49.3123 98.1437L48.4287 97.9069ZM56.405 102.081L58.2864 95.0594L59.151 95.2911L58.8557 96.3932L58.8002 96.1441C59.0717 95.891 59.3959 95.7199 59.7728 95.6308C60.1514 95.5354 60.5529 95.5445 60.9773 95.6582C61.4587 95.7872 61.858 96.0198 62.1753 96.356C62.4988 96.6939 62.7172 97.0952 62.8303 97.56C62.945 98.0185 62.9337 98.5042 62.7962 99.0173C62.6621 99.5177 62.4299 99.9409 62.0996 100.287C61.7693 100.633 61.3795 100.871 60.9303 101.002C60.4875 101.135 60.0222 101.136 59.5345 101.005C59.1227 100.895 58.7705 100.702 58.4776 100.426C58.1912 100.153 58.001 99.8234 57.9073 99.4385L58.0906 99.3247L57.2886 102.318L56.405 102.081ZM59.6971 100.132C60.0201 100.218 60.3295 100.217 60.6253 100.126C60.9211 100.036 61.1752 99.8729 61.3875 99.6378C61.6079 99.3982 61.7639 99.1073 61.8556 98.7653C61.9506 98.4106 61.9609 98.0807 61.8865 97.7756C61.8202 97.4659 61.6815 97.1979 61.4706 96.9717C61.2613 96.7391 60.9952 96.5795 60.6721 96.493C60.3491 96.4064 60.0365 96.4075 59.7344 96.4963C59.4386 96.5867 59.1773 96.7509 58.9506 96.9889C58.732 97.2223 58.576 97.5131 58.4826 97.8615C58.391 98.2035 58.3806 98.5334 58.4517 98.8512C58.5307 99.1643 58.6757 99.4339 58.8866 99.6602C59.1039 99.8881 59.374 100.045 59.6971 100.132ZM65.1587 102.512C64.785 102.412 64.4544 102.252 64.167 102.032C63.8796 101.813 63.651 101.551 63.4811 101.248C63.3129 100.938 63.2168 100.6 63.1928 100.234L64.0679 100.122C64.1059 100.512 64.2411 100.844 64.4735 101.116C64.7059 101.389 65.009 101.576 65.3827 101.676C65.6741 101.754 65.9491 101.766 66.2077 101.714C66.4662 101.661 66.6877 101.543 66.8721 101.362C67.0628 101.182 67.1989 100.94 67.2804 100.636C67.3636 100.326 67.3666 100.048 67.2896 99.8038C67.2207 99.5545 67.0874 99.3423 66.89 99.1672C66.6925 98.9921 66.4449 98.8646 66.1472 98.7848C66.0522 98.7594 65.9459 98.7377 65.8285 98.7198C65.7175 98.7036 65.6205 98.698 65.5377 98.703L65.4528 98.222L67.9622 96.4198L64.8267 95.5797L65.0431 94.7721L69.2332 95.8948L69.0244 96.6739L66.6235 98.4135L66.6326 98.1512C67.0536 98.2775 67.4011 98.4759 67.6749 98.7461C67.9487 99.0164 68.135 99.3345 68.2339 99.7004C68.3344 100.06 68.3286 100.449 68.2166 100.867C68.1012 101.298 67.8923 101.659 67.5899 101.952C67.2876 102.244 66.9255 102.442 66.5038 102.546C66.0821 102.651 65.6338 102.639 65.1587 102.512Z" fill="#727272"/>
<circle cx="6.3511" cy="83.2029" r="4.91822" transform="rotate(15 6.3511 83.2029)" fill="#00A656"/>
<g filter="url(#filter6_f_45_646)">
<circle cx="5.7123" cy="85.5764" r="3.68866" transform="rotate(15 5.7123 85.5764)" fill="#00A656"/>
</g>
<rect opacity="0.3" x="154.251" y="120.292" width="78.6915" height="4.91822" rx="2.45911" transform="rotate(15 154.251 120.292)" fill="#A8A8A8"/>
<path d="M9.95522 43.1395C9.51816 43.0224 9.16102 42.8351 8.88381 42.5775C8.61292 42.3216 8.42954 42.0179 8.33365 41.6663C8.23945 41.3084 8.24752 40.9236 8.35784 40.5119L9.16742 37.4905C9.27944 37.0724 9.46169 36.7343 9.71418 36.4761C9.97301 36.2196 10.2869 36.0491 10.6557 35.9646C11.0246 35.8802 11.4276 35.8965 11.8646 36.0136C12.308 36.1324 12.6651 36.3197 12.936 36.5756C13.2132 36.8332 13.3966 37.1369 13.4862 37.4868C13.5821 37.8384 13.574 38.2232 13.462 38.6412L12.6524 41.6626C12.5421 42.0743 12.3567 42.4116 12.0961 42.6745C11.8373 42.931 11.5235 43.1015 11.1546 43.186C10.7921 43.2721 10.3923 43.2566 9.95522 43.1395ZM10.192 42.2559C10.5467 42.351 10.8574 42.3188 11.1242 42.1595C11.3972 42.0018 11.5804 41.7488 11.6738 41.4004L12.4834 38.379C12.5767 38.0306 12.5446 37.7199 12.3869 37.4468C12.2356 37.1755 11.9826 36.9922 11.6278 36.8972C11.2731 36.8022 10.9592 36.8335 10.6862 36.9911C10.4194 37.1505 10.2394 37.4043 10.1461 37.7527L9.33647 40.7741C9.24312 41.1225 9.27211 41.4324 9.42343 41.7037C9.58109 41.9768 9.83727 42.1609 10.192 42.2559ZM10.7521 40.1656C10.5747 40.1181 10.4443 40.0221 10.3608 39.8775C10.2837 39.7346 10.2698 39.5714 10.319 39.3877C10.3665 39.2103 10.4585 39.0822 10.5951 39.0034C10.7396 38.9199 10.9006 38.902 11.0779 38.9495C11.2553 38.997 11.3825 39.0922 11.4597 39.2351C11.5448 39.3733 11.5637 39.5311 11.5161 39.7084C11.4669 39.8921 11.37 40.0257 11.2255 40.1092C11.0872 40.1943 10.9294 40.2132 10.7521 40.1656ZM16.5086 40.7101C16.2616 40.6439 16.0775 40.5199 15.9565 40.3382C15.8418 40.1581 15.815 39.954 15.8761 39.726C15.9373 39.498 16.0616 39.3378 16.2493 39.2455C16.445 39.1486 16.6664 39.1332 16.9134 39.1994C17.1668 39.2673 17.3508 39.3913 17.4655 39.5714C17.5818 39.7451 17.6095 39.946 17.5484 40.1741C17.4873 40.4021 17.362 40.5654 17.1727 40.664C16.9833 40.7626 16.762 40.778 16.5086 40.7101ZM15.4622 44.6151C15.2152 44.5489 15.0312 44.425 14.9102 44.2432C14.7955 44.0631 14.7679 43.8622 14.8273 43.6405C14.8901 43.4061 15.0153 43.2428 15.2029 43.1505C15.3986 43.0536 15.62 43.0382 15.867 43.1044C16.1204 43.1723 16.3044 43.2963 16.4191 43.4764C16.5355 43.6502 16.5623 43.8542 16.4995 44.0886C16.4401 44.3103 16.3157 44.4704 16.1263 44.569C15.937 44.6677 15.7156 44.683 15.4622 44.6151ZM20.9693 46.0907C20.5322 45.9736 20.1751 45.7863 19.8979 45.5287C19.627 45.2728 19.4436 44.9691 19.3477 44.6175C19.2535 44.2596 19.2616 43.8748 19.3719 43.4631L20.1815 40.4417C20.2935 40.0236 20.4757 39.6855 20.7282 39.4273C20.9871 39.1708 21.3009 39.0003 21.6698 38.9158C22.0386 38.8314 22.4416 38.8477 22.8787 38.9648C23.3221 39.0836 23.6792 39.2709 23.9501 39.5268C24.2273 39.7844 24.4107 40.0881 24.5002 40.438C24.5961 40.7896 24.5881 41.1744 24.476 41.5924L23.6665 44.6138C23.5561 45.0256 23.3707 45.3628 23.1102 45.6257C22.8514 45.8822 22.5375 46.0527 22.1687 46.1372C21.8061 46.2233 21.4063 46.2079 20.9693 46.0907ZM21.206 45.2071C21.5607 45.3022 21.8715 45.27 22.1382 45.1107C22.4113 44.953 22.5945 44.7 22.6878 44.3516L23.4974 41.3302C23.5908 40.9818 23.5586 40.6711 23.401 40.398C23.2496 40.1267 22.9966 39.9435 22.6419 39.8484C22.2872 39.7534 21.9733 39.7847 21.7002 39.9423C21.4335 40.1017 21.2535 40.3555 21.1601 40.7039L20.3505 43.7253C20.2572 44.0737 20.2862 44.3836 20.4375 44.655C20.5951 44.928 20.8513 45.1121 21.206 45.2071ZM21.7661 43.1168C21.5888 43.0693 21.4584 42.9733 21.3749 42.8287C21.2978 42.6858 21.2838 42.5226 21.333 42.3389C21.3805 42.1615 21.4726 42.0334 21.6091 41.9546C21.7537 41.8711 21.9146 41.8532 22.092 41.9007C22.2694 41.9482 22.3966 42.0434 22.4737 42.1863C22.5589 42.3245 22.5777 42.4823 22.5302 42.6597C22.481 42.8433 22.3841 42.9769 22.2395 43.0604C22.1013 43.1455 21.9435 43.1644 21.7661 43.1168Z" fill="#727272"/>
<path d="M60.6448 56.7218C60.2078 56.6047 59.8506 56.4174 59.5734 56.1598C59.3025 55.9039 59.1191 55.6002 59.0232 55.2486C58.9291 54.8907 58.9371 54.5059 59.0474 54.0942L59.857 51.0728C59.969 50.6547 60.1513 50.3166 60.4038 50.0584C60.6626 49.8018 60.9765 49.6314 61.3453 49.5469C61.7142 49.4624 62.1172 49.4788 62.5542 49.5959C62.9976 49.7147 63.3547 49.902 63.6256 50.1579C63.9028 50.4155 64.0862 50.7192 64.1758 51.0691C64.2717 51.4206 64.2636 51.8054 64.1516 52.2235L63.342 55.2449C63.2317 55.6566 63.0463 55.9939 62.7857 56.2568C62.5269 56.5133 62.2131 56.6838 61.8442 56.7682C61.4817 56.8544 61.0819 56.8389 60.6448 56.7218ZM60.8816 55.8382C61.2363 55.9332 61.547 55.9011 61.8138 55.7417C62.0868 55.5841 62.27 55.3311 62.3634 54.9827L63.173 51.9613C63.2663 51.6129 63.2342 51.3022 63.0765 51.0291C62.9252 50.7577 62.6722 50.5745 62.3174 50.4795C61.9627 50.3844 61.6488 50.4157 61.3758 50.5734C61.109 50.7327 60.929 50.9866 60.8357 51.335L60.0261 54.3564C59.9327 54.7048 59.9617 55.0147 60.113 55.286C60.2707 55.5591 60.5269 55.7431 60.8816 55.8382ZM61.4417 53.7479C61.2643 53.7004 61.1339 53.6043 61.0504 53.4598C60.9733 53.3169 60.9594 53.1536 61.0086 52.9699C61.0561 52.7926 61.1481 52.6645 61.2847 52.5857C61.4292 52.5022 61.5902 52.4842 61.7675 52.5318C61.9449 52.5793 62.0721 52.6745 62.1493 52.8173C62.2344 52.9556 62.2533 53.1134 62.2057 53.2907C62.1565 53.4744 62.0596 53.608 61.9151 53.6915C61.7768 53.7766 61.619 53.7954 61.4417 53.7479ZM67.1982 54.2924C66.9512 54.2262 66.7671 54.1022 66.6461 53.9204C66.5314 53.7403 66.5046 53.5363 66.5657 53.3083C66.6268 53.0802 66.7512 52.9201 66.9389 52.8278C67.1346 52.7309 67.3559 52.7155 67.603 52.7817C67.8564 52.8496 68.0404 52.9736 68.1551 53.1537C68.2714 53.3274 68.2991 53.5283 68.238 53.7563C68.1769 53.9844 68.0516 54.1477 67.8623 54.2463C67.6729 54.3449 67.4516 54.3603 67.1982 54.2924ZM66.1518 58.1974C65.9048 58.1312 65.7208 58.0072 65.5998 57.8255C65.4851 57.6454 65.4575 57.4445 65.5169 57.2228C65.5797 56.9884 65.7049 56.8251 65.8925 56.7328C66.0882 56.6359 66.3096 56.6205 66.5566 56.6867C66.81 56.7546 66.994 56.8786 67.1087 57.0587C67.2251 57.2324 67.2519 57.4365 67.1891 57.6709C67.1297 57.8925 67.0053 58.0527 66.8159 58.1513C66.6266 58.2499 66.4052 58.2653 66.1518 58.1974ZM71.5734 59.6501C71.1363 59.533 70.7783 59.3488 70.4994 59.0976C70.2205 58.8463 70.0322 58.5481 69.9346 58.2029C69.8451 57.853 69.8538 57.4785 69.9607 57.0795L70.9868 57.3544C70.8935 57.7028 70.9187 58.0015 71.0624 58.2505C71.2125 58.5011 71.4649 58.674 71.8196 58.769C72.1807 58.8658 72.4865 58.8391 72.7372 58.689C72.9879 58.5389 73.1582 58.2961 73.2481 57.9603L73.3856 57.4473C73.4807 57.0926 73.4555 56.7939 73.31 56.5512C73.1663 56.3023 72.9139 56.1294 72.5528 56.0327L71.8117 55.8341L72.0714 54.865L74.0991 53.7586L71.3627 53.0253L71.6045 52.1227L75.3861 53.136L75.1264 54.1051L72.7355 55.3891L72.8016 55.1421C73.4604 55.3186 73.9346 55.6392 74.2242 56.1037C74.5139 56.5683 74.5772 57.1046 74.4143 57.7127L74.2743 58.2353C74.1674 58.6343 73.9845 58.9621 73.7257 59.2187C73.4685 59.4688 73.1532 59.6321 72.7797 59.7086C72.4125 59.7867 72.0104 59.7672 71.5734 59.6501ZM77.1659 61.1486C76.7288 61.0315 76.3717 60.8442 76.0945 60.5866C75.8236 60.3307 75.6402 60.027 75.5443 59.6754C75.4501 59.3175 75.4582 58.9327 75.5685 58.521L76.3781 55.4996C76.4901 55.0815 76.6724 54.7434 76.9249 54.4852C77.1837 54.2287 77.4975 54.0582 77.8664 53.9737C78.2353 53.8892 78.6382 53.9056 79.0753 54.0227C79.5187 54.1415 79.8758 54.3288 80.1467 54.5847C80.4239 54.8423 80.6073 55.146 80.6969 55.4959C80.7928 55.8474 80.7847 56.2323 80.6727 56.6503L79.8631 59.6717C79.7528 60.0834 79.5673 60.4207 79.3068 60.6836C79.048 60.9401 78.7342 61.1106 78.3653 61.195C78.0027 61.2812 77.603 61.2657 77.1659 61.1486ZM77.4027 60.265C77.7574 60.36 78.0681 60.3279 78.3348 60.1685C78.6079 60.0109 78.7911 59.7579 78.8845 59.4095L79.694 56.3881C79.7874 56.0397 79.7552 55.729 79.5976 55.4559C79.4463 55.1845 79.1932 55.0013 78.8385 54.9063C78.4838 54.8112 78.1699 54.8425 77.8968 55.0002C77.6301 55.1596 77.4501 55.4134 77.3567 55.7618L76.5471 58.7832C76.4538 59.1316 76.4828 59.4415 76.6341 59.7128C76.7918 59.9859 77.0479 60.17 77.4027 60.265ZM77.9627 58.1747C77.7854 58.1272 77.655 58.0312 77.5715 57.8866C77.4944 57.7437 77.4804 57.5804 77.5296 57.3968C77.5772 57.2194 77.6692 57.0913 77.8057 57.0125C77.9503 56.929 78.1113 56.911 78.2886 56.9586C78.466 57.0061 78.5932 57.1013 78.6703 57.2441C78.7555 57.3824 78.7743 57.5402 78.7268 57.7175C78.6776 57.9012 78.5807 58.0348 78.4361 58.1183C78.2979 58.2034 78.1401 58.2222 77.9627 58.1747Z" fill="#727272"/>
<path d="M115.132 71.2197L115.376 70.3075L117.219 70.8014L118.594 65.6708L116.372 66.552L116.67 65.4403L118.567 64.7064L119.86 65.0526L118.245 71.0764L119.737 71.4761L119.493 72.3882L115.132 71.2197ZM122.637 73.3325C122.384 73.2647 122.2 73.1375 122.087 72.9511C121.976 72.7583 121.954 72.5353 122.022 72.2819C122.092 72.0222 122.223 71.8367 122.416 71.7254C122.61 71.6078 122.834 71.5829 123.088 71.6508C123.347 71.7204 123.529 71.8539 123.632 72.0513C123.743 72.244 123.764 72.4703 123.695 72.73C123.627 72.9833 123.496 73.1657 123.304 73.277C123.119 73.3836 122.897 73.4021 122.637 73.3325ZM128.144 74.8082C127.707 74.691 127.35 74.5037 127.073 74.2461C126.802 73.9902 126.618 73.6865 126.522 73.3349C126.428 72.977 126.436 72.5922 126.547 72.1805L127.356 69.1591C127.468 68.7411 127.651 68.4029 127.903 68.1447C128.162 67.8882 128.476 67.7177 128.845 67.6332C129.213 67.5488 129.616 67.5651 130.053 67.6822C130.497 67.801 130.854 67.9884 131.125 68.2442C131.402 68.5018 131.585 68.8055 131.675 69.1554C131.771 69.507 131.763 69.8918 131.651 70.3098L130.841 73.3312C130.731 73.743 130.545 74.0802 130.285 74.3431C130.026 74.5996 129.712 74.7701 129.343 74.8546C128.981 74.9407 128.581 74.9253 128.144 74.8082ZM128.381 73.9245C128.736 74.0196 129.046 73.9874 129.313 73.8281C129.586 73.6704 129.769 73.4174 129.863 73.069L130.672 70.0476C130.766 69.6992 130.733 69.3885 130.576 69.1154C130.424 68.8441 130.171 68.6609 129.817 68.5658C129.462 68.4708 129.148 68.5021 128.875 68.6597C128.608 68.8191 128.428 69.073 128.335 69.4213L127.525 72.4427C127.432 72.7911 127.461 73.101 127.612 73.3724C127.77 73.6454 128.026 73.8295 128.381 73.9245ZM128.941 71.8343C128.764 71.7867 128.633 71.6907 128.55 71.5461C128.473 71.4033 128.459 71.24 128.508 71.0563C128.555 70.8789 128.647 70.7508 128.784 70.672C128.928 70.5885 129.089 70.5706 129.267 70.6181C129.444 70.6656 129.571 70.7608 129.648 70.9037C129.734 71.0419 129.752 71.1997 129.705 71.3771C129.656 71.5608 129.559 71.6943 129.414 71.7778C129.276 71.863 129.118 71.8818 128.941 71.8343Z" fill="#727272"/>
<path d="M165.821 84.8019L166.066 83.8898L167.909 84.3837L169.284 79.253L167.062 80.1342L167.36 79.0226L169.257 78.2886L170.549 78.6348L168.935 84.6586L170.427 85.0583L170.182 85.9704L165.821 84.8019ZM174.373 83.0097C174.126 82.9435 173.942 82.8196 173.821 82.6378C173.706 82.4577 173.679 82.2536 173.741 82.0256C173.802 81.7976 173.926 81.6374 174.114 81.5451C174.309 81.4482 174.531 81.4328 174.778 81.499C175.031 81.5669 175.215 81.6909 175.33 81.871C175.446 82.0448 175.474 82.2456 175.413 82.4737C175.352 82.7017 175.226 82.865 175.037 82.9636C174.848 83.0623 174.626 83.0776 174.373 83.0097ZM173.327 86.9148C173.08 86.8486 172.896 86.7246 172.775 86.5428C172.66 86.3627 172.632 86.1618 172.692 85.9401C172.754 85.7058 172.88 85.5424 173.067 85.4502C173.263 85.3532 173.484 85.3379 173.731 85.4041C173.985 85.4719 174.169 85.5959 174.283 85.776C174.4 85.9498 174.427 86.1538 174.364 86.3882C174.304 86.6099 174.18 86.7701 173.991 86.8687C173.801 86.9673 173.58 86.9827 173.327 86.9148ZM178.748 88.3675C178.311 88.2503 177.953 88.0662 177.674 87.8149C177.395 87.5637 177.207 87.2654 177.109 86.9202C177.02 86.5703 177.029 86.1959 177.135 85.7968L178.162 86.0718C178.068 86.4202 178.093 86.7188 178.237 86.9678C178.387 87.2185 178.64 87.3913 178.994 87.4864C179.355 87.5831 179.661 87.5565 179.912 87.4064C180.163 87.2563 180.333 87.0134 180.423 86.6777L180.56 86.1646C180.655 85.8099 180.63 85.5112 180.485 85.2686C180.341 85.0196 180.089 84.8468 179.728 84.75L178.986 84.5514L179.246 83.5823L181.274 82.4759L178.537 81.7427L178.779 80.8401L182.561 81.8533L182.301 82.8225L179.91 84.1065L179.976 83.8594C180.635 84.036 181.109 84.3565 181.399 84.8211C181.689 85.2857 181.752 85.822 181.589 86.4301L181.449 86.9526C181.342 87.3517 181.159 87.6795 180.9 87.936C180.643 88.1862 180.328 88.3495 179.954 88.4259C179.587 88.5041 179.185 88.4846 178.748 88.3675ZM184.341 89.866C183.904 89.7489 183.546 89.5615 183.269 89.3039C182.998 89.048 182.815 88.7443 182.719 88.3928C182.625 88.0349 182.633 87.6501 182.743 87.2383L183.553 84.2169C183.665 83.7989 183.847 83.4607 184.1 83.2025C184.358 82.946 184.672 82.7755 185.041 82.691C185.41 82.6066 185.813 82.6229 186.25 82.74C186.693 82.8588 187.051 83.0462 187.321 83.3021C187.599 83.5596 187.782 83.8634 187.872 84.2132C187.968 84.5648 187.959 84.9496 187.847 85.3677L187.038 88.3891C186.928 88.8008 186.742 89.1381 186.482 89.4009C186.223 89.6574 185.909 89.8279 185.54 89.9124C185.178 89.9986 184.778 89.9831 184.341 89.866ZM184.577 88.9824C184.932 89.0774 185.243 89.0452 185.51 88.8859C185.783 88.7282 185.966 88.4752 186.059 88.1268L186.869 85.1054C186.962 84.7571 186.93 84.4463 186.772 84.1733C186.621 83.9019 186.368 83.7187 186.013 83.6236C185.659 83.5286 185.345 83.5599 185.072 83.7175C184.805 83.8769 184.625 84.1308 184.531 84.4791L183.722 87.5006C183.629 87.8489 183.658 88.1588 183.809 88.4302C183.967 88.7032 184.223 88.8873 184.577 88.9824ZM185.138 86.8921C184.96 86.8445 184.83 86.7485 184.746 86.6039C184.669 86.4611 184.655 86.2978 184.704 86.1141C184.752 85.9367 184.844 85.8086 184.981 85.7298C185.125 85.6464 185.286 85.6284 185.463 85.6759C185.641 85.7234 185.768 85.8186 185.845 85.9615C185.93 86.0997 185.949 86.2575 185.902 86.4349C185.852 86.6186 185.755 86.7521 185.611 86.8356C185.473 86.9208 185.315 86.9396 185.138 86.8921Z" fill="#727272"/>
<path d="M222.287 99.932L222.56 98.9153L225.3 97.2769C225.721 97.0231 226.044 96.7804 226.269 96.5488C226.502 96.3125 226.655 96.0582 226.728 95.7858C226.823 95.4311 226.8 95.1261 226.658 94.8708C226.522 94.6172 226.286 94.4454 225.951 94.3554C225.583 94.257 225.263 94.2866 224.99 94.4443C224.725 94.5973 224.543 94.8575 224.445 95.2249L223.419 94.9499C223.547 94.5226 223.744 94.1783 224.011 93.9172C224.28 93.6497 224.602 93.4746 224.977 93.3918C225.352 93.309 225.761 93.327 226.205 93.4459C226.629 93.5596 226.978 93.7412 227.25 93.9908C227.523 94.2403 227.705 94.5368 227.796 94.8804C227.887 95.2239 227.878 95.5984 227.77 96.0038C227.659 96.4155 227.444 96.7888 227.123 97.1239C226.809 97.4606 226.347 97.8051 225.736 98.1575L223.744 99.3242L226.774 100.136L226.525 101.067L222.287 99.932ZM230.858 98.1449C230.611 98.0787 230.427 97.9548 230.306 97.773C230.191 97.5929 230.165 97.3888 230.226 97.1608C230.287 96.9328 230.411 96.7726 230.599 96.6803C230.795 96.5834 231.016 96.568 231.263 96.6342C231.516 96.7021 231.7 96.8261 231.815 97.0062C231.931 97.1799 231.959 97.3808 231.898 97.6089C231.837 97.8369 231.712 98.0002 231.522 98.0988C231.333 98.1975 231.111 98.2128 230.858 98.1449ZM229.812 102.05C229.565 101.984 229.381 101.86 229.26 101.678C229.145 101.498 229.117 101.297 229.177 101.075C229.24 100.841 229.365 100.678 229.552 100.585C229.748 100.488 229.97 100.473 230.217 100.539C230.47 100.607 230.654 100.731 230.769 100.911C230.885 101.085 230.912 101.289 230.849 101.523C230.79 101.745 230.665 101.905 230.476 102.004C230.286 102.102 230.065 102.118 229.812 102.05ZM235.319 103.526C234.882 103.408 234.525 103.221 234.247 102.964C233.976 102.708 233.793 102.404 233.697 102.052C233.603 101.694 233.611 101.31 233.721 100.898L234.531 97.8765C234.643 97.4585 234.825 97.1203 235.078 96.8621C235.337 96.6056 235.65 96.4351 236.019 96.3506C236.388 96.2662 236.791 96.2825 237.228 96.3996C237.672 96.5184 238.029 96.7058 238.3 96.9616C238.577 97.2192 238.76 97.5229 238.85 97.8728C238.946 98.2244 238.938 98.6092 238.826 99.0272L238.016 102.049C237.906 102.46 237.72 102.798 237.46 103.061C237.201 103.317 236.887 103.488 236.518 103.572C236.156 103.658 235.756 103.643 235.319 103.526ZM235.556 102.642C235.91 102.737 236.221 102.705 236.488 102.545C236.761 102.388 236.944 102.135 237.037 101.786L237.847 98.765C237.94 98.4166 237.908 98.1059 237.75 97.8328C237.599 97.5615 237.346 97.3783 236.991 97.2832C236.637 97.1882 236.323 97.2195 236.05 97.3771C235.783 97.5365 235.603 97.7904 235.51 98.1387L234.7 101.16C234.607 101.509 234.636 101.818 234.787 102.09C234.945 102.363 235.201 102.547 235.556 102.642ZM236.116 100.552C235.938 100.504 235.808 100.408 235.724 100.264C235.647 100.121 235.633 99.9574 235.683 99.7737C235.73 99.5963 235.822 99.4682 235.959 99.3894C236.103 99.3059 236.264 99.288 236.442 99.3355C236.619 99.383 236.746 99.4782 236.823 99.6211C236.908 99.7593 236.927 99.9171 236.88 100.094C236.83 100.278 236.734 100.412 236.589 100.495C236.451 100.58 236.293 100.599 236.116 100.552ZM240.826 105.001C240.389 104.884 240.032 104.697 239.754 104.439C239.484 104.183 239.3 103.88 239.204 103.528C239.11 103.17 239.118 102.785 239.228 102.374L240.038 99.3521C240.15 98.9341 240.332 98.5959 240.585 98.3377C240.844 98.0812 241.157 97.9107 241.526 97.8262C241.895 97.7418 242.298 97.7581 242.735 97.8752C243.179 97.994 243.536 98.1814 243.807 98.4372C244.084 98.6948 244.267 98.9986 244.357 99.3484C244.453 99.7 244.445 100.085 244.333 100.503L243.523 103.524C243.413 103.936 243.227 104.273 242.967 104.536C242.708 104.793 242.394 104.963 242.025 105.048C241.663 105.134 241.263 105.118 240.826 105.001ZM241.063 104.118C241.417 104.213 241.728 104.18 241.995 104.021C242.268 103.863 242.451 103.61 242.544 103.262L243.354 100.241C243.447 99.8922 243.415 99.5815 243.257 99.3085C243.106 99.0371 242.853 98.8539 242.498 98.7588C242.144 98.6638 241.83 98.6951 241.557 98.8527C241.29 99.0121 241.11 99.266 241.017 99.6143L240.207 102.636C240.114 102.984 240.143 103.294 240.294 103.565C240.452 103.838 240.708 104.022 241.063 104.118ZM241.623 102.027C241.445 101.98 241.315 101.884 241.231 101.739C241.154 101.596 241.14 101.433 241.19 101.249C241.237 101.072 241.329 100.944 241.466 100.865C241.61 100.782 241.771 100.764 241.949 100.811C242.126 100.859 242.253 100.954 242.33 101.097C242.415 101.235 242.434 101.393 242.387 101.57C242.338 101.754 242.241 101.887 242.096 101.971C241.958 102.056 241.8 102.075 241.623 102.027Z" fill="#727272"/>
<path d="M93.0045 38.9764C93.5026 40.8026 95.7846 41.4141 97.1291 40.0816C98.4841 38.7387 97.8716 36.4321 96.0289 35.9384C94.1862 35.4447 92.5025 37.1359 93.0045 38.9764Z" stroke="#3292FF" stroke-width="1.84433"/>
<defs>
<filter id="filter0_b_45_646" x="-90.0761" y="-28.5467" width="407.569" height="296.282" filterUnits="userSpaceOnUse" color-interpolation-filters="sRGB">
<feFlood flood-opacity="0" result="BackgroundImageFix"/>
<feGaussianBlur in="BackgroundImageFix" stdDeviation="19.6729"/>
<feComposite in2="SourceAlpha" operator="in" result="effect1_backgroundBlur_45_646"/>
<feBlend mode="normal" in="SourceGraphic" in2="effect1_backgroundBlur_45_646" result="shape"/>
</filter>
<filter id="filter1_dddddd_45_646" x="-98.6369" y="-5.09741" width="424.68" height="313.393" filterUnits="userSpaceOnUse" color-interpolation-filters="sRGB">
<feFlood flood-opacity="0" result="BackgroundImageFix"/>
<feColorMatrix in="SourceAlpha" type="matrix" values="0 0 0 0 0 0 0 0 0 0 0 0 0 0 0 0 0 0 127 0" result="hardAlpha"/>
<feMorphology radius="4" operator="erode" in="SourceAlpha" result="effect1_dropShadow_45_646"/>
<feOffset dy="5"/>
<feGaussianBlur stdDeviation="0.75"/>
<feComposite in2="hardAlpha" operator="out"/>
<feColorMatrix type="matrix" values="0 0 0 0 0.0313726 0 0 0 0 0.0313726 0 0 0 0 0.0313726 0 0 0 0.05 0"/>
<feBlend mode="normal" in2="BackgroundImageFix" result="effect1_dropShadow_45_646"/>
<feColorMatrix in="SourceAlpha" type="matrix" values="0 0 0 0 0 0 0 0 0 0 0 0 0 0 0 0 0 0 127 0" result="hardAlpha"/>
<feMorphology radius="4" operator="erode" in="SourceAlpha" result="effect2_dropShadow_45_646"/>
<feOffset dy="6"/>
<feGaussianBlur stdDeviation="2"/>
<feComposite in2="hardAlpha" operator="out"/>
<feColorMatrix type="matrix" values="0 0 0 0 0.0313726 0 0 0 0 0.0313726 0 0 0 0 0.0313726 0 0 0 0.05 0"/>
<feBlend mode="normal" in2="effect1_dropShadow_45_646" result="effect2_dropShadow_45_646"/>
<feColorMatrix in="SourceAlpha" type="matrix" values="0 0 0 0 0 0 0 0 0 0 0 0 0 0 0 0 0 0 127 0" result="hardAlpha"/>
<feOffset dy="6"/>
<feGaussianBlur stdDeviation="6.5"/>
<feComposite in2="hardAlpha" operator="out"/>
<feColorMatrix type="matrix" values="0 0 0 0 0.0313726 0 0 0 0 0.0313726 0 0 0 0 0.0313726 0 0 0 0.03 0"/>
<feBlend mode="normal" in2="effect2_dropShadow_45_646" result="effect3_dropShadow_45_646"/>
<feColorMatrix in="SourceAlpha" type="matrix" values="0 0 0 0 0 0 0 0 0 0 0 0 0 0 0 0 0 0 127 0" result="hardAlpha"/>
<feMorphology radius="16" operator="erode" in="SourceAlpha" result="effect4_dropShadow_45_646"/>
<feOffset dy="24"/>
<feGaussianBlur stdDeviation="12"/>
<feComposite in2="hardAlpha" operator="out"/>
<feColorMatrix type="matrix" values="0 0 0 0 0.0313726 0 0 0 0 0.0313726 0 0 0 0 0.0313726 0 0 0 0.04 0"/>
<feBlend mode="normal" in2="effect3_dropShadow_45_646" result="effect4_dropShadow_45_646"/>
<feColorMatrix in="SourceAlpha" type="matrix" values="0 0 0 0 0 0 0 0 0 0 0 0 0 0 0 0 0 0 127 0" result="hardAlpha"/>
<feMorphology radius="2" operator="erode" in="SourceAlpha" result="effect5_dropShadow_45_646"/>
<feOffset dy="2.15"/>
<feGaussianBlur stdDeviation="0.25"/>
<feComposite in2="hardAlpha" operator="out"/>
<feColorMatrix type="matrix" values="0 0 0 0 0 0 0 0 0 0 0 0 0 0 0 0 0 0 0.25 0"/>
<feBlend mode="normal" in2="effect4_dropShadow_45_646" result="effect5_dropShadow_45_646"/>
<feColorMatrix in="SourceAlpha" type="matrix" values="0 0 0 0 0 0 0 0 0 0 0 0 0 0 0 0 0 0 127 0" result="hardAlpha"/>
<feMorphology radius="12" operator="erode" in="SourceAlpha" result="effect6_dropShadow_45_646"/>
<feOffset dy="32"/>
<feGaussianBlur stdDeviation="32"/>
<feComposite in2="hardAlpha" operator="out"/>
<feColorMatrix type="matrix" values="0 0 0 0 0 0 0 0 0 0 0 0 0 0 0 0 0 0 0.075 0"/>
<feBlend mode="multiply" in2="effect5_dropShadow_45_646" result="effect6_dropShadow_45_646"/>
<feBlend mode="normal" in="SourceGraphic" in2="effect6_dropShadow_45_646" result="shape"/>
</filter>
<filter id="filter2_bd_45_646" x="36.9865" y="95.0159" width="236.477" height="147.796" filterUnits="userSpaceOnUse" color-interpolation-filters="sRGB">
<feFlood flood-opacity="0" result="BackgroundImageFix"/>
<feGaussianBlur in="BackgroundImageFix" stdDeviation="19.6729"/>
<feComposite in2="SourceAlpha" operator="in" result="effect1_backgroundBlur_45_646"/>
<feColorMatrix in="SourceAlpha" type="matrix" values="0 0 0 0 0 0 0 0 0 0 0 0 0 0 0 0 0 0 127 0" result="hardAlpha"/>
<feMorphology radius="4.91822" operator="erode" in="SourceAlpha" result="effect2_dropShadow_45_646"/>
<feOffset dy="1.22955"/>
<feGaussianBlur stdDeviation="4.91822"/>
<feComposite in2="hardAlpha" operator="out"/>
<feColorMatrix type="matrix" values="0 0 0 0 0 0 0 0 0 0 0 0 0 0 0 0 0 0 0.2 0"/>
<feBlend mode="multiply" in2="effect1_backgroundBlur_45_646" result="effect2_dropShadow_45_646"/>
<feBlend mode="normal" in="SourceGraphic" in2="effect2_dropShadow_45_646" result="shape"/>
</filter>
<filter id="filter3_f_45_646" x="82.8628" y="142.177" width="27.052" height="27.0521" filterUnits="userSpaceOnUse" color-interpolation-filters="sRGB">
<feFlood flood-opacity="0" result="BackgroundImageFix"/>
<feBlend mode="normal" in="SourceGraphic" in2="BackgroundImageFix" result="shape"/>
<feGaussianBlur stdDeviation="4.91822" result="effect1_foregroundBlur_45_646"/>
</filter>
<filter id="filter4_f_45_646" x="-95.038" y="0.360435" width="414.93" height="248" filterUnits="userSpaceOnUse" color-interpolation-filters="sRGB">
<feFlood flood-opacity="0" result="BackgroundImageFix"/>
<feBlend mode="normal" in="SourceGraphic" in2="BackgroundImageFix" result="shape"/>
<feGaussianBlur stdDeviation="39.3458" result="effect1_foregroundBlur_45_646"/>
</filter>
<filter id="filter5_bd_45_646" x="-53.6937" y="24.8981" width="338.616" height="175.163" filterUnits="userSpaceOnUse" color-interpolation-filters="sRGB">
<feFlood flood-opacity="0" result="BackgroundImageFix"/>
<feGaussianBlur in="BackgroundImageFix" stdDeviation="19.6729"/>
<feComposite in2="SourceAlpha" operator="in" result="effect1_backgroundBlur_45_646"/>
<feColorMatrix in="SourceAlpha" type="matrix" values="0 0 0 0 0 0 0 0 0 0 0 0 0 0 0 0 0 0 127 0" result="hardAlpha"/>
<feMorphology radius="4.91822" operator="erode" in="SourceAlpha" result="effect2_dropShadow_45_646"/>
<feOffset dy="1.22955"/>
<feGaussianBlur stdDeviation="4.91822"/>
<feComposite in2="hardAlpha" operator="out"/>
<feColorMatrix type="matrix" values="0 0 0 0 0 0 0 0 0 0 0 0 0 0 0 0 0 0 0.2 0"/>
<feBlend mode="multiply" in2="effect1_backgroundBlur_45_646" result="effect2_dropShadow_45_646"/>
<feBlend mode="normal" in="SourceGraphic" in2="effect2_dropShadow_45_646" result="shape"/>
</filter>
<filter id="filter6_f_45_646" x="-7.81372" y="72.0503" width="27.052" height="27.0521" filterUnits="userSpaceOnUse" color-interpolation-filters="sRGB">
<feFlood flood-opacity="0" result="BackgroundImageFix"/>
<feBlend mode="normal" in="SourceGraphic" in2="BackgroundImageFix" result="shape"/>
<feGaussianBlur stdDeviation="4.91822" result="effect1_foregroundBlur_45_646"/>
</filter>
<linearGradient id="paint0_linear_45_646" x1="134.075" y1="43.5842" x2="93.3415" y2="195.605" gradientUnits="userSpaceOnUse">
<stop stop-color="#FDFDFD" stop-opacity="0.3"/>
<stop offset="1" stop-color="#FDFDFD"/>
</linearGradient>
<linearGradient id="paint1_linear_45_646" x1="134.075" y1="43.5842" x2="93.3415" y2="195.605" gradientUnits="userSpaceOnUse">
<stop stop-color="#E2E2E2"/>
<stop offset="1" stop-color="#E2E2E2" stop-opacity="0.75"/>
</linearGradient>
<linearGradient id="paint2_linear_45_646" x1="131.524" y1="53.0904" x2="95.8822" y2="186.108" gradientUnits="userSpaceOnUse">
<stop stop-color="#F6F6F6"/>
<stop offset="1" stop-color="#E6E6E6"/>
</linearGradient>
</defs>
</svg>
