<svg width="376" height="379" viewBox="0 0 376 379" fill="none" xmlns="http://www.w3.org/2000/svg">
<g filter="url(#filter0_d_45_684)">
<g filter="url(#filter1_b_45_684)">
<path d="M85.5932 131.372C81.434 112.272 79.3544 102.722 81.483 94.6168C83.3554 87.4876 87.4367 81.1341 93.1419 76.467C99.6279 71.1612 109.178 69.0816 128.279 64.9224L418.656 1.69196C437.757 -2.46721 447.307 -4.5468 455.412 -2.41819C462.541 -0.545821 468.895 3.53545 473.562 9.24068C478.867 15.7267 480.947 25.2769 485.106 44.3774L508.552 152.051C512.712 171.151 514.791 180.702 512.663 188.807C510.79 195.936 506.709 202.289 501.004 206.956C494.518 212.262 484.967 214.342 465.867 218.501L175.489 281.731C156.389 285.891 146.839 287.97 138.734 285.841C131.604 283.969 125.251 279.888 120.584 274.183C115.278 267.697 113.199 258.146 109.039 239.046L85.5932 131.372Z" fill="url(#paint0_linear_45_684)" fill-opacity="0.75"/>
<path d="M86.5067 131.173C84.4238 121.608 82.8743 114.489 82.1069 108.747C81.3408 103.017 81.3668 98.7398 82.3873 94.8543C84.2095 87.916 88.1815 81.7327 93.7339 77.1906C96.8433 74.647 100.722 72.8451 106.252 71.159C111.793 69.4697 118.912 67.9188 128.477 65.836L418.855 2.60548C428.421 0.522614 435.54 -1.02686 441.281 -1.79435C447.012 -2.56038 451.289 -2.5344 455.174 -1.51394C462.113 0.308289 468.296 4.28024 472.838 9.83265C475.382 12.9421 477.184 16.8209 478.87 22.3512C480.559 27.8921 482.11 35.011 484.193 44.5763L507.639 152.25C509.722 161.815 511.271 168.934 512.039 174.676C512.805 180.407 512.779 184.684 511.758 188.569C509.936 195.507 505.964 201.691 500.412 206.233C497.302 208.776 493.423 210.578 487.893 212.264C482.352 213.954 475.233 215.504 465.668 217.587L175.29 280.818C165.725 282.901 158.606 284.45 152.864 285.218C147.134 285.984 142.857 285.958 138.971 284.937C132.033 283.115 125.85 279.143 121.308 273.591C118.764 270.481 116.962 266.602 115.276 261.072C113.587 255.531 112.036 248.412 109.953 238.847L86.5067 131.173Z" stroke="url(#paint1_linear_45_684)" stroke-width="1.86986"/>
</g>
<g filter="url(#filter2_dddddd_45_684)">
<path d="M94.0598 123.401C91.089 109.758 89.6036 102.936 91.124 97.1471C92.4614 92.0548 95.3766 87.5166 99.4518 84.183C104.085 80.3931 110.906 78.9077 124.549 75.9369L426.62 10.1602C440.263 7.18933 447.085 5.70391 452.874 7.22435C457.966 8.56175 462.505 11.4769 465.838 15.5521C469.628 20.185 471.114 27.0066 474.084 40.6497L500.077 160.016C503.048 173.66 504.533 180.481 503.013 186.27C501.675 191.363 498.76 195.901 494.685 199.235C490.052 203.024 483.23 204.51 469.587 207.481L167.516 273.257C153.873 276.228 147.052 277.714 141.262 276.193C136.17 274.856 131.632 271.941 128.298 267.865C124.508 263.233 123.023 256.411 120.052 242.768L94.0598 123.401Z" fill="#F1F1F1"/>
<path d="M94.9733 123.202C93.4846 116.365 92.3808 111.293 91.8344 107.205C91.2894 103.128 91.3119 100.112 92.0283 97.3846C93.3155 92.4832 96.1214 88.1152 100.044 84.9066C102.227 83.1209 104.96 81.8466 108.894 80.6471C112.839 79.4443 117.912 78.3391 124.748 76.8504L426.819 11.0737C433.656 9.58499 438.729 8.48114 442.816 7.93471C446.893 7.38975 449.909 7.41223 452.637 8.12861C457.538 9.41586 461.906 12.2217 465.115 16.1441C466.9 18.3269 468.175 21.0603 469.374 24.9947C470.577 28.9396 471.682 34.012 473.171 40.8487L499.163 160.215C500.652 167.052 501.756 172.125 502.302 176.213C502.847 180.289 502.825 183.305 502.108 186.033C500.821 190.934 498.015 195.302 494.093 198.511C491.91 200.297 489.177 201.571 485.242 202.77C481.297 203.973 476.225 205.078 469.388 206.567L167.317 272.344C160.481 273.832 155.408 274.936 151.32 275.483C147.243 276.028 144.228 276.005 141.5 275.289C136.599 274.002 132.231 271.196 129.022 267.273C127.236 265.091 125.962 262.357 124.762 258.423C123.56 254.478 122.454 249.405 120.966 242.569L94.9733 123.202Z" stroke="url(#paint2_linear_45_684)" stroke-width="1.86986"/>
</g>
<path d="M145.352 252.663C145.021 252.735 144.72 252.736 144.45 252.668C144.184 252.593 143.959 252.453 143.777 252.248C143.598 252.037 143.474 251.773 143.405 251.456L142.89 249.088C142.82 248.767 142.822 248.475 142.898 248.214C142.979 247.951 143.125 247.733 143.337 247.559C143.554 247.379 143.827 247.254 144.158 247.181C144.49 247.109 144.789 247.111 145.055 247.185C145.325 247.254 145.549 247.391 145.727 247.598C145.909 247.803 146.035 248.064 146.104 248.381L146.621 250.756C146.69 251.072 146.684 251.364 146.605 251.632C146.529 251.893 146.383 252.114 146.167 252.294C145.955 252.467 145.683 252.59 145.352 252.663ZM145.199 251.961C145.467 251.903 145.653 251.785 145.758 251.61C145.866 251.428 145.891 251.2 145.832 250.928L145.316 248.56C145.255 248.282 145.139 248.086 144.966 247.97C144.797 247.854 144.579 247.825 144.311 247.883C144.048 247.94 143.862 248.057 143.752 248.234C143.643 248.411 143.618 248.639 143.679 248.916L144.195 251.284C144.254 251.557 144.371 251.753 144.545 251.874C144.718 251.989 144.936 252.018 145.199 251.961ZM149.617 251.734C149.286 251.806 148.98 251.809 148.7 251.742C148.424 251.669 148.193 251.531 148.005 251.327C147.822 251.117 147.695 250.853 147.627 250.537L147.397 249.484C147.327 249.163 147.333 248.871 147.413 248.608C147.499 248.345 147.652 248.125 147.874 247.949C148.1 247.767 148.379 247.64 148.71 247.568C149.192 247.463 149.607 247.505 149.955 247.695C150.302 247.885 150.531 248.197 150.641 248.633L149.852 248.804C149.787 248.579 149.668 248.418 149.495 248.323C149.321 248.229 149.11 248.208 148.861 248.262C148.593 248.321 148.398 248.442 148.275 248.627C148.151 248.808 148.118 249.034 148.178 249.307L148.408 250.366C148.468 250.639 148.592 250.834 148.781 250.951C148.97 251.068 149.198 251.098 149.466 251.039C149.714 250.985 149.898 250.879 150.017 250.721C150.135 250.562 150.177 250.367 150.142 250.135L150.931 249.963C151.012 250.404 150.934 250.784 150.696 251.101C150.459 251.418 150.099 251.629 149.617 251.734ZM154.246 250.649C153.881 250.729 153.574 250.691 153.326 250.536C153.078 250.381 152.915 250.125 152.838 249.769L152.365 247.599L151.254 247.841L151.098 247.125L152.209 246.883L151.962 245.75L152.752 245.578L152.998 246.711L154.57 246.369L154.726 247.085L153.154 247.427L153.627 249.598C153.687 249.875 153.852 249.985 154.12 249.927L155.216 249.688L155.372 250.404L154.246 250.649Z" fill="#727272"/>
<path d="M209.209 238.681L208.048 233.346L209.041 233.129L211.564 237.227C211.524 237.087 211.475 236.922 211.418 236.73C211.361 236.539 211.304 236.339 211.249 236.132C211.199 235.923 211.155 235.734 211.118 235.563L210.518 232.808L211.249 232.649L212.41 237.984L211.416 238.2L208.901 234.102C208.938 234.226 208.983 234.382 209.034 234.57C209.09 234.757 209.142 234.952 209.192 235.156C209.246 235.358 209.292 235.547 209.331 235.723L209.94 238.522L209.209 238.681ZM215.06 237.476C214.729 237.548 214.427 237.547 214.156 237.474C213.885 237.4 213.658 237.26 213.476 237.055C213.293 236.85 213.168 236.589 213.099 236.272L212.873 235.235C212.803 234.913 212.808 234.624 212.89 234.366C212.971 234.103 213.119 233.882 213.335 233.703C213.551 233.523 213.825 233.397 214.156 233.325C214.487 233.253 214.789 233.253 215.06 233.327C215.331 233.401 215.558 233.54 215.74 233.745C215.922 233.946 216.047 234.207 216.117 234.528L216.343 235.566C216.412 235.883 216.407 236.172 216.326 236.435C216.245 236.697 216.097 236.918 215.881 237.098C215.665 237.278 215.391 237.404 215.06 237.476ZM214.909 236.781C215.177 236.723 215.368 236.605 215.482 236.427C215.595 236.244 215.622 236.014 215.561 235.736L215.335 234.698C215.274 234.416 215.154 234.217 214.976 234.103C214.798 233.989 214.575 233.961 214.307 234.019C214.044 234.076 213.853 234.194 213.734 234.374C213.619 234.552 213.593 234.782 213.655 235.064L213.881 236.102C213.941 236.38 214.061 236.578 214.24 236.698C214.423 236.811 214.646 236.839 214.909 236.781ZM218.763 236.601L216.557 232.871L217.361 232.696L218.747 235.088C218.834 235.228 218.913 235.371 218.986 235.519C219.063 235.66 219.121 235.772 219.159 235.856C219.165 235.763 219.17 235.637 219.176 235.477C219.186 235.312 219.197 235.149 219.208 234.988L219.459 232.239L220.255 232.066L219.8 236.375L218.763 236.601Z" fill="#727272"/>
<path d="M274.697 224.421L273.536 219.086L275.027 218.761C275.377 218.685 275.697 218.687 275.985 218.767C276.272 218.842 276.512 218.986 276.707 219.199C276.906 219.411 277.041 219.682 277.114 220.014L277.564 222.082C277.635 222.408 277.625 222.712 277.532 222.992C277.445 223.271 277.287 223.507 277.059 223.7C276.829 223.888 276.539 224.02 276.188 224.096L274.697 224.421ZM275.331 223.533L276.032 223.38C276.325 223.316 276.536 223.186 276.667 222.989C276.801 222.786 276.837 222.541 276.775 222.254L276.324 220.185C276.263 219.903 276.129 219.7 275.924 219.576C275.722 219.447 275.475 219.414 275.183 219.477L274.481 219.63L275.331 223.533ZM280.535 223.226C280.209 223.297 279.907 223.296 279.631 223.224C279.359 223.145 279.132 223.003 278.949 222.798C278.767 222.593 278.642 222.334 278.574 222.023L278.345 220.97C278.276 220.654 278.282 220.366 278.364 220.109C278.444 219.846 278.593 219.625 278.809 219.445C279.029 219.26 279.302 219.131 279.628 219.06C279.959 218.988 280.261 218.991 280.533 219.07C280.805 219.144 281.031 219.283 281.214 219.488C281.395 219.689 281.52 219.947 281.589 220.264L281.745 220.98L279.261 221.521L279.334 221.857C279.399 222.154 279.521 222.365 279.701 222.489C279.886 222.612 280.12 222.643 280.402 222.581C280.631 222.531 280.808 222.452 280.932 222.343C281.056 222.23 281.117 222.091 281.117 221.928L281.899 221.758C281.915 222.112 281.799 222.423 281.552 222.691C281.303 222.954 280.964 223.133 280.535 223.226ZM280.882 220.67L280.828 220.422C280.764 220.13 280.642 219.919 280.461 219.79C280.279 219.661 280.048 219.627 279.765 219.689C279.487 219.749 279.29 219.876 279.174 220.07C279.063 220.263 279.04 220.508 279.105 220.805L279.144 220.988L280.926 220.592L280.882 220.67ZM284.8 222.297C284.469 222.369 284.163 222.372 283.884 222.306C283.607 222.233 283.376 222.095 283.188 221.89C283.005 221.68 282.879 221.417 282.81 221.1L282.581 220.048C282.51 219.726 282.516 219.434 282.596 219.172C282.682 218.908 282.836 218.689 283.058 218.513C283.283 218.331 283.562 218.204 283.893 218.132C284.376 218.027 284.79 218.069 285.138 218.259C285.485 218.448 285.714 218.761 285.824 219.196L285.035 219.368C284.971 219.142 284.851 218.982 284.678 218.887C284.504 218.792 284.293 218.772 284.044 218.826C283.776 218.884 283.581 219.006 283.458 219.191C283.334 219.371 283.301 219.598 283.361 219.87L283.592 220.93C283.651 221.203 283.775 221.398 283.964 221.515C284.153 221.632 284.381 221.661 284.649 221.603C284.898 221.549 285.081 221.443 285.2 221.284C285.318 221.126 285.36 220.93 285.325 220.698L286.114 220.526C286.195 220.968 286.117 221.347 285.88 221.664C285.642 221.981 285.283 222.192 284.8 222.297Z" fill="#727272"/>
<path d="M341.554 209.939C341.027 210.054 340.582 209.998 340.216 209.771C339.85 209.545 339.613 209.18 339.503 208.679L340.285 208.508C340.35 208.805 340.481 209.019 340.678 209.15C340.873 209.276 341.115 209.307 341.402 209.245C341.69 209.182 341.897 209.053 342.022 208.857C342.147 208.657 342.178 208.41 342.114 208.118L341.447 205.056L340.19 205.329L340.033 204.606L342.072 204.162L342.896 207.947C343.005 208.449 342.938 208.88 342.695 209.239C342.455 209.592 342.075 209.826 341.554 209.939ZM345.607 209.057C345.188 209.148 344.833 209.113 344.543 208.951C344.256 208.784 344.072 208.513 343.991 208.138C343.908 207.758 343.97 207.433 344.177 207.163C344.387 206.888 344.716 206.701 345.165 206.604L346.283 206.36L346.202 205.988C346.154 205.768 346.049 205.613 345.886 205.521C345.723 205.428 345.517 205.409 345.268 205.464C345.049 205.511 344.877 205.6 344.752 205.729C344.626 205.854 344.568 205.996 344.578 206.158L343.803 206.326C343.768 205.956 343.871 205.633 344.112 205.356C344.358 205.078 344.702 204.89 345.146 204.794C345.623 204.69 346.027 204.729 346.358 204.913C346.688 205.091 346.898 205.387 346.988 205.801L347.586 208.549L346.819 208.716L346.658 207.978L346.526 208.007L346.626 207.832C346.69 208.124 346.629 208.382 346.443 208.607C346.256 208.826 345.977 208.976 345.607 209.057ZM345.709 208.399C345.991 208.337 346.207 208.216 346.357 208.036C346.51 207.849 346.562 207.644 346.514 207.42L346.399 206.894L345.295 207.134C345.091 207.179 344.94 207.27 344.842 207.409C344.75 207.546 344.725 207.713 344.767 207.907C344.812 208.112 344.918 208.26 345.086 208.351C345.253 208.437 345.46 208.453 345.709 208.399ZM348.65 208.317L347.775 204.298L348.557 204.127L348.724 204.895L348.914 204.853L348.764 205.078C348.694 204.756 348.734 204.484 348.885 204.263C349.036 204.041 349.279 203.894 349.615 203.82C350.015 203.733 350.362 203.793 350.657 203.999C350.951 204.201 351.145 204.518 351.239 204.952L351.822 207.627L351.033 207.798L350.469 205.211C350.412 204.948 350.297 204.761 350.125 204.651C349.953 204.54 349.745 204.512 349.502 204.565C349.253 204.619 349.072 204.737 348.959 204.92C348.85 205.097 348.826 205.327 348.887 205.609L349.439 208.145L348.65 208.317Z" fill="#727272"/>
<path d="M126.094 165.995L125.886 165.037C125.409 165.1 125.009 165.032 124.685 164.832C124.36 164.627 124.149 164.313 124.051 163.891L124.833 163.72C124.879 163.93 124.98 164.089 125.136 164.198C125.297 164.301 125.495 164.344 125.731 164.329L125.356 162.604L125.178 162.597C124.764 162.569 124.42 162.445 124.148 162.224C123.879 161.997 123.704 161.695 123.622 161.32C123.534 160.916 123.586 160.558 123.778 160.245C123.97 159.933 124.277 159.711 124.697 159.578L124.487 158.614L124.933 158.516L125.141 159.474C125.578 159.419 125.952 159.494 126.261 159.697C126.57 159.895 126.771 160.198 126.865 160.606L126.076 160.778C126.032 160.579 125.943 160.427 125.808 160.324C125.673 160.215 125.501 160.166 125.294 160.175L125.652 161.82L125.932 161.843C126.346 161.865 126.687 161.99 126.956 162.217C127.224 162.444 127.4 162.748 127.483 163.128C127.573 163.542 127.513 163.912 127.304 164.239C127.099 164.564 126.775 164.798 126.331 164.94L126.54 165.898L126.094 165.995ZM126.179 164.239C126.39 164.157 126.543 164.037 126.636 163.879C126.729 163.721 126.753 163.537 126.707 163.328C126.661 163.113 126.553 162.945 126.383 162.824C126.219 162.702 126.013 162.647 125.766 162.66L125.798 162.492L126.179 164.239ZM125.254 162.136L124.848 160.273C124.661 160.349 124.527 160.46 124.446 160.605C124.369 160.744 124.351 160.909 124.393 161.099C124.444 161.333 124.562 161.514 124.748 161.641C124.938 161.763 125.177 161.808 125.466 161.776L125.254 162.136ZM130.262 164.092C129.926 164.165 129.62 164.166 129.344 164.093C129.068 164.021 128.836 163.885 128.65 163.685C128.468 163.48 128.343 163.224 128.276 162.917L129.065 162.745C129.124 163.013 129.245 163.206 129.429 163.324C129.618 163.441 129.848 163.47 130.121 163.411C130.399 163.35 130.596 163.226 130.713 163.037C130.831 162.848 130.861 162.625 130.805 162.366L130.719 161.972C130.659 161.699 130.538 161.506 130.355 161.393C130.171 161.274 129.941 161.246 129.663 161.306L129.093 161.43L128.931 160.685L129.915 159.23L127.81 159.689L127.659 158.994L130.568 158.361L130.73 159.106L129.562 160.808L129.521 160.618C130.027 160.507 130.46 160.559 130.817 160.772C131.175 160.985 131.405 161.325 131.506 161.793L131.594 162.195C131.661 162.502 131.652 162.787 131.566 163.05C131.479 163.309 131.323 163.529 131.098 163.711C130.877 163.892 130.598 164.019 130.262 164.092ZM132.976 163.424L132.806 162.643L134.087 160.58C134.283 160.262 134.417 159.985 134.488 159.75C134.563 159.509 134.578 159.284 134.532 159.075C134.473 158.802 134.351 158.604 134.166 158.481C133.986 158.357 133.766 158.323 133.508 158.379C133.226 158.441 133.02 158.572 132.89 158.774C132.764 158.97 132.732 159.209 132.794 159.492L132.004 159.663C131.942 159.33 131.955 159.028 132.045 158.759C132.133 158.485 132.289 158.254 132.514 158.067C132.739 157.881 133.022 157.75 133.363 157.676C133.689 157.605 133.988 157.606 134.259 157.68C134.53 157.753 134.757 157.89 134.938 158.091C135.12 158.291 135.244 158.547 135.312 158.859C135.381 159.176 135.366 159.503 135.266 159.841C135.171 160.178 134.978 160.572 134.689 161.023L133.749 162.506L136.08 161.999L136.236 162.715L132.976 163.424ZM137.227 162.499L136.065 157.164L136.855 156.992L137.493 159.923L138.202 159.768L138.917 157.921L139.808 157.727L138.95 159.935L140.706 161.741L139.799 161.939L138.35 160.448L137.641 160.602L138.016 162.327L137.227 162.499Z" fill="#A8A8A8"/>
<path d="M111.607 106.335L110.026 99.076L110.825 98.902L116.273 103.86L115.921 103.977L114.635 98.0724L115.6 97.8623L117.181 105.122L116.382 105.296L110.945 100.295L111.268 100.184L112.562 106.128L111.607 106.335ZM120.941 104.425C120.434 104.536 119.957 104.514 119.508 104.36C119.06 104.206 118.676 103.946 118.358 103.579C118.039 103.207 117.823 102.76 117.71 102.241C117.595 101.715 117.604 101.223 117.735 100.765C117.874 100.307 118.109 99.9186 118.441 99.6013C118.779 99.2761 119.188 99.0611 119.669 98.9564C120.058 98.8716 120.418 98.868 120.748 98.9459C121.083 99.0158 121.381 99.1483 121.641 99.3434C121.906 99.5306 122.127 99.7648 122.304 100.046C122.486 100.319 122.613 100.619 122.683 100.943C122.699 101.015 122.71 101.097 122.717 101.191C122.729 101.277 122.737 101.36 122.741 101.441L118.434 102.379L118.264 101.599L122.045 100.776L121.693 101.22C121.677 100.87 121.579 100.575 121.398 100.335C121.216 100.096 120.988 99.9244 120.714 99.8208C120.44 99.7173 120.15 99.6987 119.845 99.7652C119.539 99.8317 119.277 99.9705 119.058 100.182C118.838 100.393 118.689 100.66 118.61 100.983C118.535 101.299 118.555 101.652 118.667 102.043C118.724 102.431 118.856 102.757 119.063 103.018C119.275 103.271 119.531 103.45 119.833 103.554C120.14 103.651 120.452 103.664 120.771 103.595C121.121 103.519 121.399 103.373 121.604 103.158C121.809 102.944 121.959 102.693 122.053 102.407L122.898 102.632C122.846 102.895 122.732 103.151 122.555 103.4C122.383 103.642 122.16 103.854 121.887 104.036C121.62 104.216 121.305 104.346 120.941 104.425ZM126.436 103.168C125.923 103.279 125.495 103.219 125.152 102.988C124.816 102.755 124.589 102.372 124.473 101.84L123.871 99.0722L122.916 99.2802L122.727 98.4129L122.922 98.3705C123.156 98.3196 123.325 98.2078 123.431 98.0352C123.536 97.8626 123.563 97.6593 123.512 97.4255L123.419 96.9967L124.325 96.7994L124.588 98.0077L125.767 97.7509L125.956 98.6182L124.777 98.8749L125.373 101.613C125.411 101.788 125.471 101.935 125.551 102.054C125.638 102.171 125.755 102.255 125.901 102.304C126.047 102.347 126.227 102.346 126.441 102.299C126.487 102.289 126.541 102.274 126.605 102.253C126.675 102.231 126.738 102.211 126.795 102.191L126.969 102.99C126.889 103.028 126.798 103.062 126.695 103.091C126.594 103.126 126.508 103.152 126.436 103.168ZM130.909 102.132L127.71 97.328L128.723 97.1073L131.337 101.192L130.987 101.268L131.676 96.4644L132.689 96.2437L131.767 101.946L130.909 102.132ZM136.873 100.956C136.367 101.067 135.883 101.049 135.423 100.905C134.961 100.753 134.565 100.496 134.234 100.133C133.903 99.7692 133.681 99.3244 133.566 98.7982C133.451 98.272 133.467 97.7788 133.611 97.3186C133.762 96.8571 134.017 96.4615 134.373 96.132C134.73 95.8026 135.165 95.582 135.679 95.4702C136.185 95.3599 136.67 95.3803 137.131 95.5316C137.591 95.6763 137.983 95.9278 138.306 96.2862C138.635 96.6431 138.858 97.0879 138.974 97.6206C139.09 98.1533 139.07 98.6544 138.914 99.1239C138.756 99.5869 138.498 99.9831 138.142 100.313C137.79 100.634 137.367 100.849 136.873 100.956ZM136.682 100.079C137.007 100.008 137.282 99.8636 137.506 99.6447C137.737 99.4243 137.896 99.1549 137.983 98.8365C138.077 98.5167 138.086 98.1814 138.009 97.8306C137.932 97.4734 137.785 97.1753 137.57 96.9364C137.359 96.6896 137.103 96.514 136.802 96.4096C136.505 96.2973 136.194 96.2765 135.87 96.3472C135.538 96.4193 135.258 96.5688 135.028 96.7957C134.804 97.0147 134.644 97.2809 134.549 97.5941C134.452 97.9009 134.443 98.233 134.521 98.5903C134.597 98.9411 134.745 99.2424 134.963 99.4943C135.181 99.7462 135.438 99.925 135.733 100.031C136.034 100.135 136.351 100.151 136.682 100.079ZM140.534 100.037L138.928 92.6602L139.834 92.4629L141.44 99.8393L140.534 100.037ZM144.538 99.2872C144.161 99.3692 143.801 99.3558 143.458 99.2469C143.121 99.1365 142.834 98.9439 142.597 98.6688C142.365 98.3859 142.205 98.0398 142.116 97.6305L141.401 94.3467L142.307 94.1494L143.001 97.3357C143.057 97.5956 143.159 97.8116 143.305 97.9839C143.458 98.1547 143.641 98.2748 143.853 98.3443C144.072 98.4123 144.305 98.4194 144.552 98.3656C144.799 98.3119 145.004 98.2093 145.169 98.0578C145.339 97.9049 145.454 97.7133 145.513 97.4827C145.578 97.2508 145.579 96.9919 145.517 96.7061L144.84 93.5977L145.756 93.3983L146.9 98.6504L146.013 98.8435L145.79 97.8203L145.956 97.8762C145.904 98.2344 145.75 98.5402 145.492 98.7937C145.239 99.0392 144.921 99.2037 144.538 99.2872ZM148.109 98.3871L146.965 93.135L147.852 92.9419L148.085 94.0138L147.923 93.8757C147.98 93.5161 148.133 93.2175 148.381 92.9798C148.628 92.7422 148.931 92.5845 149.288 92.5067C149.697 92.4176 150.089 92.4513 150.464 92.608C150.844 92.7632 151.137 93.0125 151.341 93.3559L151.09 93.4208C151.137 92.9819 151.3 92.6231 151.58 92.3445C151.858 92.0594 152.195 91.8737 152.592 91.7874C152.955 91.7082 153.302 91.7212 153.631 91.8264C153.966 91.9303 154.254 92.1125 154.495 92.3731C154.735 92.6338 154.897 92.9525 154.979 93.3292L155.719 96.73L154.803 96.9294L154.126 93.821C154.063 93.5287 153.957 93.2932 153.809 93.1144C153.661 92.9357 153.485 92.8109 153.279 92.74C153.078 92.6613 152.857 92.6481 152.617 92.7004C152.383 92.7514 152.185 92.8558 152.022 93.0138C151.864 93.1638 151.752 93.3548 151.687 93.5867C151.627 93.8107 151.628 94.0656 151.69 94.3515L152.367 97.4599L151.451 97.6593L150.774 94.5509C150.711 94.2586 150.605 94.0231 150.457 93.8443C150.309 93.6656 150.133 93.5408 149.927 93.47C149.726 93.3912 149.505 93.378 149.265 93.4304C149.031 93.4813 148.833 93.5857 148.67 93.7437C148.512 93.8937 148.4 94.0847 148.335 94.3166C148.275 94.5406 148.276 94.7956 148.338 95.0814L149.015 98.1898L148.109 98.3871ZM159.253 96.0829C158.747 96.1932 158.269 96.1713 157.82 96.0173C157.372 95.8632 156.989 95.603 156.671 95.2368C156.351 94.864 156.135 94.4178 156.022 93.8981C155.907 93.372 155.916 92.8802 156.048 92.4228C156.186 91.9641 156.421 91.576 156.754 91.2587C157.091 90.9335 157.5 90.7185 157.981 90.6138C158.371 90.529 158.731 90.5255 159.06 90.6033C159.395 90.6732 159.693 90.8057 159.953 91.0008C160.219 91.188 160.44 91.4222 160.617 91.7035C160.799 91.9769 160.925 92.276 160.996 92.6008C161.011 92.6722 161.022 92.7548 161.029 92.8486C161.041 92.9345 161.049 93.0178 161.053 93.0986L156.746 94.0364L156.576 93.2569L160.357 92.4336L160.005 92.8778C159.99 92.5273 159.891 92.2323 159.71 91.9928C159.529 91.7533 159.301 91.5818 159.026 91.4782C158.752 91.3747 158.462 91.3561 158.157 91.4226C157.852 91.4891 157.589 91.6279 157.37 91.8389C157.151 92.05 157.001 92.3173 156.922 92.6407C156.848 92.9563 156.867 93.3093 156.979 93.6999C157.037 94.0889 157.169 94.4139 157.375 94.6751C157.587 94.9284 157.843 95.1073 158.145 95.2117C158.452 95.3082 158.765 95.3218 159.083 95.2525C159.434 95.1761 159.712 95.0305 159.917 94.8158C160.122 94.601 160.271 94.3507 160.365 94.0648L161.21 94.2891C161.159 94.5521 161.044 94.8083 160.867 95.0578C160.695 95.2994 160.473 95.5112 160.199 95.6932C159.933 95.8737 159.617 96.0036 159.253 96.0829ZM164.647 94.786L163.692 90.4011L162.688 90.6196L162.5 89.7524L163.503 89.5338L163.423 89.1635C163.34 88.7868 163.352 88.4508 163.458 88.1556C163.571 87.8589 163.748 87.6127 163.991 87.4169C164.241 87.2196 164.535 87.0842 164.873 87.0107C164.944 86.9951 165.023 86.9846 165.111 86.9792C165.203 86.9659 165.28 86.9594 165.341 86.9597L165.517 87.7684C165.462 87.7668 165.399 87.7737 165.328 87.7893C165.255 87.7983 165.199 87.8071 165.16 87.8156C164.861 87.8807 164.63 88.0059 164.466 88.1912C164.309 88.3752 164.266 88.6328 164.338 88.9641L164.419 89.3344L165.666 89.0628L165.855 89.93L164.608 90.2016L165.563 94.5865L164.647 94.786ZM167.703 94.1205L166.559 88.8684L167.446 88.6753L167.656 89.64L167.529 89.5248C167.587 89.1991 167.727 88.9372 167.95 88.7391C168.171 88.5345 168.463 88.3926 168.827 88.3134L169.148 88.2434L169.335 89.1009L168.877 89.2006C168.507 89.2812 168.233 89.4632 168.057 89.7466C167.879 90.0235 167.836 90.373 167.928 90.7953L168.609 93.9232L167.703 94.1205ZM173.435 92.9949C172.928 93.1052 172.444 93.088 171.984 92.9433C171.523 92.792 171.126 92.5347 170.796 92.1713C170.465 91.8079 170.242 91.3631 170.127 90.8369C170.013 90.3107 170.028 89.8175 170.173 89.3573C170.324 88.8957 170.578 88.5002 170.935 88.1707C171.292 87.8412 171.727 87.6206 172.24 87.5089C172.747 87.3985 173.231 87.419 173.692 87.5702C174.153 87.715 174.544 87.9665 174.867 88.3248C175.197 88.6818 175.419 89.1266 175.535 89.6593C175.651 90.1919 175.631 90.693 175.475 91.1625C175.317 91.6255 175.06 92.0218 174.703 92.3513C174.351 92.6728 173.928 92.8874 173.435 92.9949ZM173.244 92.1179C173.568 92.0472 173.843 91.9023 174.068 91.6833C174.299 91.4629 174.458 91.1935 174.545 90.8752C174.638 90.5554 174.647 90.2201 174.571 89.8693C174.493 89.512 174.346 89.2139 174.131 88.975C173.921 88.7282 173.665 88.5526 173.363 88.4482C173.067 88.3359 172.756 88.3151 172.431 88.3859C172.1 88.458 171.819 88.6075 171.59 88.8344C171.365 89.0534 171.205 89.3195 171.11 89.6328C171.014 89.9396 171.005 90.2716 171.082 90.6289C171.159 90.9797 171.306 91.2811 171.524 91.5329C171.742 91.7848 171.999 91.9637 172.294 92.0695C172.596 92.1739 172.912 92.19 173.244 92.1179ZM177.095 92.0753L175.952 86.8231L176.838 86.63L177.072 87.7019L176.909 87.5638C176.967 87.2042 177.12 86.9056 177.367 86.668C177.615 86.4304 177.917 86.2726 178.275 86.1948C178.684 86.1057 179.076 86.1395 179.45 86.2961C179.831 86.4513 180.123 86.7006 180.327 87.0441L180.076 87.109C180.123 86.67 180.287 86.3112 180.566 86.0326C180.844 85.7475 181.182 85.5618 181.578 85.4755C181.942 85.3963 182.288 85.4093 182.617 85.5146C182.953 85.6184 183.241 85.8006 183.481 86.0613C183.722 86.3219 183.883 86.6406 183.965 87.0174L184.706 90.4181L183.79 90.6176L183.113 87.5092C183.049 87.2168 182.943 86.9813 182.796 86.8025C182.648 86.6238 182.471 86.499 182.265 86.4282C182.064 86.3494 181.844 86.3362 181.603 86.3886C181.369 86.4395 181.171 86.5439 181.008 86.7019C180.85 86.8519 180.739 87.0429 180.674 87.2748C180.613 87.4989 180.615 87.7538 180.677 88.0396L181.354 91.148L180.438 91.3475L179.761 88.2391C179.697 87.9467 179.591 87.7112 179.444 87.5325C179.296 87.3537 179.119 87.2289 178.913 87.1581C178.712 87.0794 178.492 87.0662 178.251 87.1185C178.017 87.1694 177.819 87.2739 177.656 87.4318C177.498 87.5818 177.387 87.7728 177.322 88.0048C177.261 88.2288 177.262 88.4837 177.325 88.7695L178.002 91.8779L177.095 92.0753ZM189.193 89.5634C188.667 89.678 188.181 89.6478 187.735 89.4728C187.288 89.2978 186.936 89.0071 186.677 88.6008L187.322 88.093C187.539 88.3722 187.797 88.5745 188.097 88.6998C188.396 88.8252 188.705 88.8532 189.024 88.7838C189.309 88.7216 189.532 88.6018 189.69 88.4243C189.849 88.2469 189.904 88.0477 189.856 87.8269C189.822 87.6709 189.75 87.5574 189.639 87.4863C189.534 87.4072 189.413 87.3552 189.279 87.3301C189.142 87.2985 189.02 87.281 188.91 87.2776L188.072 87.2254C187.568 87.1922 187.178 87.073 186.902 86.8678C186.632 86.6611 186.461 86.3889 186.387 86.0511C186.319 85.7393 186.339 85.4527 186.445 85.1914C186.556 84.9222 186.734 84.6929 186.979 84.5035C187.23 84.3128 187.528 84.1799 187.872 84.105C188.333 84.0045 188.771 84.0316 189.186 84.1863C189.607 84.3395 189.942 84.6103 190.19 84.9986L189.523 85.5009C189.347 85.2535 189.125 85.0773 188.857 84.9723C188.588 84.8609 188.307 84.837 188.015 84.9006C187.748 84.9586 187.552 85.0728 187.426 85.2432C187.298 85.407 187.256 85.5897 187.3 85.791C187.333 85.9404 187.399 86.0554 187.498 86.1359C187.596 86.2098 187.705 86.2608 187.827 86.2887C187.947 86.3101 188.063 86.3258 188.174 86.3356L189.087 86.4022C189.542 86.4323 189.915 86.5518 190.206 86.7607C190.503 86.9682 190.691 87.2539 190.77 87.6177C190.834 87.91 190.81 88.1908 190.698 88.46C190.587 88.7292 190.402 88.9599 190.145 89.1521C189.887 89.3442 189.57 89.4813 189.193 89.5634ZM193.634 88.5964C193.29 88.6713 192.971 88.6761 192.678 88.6107C192.39 88.5373 192.147 88.4065 191.949 88.2182C191.751 88.0233 191.619 87.7798 191.556 87.4874C191.495 87.2081 191.499 86.9453 191.568 86.6989C191.642 86.4447 191.788 86.212 192.008 86.001C192.233 85.7885 192.534 85.6073 192.91 85.4575L194.789 84.7115L194.954 85.4716L193.274 86.1437C192.949 86.2758 192.725 86.4367 192.603 86.6265C192.488 86.815 192.455 87.0229 192.504 87.2503C192.551 87.4646 192.674 87.6249 192.874 87.731C193.081 87.8357 193.314 87.8598 193.574 87.8032C193.905 87.7311 194.176 87.6006 194.387 87.4119C194.602 87.2152 194.752 86.9819 194.836 86.7118C194.927 86.4403 194.94 86.1584 194.877 85.8661L194.586 84.5311C194.524 84.2453 194.366 84.038 194.114 83.9093C193.866 83.7727 193.57 83.7419 193.226 83.8168C192.927 83.8819 192.678 84.0178 192.478 84.2247C192.283 84.4236 192.158 84.6618 192.103 84.9392L191.225 84.7018C191.27 84.4402 191.379 84.1919 191.552 83.9568C191.724 83.7152 191.941 83.5081 192.203 83.3354C192.465 83.1628 192.751 83.0425 193.063 82.9746C193.466 82.8869 193.837 82.8877 194.176 82.9772C194.514 83.0601 194.797 83.2196 195.026 83.4556C195.259 83.6838 195.414 83.9765 195.492 84.3338L196.269 87.9002L195.382 88.0933L195.166 87.0994L195.344 87.1217C195.279 87.3537 195.169 87.5681 195.015 87.765C194.86 87.962 194.666 88.1335 194.433 88.2796C194.199 88.4257 193.933 88.5313 193.634 88.5964ZM197.479 87.6367L195.873 80.2603L196.779 80.063L198.385 87.4393L197.479 87.6367ZM202.039 86.7663C201.532 86.8766 201.054 86.8548 200.606 86.7007C200.157 86.5466 199.774 86.2865 199.456 85.9202C199.137 85.5475 198.92 85.1013 198.807 84.5816C198.693 84.0554 198.701 83.5636 198.833 83.1063C198.971 82.6475 199.206 82.2595 199.539 81.9421C199.876 81.6169 200.285 81.4019 200.766 81.2973C201.156 81.2124 201.516 81.2089 201.846 81.2867C202.181 81.3567 202.478 81.4892 202.738 81.6843C203.004 81.8715 203.225 82.1057 203.402 82.3869C203.584 82.6603 203.71 82.9594 203.781 83.2842C203.796 83.3557 203.808 83.4383 203.814 83.532C203.826 83.6179 203.834 83.7012 203.838 83.782L199.531 84.7199L199.362 83.9403L203.142 83.1171L202.79 83.5612C202.775 83.2107 202.677 82.9157 202.495 82.6762C202.314 82.4368 202.086 82.2652 201.812 82.1617C201.537 82.0581 201.247 82.0396 200.942 82.106C200.637 82.1725 200.374 82.3113 200.155 82.5224C199.936 82.7335 199.786 83.0007 199.707 83.3242C199.633 83.6397 199.652 83.9928 199.764 84.3834C199.822 84.7723 199.954 85.0974 200.16 85.3586C200.372 85.6119 200.629 85.7907 200.93 85.8951C201.237 85.9916 201.55 86.0052 201.868 85.9359C202.219 85.8595 202.497 85.714 202.702 85.4992C202.907 85.2845 203.056 85.0342 203.15 84.7483L203.995 84.9725C203.944 85.2355 203.829 85.4918 203.652 85.7412C203.481 85.9828 203.258 86.1946 202.985 86.3766C202.718 86.5572 202.402 86.6871 202.039 86.7663ZM207.293 85.6221C206.767 85.7367 206.281 85.7065 205.834 85.5315C205.388 85.3565 205.036 85.0658 204.777 84.6595L205.422 84.1517C205.639 84.4309 205.897 84.6332 206.197 84.7585C206.496 84.8839 206.805 84.9119 207.123 84.8425C207.409 84.7803 207.632 84.6605 207.79 84.483C207.949 84.3056 208.004 84.1064 207.956 83.8856C207.922 83.7296 207.85 83.6161 207.739 83.545C207.633 83.4659 207.513 83.4139 207.378 83.3888C207.242 83.3572 207.119 83.3397 207.01 83.3364L206.172 83.2841C205.668 83.2509 205.278 83.1317 205.002 82.9265C204.732 82.7198 204.561 82.4476 204.487 82.1098C204.419 81.798 204.438 81.5114 204.545 81.2501C204.656 80.9809 204.834 80.7516 205.079 80.5622C205.33 80.3715 205.628 80.2386 205.972 80.1637C206.433 80.0632 206.871 80.0903 207.286 80.245C207.707 80.3982 208.042 80.669 208.289 81.0573L207.623 81.5596C207.447 81.3122 207.225 81.136 206.957 81.0311C206.688 80.9196 206.407 80.8957 206.115 80.9593C205.848 81.0173 205.652 81.1315 205.526 81.3019C205.398 81.4657 205.356 81.6484 205.4 81.8497C205.433 81.9992 205.499 82.1141 205.598 82.1946C205.695 82.2685 205.805 82.3195 205.927 82.3474C206.047 82.3688 206.163 82.3845 206.274 82.3943L207.187 82.4609C207.642 82.491 208.015 82.6105 208.306 82.8194C208.603 83.0269 208.791 83.3126 208.87 83.6764C208.934 83.9687 208.91 84.2495 208.798 84.5187C208.687 84.7879 208.502 85.0186 208.245 85.2108C207.987 85.4029 207.67 85.54 207.293 85.6221Z" fill="#727272"/>
<path d="M124.751 134.943C123.713 135.169 122.707 135.189 121.733 135.003C120.773 134.814 119.899 134.453 119.109 133.921C118.331 133.371 117.697 132.674 117.208 131.832L119.451 130.218C120.049 131.067 120.78 131.681 121.643 132.06C122.503 132.424 123.401 132.504 124.337 132.3C124.863 132.186 125.298 132.006 125.643 131.763C126 131.502 126.248 131.203 126.389 130.866C126.545 130.526 126.578 130.151 126.489 129.742C126.384 129.259 126.152 128.897 125.793 128.653C125.445 128.392 124.967 128.236 124.359 128.185L121.004 127.859C119.647 127.741 118.56 127.358 117.745 126.708C116.93 126.059 116.407 125.201 116.174 124.134C115.971 123.199 116.017 122.323 116.315 121.509C116.626 120.691 117.148 119.995 117.881 119.422C118.625 118.832 119.531 118.42 120.598 118.188C121.577 117.974 122.514 117.954 123.409 118.127C124.301 118.285 125.106 118.607 125.824 119.093C126.554 119.562 127.154 120.174 127.624 120.929L125.408 122.56C124.908 121.811 124.289 121.288 123.55 120.989C122.808 120.676 122.013 120.612 121.166 120.797C120.669 120.905 120.249 121.088 119.907 121.346C119.562 121.59 119.314 121.889 119.161 122.244C119.02 122.58 118.994 122.953 119.084 123.363C119.182 123.816 119.416 124.186 119.785 124.473C120.15 124.746 120.653 124.912 121.294 124.971L124.503 125.26C125.896 125.4 126.995 125.773 127.801 126.379C128.621 126.981 129.15 127.83 129.389 128.927C129.593 129.862 129.531 130.74 129.205 131.562C128.878 132.383 128.336 133.09 127.577 133.684C126.819 134.278 125.877 134.697 124.751 134.943ZM124.119 137.101L119.607 116.382L121.471 115.977L125.983 136.695L124.119 137.101ZM137.521 132.162C136.63 132.356 135.747 132.38 134.873 132.233C134.011 132.069 133.229 131.749 132.529 131.274C131.839 130.781 131.302 130.14 130.916 129.352L133.324 127.863C133.75 128.551 134.276 129.034 134.903 129.31C135.526 129.573 136.203 129.624 136.934 129.465C137.519 129.338 137.999 129.118 138.375 128.807C138.766 128.492 139.041 128.103 139.2 127.64C139.357 127.162 139.373 126.638 139.249 126.068C139.124 125.498 138.895 125.042 138.561 124.702C138.238 124.343 137.833 124.102 137.347 123.979C136.861 123.855 136.318 123.858 135.719 123.989C135.441 124.049 135.155 124.142 134.861 124.267C134.581 124.39 134.337 124.535 134.129 124.702L133.139 123.425L136.32 117.68L129.655 119.132L129.106 116.611L139.125 114.429L139.636 116.775L136.467 122.678L136.267 121.55C137.249 121.351 138.151 121.377 138.971 121.627C139.79 121.877 140.483 122.316 141.048 122.943C141.613 123.57 142.001 124.366 142.211 125.331C142.44 126.383 142.391 127.389 142.064 128.348C141.734 129.292 141.176 130.103 140.389 130.779C139.603 131.456 138.647 131.917 137.521 132.162ZM145.013 130.255L144.522 127.997L147.943 122.406C148.619 121.294 149.133 120.417 149.483 119.775C149.844 119.114 150.077 118.566 150.181 118.13C150.285 117.694 150.292 117.271 150.203 116.862C150.054 116.175 149.717 115.682 149.192 115.383C148.682 115.08 148.091 115.002 147.419 115.149C146.717 115.302 146.155 115.638 145.733 116.159C145.307 116.665 145.062 117.331 144.997 118.156L142.211 117.913C142.199 117.013 142.394 116.189 142.798 115.443C143.199 114.682 143.75 114.049 144.452 113.544C145.165 113.022 145.96 112.665 146.837 112.474C147.889 112.245 148.851 112.234 149.723 112.443C150.61 112.648 151.347 113.046 151.935 113.637C152.538 114.226 152.94 114.98 153.14 115.901C153.267 116.486 153.283 117.087 153.188 117.705C153.093 118.322 152.892 118.979 152.584 119.673C152.272 120.354 151.846 121.135 151.303 122.019L148.345 126.889L155.426 125.346L155.976 127.868L145.013 130.255ZM159.651 130.65L159.341 129.225C159.798 129.003 160.136 128.692 160.355 128.292C160.592 127.904 160.686 127.424 160.638 126.852L159.345 127.134L158.676 124.065L161.571 123.435L161.981 125.32C162.261 126.606 162.201 127.699 161.799 128.598C161.412 129.493 160.696 130.177 159.651 130.65ZM165.054 125.891L164.563 123.633L167.984 118.042C168.661 116.93 169.174 116.053 169.524 115.411C169.885 114.75 170.118 114.202 170.222 113.766C170.326 113.33 170.334 112.907 170.244 112.498C170.095 111.811 169.758 111.318 169.233 111.019C168.724 110.716 168.133 110.638 167.46 110.785C166.759 110.938 166.197 111.274 165.774 111.795C165.348 112.301 165.103 112.967 165.038 113.792L162.252 113.549C162.24 112.649 162.436 111.825 162.84 111.079C163.24 110.318 163.791 109.685 164.493 109.18C165.206 108.658 166.001 108.301 166.878 108.11C167.93 107.881 168.892 107.87 169.764 108.079C170.651 108.283 171.388 108.682 171.976 109.273C172.579 109.862 172.981 110.616 173.181 111.537C173.309 112.122 173.325 112.723 173.23 113.341C173.134 113.958 172.933 114.615 172.625 115.309C172.314 115.989 171.887 116.771 171.344 117.655L168.386 122.525L175.468 120.982L176.017 123.504L165.054 125.891ZM183.171 122.222C182.279 122.416 181.396 122.44 180.522 122.293C179.66 122.129 178.878 121.809 178.178 121.334C177.489 120.841 176.951 120.2 176.565 119.412L178.974 117.923C179.399 118.611 179.925 119.093 180.552 119.37C181.175 119.632 181.852 119.684 182.583 119.525C183.168 119.398 183.648 119.178 184.024 118.867C184.415 118.552 184.69 118.163 184.85 117.699C185.006 117.221 185.022 116.697 184.898 116.127C184.774 115.557 184.544 115.102 184.21 114.762C183.887 114.403 183.482 114.162 182.996 114.038C182.51 113.915 181.967 113.918 181.368 114.049C181.09 114.109 180.804 114.202 180.51 114.327C180.23 114.449 179.986 114.594 179.778 114.762L178.788 113.485L181.969 107.74L175.304 109.192L174.755 106.67L184.775 104.489L185.285 106.834L182.116 112.737L181.916 111.61C182.899 111.411 183.8 111.437 184.62 111.687C185.44 111.937 186.132 112.376 186.697 113.003C187.263 113.63 187.65 114.426 187.86 115.39C188.09 116.443 188.041 117.449 187.714 118.408C187.383 119.352 186.825 120.163 186.039 120.839C185.252 121.516 184.296 121.977 183.171 122.222ZM197.941 118.73L197.158 115.134L189.66 116.767L189.116 114.267L194.209 102.434L197.323 101.756L199.552 111.995L201.942 111.475L202.486 113.974L200.096 114.494L200.879 118.09L197.941 118.73ZM191.542 114.864L190.782 113.905L196.614 112.635L194.896 104.742L195.715 104.816L191.542 114.864ZM206.257 116.919L205.589 113.849L208.483 113.219L209.151 116.289L206.257 116.919ZM212.417 115.578L211.925 113.319L215.346 107.729C216.023 106.617 216.536 105.74 216.886 105.097C217.247 104.437 217.48 103.889 217.584 103.453C217.688 103.017 217.696 102.594 217.607 102.185C217.457 101.498 217.12 101.005 216.595 100.706C216.086 100.403 215.495 100.325 214.822 100.472C214.121 100.624 213.559 100.961 213.136 101.482C212.711 101.988 212.465 102.654 212.4 103.479L209.614 103.236C209.602 102.336 209.798 101.512 210.202 100.766C210.602 100.005 211.154 99.3721 211.855 98.8673C212.568 98.3446 213.363 97.9878 214.24 97.7968C215.292 97.5677 216.254 97.5572 217.126 97.7653C218.013 97.9703 218.75 98.3685 219.339 98.96C219.941 99.5483 220.343 100.303 220.543 101.224C220.671 101.808 220.687 102.41 220.592 103.027C220.496 103.645 220.295 104.301 219.987 104.996C219.676 105.676 219.249 106.458 218.706 107.342L215.748 112.211L222.83 110.669L223.379 113.191L212.417 115.578ZM225.06 112.825L224.568 110.566L227.99 104.976C228.666 103.864 229.179 102.987 229.529 102.344C229.891 101.684 230.123 101.135 230.227 100.699C230.332 100.263 230.339 99.8408 230.25 99.4316C230.1 98.7446 229.763 98.2515 229.239 97.9524C228.729 97.65 228.138 97.5721 227.466 97.7185C226.764 97.8712 226.202 98.208 225.78 98.7286C225.354 99.2346 225.109 99.9005 225.043 100.726L222.258 100.483C222.245 99.5824 222.441 98.759 222.845 98.0127C223.246 97.2519 223.797 96.619 224.498 96.1141C225.211 95.5915 226.006 95.2346 226.883 95.0437C227.936 94.8145 228.898 94.804 229.77 95.0122C230.656 95.2172 231.394 95.6154 231.982 96.2069C232.585 96.7952 232.986 97.5497 233.187 98.4706C233.314 99.0552 233.33 99.6564 233.235 100.274C233.14 100.892 232.938 101.548 232.63 102.243C232.319 102.923 231.892 103.705 231.35 104.589L228.392 109.458L235.473 107.916L236.022 110.437L225.06 112.825Z" fill="#1B1B1B"/>
<path opacity="0.1" d="M289.501 125.5C229.887 138.481 254.966 199.361 195.352 212.342L494.731 147.151L487.445 113.69L420.241 128.324C393.764 134.089 397.442 101.996 362.819 109.535L289.501 125.5Z" fill="url(#paint3_linear_45_684)"/>
<path d="M136.644 225.126C136.644 225.126 134.254 225.646 195.352 212.342C254.966 199.361 229.887 138.481 289.501 125.5C320.05 118.848 334.187 115.77 362.819 109.535C397.442 101.996 393.764 134.089 420.241 128.324C435.352 125.033 473.189 116.794 487.445 113.69" stroke="#00A656" stroke-width="1.24657"/>
<rect x="369.97" y="42.9086" width="82.2736" height="27.4245" rx="13.7123" transform="rotate(-12.2845 369.97 42.9086)" fill="url(#paint4_linear_45_684)"/>
<rect x="371.082" y="43.6232" width="80.4038" height="25.5547" rx="12.7773" transform="rotate(-12.2845 371.082 43.6232)" stroke="#A8A8A8" stroke-opacity="0.1" stroke-width="1.86986"/>
</g>
<defs>
<filter id="filter0_d_45_684" x="0.330856" y="-83.5704" width="605.484" height="462.564" filterUnits="userSpaceOnUse" color-interpolation-filters="sRGB">
<feFlood flood-opacity="0" result="BackgroundImageFix"/>
<feColorMatrix in="SourceAlpha" type="matrix" values="0 0 0 0 0 0 0 0 0 0 0 0 0 0 0 0 0 0 127 0" result="hardAlpha"/>
<feMorphology radius="19.3801" operator="dilate" in="SourceAlpha" result="effect1_dropShadow_45_684"/>
<feOffset dx="6" dy="6"/>
<feGaussianBlur stdDeviation="30"/>
<feComposite in2="hardAlpha" operator="out"/>
<feColorMatrix type="matrix" values="0 0 0 0 0.0460069 0 0 0 0 0.0588021 0 0 0 0 0.104167 0 0 0 0.06 0"/>
<feBlend mode="normal" in2="BackgroundImageFix" result="effect1_dropShadow_45_684"/>
<feBlend mode="normal" in="SourceGraphic" in2="effect1_dropShadow_45_684" result="shape"/>
</filter>
<filter id="filter1_b_45_684" x="40.747" y="-43.1542" width="512.652" height="369.732" filterUnits="userSpaceOnUse" color-interpolation-filters="sRGB">
<feFlood flood-opacity="0" result="BackgroundImageFix"/>
<feGaussianBlur in="BackgroundImageFix" stdDeviation="19.9451"/>
<feComposite in2="SourceAlpha" operator="in" result="effect1_backgroundBlur_45_684"/>
<feBlend mode="normal" in="SourceGraphic" in2="effect1_backgroundBlur_45_684" result="shape"/>
</filter>
<filter id="filter2_dddddd_45_684" x="33.5725" y="-18.3271" width="526.992" height="384.072" filterUnits="userSpaceOnUse" color-interpolation-filters="sRGB">
<feFlood flood-opacity="0" result="BackgroundImageFix"/>
<feColorMatrix in="SourceAlpha" type="matrix" values="0 0 0 0 0 0 0 0 0 0 0 0 0 0 0 0 0 0 127 0" result="hardAlpha"/>
<feMorphology radius="4" operator="erode" in="SourceAlpha" result="effect1_dropShadow_45_684"/>
<feOffset dy="5"/>
<feGaussianBlur stdDeviation="0.75"/>
<feComposite in2="hardAlpha" operator="out"/>
<feColorMatrix type="matrix" values="0 0 0 0 0.0313726 0 0 0 0 0.0313726 0 0 0 0 0.0313726 0 0 0 0.05 0"/>
<feBlend mode="normal" in2="BackgroundImageFix" result="effect1_dropShadow_45_684"/>
<feColorMatrix in="SourceAlpha" type="matrix" values="0 0 0 0 0 0 0 0 0 0 0 0 0 0 0 0 0 0 127 0" result="hardAlpha"/>
<feMorphology radius="4" operator="erode" in="SourceAlpha" result="effect2_dropShadow_45_684"/>
<feOffset dy="6"/>
<feGaussianBlur stdDeviation="2"/>
<feComposite in2="hardAlpha" operator="out"/>
<feColorMatrix type="matrix" values="0 0 0 0 0.0313726 0 0 0 0 0.0313726 0 0 0 0 0.0313726 0 0 0 0.05 0"/>
<feBlend mode="normal" in2="effect1_dropShadow_45_684" result="effect2_dropShadow_45_684"/>
<feColorMatrix in="SourceAlpha" type="matrix" values="0 0 0 0 0 0 0 0 0 0 0 0 0 0 0 0 0 0 127 0" result="hardAlpha"/>
<feOffset dy="6"/>
<feGaussianBlur stdDeviation="6.5"/>
<feComposite in2="hardAlpha" operator="out"/>
<feColorMatrix type="matrix" values="0 0 0 0 0.0313726 0 0 0 0 0.0313726 0 0 0 0 0.0313726 0 0 0 0.03 0"/>
<feBlend mode="normal" in2="effect2_dropShadow_45_684" result="effect3_dropShadow_45_684"/>
<feColorMatrix in="SourceAlpha" type="matrix" values="0 0 0 0 0 0 0 0 0 0 0 0 0 0 0 0 0 0 127 0" result="hardAlpha"/>
<feMorphology radius="16" operator="erode" in="SourceAlpha" result="effect4_dropShadow_45_684"/>
<feOffset dy="24"/>
<feGaussianBlur stdDeviation="12"/>
<feComposite in2="hardAlpha" operator="out"/>
<feColorMatrix type="matrix" values="0 0 0 0 0.0313726 0 0 0 0 0.0313726 0 0 0 0 0.0313726 0 0 0 0.04 0"/>
<feBlend mode="normal" in2="effect3_dropShadow_45_684" result="effect4_dropShadow_45_684"/>
<feColorMatrix in="SourceAlpha" type="matrix" values="0 0 0 0 0 0 0 0 0 0 0 0 0 0 0 0 0 0 127 0" result="hardAlpha"/>
<feMorphology radius="2" operator="erode" in="SourceAlpha" result="effect5_dropShadow_45_684"/>
<feOffset dy="2.15"/>
<feGaussianBlur stdDeviation="0.25"/>
<feComposite in2="hardAlpha" operator="out"/>
<feColorMatrix type="matrix" values="0 0 0 0 0 0 0 0 0 0 0 0 0 0 0 0 0 0 0.25 0"/>
<feBlend mode="normal" in2="effect4_dropShadow_45_684" result="effect5_dropShadow_45_684"/>
<feColorMatrix in="SourceAlpha" type="matrix" values="0 0 0 0 0 0 0 0 0 0 0 0 0 0 0 0 0 0 127 0" result="hardAlpha"/>
<feMorphology radius="12" operator="erode" in="SourceAlpha" result="effect6_dropShadow_45_684"/>
<feOffset dy="32"/>
<feGaussianBlur stdDeviation="32"/>
<feComposite in2="hardAlpha" operator="out"/>
<feColorMatrix type="matrix" values="0 0 0 0 0 0 0 0 0 0 0 0 0 0 0 0 0 0 0.075 0"/>
<feBlend mode="multiply" in2="effect5_dropShadow_45_684" result="effect6_dropShadow_45_684"/>
<feBlend mode="normal" in="SourceGraphic" in2="effect6_dropShadow_45_684" result="shape"/>
</filter>
<linearGradient id="paint0_linear_45_684" x1="273.467" y1="33.3072" x2="320.678" y2="250.116" gradientUnits="userSpaceOnUse">
<stop stop-color="#FDFDFD" stop-opacity="0.3"/>
<stop offset="1" stop-color="#FDFDFD"/>
</linearGradient>
<linearGradient id="paint1_linear_45_684" x1="273.467" y1="33.3072" x2="320.678" y2="250.116" gradientUnits="userSpaceOnUse">
<stop stop-color="#E2E2E2"/>
<stop offset="1" stop-color="#E2E2E2" stop-opacity="0.75"/>
</linearGradient>
<linearGradient id="paint2_linear_45_684" x1="275.585" y1="43.0485" x2="318.552" y2="240.369" gradientUnits="userSpaceOnUse">
<stop stop-color="#F6F6F6"/>
<stop offset="1" stop-color="#E6E6E6"/>
</linearGradient>
<linearGradient id="paint3_linear_45_684" x1="301.889" y1="122.802" x2="315.681" y2="186.14" gradientUnits="userSpaceOnUse">
<stop stop-color="#00A656"/>
<stop offset="1" stop-color="#00A656" stop-opacity="0"/>
</linearGradient>
<linearGradient id="paint4_linear_45_684" x1="411.107" y1="35.4292" x2="411.107" y2="77.8126" gradientUnits="userSpaceOnUse">
<stop stop-color="#EBEBEB"/>
<stop offset="1" stop-color="#C4C4C4"/>
</linearGradient>
</defs>
</svg>
