<svg width="257" height="262" viewBox="0 0 257 262" fill="none" xmlns="http://www.w3.org/2000/svg">
<g opacity="0.68">
<g filter="url(#filter0_b_45_744)">
<path d="M45.1431 93.3648C43.1583 75.1331 42.1659 66.0172 44.9559 58.6673C47.41 52.2022 51.8479 46.68 57.6335 42.8921C64.2108 38.5859 73.3267 37.5934 91.5584 35.6086L294.321 13.5342C312.552 11.5493 321.668 10.5569 329.018 13.3469C335.483 15.8011 341.006 20.239 344.793 26.0245C349.1 32.6018 350.092 41.7177 352.077 59.9494L356.937 104.594C358.922 122.826 359.915 131.942 357.125 139.292C354.671 145.757 350.233 151.279 344.447 155.067C337.87 159.373 328.754 160.366 310.522 162.351L107.76 184.425C89.5281 186.41 80.4122 187.402 73.0623 184.612C66.5972 182.158 61.075 177.72 57.2871 171.935C52.9808 165.357 51.9884 156.241 50.0036 138.01L45.1431 93.3648Z" fill="url(#paint0_linear_45_744)" fill-opacity="0.75"/>
<path d="M46.0151 93.2699C45.0211 84.1396 44.282 77.3443 44.1357 71.9118C43.9897 66.4895 44.4384 62.5022 45.7759 58.9786C48.1643 52.6867 52.4834 47.3123 58.114 43.6259C61.2672 41.5615 65.0645 40.2654 70.3912 39.2412C75.7279 38.215 82.5231 37.4745 91.6533 36.4805L294.416 14.4061C303.546 13.4121 310.341 12.673 315.774 12.5268C321.196 12.3808 325.183 12.8294 328.707 14.1669C334.999 16.5554 340.373 20.8744 344.06 26.505C346.124 29.6582 347.42 33.4555 348.444 38.7822C349.471 44.1189 350.211 50.9141 351.205 60.0444L356.065 104.689C357.059 113.82 357.799 120.615 357.945 126.047C358.091 131.47 357.642 135.457 356.305 138.981C353.916 145.272 349.597 150.647 343.967 154.333C340.813 156.398 337.016 157.694 331.689 158.718C326.353 159.744 319.558 160.485 310.427 161.479L107.665 183.553C98.5347 184.547 91.7393 185.286 86.3068 185.432C80.8845 185.578 76.8972 185.13 73.3736 183.792C67.0817 181.404 61.7073 177.085 58.0209 171.454C55.9565 168.301 54.6604 164.504 53.6361 159.177C52.61 153.84 51.8695 147.045 50.8755 137.915L46.0151 93.2699Z" stroke="url(#paint1_linear_45_744)" stroke-width="1.75425"/>
</g>
<g filter="url(#filter1_dddddd_45_744)">
<path d="M53.8366 86.7716C52.4188 73.749 51.71 67.2377 53.7028 61.9878C55.4558 57.3698 58.6257 53.4254 62.7583 50.7197C67.4564 47.6438 73.9677 46.935 86.9904 45.5172L300.914 22.2277C313.937 20.81 320.448 20.1011 325.698 22.094C330.316 23.8469 334.26 27.0169 336.966 31.1494C340.042 35.8475 340.751 42.3588 342.168 55.3815L348.244 111.188C349.662 124.21 350.371 130.722 348.378 135.972C346.625 140.589 343.455 144.534 339.322 147.24C334.624 150.315 328.113 151.024 315.09 152.442L101.167 175.732C88.1439 177.149 81.6326 177.858 76.3827 175.865C71.7647 174.112 67.8203 170.942 65.1146 166.81C62.0388 162.112 61.3299 155.6 59.9121 142.578L53.8366 86.7716Z" fill="#F1F1F1"/>
<path d="M54.7086 86.6767C53.9981 80.151 53.4717 75.3091 53.3675 71.4413C53.2637 67.5838 53.5839 64.7726 54.5229 62.2991C56.2101 57.8543 59.2612 54.0577 63.2387 51.4536C65.4523 50.0043 68.1287 49.0867 71.9182 48.358C75.7178 47.6274 80.5596 47.0996 87.0853 46.3892L301.009 23.0997C307.535 22.3892 312.376 21.8628 316.244 21.7587C320.102 21.6548 322.913 21.975 325.387 22.914C329.831 24.6012 333.628 27.6523 336.232 31.6299C337.681 33.8434 338.599 36.5199 339.328 40.3093C340.058 44.1089 340.586 48.9507 341.296 55.4764L347.372 111.283C348.082 117.808 348.609 122.65 348.713 126.518C348.817 130.375 348.497 133.187 347.558 135.66C345.87 140.105 342.819 143.902 338.842 146.506C336.628 147.955 333.952 148.873 330.162 149.601C326.363 150.332 321.521 150.86 314.995 151.57L101.072 174.86C94.546 175.57 89.704 176.097 85.8362 176.201C81.9787 176.305 79.1676 175.984 76.694 175.045C72.2492 173.358 68.4526 170.307 65.8485 166.329C64.3992 164.116 63.4816 161.439 62.7529 157.65C62.0223 153.85 61.4945 149.009 60.7841 142.483L54.7086 86.6767Z" stroke="url(#paint2_linear_45_744)" stroke-width="1.75425"/>
</g>
<path d="M71.974 79.0514L74.428 68.2671L76.8835 67.9998L81.6006 78.0034L79.5358 78.2282L78.5533 76.0764L74.5353 76.5139L74.0249 78.8281L71.974 79.0514ZM74.8971 74.7804L77.8269 74.4615L75.5334 69.4738L76.0636 69.416L74.8971 74.7804ZM85.7259 77.7237C84.9726 77.8057 84.2748 77.7075 83.6328 77.4292C82.9991 77.1406 82.4777 76.7174 82.0688 76.1595C81.6588 75.5924 81.4128 74.9322 81.3308 74.1788C81.2488 73.4254 81.3474 72.7324 81.6268 72.0996C81.9061 71.4669 82.3247 70.9461 82.8825 70.5371C83.4496 70.1272 84.1098 69.8812 84.8632 69.7992C85.4027 69.7404 85.9156 69.7834 86.4019 69.9281C86.8872 70.0635 87.3155 70.2804 87.6868 70.5788C88.0664 70.8668 88.3554 71.2306 88.5538 71.6702L87.0253 72.5424C86.8443 72.1763 86.5737 71.8952 86.2135 71.6991C85.8627 71.502 85.4733 71.4268 85.0455 71.4733C84.6455 71.5169 84.2981 71.6535 84.0031 71.8833C83.7174 72.112 83.505 72.4081 83.3657 72.7715C83.2265 73.1348 83.1811 73.5397 83.2297 73.9862C83.2784 74.4326 83.4097 74.8183 83.6239 75.1432C83.8381 75.4681 84.1093 75.7115 84.4375 75.8734C84.775 76.0343 85.1437 76.093 85.5437 76.0495C85.9808 76.0019 86.3495 75.8441 86.6497 75.5761C86.95 75.3082 87.1486 74.9713 87.2456 74.5654L88.929 75.1162C88.8267 75.5603 88.6269 75.9726 88.3296 76.3532C88.0312 76.7245 87.6601 77.0331 87.2163 77.2791C86.7715 77.5157 86.2747 77.6639 85.7259 77.7237ZM93.7306 76.7675C92.8749 76.8607 92.1846 76.7005 91.6596 76.2871C91.1429 75.8634 90.838 75.2237 90.7448 74.368L90.3803 71.0196L89.0688 71.1624L88.8911 69.53L89.0306 69.5149C89.4027 69.4744 89.6804 69.3453 89.8637 69.1277C90.0471 68.9101 90.1185 68.6153 90.078 68.2432L90.0142 67.6573L91.8419 67.4583L92.0302 69.1883L93.7742 68.9984L93.9519 70.6308L92.2079 70.8206L92.5618 74.0714C92.5892 74.3225 92.6543 74.5318 92.7573 74.6995C92.8695 74.8661 93.0237 74.9857 93.2199 75.0585C93.4253 75.1302 93.6768 75.1499 93.9745 75.1175C94.0396 75.1104 94.1135 75.0977 94.1962 75.0792C94.2882 75.0598 94.3755 75.0409 94.4582 75.0225L94.6283 76.5851C94.5002 76.6178 94.3534 76.6526 94.188 76.6895C94.0226 76.7263 93.8701 76.7523 93.7306 76.7675ZM95.7457 76.4634L94.9194 68.8738L96.7471 68.6748L97.5733 76.2644L95.7457 76.4634ZM94.8267 68.0227L94.6141 66.0695L96.4418 65.8705L96.6544 67.8237L94.8267 68.0227ZM101.27 75.862L97.4579 68.5974L99.453 68.3802L102.266 74.116L101.526 74.1965L103.053 67.9883L105.048 67.7711L102.888 75.6858L101.27 75.862ZM106.605 75.2812L105.779 67.6915L107.606 67.4925L108.433 75.0822L106.605 75.2812ZM105.686 66.8405L105.473 64.8872L107.301 64.6883L107.514 66.6415L105.686 66.8405ZM113.31 74.6359C112.455 74.7291 111.764 74.5689 111.239 74.1555C110.723 73.7318 110.418 73.0921 110.324 72.2364L109.96 68.888L108.648 69.0308L108.471 67.3984L108.61 67.3833C108.982 67.3428 109.26 67.2137 109.443 66.9961C109.627 66.7785 109.698 66.4837 109.658 66.1116L109.594 65.5257L111.422 65.3267L111.61 67.0567L113.354 66.8668L113.532 68.4992L111.788 68.689L112.141 71.9398C112.169 72.1909 112.234 72.4002 112.337 72.5679C112.449 72.7344 112.603 72.8541 112.799 72.9269C113.005 72.9986 113.256 73.0183 113.554 72.9859C113.619 72.9788 113.693 72.9661 113.776 72.9476C113.868 72.9282 113.955 72.9093 114.038 72.8909L114.208 74.4535C114.08 74.4862 113.933 74.521 113.768 74.5579C113.602 74.5947 113.45 74.6207 113.31 74.6359ZM116.58 77.3009C116.376 77.3232 116.174 77.3264 115.974 77.3104C115.776 77.3038 115.593 77.2672 115.426 77.2007L115.26 75.68C115.384 75.6947 115.531 75.707 115.702 75.7166C115.882 75.7253 116.046 75.7215 116.195 75.7053C116.613 75.6598 116.905 75.5292 117.07 75.3136C117.245 75.1063 117.39 74.8365 117.504 74.504L117.879 73.2774L118.018 74.8151L113.801 66.8181L115.769 66.6039L118.756 72.5184L118.058 72.5943L119.689 66.1771L121.67 65.9614L119.273 74.6784C119.131 75.1833 118.939 75.6231 118.697 75.9976C118.456 76.3721 118.158 76.668 117.806 76.8852C117.463 77.1107 117.055 77.2493 116.58 77.3009Z" fill="#1B1B1B"/>
<mask id="mask0_45_744" style="mask-type:alpha" maskUnits="userSpaceOnUse" x="55" y="69" width="298" height="110">
<rect x="55.3555" y="100.723" width="290.037" height="78.3567" transform="rotate(-6.21323 55.3555 100.723)" fill="url(#paint3_linear_45_744)"/>
</mask>
<g mask="url(#mask0_45_744)">
<g clip-path="url(#clip0_45_744)">
<path d="M79.3222 106.545L79.7019 110.033C79.9815 112.601 82.2903 114.457 84.8587 114.177L85.2462 114.135C87.8146 113.855 89.6701 111.546 89.3904 108.978L88.6943 102.583C88.4962 100.764 86.8608 99.4499 85.0416 99.648C83.2223 99.846 81.908 101.481 82.1061 103.301L82.7706 109.404C82.8696 110.314 83.6873 110.971 84.5969 110.872C85.5066 110.773 86.1637 109.956 86.0647 109.046L85.4635 103.523" stroke="#2D68FF" stroke-width="1.75425" stroke-linecap="round"/>
</g>
<rect opacity="0.15" x="106.764" y="97.4792" width="37.4239" height="4.67799" rx="2.339" transform="rotate(-6.21323 106.764 97.4792)" fill="#1B1B1B"/>
<rect opacity="0.1" x="107.777" y="106.78" width="95.8988" height="4.67799" rx="2.339" transform="rotate(-6.21323 107.777 106.78)" fill="#727272"/>
<g clip-path="url(#clip1_45_744)">
<rect x="255.455" y="80.1152" width="70.1699" height="16.373" rx="4.67801" transform="rotate(-6.21323 255.455 80.1152)" fill="#FDFDFD"/>
</g>
<rect x="256.1" y="80.6333" width="69.0004" height="15.2035" rx="4.09326" transform="rotate(-6.21323 256.1 80.6333)" stroke="#2D68FF" stroke-opacity="0.15" stroke-width="1.1695"/>
<g clip-path="url(#clip2_45_744)">
<path d="M93.4316 131.674C93.3383 130.818 92.5688 130.2 91.7126 130.293L82.024 131.348C81.1679 131.441 80.5494 132.211 80.6426 133.067L81.9928 145.468L84.7065 143.331C84.8213 143.241 84.9592 143.184 85.1044 143.169L93.0205 142.307C93.8767 142.214 94.4952 141.444 94.4019 140.588L93.4316 131.674Z" stroke="#00A656" stroke-width="1.75425" stroke-linecap="square" stroke-linejoin="round"/>
<path d="M83.3532 137.281C83.394 137.656 83.7307 137.926 84.1053 137.885C84.4798 137.845 84.7504 137.508 84.7096 137.133C84.6688 136.759 84.3321 136.488 83.9576 136.529C83.583 136.57 83.3124 136.907 83.3532 137.281ZM86.8411 136.901C86.8819 137.276 87.2186 137.546 87.5931 137.506C87.9677 137.465 88.2383 137.128 88.1975 136.754C88.1567 136.379 87.82 136.109 87.4455 136.149C87.0709 136.19 86.8003 136.527 86.8411 136.901ZM90.329 136.522C90.3698 136.896 90.7065 137.167 91.081 137.126C91.4556 137.085 91.7262 136.749 91.6854 136.374C91.6446 135.999 91.3079 135.729 90.9334 135.77C90.5588 135.81 90.2882 136.147 90.329 136.522Z" fill="#00A656" stroke="#00A656" stroke-width="0.584751" stroke-linecap="square"/>
</g>
<rect opacity="0.15" x="110.055" y="127.708" width="37.4239" height="4.67799" rx="2.339" transform="rotate(-6.21323 110.055 127.708)" fill="#1B1B1B"/>
<rect opacity="0.1" x="111.068" y="137.009" width="95.8988" height="4.67799" rx="2.339" transform="rotate(-6.21323 111.068 137.009)" fill="#727272"/>
<g clip-path="url(#clip3_45_744)">
<path d="M83.9313 163.295C83.8381 162.439 84.4566 161.67 85.3127 161.576L95.0013 160.522C95.8574 160.428 96.627 161.047 96.7202 161.903L97.6485 170.429L84.8595 171.821L83.9313 163.295Z" stroke="#FF381C" stroke-width="1.75425" stroke-linecap="square" stroke-linejoin="round"/>
<path d="M83.3094 171.99L99.1986 170.26L99.3252 171.423C99.4184 172.279 98.7999 173.049 97.9438 173.142L85.1549 174.534C84.2987 174.627 83.5292 174.009 83.4359 173.153L83.3094 171.99Z" stroke="#FF381C" stroke-width="1.75425" stroke-linecap="square" stroke-linejoin="round"/>
</g>
<rect opacity="0.15" x="113.346" y="157.936" width="37.4239" height="4.67799" rx="2.339" transform="rotate(-6.21323 113.346 157.936)" fill="#1B1B1B"/>
<rect opacity="0.1" x="114.359" y="167.237" width="95.8988" height="4.67799" rx="2.339" transform="rotate(-6.21323 114.359 167.237)" fill="#727272"/>
</g>
</g>
<defs>
<filter id="filter0_b_45_744" x="5.80825" y="-25.8007" width="390.464" height="249.561" filterUnits="userSpaceOnUse" color-interpolation-filters="sRGB">
<feFlood flood-opacity="0" result="BackgroundImageFix"/>
<feGaussianBlur in="BackgroundImageFix" stdDeviation="18.712"/>
<feComposite in2="SourceAlpha" operator="in" result="effect1_backgroundBlur_45_744"/>
<feBlend mode="normal" in="SourceGraphic" in2="effect1_backgroundBlur_45_744" result="shape"/>
</filter>
<filter id="filter1_dddddd_45_744" x="-2.21375" y="-1.82263" width="406.508" height="265.605" filterUnits="userSpaceOnUse" color-interpolation-filters="sRGB">
<feFlood flood-opacity="0" result="BackgroundImageFix"/>
<feColorMatrix in="SourceAlpha" type="matrix" values="0 0 0 0 0 0 0 0 0 0 0 0 0 0 0 0 0 0 127 0" result="hardAlpha"/>
<feMorphology radius="4" operator="erode" in="SourceAlpha" result="effect1_dropShadow_45_744"/>
<feOffset dy="5"/>
<feGaussianBlur stdDeviation="0.75"/>
<feComposite in2="hardAlpha" operator="out"/>
<feColorMatrix type="matrix" values="0 0 0 0 0.0313726 0 0 0 0 0.0313726 0 0 0 0 0.0313726 0 0 0 0.05 0"/>
<feBlend mode="normal" in2="BackgroundImageFix" result="effect1_dropShadow_45_744"/>
<feColorMatrix in="SourceAlpha" type="matrix" values="0 0 0 0 0 0 0 0 0 0 0 0 0 0 0 0 0 0 127 0" result="hardAlpha"/>
<feMorphology radius="4" operator="erode" in="SourceAlpha" result="effect2_dropShadow_45_744"/>
<feOffset dy="6"/>
<feGaussianBlur stdDeviation="2"/>
<feComposite in2="hardAlpha" operator="out"/>
<feColorMatrix type="matrix" values="0 0 0 0 0.0313726 0 0 0 0 0.0313726 0 0 0 0 0.0313726 0 0 0 0.05 0"/>
<feBlend mode="normal" in2="effect1_dropShadow_45_744" result="effect2_dropShadow_45_744"/>
<feColorMatrix in="SourceAlpha" type="matrix" values="0 0 0 0 0 0 0 0 0 0 0 0 0 0 0 0 0 0 127 0" result="hardAlpha"/>
<feOffset dy="6"/>
<feGaussianBlur stdDeviation="6.5"/>
<feComposite in2="hardAlpha" operator="out"/>
<feColorMatrix type="matrix" values="0 0 0 0 0.0313726 0 0 0 0 0.0313726 0 0 0 0 0.0313726 0 0 0 0.03 0"/>
<feBlend mode="normal" in2="effect2_dropShadow_45_744" result="effect3_dropShadow_45_744"/>
<feColorMatrix in="SourceAlpha" type="matrix" values="0 0 0 0 0 0 0 0 0 0 0 0 0 0 0 0 0 0 127 0" result="hardAlpha"/>
<feMorphology radius="16" operator="erode" in="SourceAlpha" result="effect4_dropShadow_45_744"/>
<feOffset dy="24"/>
<feGaussianBlur stdDeviation="12"/>
<feComposite in2="hardAlpha" operator="out"/>
<feColorMatrix type="matrix" values="0 0 0 0 0.0313726 0 0 0 0 0.0313726 0 0 0 0 0.0313726 0 0 0 0.04 0"/>
<feBlend mode="normal" in2="effect3_dropShadow_45_744" result="effect4_dropShadow_45_744"/>
<feColorMatrix in="SourceAlpha" type="matrix" values="0 0 0 0 0 0 0 0 0 0 0 0 0 0 0 0 0 0 127 0" result="hardAlpha"/>
<feMorphology radius="2" operator="erode" in="SourceAlpha" result="effect5_dropShadow_45_744"/>
<feOffset dy="2.15"/>
<feGaussianBlur stdDeviation="0.25"/>
<feComposite in2="hardAlpha" operator="out"/>
<feColorMatrix type="matrix" values="0 0 0 0 0 0 0 0 0 0 0 0 0 0 0 0 0 0 0.25 0"/>
<feBlend mode="normal" in2="effect4_dropShadow_45_744" result="effect5_dropShadow_45_744"/>
<feColorMatrix in="SourceAlpha" type="matrix" values="0 0 0 0 0 0 0 0 0 0 0 0 0 0 0 0 0 0 127 0" result="hardAlpha"/>
<feMorphology radius="12" operator="erode" in="SourceAlpha" result="effect6_dropShadow_45_744"/>
<feOffset dy="32"/>
<feGaussianBlur stdDeviation="32"/>
<feComposite in2="hardAlpha" operator="out"/>
<feColorMatrix type="matrix" values="0 0 0 0 0 0 0 0 0 0 0 0 0 0 0 0 0 0 0.075 0"/>
<feBlend mode="multiply" in2="effect5_dropShadow_45_744" result="effect6_dropShadow_45_744"/>
<feBlend mode="normal" in="SourceGraphic" in2="effect6_dropShadow_45_744" result="shape"/>
</filter>
<linearGradient id="paint0_linear_45_744" x1="192.94" y1="24.5714" x2="209.141" y2="173.388" gradientUnits="userSpaceOnUse">
<stop stop-color="#FDFDFD" stop-opacity="0.3"/>
<stop offset="1" stop-color="#FDFDFD"/>
</linearGradient>
<linearGradient id="paint1_linear_45_744" x1="192.94" y1="24.5714" x2="209.141" y2="173.388" gradientUnits="userSpaceOnUse">
<stop stop-color="#E2E2E2"/>
<stop offset="1" stop-color="#E2E2E2" stop-opacity="0.75"/>
</linearGradient>
<linearGradient id="paint2_linear_45_744" x1="193.952" y1="33.8725" x2="208.128" y2="164.087" gradientUnits="userSpaceOnUse">
<stop stop-color="#F6F6F6"/>
<stop offset="1" stop-color="#E6E6E6"/>
</linearGradient>
<linearGradient id="paint3_linear_45_744" x1="200.374" y1="100.723" x2="200.374" y2="179.08" gradientUnits="userSpaceOnUse">
<stop/>
<stop offset="1" stop-opacity="0"/>
</linearGradient>
<clipPath id="clip0_45_744">
<rect width="18.712" height="18.712" fill="white" transform="translate(73.9576 98.698) rotate(-6.21323)"/>
</clipPath>
<clipPath id="clip1_45_744">
<rect x="255.455" y="80.1152" width="70.1699" height="16.373" rx="4.67801" transform="rotate(-6.21323 255.455 80.1152)" fill="white"/>
</clipPath>
<clipPath id="clip2_45_744">
<rect width="18.712" height="18.712" fill="white" transform="translate(77.2487 128.927) rotate(-6.21323)"/>
</clipPath>
<clipPath id="clip3_45_744">
<rect width="18.712" height="18.712" fill="white" transform="translate(80.5396 159.155) rotate(-6.21323)"/>
</clipPath>
</defs>
</svg>
