<svg width="526" height="392" viewBox="0 0 526 392" fill="none" xmlns="http://www.w3.org/2000/svg">
<g opacity="0.2">
<g filter="url(#filter0_dddddd_45_1961)">
<rect x="50.3021" y="-1.9292" width="425.396" height="72.925" rx="18.2313" fill="#F1F1F1"/>
<rect x="51.4415" y="-0.789746" width="423.117" height="70.6461" rx="17.0918" stroke="url(#paint0_linear_45_1961)" stroke-width="2.27891"/>
</g>
</g>
<g opacity="0.5">
<g filter="url(#filter1_dddddd_45_1961)">
<rect x="50.3021" y="77.0728" width="425.396" height="72.925" rx="18.2313" fill="#F1F1F1"/>
<rect x="51.4415" y="78.2122" width="423.117" height="70.6461" rx="17.0918" stroke="url(#paint1_linear_45_1961)" stroke-width="2.27891"/>
</g>
</g>
<g opacity="0.6">
<g filter="url(#filter2_dddddd_45_1961)">
<rect x="50.3021" y="156.075" width="425.396" height="72.925" rx="18.2313" fill="#F1F1F1"/>
<rect x="51.4415" y="157.215" width="423.117" height="70.6461" rx="17.0918" stroke="url(#paint2_linear_45_1961)" stroke-width="2.27891"/>
</g>
<path d="M402.129 197.038V188.165H404.608C405.191 188.165 405.698 188.278 406.127 188.505C406.557 188.724 406.889 189.036 407.124 189.441C407.367 189.846 407.489 190.324 407.489 190.875V194.315C407.489 194.858 407.367 195.336 407.124 195.749C406.889 196.162 406.557 196.483 406.127 196.709C405.698 196.928 405.191 197.038 404.608 197.038H402.129ZM403.441 195.846H404.608C405.094 195.846 405.475 195.713 405.751 195.445C406.034 195.17 406.176 194.793 406.176 194.315V190.875C406.176 190.405 406.034 190.037 405.751 189.769C405.475 189.494 405.094 189.356 404.608 189.356H403.441V195.846ZM411.811 197.147C411.26 197.147 410.782 197.042 410.377 196.831C409.971 196.62 409.659 196.321 409.441 195.932C409.222 195.543 409.113 195.085 409.113 194.558V192.832C409.113 192.297 409.222 191.84 409.441 191.459C409.659 191.07 409.971 190.77 410.377 190.559C410.782 190.349 411.26 190.243 411.811 190.243C412.362 190.243 412.84 190.349 413.245 190.559C413.65 190.77 413.962 191.07 414.181 191.459C414.4 191.84 414.509 192.297 414.509 192.832V194.558C414.509 195.085 414.4 195.543 414.181 195.932C413.962 196.321 413.65 196.62 413.245 196.831C412.84 197.042 412.362 197.147 411.811 197.147ZM411.811 195.992C412.256 195.992 412.601 195.871 412.844 195.628C413.087 195.377 413.208 195.02 413.208 194.558V192.832C413.208 192.362 413.087 192.006 412.844 191.763C412.601 191.52 412.256 191.398 411.811 191.398C411.373 191.398 411.029 191.52 410.778 191.763C410.535 192.006 410.413 192.362 410.413 192.832V194.558C410.413 195.02 410.535 195.377 410.778 195.628C411.029 195.871 411.373 195.992 411.811 195.992ZM416.23 197.038V190.353H417.531V191.629H417.847L417.531 191.933C417.531 191.398 417.689 190.981 418.005 190.681C418.321 190.381 418.758 190.231 419.317 190.231C419.982 190.231 420.512 190.446 420.909 190.875C421.306 191.297 421.505 191.868 421.505 192.589V197.038H420.192V192.735C420.192 192.297 420.075 191.961 419.84 191.726C419.605 191.491 419.285 191.374 418.88 191.374C418.466 191.374 418.138 191.499 417.895 191.751C417.66 191.994 417.543 192.35 417.543 192.82V197.038H416.23ZM425.9 197.159C425.357 197.159 424.879 197.054 424.466 196.843C424.061 196.624 423.749 196.321 423.53 195.932C423.311 195.543 423.202 195.089 423.202 194.57V192.82C423.202 192.293 423.311 191.84 423.53 191.459C423.749 191.07 424.061 190.77 424.466 190.559C424.879 190.341 425.357 190.231 425.9 190.231C426.451 190.231 426.929 190.341 427.334 190.559C427.739 190.77 428.051 191.07 428.27 191.459C428.489 191.84 428.598 192.293 428.598 192.82V194.011H424.466V194.57C424.466 195.065 424.587 195.441 424.831 195.701C425.082 195.96 425.442 196.09 425.912 196.09C426.293 196.09 426.601 196.025 426.836 195.895C427.071 195.757 427.217 195.559 427.273 195.3H428.574C428.477 195.867 428.185 196.321 427.699 196.661C427.213 196.993 426.613 197.159 425.9 197.159ZM427.334 193.221V192.808C427.334 192.322 427.213 191.945 426.97 191.678C426.727 191.41 426.37 191.277 425.9 191.277C425.438 191.277 425.082 191.41 424.831 191.678C424.587 191.945 424.466 192.326 424.466 192.82V193.124L427.431 193.112L427.334 193.221Z" fill="#727272"/>
<circle cx="446.832" cy="192.538" r="4.55781" fill="#00A656"/>
<g filter="url(#filter3_f_45_1961)">
<circle cx="446.832" cy="192.538" r="3.03854" fill="#00A656"/>
</g>
<g clip-path="url(#clip0_45_1961)">
<rect x="80.6875" y="177.345" width="30.3854" height="30.3854" rx="15.1927" fill="url(#paint3_linear_45_1961)"/>
<rect x="81.8269" y="178.485" width="28.1065" height="28.1065" rx="14.0533" stroke="#A8A8A8" stroke-opacity="0.1" stroke-width="2.27891"/>
</g>
<circle cx="95.8802" cy="192.538" r="6.07708" fill="#FDFDFD"/>
<rect opacity="0.15" x="129.304" y="183.422" width="48.6167" height="6.07708" rx="3.03854" fill="#1B1B1B"/>
<rect opacity="0.1" x="129.304" y="195.576" width="124.58" height="6.07708" rx="3.03854" fill="#727272"/>
</g>
<g opacity="0.75" filter="url(#filter4_dddddd_45_1961)">
<rect x="50.3021" y="235.077" width="425.396" height="72.925" rx="18.2313" fill="#F1F1F1"/>
<rect x="51.4415" y="236.217" width="423.117" height="70.6461" rx="17.0918" stroke="url(#paint4_linear_45_1961)" stroke-width="2.27891"/>
</g>
<path d="M360.335 276.039L359.375 267.167H360.554L361.15 273.535C361.166 273.697 361.178 273.876 361.186 274.07C361.202 274.265 361.214 274.455 361.222 274.641C361.239 274.828 361.247 274.99 361.247 275.127C361.263 274.99 361.279 274.828 361.295 274.641C361.312 274.455 361.328 274.265 361.344 274.07C361.368 273.876 361.393 273.697 361.417 273.535L362.183 267.167H363.398L364.115 273.535C364.131 273.697 364.148 273.876 364.164 274.07C364.188 274.265 364.212 274.455 364.237 274.641C364.261 274.828 364.277 274.99 364.285 275.127C364.293 274.99 364.302 274.828 364.31 274.641C364.326 274.455 364.342 274.265 364.358 274.07C364.374 273.876 364.391 273.697 364.407 273.535L365.015 267.167H366.157L365.16 276.039H363.641L362.924 269.585C362.908 269.415 362.892 269.237 362.875 269.05C362.859 268.856 362.843 268.67 362.827 268.491C362.811 268.305 362.794 268.151 362.778 268.029C362.77 268.151 362.758 268.305 362.742 268.491C362.726 268.67 362.709 268.856 362.693 269.05C362.677 269.237 362.657 269.415 362.632 269.585L361.867 276.039H360.335ZM369.811 276.148C369.26 276.148 368.782 276.043 368.377 275.832C367.971 275.622 367.659 275.322 367.441 274.933C367.222 274.544 367.113 274.086 367.113 273.56V271.834C367.113 271.299 367.222 270.841 367.441 270.46C367.659 270.071 367.971 269.772 368.377 269.561C368.782 269.35 369.26 269.245 369.811 269.245C370.362 269.245 370.84 269.35 371.245 269.561C371.65 269.772 371.962 270.071 372.181 270.46C372.4 270.841 372.509 271.299 372.509 271.834V273.56C372.509 274.086 372.4 274.544 372.181 274.933C371.962 275.322 371.65 275.622 371.245 275.832C370.84 276.043 370.362 276.148 369.811 276.148ZM369.811 274.994C370.256 274.994 370.601 274.872 370.844 274.629C371.087 274.378 371.208 274.021 371.208 273.56V271.834C371.208 271.364 371.087 271.007 370.844 270.764C370.601 270.521 370.256 270.4 369.811 270.4C369.373 270.4 369.029 270.521 368.778 270.764C368.535 271.007 368.413 271.364 368.413 271.834V273.56C368.413 274.021 368.535 274.378 368.778 274.629C369.029 274.872 369.373 274.994 369.811 274.994ZM374.449 276.039V269.354H375.713V270.63H376.029L375.628 271.42C375.628 270.699 375.786 270.156 376.102 269.792C376.418 269.419 376.888 269.233 377.512 269.233C378.225 269.233 378.788 269.456 379.201 269.901C379.623 270.339 379.833 270.942 379.833 271.712V272.162H378.484V271.822C378.484 271.344 378.363 270.979 378.119 270.728C377.884 270.468 377.552 270.339 377.123 270.339C376.693 270.339 376.357 270.468 376.114 270.728C375.879 270.987 375.762 271.352 375.762 271.822V276.039H374.449ZM381.311 276.039V267.167H382.624V272.04H383.803L385.577 269.354H387.06L384.933 272.563L387.097 276.039H385.59L383.803 273.171H382.624V276.039H381.311ZM388.283 276.039V274.848H390.629V270.545H388.587V269.354H391.905V274.848H394.056V276.039H388.283ZM391.139 268.2C390.856 268.2 390.629 268.127 390.459 267.981C390.288 267.827 390.203 267.624 390.203 267.373C390.203 267.114 390.288 266.911 390.459 266.765C390.629 266.611 390.856 266.535 391.139 266.535C391.423 266.535 391.65 266.611 391.82 266.765C391.99 266.911 392.075 267.114 392.075 267.373C392.075 267.624 391.99 267.827 391.82 267.981C391.65 268.127 391.423 268.2 391.139 268.2ZM395.364 276.039V269.354H396.665V270.63H396.981L396.665 270.934C396.665 270.4 396.823 269.982 397.139 269.682C397.455 269.383 397.892 269.233 398.451 269.233C399.116 269.233 399.646 269.447 400.043 269.877C400.441 270.298 400.639 270.869 400.639 271.591V276.039H399.326V271.736C399.326 271.299 399.209 270.963 398.974 270.728C398.739 270.493 398.419 270.375 398.014 270.375C397.6 270.375 397.272 270.501 397.029 270.752C396.794 270.995 396.677 271.352 396.677 271.822V276.039H395.364ZM403.284 278.227V277.096H405.338C405.678 277.096 405.929 277.015 406.091 276.853C406.262 276.691 406.347 276.452 406.347 276.136V275.468L406.371 274.228H406.091L406.359 273.985C406.359 274.495 406.197 274.897 405.873 275.188C405.557 275.48 405.127 275.626 404.584 275.626C403.896 275.626 403.353 275.399 402.956 274.945C402.559 274.491 402.36 273.88 402.36 273.11V271.749C402.36 270.979 402.559 270.367 402.956 269.913C403.353 269.46 403.896 269.233 404.584 269.233C405.127 269.233 405.557 269.383 405.873 269.682C406.197 269.974 406.359 270.375 406.359 270.886L406.091 270.63H406.359L406.347 269.354H407.647V276.161C407.647 276.801 407.445 277.303 407.04 277.668C406.634 278.04 406.071 278.227 405.35 278.227H403.284ZM405.01 274.495C405.423 274.495 405.747 274.37 405.982 274.119C406.225 273.859 406.347 273.503 406.347 273.049V271.822C406.347 271.368 406.225 271.015 405.982 270.764C405.747 270.505 405.423 270.375 405.01 270.375C404.58 270.375 404.248 270.501 404.013 270.752C403.786 270.995 403.673 271.352 403.673 271.822V273.049C403.673 273.511 403.786 273.868 404.013 274.119C404.248 274.37 404.58 274.495 405.01 274.495ZM412.738 276.161C412.414 276.161 412.154 276.067 411.96 275.881C411.765 275.687 411.668 275.427 411.668 275.103C411.668 274.771 411.765 274.508 411.96 274.313C412.154 274.111 412.414 274.009 412.738 274.009C413.07 274.009 413.333 274.111 413.528 274.313C413.714 274.508 413.807 274.771 413.807 275.103C413.807 275.427 413.714 275.687 413.528 275.881C413.333 276.067 413.07 276.161 412.738 276.161ZM418.888 276.161C418.564 276.161 418.304 276.067 418.11 275.881C417.915 275.687 417.818 275.427 417.818 275.103C417.818 274.771 417.915 274.508 418.11 274.313C418.304 274.111 418.564 274.009 418.888 274.009C419.22 274.009 419.483 274.111 419.678 274.313C419.864 274.508 419.957 274.771 419.957 275.103C419.957 275.427 419.864 275.687 419.678 275.881C419.483 276.067 419.22 276.161 418.888 276.161ZM425.026 276.161C424.701 276.161 424.442 276.067 424.248 275.881C424.053 275.687 423.956 275.427 423.956 275.103C423.956 274.771 424.053 274.508 424.248 274.313C424.442 274.111 424.701 274.009 425.026 274.009C425.358 274.009 425.617 274.111 425.803 274.313C425.998 274.508 426.095 274.771 426.095 275.103C426.095 275.427 425.998 275.687 425.803 275.881C425.617 276.067 425.358 276.161 425.026 276.161Z" fill="#727272"/>
<circle cx="446.832" cy="271.539" r="4.55781" fill="#F96910"/>
<g filter="url(#filter5_f_45_1961)">
<circle cx="446.832" cy="271.54" r="3.03854" fill="#F96910"/>
</g>
<g clip-path="url(#clip1_45_1961)">
<rect x="80.6875" y="256.347" width="30.3854" height="30.3854" rx="15.1927" fill="url(#paint5_linear_45_1961)"/>
<rect x="81.8269" y="257.486" width="28.1065" height="28.1065" rx="14.0533" stroke="#A8A8A8" stroke-opacity="0.1" stroke-width="2.27891"/>
</g>
<circle cx="95.8802" cy="271.539" r="6.07708" fill="#FDFDFD"/>
<path d="M131.609 259.7V268.54H130.275V259.7H131.609ZM135.686 268.669C135.151 268.669 134.673 268.532 134.253 268.259C133.836 267.983 133.508 267.59 133.269 267.081C133.033 266.569 132.915 265.954 132.915 265.238C132.915 264.521 133.035 263.908 133.274 263.399C133.515 262.89 133.846 262.5 134.266 262.229C134.686 261.959 135.163 261.824 135.695 261.824C136.106 261.824 136.437 261.893 136.688 262.031C136.941 262.166 137.136 262.324 137.275 262.506C137.416 262.687 137.525 262.847 137.603 262.985H137.68V259.7H138.971V268.54H137.711V267.508H137.603C137.525 267.649 137.413 267.81 137.266 267.991C137.122 268.173 136.924 268.331 136.67 268.466C136.417 268.601 136.089 268.669 135.686 268.669ZM135.971 267.568C136.342 267.568 136.656 267.471 136.912 267.275C137.171 267.076 137.367 266.802 137.499 266.451C137.634 266.1 137.702 265.691 137.702 265.225C137.702 264.764 137.636 264.362 137.503 264.016C137.371 263.671 137.177 263.402 136.921 263.209C136.665 263.016 136.348 262.92 135.971 262.92C135.583 262.92 135.259 263.021 135 263.222C134.741 263.424 134.545 263.698 134.413 264.046C134.284 264.395 134.219 264.787 134.219 265.225C134.219 265.668 134.285 266.066 134.417 266.42C134.55 266.774 134.745 267.055 135.004 267.262C135.266 267.466 135.588 267.568 135.971 267.568ZM143.427 268.673C142.774 268.673 142.211 268.534 141.739 268.255C141.27 267.973 140.908 267.577 140.652 267.068C140.398 266.556 140.272 265.956 140.272 265.268C140.272 264.589 140.398 263.99 140.652 263.472C140.908 262.955 141.265 262.55 141.722 262.26C142.182 261.969 142.721 261.824 143.336 261.824C143.71 261.824 144.073 261.886 144.424 262.009C144.775 262.133 145.09 262.327 145.369 262.592C145.648 262.857 145.868 263.201 146.03 263.624C146.191 264.044 146.271 264.554 146.271 265.156V265.613H141.001V264.646H145.007C145.007 264.307 144.938 264.006 144.799 263.744C144.661 263.48 144.467 263.271 144.217 263.119C143.969 262.966 143.679 262.89 143.345 262.89C142.982 262.89 142.666 262.979 142.395 263.157C142.128 263.333 141.921 263.563 141.774 263.848C141.63 264.13 141.558 264.436 141.558 264.767V265.523C141.558 265.966 141.636 266.343 141.791 266.653C141.949 266.964 142.17 267.202 142.451 267.366C142.733 267.527 143.063 267.607 143.44 267.607C143.684 267.607 143.907 267.573 144.109 267.504C144.31 267.432 144.484 267.325 144.631 267.184C144.778 267.043 144.89 266.869 144.968 266.662L146.189 266.882C146.091 267.242 145.916 267.557 145.663 267.827C145.412 268.095 145.097 268.304 144.717 268.453C144.341 268.6 143.91 268.673 143.427 268.673ZM148.751 264.603V268.54H147.46V261.91H148.699V262.989H148.781C148.933 262.638 149.172 262.356 149.497 262.143C149.825 261.93 150.238 261.824 150.736 261.824C151.188 261.824 151.583 261.919 151.923 262.109C152.262 262.296 152.526 262.575 152.713 262.946C152.9 263.317 152.993 263.776 152.993 264.323V268.54H151.703V264.478C151.703 263.998 151.578 263.622 151.327 263.352C151.077 263.078 150.733 262.942 150.296 262.942C149.996 262.942 149.73 263.006 149.497 263.136C149.267 263.265 149.084 263.455 148.949 263.706C148.817 263.953 148.751 264.252 148.751 264.603ZM157.576 261.91V262.946H153.954V261.91H157.576ZM154.926 260.322H156.216V266.593C156.216 266.843 156.253 267.032 156.328 267.158C156.403 267.282 156.499 267.367 156.617 267.413C156.738 267.456 156.869 267.478 157.01 267.478C157.114 267.478 157.204 267.471 157.282 267.456C157.36 267.442 157.42 267.43 157.463 267.422L157.696 268.488C157.622 268.517 157.515 268.545 157.377 268.574C157.239 268.606 157.066 268.623 156.859 268.626C156.52 268.632 156.203 268.571 155.91 268.445C155.616 268.318 155.379 268.122 155.197 267.858C155.016 267.593 154.926 267.261 154.926 266.861V260.322ZM158.76 268.54V261.91H160.051V268.54H158.76ZM159.412 260.887C159.187 260.887 158.995 260.812 158.833 260.663C158.675 260.51 158.596 260.329 158.596 260.119C158.596 259.906 158.675 259.725 158.833 259.575C158.995 259.422 159.187 259.346 159.412 259.346C159.636 259.346 159.828 259.422 159.986 259.575C160.147 259.725 160.228 259.906 160.228 260.119C160.228 260.329 160.147 260.51 159.986 260.663C159.828 260.812 159.636 260.887 159.412 260.887ZM164.699 261.91V262.946H160.952V261.91H164.699ZM161.98 268.54V261.142C161.98 260.727 162.07 260.384 162.252 260.11C162.433 259.834 162.673 259.628 162.972 259.493C163.272 259.355 163.597 259.286 163.948 259.286C164.207 259.286 164.428 259.307 164.612 259.351C164.797 259.391 164.933 259.428 165.022 259.463L164.72 260.507C164.66 260.49 164.582 260.47 164.487 260.447C164.392 260.421 164.277 260.408 164.142 260.408C163.828 260.408 163.604 260.486 163.469 260.641C163.336 260.796 163.27 261.021 163.27 261.314V268.54H161.98ZM166.603 271.026C166.41 271.026 166.235 271.01 166.076 270.978C165.918 270.949 165.8 270.918 165.722 270.883L166.033 269.826C166.269 269.889 166.479 269.916 166.663 269.908C166.848 269.899 167.01 269.83 167.151 269.701C167.295 269.571 167.422 269.36 167.531 269.066L167.691 268.626L165.265 261.91H166.646L168.325 267.055H168.394L170.073 261.91H171.459L168.726 269.424C168.6 269.77 168.439 270.062 168.243 270.301C168.047 270.542 167.814 270.724 167.544 270.844C167.273 270.965 166.96 271.026 166.603 271.026ZM176.218 271.026C176.025 271.026 175.849 271.01 175.691 270.978C175.533 270.949 175.415 270.918 175.337 270.883L175.648 269.826C175.884 269.889 176.094 269.916 176.278 269.908C176.462 269.899 176.625 269.83 176.766 269.701C176.91 269.571 177.036 269.36 177.146 269.066L177.305 268.626L174.88 261.91H176.261L177.94 267.055H178.009L179.688 261.91H181.073L178.341 269.424C178.214 269.77 178.053 270.062 177.858 270.301C177.662 270.542 177.429 270.724 177.158 270.844C176.888 270.965 176.574 271.026 176.218 271.026ZM184.61 268.673C183.988 268.673 183.446 268.531 182.983 268.246C182.519 267.961 182.16 267.563 181.904 267.05C181.648 266.538 181.52 265.94 181.52 265.255C181.52 264.567 181.648 263.966 181.904 263.451C182.16 262.936 182.519 262.536 182.983 262.251C183.446 261.966 183.988 261.824 184.61 261.824C185.231 261.824 185.774 261.966 186.237 262.251C186.7 262.536 187.06 262.936 187.316 263.451C187.572 263.966 187.7 264.567 187.7 265.255C187.7 265.94 187.572 266.538 187.316 267.05C187.06 267.563 186.7 267.961 186.237 268.246C185.774 268.531 185.231 268.673 184.61 268.673ZM184.614 267.59C185.017 267.59 185.351 267.484 185.616 267.271C185.88 267.058 186.076 266.774 186.203 266.42C186.332 266.066 186.397 265.677 186.397 265.251C186.397 264.828 186.332 264.439 186.203 264.085C186.076 263.729 185.88 263.442 185.616 263.226C185.351 263.011 185.017 262.903 184.614 262.903C184.209 262.903 183.872 263.011 183.604 263.226C183.34 263.442 183.142 263.729 183.013 264.085C182.886 264.439 182.823 264.828 182.823 265.251C182.823 265.677 182.886 266.066 183.013 266.42C183.142 266.774 183.34 267.058 183.604 267.271C183.872 267.484 184.209 267.59 184.614 267.59ZM193.097 265.79V261.91H194.392V268.54H193.123V267.391H193.054C192.902 267.745 192.657 268.04 192.32 268.276C191.987 268.509 191.571 268.626 191.073 268.626C190.647 268.626 190.27 268.532 189.942 268.345C189.617 268.155 189.361 267.875 189.174 267.504C188.99 267.132 188.898 266.674 188.898 266.127V261.91H190.188V265.971C190.188 266.423 190.313 266.783 190.564 267.05C190.814 267.318 191.139 267.452 191.539 267.452C191.781 267.452 192.021 267.391 192.26 267.271C192.502 267.15 192.702 266.967 192.86 266.722C193.021 266.478 193.1 266.167 193.097 265.79ZM195.883 268.54V261.91H197.13V262.963H197.199C197.32 262.606 197.533 262.326 197.838 262.121C198.146 261.914 198.494 261.811 198.883 261.811C198.963 261.811 199.058 261.814 199.168 261.819C199.28 261.825 199.368 261.832 199.431 261.841V263.075C199.379 263.061 199.287 263.045 199.155 263.028C199.022 263.008 198.89 262.998 198.758 262.998C198.453 262.998 198.181 263.062 197.942 263.192C197.706 263.318 197.519 263.495 197.381 263.723C197.243 263.947 197.174 264.203 197.174 264.491V268.54H195.883ZM203.278 271.026V261.91H204.538V262.985H204.646C204.721 262.847 204.829 262.687 204.97 262.506C205.111 262.324 205.307 262.166 205.557 262.031C205.807 261.893 206.138 261.824 206.55 261.824C207.085 261.824 207.563 261.959 207.983 262.229C208.403 262.5 208.732 262.89 208.971 263.399C209.213 263.908 209.334 264.521 209.334 265.238C209.334 265.954 209.214 266.569 208.975 267.081C208.736 267.59 208.408 267.983 207.991 268.259C207.574 268.532 207.098 268.669 206.563 268.669C206.16 268.669 205.83 268.601 205.574 268.466C205.321 268.331 205.122 268.173 204.979 267.991C204.835 267.81 204.724 267.649 204.646 267.508H204.569V271.026H203.278ZM204.543 265.225C204.543 265.691 204.61 266.1 204.746 266.451C204.881 266.802 205.076 267.076 205.333 267.275C205.589 267.471 205.902 267.568 206.273 267.568C206.659 267.568 206.981 267.466 207.24 267.262C207.499 267.055 207.695 266.774 207.827 266.42C207.962 266.066 208.03 265.668 208.03 265.225C208.03 264.787 207.964 264.395 207.832 264.046C207.702 263.698 207.506 263.424 207.245 263.222C206.986 263.021 206.662 262.92 206.273 262.92C205.899 262.92 205.583 263.016 205.324 263.209C205.068 263.402 204.874 263.671 204.741 264.016C204.609 264.362 204.543 264.764 204.543 265.225ZM210.536 268.54V261.91H211.784V262.963H211.853C211.974 262.606 212.187 262.326 212.492 262.121C212.799 261.914 213.148 261.811 213.536 261.811C213.617 261.811 213.712 261.814 213.821 261.819C213.933 261.825 214.021 261.832 214.084 261.841V263.075C214.032 263.061 213.94 263.045 213.808 263.028C213.676 263.008 213.543 262.998 213.411 262.998C213.106 262.998 212.834 263.062 212.595 263.192C212.359 263.318 212.172 263.495 212.034 263.723C211.896 263.947 211.827 264.203 211.827 264.491V268.54H210.536ZM217.513 268.673C216.892 268.673 216.349 268.531 215.886 268.246C215.423 267.961 215.063 267.563 214.807 267.05C214.551 266.538 214.423 265.94 214.423 265.255C214.423 264.567 214.551 263.966 214.807 263.451C215.063 262.936 215.423 262.536 215.886 262.251C216.349 261.966 216.892 261.824 217.513 261.824C218.135 261.824 218.677 261.966 219.14 262.251C219.603 262.536 219.963 262.936 220.219 263.451C220.475 263.966 220.603 264.567 220.603 265.255C220.603 265.94 220.475 266.538 220.219 267.05C219.963 267.563 219.603 267.961 219.14 268.246C218.677 268.531 218.135 268.673 217.513 268.673ZM217.517 267.59C217.92 267.59 218.254 267.484 218.519 267.271C218.783 267.058 218.979 266.774 219.106 266.42C219.235 266.066 219.3 265.677 219.3 265.251C219.3 264.828 219.235 264.439 219.106 264.085C218.979 263.729 218.783 263.442 218.519 263.226C218.254 263.011 217.92 262.903 217.517 262.903C217.112 262.903 216.775 263.011 216.507 263.226C216.243 263.442 216.046 263.729 215.916 264.085C215.789 264.439 215.726 264.828 215.726 265.251C215.726 265.677 215.789 266.066 215.916 266.42C216.046 266.774 216.243 267.058 216.507 267.271C216.775 267.484 217.112 267.59 217.517 267.59ZM221.904 268.54V259.7H223.195V262.985H223.273C223.347 262.847 223.455 262.687 223.596 262.506C223.737 262.324 223.933 262.166 224.183 262.031C224.434 261.893 224.765 261.824 225.176 261.824C225.711 261.824 226.189 261.959 226.609 262.229C227.029 262.5 227.359 262.89 227.597 263.399C227.839 263.908 227.96 264.521 227.96 265.238C227.96 265.954 227.84 266.569 227.602 267.081C227.363 267.59 227.035 267.983 226.618 268.259C226.2 268.532 225.724 268.669 225.189 268.669C224.786 268.669 224.457 268.601 224.201 268.466C223.947 268.331 223.749 268.173 223.605 267.991C223.461 267.81 223.35 267.649 223.273 267.508H223.165V268.54H221.904ZM223.169 265.225C223.169 265.691 223.237 266.1 223.372 266.451C223.507 266.802 223.703 267.076 223.959 267.275C224.215 267.471 224.529 267.568 224.9 267.568C225.285 267.568 225.608 267.466 225.867 267.262C226.126 267.055 226.321 266.774 226.454 266.42C226.589 266.066 226.656 265.668 226.656 265.225C226.656 264.787 226.59 264.395 226.458 264.046C226.328 263.698 226.133 263.424 225.871 263.222C225.612 263.021 225.288 262.92 224.9 262.92C224.526 262.92 224.209 263.016 223.95 263.209C223.694 263.402 223.5 263.671 223.368 264.016C223.235 264.362 223.169 264.764 223.169 265.225ZM230.456 259.7V268.54H229.166V259.7H230.456ZM234.807 268.673C234.154 268.673 233.591 268.534 233.119 268.255C232.65 267.973 232.288 267.577 232.032 267.068C231.778 266.556 231.652 265.956 231.652 265.268C231.652 264.589 231.778 263.99 232.032 263.472C232.288 262.955 232.644 262.55 233.102 262.26C233.562 261.969 234.1 261.824 234.716 261.824C235.09 261.824 235.453 261.886 235.804 262.009C236.155 262.133 236.47 262.327 236.749 262.592C237.028 262.857 237.248 263.201 237.409 263.624C237.571 264.044 237.651 264.554 237.651 265.156V265.613H232.381V264.646H236.387C236.387 264.307 236.317 264.006 236.179 263.744C236.041 263.48 235.847 263.271 235.597 263.119C235.349 262.966 235.059 262.89 234.725 262.89C234.362 262.89 234.046 262.979 233.775 263.157C233.508 263.333 233.3 263.563 233.154 263.848C233.01 264.13 232.938 264.436 232.938 264.767V265.523C232.938 265.966 233.016 266.343 233.171 266.653C233.329 266.964 233.549 267.202 233.831 267.366C234.113 267.527 234.443 267.607 234.82 267.607C235.064 267.607 235.287 267.573 235.489 267.504C235.69 267.432 235.864 267.325 236.011 267.184C236.158 267.043 236.27 266.869 236.348 266.662L237.569 266.882C237.471 267.242 237.296 267.557 237.043 267.827C236.792 268.095 236.477 268.304 236.097 268.453C235.72 268.6 235.29 268.673 234.807 268.673ZM238.84 268.54V261.91H240.079V262.989H240.161C240.299 262.624 240.525 262.339 240.838 262.134C241.152 261.927 241.527 261.824 241.965 261.824C242.408 261.824 242.779 261.927 243.078 262.134C243.38 262.342 243.603 262.626 243.747 262.989H243.816C243.975 262.635 244.226 262.353 244.572 262.143C244.917 261.93 245.328 261.824 245.806 261.824C246.407 261.824 246.898 262.012 247.278 262.389C247.661 262.766 247.852 263.334 247.852 264.094V268.54H246.561V264.215C246.561 263.766 246.439 263.441 246.195 263.239C245.95 263.038 245.658 262.937 245.318 262.937C244.898 262.937 244.572 263.067 244.339 263.326C244.106 263.582 243.989 263.911 243.989 264.314V268.54H242.703V264.133C242.703 263.773 242.591 263.484 242.366 263.265C242.142 263.047 241.85 262.937 241.49 262.937C241.245 262.937 241.02 263.002 240.812 263.131C240.608 263.258 240.443 263.435 240.316 263.662C240.192 263.89 240.13 264.153 240.13 264.452V268.54H238.84ZM254.241 268.686C253.821 268.686 253.441 268.609 253.102 268.453C252.762 268.295 252.493 268.066 252.295 267.767C252.099 267.468 252.001 267.101 252.001 266.666C252.001 266.292 252.073 265.984 252.217 265.743C252.361 265.501 252.555 265.31 252.8 265.169C253.044 265.028 253.318 264.921 253.62 264.849C253.922 264.777 254.23 264.723 254.543 264.685C254.941 264.639 255.263 264.602 255.51 264.573C255.758 264.541 255.938 264.491 256.05 264.422C256.162 264.353 256.218 264.241 256.218 264.085V264.055C256.218 263.678 256.112 263.386 255.899 263.179C255.689 262.972 255.375 262.868 254.958 262.868C254.523 262.868 254.181 262.965 253.931 263.157C253.683 263.347 253.512 263.559 253.417 263.792L252.204 263.516C252.348 263.113 252.558 262.788 252.834 262.54C253.113 262.29 253.434 262.109 253.797 261.996C254.159 261.881 254.541 261.824 254.941 261.824C255.205 261.824 255.486 261.855 255.782 261.919C256.081 261.979 256.361 262.091 256.62 262.255C256.881 262.419 257.096 262.654 257.263 262.959C257.43 263.261 257.513 263.654 257.513 264.137V268.54H256.253V267.633H256.201C256.117 267.8 255.992 267.964 255.825 268.125C255.658 268.286 255.444 268.42 255.182 268.527C254.92 268.633 254.607 268.686 254.241 268.686ZM254.522 267.65C254.879 267.65 255.184 267.58 255.437 267.439C255.693 267.298 255.887 267.114 256.02 266.886C256.155 266.656 256.222 266.41 256.222 266.148V265.294C256.176 265.34 256.087 265.383 255.955 265.423C255.825 265.461 255.677 265.494 255.51 265.523C255.343 265.548 255.181 265.573 255.023 265.596C254.864 265.616 254.732 265.633 254.625 265.648C254.375 265.679 254.146 265.733 253.939 265.807C253.735 265.882 253.571 265.99 253.447 266.131C253.326 266.269 253.266 266.453 253.266 266.684C253.266 267.003 253.384 267.245 253.62 267.409C253.856 267.57 254.156 267.65 254.522 267.65ZM260.279 264.603V268.54H258.989V261.91H260.227V262.989H260.309C260.462 262.638 260.701 262.356 261.026 262.143C261.354 261.93 261.767 261.824 262.265 261.824C262.716 261.824 263.112 261.919 263.452 262.109C263.791 262.296 264.054 262.575 264.241 262.946C264.429 263.317 264.522 263.776 264.522 264.323V268.54H263.232V264.478C263.232 263.998 263.106 263.622 262.856 263.352C262.606 263.078 262.262 262.942 261.824 262.942C261.525 262.942 261.259 263.006 261.026 263.136C260.796 263.265 260.613 263.455 260.478 263.706C260.345 263.953 260.279 264.252 260.279 264.603ZM268.491 268.669C267.956 268.669 267.479 268.532 267.059 268.259C266.641 267.983 266.313 267.59 266.074 267.081C265.838 266.569 265.721 265.954 265.721 265.238C265.721 264.521 265.84 263.908 266.079 263.399C266.32 262.89 266.651 262.5 267.071 262.229C267.492 261.959 267.968 261.824 268.5 261.824C268.912 261.824 269.242 261.893 269.493 262.031C269.746 262.166 269.942 262.324 270.08 262.506C270.221 262.687 270.33 262.847 270.408 262.985H270.486V259.7H271.776V268.54H270.516V267.508H270.408C270.33 267.649 270.218 267.81 270.071 267.991C269.927 268.173 269.729 268.331 269.476 268.466C269.222 268.601 268.894 268.669 268.491 268.669ZM268.776 267.568C269.148 267.568 269.461 267.471 269.717 267.275C269.976 267.076 270.172 266.802 270.304 266.451C270.439 266.1 270.507 265.691 270.507 265.225C270.507 264.764 270.441 264.362 270.309 264.016C270.176 263.671 269.982 263.402 269.726 263.209C269.47 263.016 269.153 262.92 268.776 262.92C268.388 262.92 268.064 263.021 267.805 263.222C267.546 263.424 267.351 263.698 267.218 264.046C267.089 264.395 267.024 264.787 267.024 265.225C267.024 265.668 267.09 266.066 267.223 266.42C267.355 266.774 267.551 267.055 267.81 267.262C268.071 267.466 268.394 267.568 268.776 267.568ZM130.172 286.026V276.91H131.432V277.985H131.54C131.615 277.847 131.723 277.687 131.864 277.506C132.005 277.324 132.2 277.166 132.451 277.031C132.701 276.893 133.032 276.824 133.443 276.824C133.978 276.824 134.456 276.959 134.876 277.229C135.296 277.5 135.626 277.89 135.865 278.399C136.106 278.908 136.227 279.521 136.227 280.238C136.227 280.954 136.108 281.569 135.869 282.081C135.63 282.59 135.302 282.983 134.885 283.259C134.468 283.532 133.991 283.669 133.456 283.669C133.053 283.669 132.724 283.601 132.468 283.466C132.215 283.331 132.016 283.173 131.872 282.991C131.728 282.81 131.618 282.649 131.54 282.508H131.462V286.026H130.172ZM131.436 280.225C131.436 280.691 131.504 281.1 131.639 281.451C131.774 281.802 131.97 282.076 132.226 282.275C132.482 282.471 132.796 282.568 133.167 282.568C133.553 282.568 133.875 282.466 134.134 282.262C134.393 282.055 134.588 281.774 134.721 281.42C134.856 281.066 134.924 280.668 134.924 280.225C134.924 279.787 134.858 279.395 134.725 279.046C134.596 278.698 134.4 278.424 134.138 278.222C133.879 278.021 133.556 277.92 133.167 277.92C132.793 277.92 132.476 278.016 132.218 278.209C131.961 278.402 131.767 278.671 131.635 279.016C131.502 279.362 131.436 279.764 131.436 280.225ZM140.287 283.673C139.634 283.673 139.072 283.534 138.6 283.255C138.131 282.973 137.768 282.577 137.512 282.068C137.259 281.556 137.132 280.956 137.132 280.268C137.132 279.589 137.259 278.99 137.512 278.472C137.768 277.955 138.125 277.55 138.582 277.26C139.043 276.969 139.581 276.824 140.197 276.824C140.571 276.824 140.933 276.886 141.284 277.009C141.635 277.133 141.95 277.327 142.23 277.592C142.509 277.857 142.729 278.201 142.89 278.624C143.051 279.044 143.132 279.554 143.132 280.156V280.613H137.862V279.646H141.867C141.867 279.307 141.798 279.006 141.66 278.744C141.522 278.48 141.327 278.271 141.077 278.119C140.83 277.966 140.539 277.89 140.205 277.89C139.843 277.89 139.526 277.979 139.256 278.157C138.988 278.333 138.781 278.563 138.634 278.848C138.49 279.13 138.418 279.436 138.418 279.767V280.523C138.418 280.966 138.496 281.343 138.651 281.653C138.81 281.964 139.03 282.202 139.312 282.366C139.594 282.527 139.923 282.607 140.3 282.607C140.545 282.607 140.768 282.573 140.969 282.504C141.171 282.432 141.345 282.325 141.491 282.184C141.638 282.043 141.75 281.869 141.828 281.662L143.05 281.882C142.952 282.242 142.776 282.557 142.523 282.827C142.273 283.095 141.958 283.304 141.578 283.453C141.201 283.6 140.771 283.673 140.287 283.673ZM144.32 283.54V276.91H145.568V277.963H145.637C145.758 277.606 145.971 277.326 146.276 277.121C146.583 276.914 146.932 276.811 147.32 276.811C147.401 276.811 147.496 276.814 147.605 276.819C147.717 276.825 147.805 276.832 147.868 276.841V278.075C147.816 278.061 147.724 278.045 147.592 278.028C147.46 278.008 147.327 277.998 147.195 277.998C146.89 277.998 146.618 278.062 146.379 278.192C146.143 278.318 145.956 278.495 145.818 278.723C145.68 278.947 145.611 279.203 145.611 279.491V283.54H144.32ZM152.289 276.91V277.946H148.542V276.91H152.289ZM149.57 283.54V276.142C149.57 275.727 149.66 275.384 149.841 275.11C150.023 274.834 150.263 274.628 150.562 274.493C150.861 274.355 151.187 274.286 151.538 274.286C151.797 274.286 152.018 274.307 152.202 274.351C152.387 274.391 152.523 274.428 152.612 274.463L152.31 275.507C152.25 275.49 152.172 275.47 152.077 275.447C151.982 275.421 151.867 275.408 151.732 275.408C151.418 275.408 151.194 275.486 151.059 275.641C150.926 275.796 150.86 276.021 150.86 276.314V283.54H149.57ZM155.909 283.673C155.287 283.673 154.745 283.531 154.281 283.246C153.818 282.961 153.458 282.563 153.202 282.05C152.946 281.538 152.818 280.94 152.818 280.255C152.818 279.567 152.946 278.966 153.202 278.451C153.458 277.936 153.818 277.536 154.281 277.251C154.745 276.966 155.287 276.824 155.909 276.824C156.53 276.824 157.072 276.966 157.536 277.251C157.999 277.536 158.359 277.936 158.615 278.451C158.871 278.966 158.999 279.567 158.999 280.255C158.999 280.94 158.871 281.538 158.615 282.05C158.359 282.563 157.999 282.961 157.536 283.246C157.072 283.531 156.53 283.673 155.909 283.673ZM155.913 282.59C156.316 282.59 156.649 282.484 156.914 282.271C157.179 282.058 157.375 281.774 157.501 281.42C157.631 281.066 157.695 280.677 157.695 280.251C157.695 279.828 157.631 279.439 157.501 279.085C157.375 278.729 157.179 278.442 156.914 278.226C156.649 278.011 156.316 277.903 155.913 277.903C155.507 277.903 155.17 278.011 154.903 278.226C154.638 278.442 154.441 278.729 154.312 279.085C154.185 279.439 154.122 279.828 154.122 280.251C154.122 280.677 154.185 281.066 154.312 281.42C154.441 281.774 154.638 282.058 154.903 282.271C155.17 282.484 155.507 282.59 155.913 282.59ZM160.196 283.54V276.91H161.444V277.963H161.513C161.634 277.606 161.846 277.326 162.151 277.121C162.459 276.914 162.808 276.811 163.196 276.811C163.277 276.811 163.371 276.814 163.481 276.819C163.593 276.825 163.681 276.832 163.744 276.841V278.075C163.692 278.061 163.6 278.045 163.468 278.028C163.336 278.008 163.203 277.998 163.071 277.998C162.766 277.998 162.494 278.062 162.255 278.192C162.019 278.318 161.832 278.495 161.694 278.723C161.556 278.947 161.487 279.203 161.487 279.491V283.54H160.196ZM164.618 283.54V276.91H165.857V277.989H165.939C166.077 277.624 166.303 277.339 166.616 277.134C166.93 276.927 167.305 276.824 167.743 276.824C168.186 276.824 168.557 276.927 168.856 277.134C169.158 277.342 169.381 277.626 169.525 277.989H169.594C169.753 277.635 170.004 277.353 170.35 277.143C170.695 276.93 171.106 276.824 171.584 276.824C172.185 276.824 172.676 277.012 173.056 277.389C173.439 277.766 173.63 278.334 173.63 279.094V283.54H172.339V279.215C172.339 278.766 172.217 278.441 171.972 278.239C171.728 278.038 171.436 277.937 171.096 277.937C170.676 277.937 170.35 278.067 170.117 278.326C169.883 278.582 169.767 278.911 169.767 279.314V283.54H168.481V279.133C168.481 278.773 168.369 278.484 168.144 278.265C167.92 278.047 167.628 277.937 167.268 277.937C167.023 277.937 166.797 278.002 166.59 278.131C166.386 278.258 166.221 278.435 166.094 278.662C165.97 278.89 165.908 279.153 165.908 279.452V283.54H164.618ZM177.046 283.686C176.626 283.686 176.246 283.609 175.906 283.453C175.567 283.295 175.298 283.066 175.099 282.767C174.904 282.468 174.806 282.101 174.806 281.666C174.806 281.292 174.878 280.984 175.022 280.743C175.165 280.501 175.36 280.31 175.604 280.169C175.849 280.028 176.122 279.921 176.424 279.849C176.726 279.777 177.034 279.723 177.348 279.685C177.745 279.639 178.067 279.602 178.315 279.573C178.562 279.541 178.742 279.491 178.854 279.422C178.966 279.353 179.023 279.241 179.023 279.085V279.055C179.023 278.678 178.916 278.386 178.703 278.179C178.493 277.972 178.179 277.868 177.762 277.868C177.328 277.868 176.985 277.965 176.735 278.157C176.488 278.347 176.316 278.559 176.221 278.792L175.009 278.516C175.152 278.113 175.362 277.788 175.639 277.54C175.918 277.29 176.239 277.109 176.601 276.996C176.964 276.881 177.345 276.824 177.745 276.824C178.01 276.824 178.29 276.855 178.587 276.919C178.886 276.979 179.165 277.091 179.424 277.255C179.686 277.419 179.9 277.654 180.067 277.959C180.234 278.261 180.317 278.654 180.317 279.137V283.54H179.057V282.633H179.005C178.922 282.8 178.797 282.964 178.63 283.125C178.463 283.286 178.249 283.42 177.987 283.527C177.725 283.633 177.411 283.686 177.046 283.686ZM177.326 282.65C177.683 282.65 177.988 282.58 178.241 282.439C178.497 282.298 178.692 282.114 178.824 281.886C178.959 281.656 179.027 281.41 179.027 281.148V280.294C178.981 280.34 178.892 280.383 178.759 280.423C178.63 280.461 178.482 280.494 178.315 280.523C178.148 280.548 177.985 280.573 177.827 280.596C177.669 280.616 177.536 280.633 177.43 280.648C177.18 280.679 176.951 280.733 176.744 280.807C176.539 280.882 176.375 280.99 176.252 281.131C176.131 281.269 176.07 281.453 176.07 281.684C176.07 282.003 176.188 282.245 176.424 282.409C176.66 282.57 176.961 282.65 177.326 282.65ZM183.084 279.603V283.54H181.793V276.91H183.032V277.989H183.114C183.266 277.638 183.505 277.356 183.83 277.143C184.158 276.93 184.571 276.824 185.069 276.824C185.521 276.824 185.917 276.919 186.256 277.109C186.596 277.296 186.859 277.575 187.046 277.946C187.233 278.317 187.326 278.776 187.326 279.323V283.54H186.036V279.478C186.036 278.998 185.911 278.622 185.66 278.352C185.41 278.078 185.066 277.942 184.629 277.942C184.33 277.942 184.063 278.006 183.83 278.136C183.6 278.265 183.417 278.455 183.282 278.706C183.15 278.953 183.084 279.252 183.084 279.603ZM191.607 283.673C190.965 283.673 190.413 283.528 189.949 283.237C189.489 282.944 189.135 282.54 188.887 282.025C188.64 281.51 188.516 280.92 188.516 280.255C188.516 279.582 188.643 278.987 188.896 278.472C189.149 277.955 189.506 277.55 189.967 277.26C190.427 276.969 190.969 276.824 191.594 276.824C192.097 276.824 192.546 276.917 192.94 277.104C193.335 277.288 193.652 277.547 193.894 277.881C194.139 278.215 194.284 278.605 194.33 279.051H193.074C193.005 278.74 192.847 278.472 192.599 278.248C192.355 278.024 192.027 277.911 191.615 277.911C191.256 277.911 190.941 278.006 190.67 278.196C190.402 278.383 190.194 278.651 190.044 278.999C189.895 279.344 189.82 279.753 189.82 280.225C189.82 280.708 189.893 281.125 190.04 281.476C190.187 281.827 190.394 282.099 190.661 282.292C190.932 282.485 191.25 282.581 191.615 282.581C191.86 282.581 192.081 282.537 192.28 282.448C192.481 282.355 192.65 282.225 192.785 282.055C192.923 281.885 193.019 281.681 193.074 281.442H194.33C194.284 281.871 194.145 282.253 193.911 282.59C193.678 282.927 193.366 283.191 192.975 283.384C192.586 283.577 192.13 283.673 191.607 283.673ZM198.324 283.673C197.671 283.673 197.109 283.534 196.637 283.255C196.168 282.973 195.805 282.577 195.549 282.068C195.296 281.556 195.169 280.956 195.169 280.268C195.169 279.589 195.296 278.99 195.549 278.472C195.805 277.955 196.162 277.55 196.619 277.26C197.08 276.969 197.618 276.824 198.234 276.824C198.608 276.824 198.97 276.886 199.321 277.009C199.672 277.133 199.988 277.327 200.267 277.592C200.546 277.857 200.766 278.201 200.927 278.624C201.088 279.044 201.169 279.554 201.169 280.156V280.613H195.899V279.646H199.904C199.904 279.307 199.835 279.006 199.697 278.744C199.559 278.48 199.365 278.271 199.114 278.119C198.867 277.966 198.576 277.89 198.242 277.89C197.88 277.89 197.563 277.979 197.293 278.157C197.025 278.333 196.818 278.563 196.671 278.848C196.527 279.13 196.455 279.436 196.455 279.767V280.523C196.455 280.966 196.533 281.343 196.689 281.653C196.847 281.964 197.067 282.202 197.349 282.366C197.631 282.527 197.96 282.607 198.337 282.607C198.582 282.607 198.805 282.573 199.006 282.504C199.208 282.432 199.382 282.325 199.529 282.184C199.675 282.043 199.788 281.869 199.865 281.662L201.087 281.882C200.989 282.242 200.813 282.557 200.56 282.827C200.31 283.095 199.995 283.304 199.615 283.453C199.238 283.6 198.808 283.673 198.324 283.673ZM205.331 283.54V276.91H206.621V283.54H205.331ZM205.983 275.887C205.758 275.887 205.565 275.812 205.404 275.663C205.246 275.51 205.167 275.329 205.167 275.119C205.167 274.906 205.246 274.725 205.404 274.575C205.565 274.422 205.758 274.346 205.983 274.346C206.207 274.346 206.398 274.422 206.557 274.575C206.718 274.725 206.798 274.906 206.798 275.119C206.798 275.329 206.718 275.51 206.557 275.663C206.398 275.812 206.207 275.887 205.983 275.887ZM208.115 283.54V276.91H209.353V277.989H209.435C209.573 277.624 209.799 277.339 210.113 277.134C210.427 276.927 210.802 276.824 211.239 276.824C211.683 276.824 212.054 276.927 212.353 277.134C212.655 277.342 212.878 277.626 213.022 277.989H213.091C213.249 277.635 213.501 277.353 213.846 277.143C214.192 276.93 214.603 276.824 215.081 276.824C215.682 276.824 216.173 277.012 216.553 277.389C216.935 277.766 217.127 278.334 217.127 279.094V283.54H215.836V279.215C215.836 278.766 215.714 278.441 215.469 278.239C215.225 278.038 214.933 277.937 214.593 277.937C214.173 277.937 213.846 278.067 213.613 278.326C213.38 278.582 213.264 278.911 213.264 279.314V283.54H211.977V279.133C211.977 278.773 211.865 278.484 211.641 278.265C211.416 278.047 211.124 277.937 210.765 277.937C210.52 277.937 210.294 278.002 210.087 278.131C209.883 278.258 209.717 278.435 209.591 278.662C209.467 278.89 209.405 279.153 209.405 279.452V283.54H208.115ZM218.613 286.026V276.91H219.873V277.985H219.981C220.056 277.847 220.164 277.687 220.305 277.506C220.446 277.324 220.642 277.166 220.892 277.031C221.142 276.893 221.473 276.824 221.885 276.824C222.42 276.824 222.898 276.959 223.318 277.229C223.738 277.5 224.067 277.89 224.306 278.399C224.548 278.908 224.669 279.521 224.669 280.238C224.669 280.954 224.549 281.569 224.31 282.081C224.072 282.59 223.744 282.983 223.326 283.259C222.909 283.532 222.433 283.669 221.898 283.669C221.495 283.669 221.165 283.601 220.909 283.466C220.656 283.331 220.458 283.173 220.314 282.991C220.17 282.81 220.059 282.649 219.981 282.508H219.904V286.026H218.613ZM219.878 280.225C219.878 280.691 219.945 281.1 220.081 281.451C220.216 281.802 220.412 282.076 220.668 282.275C220.924 282.471 221.237 282.568 221.609 282.568C221.994 282.568 222.316 282.466 222.575 282.262C222.834 282.055 223.03 281.774 223.162 281.42C223.298 281.066 223.365 280.668 223.365 280.225C223.365 279.787 223.299 279.395 223.167 279.046C223.037 278.698 222.842 278.424 222.58 278.222C222.321 278.021 221.997 277.92 221.609 277.92C221.235 277.92 220.918 278.016 220.659 278.209C220.403 278.402 220.209 278.671 220.076 279.016C219.944 279.362 219.878 279.764 219.878 280.225ZM225.872 283.54V276.91H227.119V277.963H227.188C227.309 277.606 227.522 277.326 227.827 277.121C228.135 276.914 228.483 276.811 228.871 276.811C228.952 276.811 229.047 276.814 229.156 276.819C229.268 276.825 229.356 276.832 229.419 276.841V278.075C229.368 278.061 229.275 278.045 229.143 278.028C229.011 278.008 228.878 277.998 228.746 277.998C228.441 277.998 228.169 278.062 227.93 278.192C227.694 278.318 227.507 278.495 227.369 278.723C227.231 278.947 227.162 279.203 227.162 279.491V283.54H225.872ZM232.848 283.673C232.227 283.673 231.684 283.531 231.221 283.246C230.758 282.961 230.398 282.563 230.142 282.05C229.886 281.538 229.758 280.94 229.758 280.255C229.758 279.567 229.886 278.966 230.142 278.451C230.398 277.936 230.758 277.536 231.221 277.251C231.684 276.966 232.227 276.824 232.848 276.824C233.47 276.824 234.012 276.966 234.475 277.251C234.939 277.536 235.298 277.936 235.554 278.451C235.81 278.966 235.939 279.567 235.939 280.255C235.939 280.94 235.81 281.538 235.554 282.05C235.298 282.563 234.939 282.961 234.475 283.246C234.012 283.531 233.47 283.673 232.848 283.673ZM232.853 282.59C233.255 282.59 233.589 282.484 233.854 282.271C234.119 282.058 234.314 281.774 234.441 281.42C234.57 281.066 234.635 280.677 234.635 280.251C234.635 279.828 234.57 279.439 234.441 279.085C234.314 278.729 234.119 278.442 233.854 278.226C233.589 278.011 233.255 277.903 232.853 277.903C232.447 277.903 232.11 278.011 231.843 278.226C231.578 278.442 231.381 278.729 231.251 279.085C231.125 279.439 231.061 279.828 231.061 280.251C231.061 280.677 231.125 281.066 231.251 281.42C231.381 281.774 231.578 282.058 231.843 282.271C232.11 282.484 232.447 282.59 232.853 282.59ZM242.582 276.91L240.178 283.54H238.797L236.388 276.91H237.774L239.453 282.012H239.522L241.196 276.91H242.582ZM246.183 283.673C245.53 283.673 244.968 283.534 244.496 283.255C244.027 282.973 243.664 282.577 243.408 282.068C243.155 281.556 243.028 280.956 243.028 280.268C243.028 279.589 243.155 278.99 243.408 278.472C243.664 277.955 244.021 277.55 244.478 277.26C244.939 276.969 245.477 276.824 246.093 276.824C246.467 276.824 246.829 276.886 247.18 277.009C247.531 277.133 247.846 277.327 248.126 277.592C248.405 277.857 248.625 278.201 248.786 278.624C248.947 279.044 249.028 279.554 249.028 280.156V280.613H243.758V279.646H247.763C247.763 279.307 247.694 279.006 247.556 278.744C247.418 278.48 247.223 278.271 246.973 278.119C246.726 277.966 246.435 277.89 246.101 277.89C245.739 277.89 245.422 277.979 245.152 278.157C244.884 278.333 244.677 278.563 244.53 278.848C244.386 279.13 244.314 279.436 244.314 279.767V280.523C244.314 280.966 244.392 281.343 244.547 281.653C244.706 281.964 244.926 282.202 245.208 282.366C245.49 282.527 245.819 282.607 246.196 282.607C246.441 282.607 246.664 282.573 246.865 282.504C247.067 282.432 247.241 282.325 247.387 282.184C247.534 282.043 247.646 281.869 247.724 281.662L248.946 281.882C248.848 282.242 248.672 282.557 248.419 282.827C248.169 283.095 247.854 283.304 247.474 283.453C247.097 283.6 246.667 283.673 246.183 283.673ZM250.216 283.54V276.91H251.455V277.989H251.537C251.675 277.624 251.901 277.339 252.215 277.134C252.528 276.927 252.904 276.824 253.341 276.824C253.784 276.824 254.156 276.927 254.455 277.134C254.757 277.342 254.98 277.626 255.124 277.989H255.193C255.351 277.635 255.603 277.353 255.948 277.143C256.293 276.93 256.705 276.824 257.183 276.824C257.784 276.824 258.275 277.012 258.654 277.389C259.037 277.766 259.228 278.334 259.228 279.094V283.54H257.938V279.215C257.938 278.766 257.816 278.441 257.571 278.239C257.326 278.038 257.034 277.937 256.695 277.937C256.275 277.937 255.948 278.067 255.715 278.326C255.482 278.582 255.366 278.911 255.366 279.314V283.54H254.079V279.133C254.079 278.773 253.967 278.484 253.743 278.265C253.518 278.047 253.226 277.937 252.866 277.937C252.622 277.937 252.396 278.002 252.189 278.131C251.985 278.258 251.819 278.435 251.693 278.662C251.569 278.89 251.507 279.153 251.507 279.452V283.54H250.216ZM263.572 283.673C262.919 283.673 262.357 283.534 261.885 283.255C261.416 282.973 261.053 282.577 260.797 282.068C260.544 281.556 260.417 280.956 260.417 280.268C260.417 279.589 260.544 278.99 260.797 278.472C261.053 277.955 261.41 277.55 261.867 277.26C262.328 276.969 262.866 276.824 263.482 276.824C263.856 276.824 264.218 276.886 264.569 277.009C264.92 277.133 265.235 277.327 265.515 277.592C265.794 277.857 266.014 278.201 266.175 278.624C266.336 279.044 266.417 279.554 266.417 280.156V280.613H261.147V279.646H265.152C265.152 279.307 265.083 279.006 264.945 278.744C264.807 278.48 264.612 278.271 264.362 278.119C264.115 277.966 263.824 277.89 263.49 277.89C263.128 277.89 262.811 277.979 262.541 278.157C262.273 278.333 262.066 278.563 261.919 278.848C261.775 279.13 261.703 279.436 261.703 279.767V280.523C261.703 280.966 261.781 281.343 261.937 281.653C262.095 281.964 262.315 282.202 262.597 282.366C262.879 282.527 263.208 282.607 263.585 282.607C263.83 282.607 264.053 282.573 264.254 282.504C264.456 282.432 264.63 282.325 264.777 282.184C264.923 282.043 265.035 281.869 265.113 281.662L266.335 281.882C266.237 282.242 266.061 282.557 265.808 282.827C265.558 283.095 265.243 283.304 264.863 283.453C264.486 283.6 264.056 283.673 263.572 283.673ZM268.896 279.603V283.54H267.605V276.91H268.844V277.989H268.926C269.079 277.638 269.317 277.356 269.643 277.143C269.971 276.93 270.384 276.824 270.881 276.824C271.333 276.824 271.729 276.919 272.068 277.109C272.408 277.296 272.671 277.575 272.858 277.946C273.045 278.317 273.139 278.776 273.139 279.323V283.54H271.848V279.478C271.848 278.998 271.723 278.622 271.473 278.352C271.222 278.078 270.878 277.942 270.441 277.942C270.142 277.942 269.876 278.006 269.643 278.136C269.412 278.265 269.23 278.455 269.094 278.706C268.962 278.953 268.896 279.252 268.896 279.603ZM277.721 276.91V277.946H274.1V276.91H277.721ZM275.071 275.322H276.361V281.593C276.361 281.843 276.399 282.032 276.474 282.158C276.548 282.282 276.645 282.367 276.763 282.413C276.884 282.456 277.015 282.478 277.156 282.478C277.259 282.478 277.35 282.471 277.427 282.456C277.505 282.442 277.566 282.43 277.609 282.422L277.842 283.488C277.767 283.517 277.661 283.545 277.522 283.574C277.384 283.606 277.212 283.623 277.005 283.626C276.665 283.632 276.348 283.571 276.055 283.445C275.761 283.318 275.524 283.122 275.343 282.858C275.162 282.593 275.071 282.261 275.071 281.861V275.322ZM283.766 278.529L282.597 278.736C282.548 278.586 282.47 278.444 282.364 278.308C282.26 278.173 282.119 278.062 281.941 277.976C281.762 277.89 281.539 277.847 281.272 277.847C280.906 277.847 280.601 277.929 280.357 278.093C280.112 278.254 279.99 278.462 279.99 278.718C279.99 278.94 280.072 279.118 280.236 279.254C280.4 279.389 280.665 279.5 281.03 279.586L282.083 279.828C282.693 279.969 283.148 280.186 283.447 280.479C283.746 280.773 283.896 281.154 283.896 281.623C283.896 282.02 283.781 282.374 283.551 282.685C283.323 282.993 283.005 283.235 282.597 283.41C282.191 283.586 281.721 283.673 281.185 283.673C280.443 283.673 279.837 283.515 279.368 283.199C278.899 282.879 278.612 282.426 278.505 281.839L279.753 281.649C279.83 281.974 279.99 282.22 280.232 282.387C280.473 282.551 280.788 282.633 281.177 282.633C281.6 282.633 281.938 282.545 282.191 282.37C282.444 282.191 282.571 281.974 282.571 281.718C282.571 281.511 282.493 281.337 282.338 281.196C282.185 281.055 281.951 280.948 281.634 280.877L280.512 280.63C279.893 280.489 279.436 280.265 279.14 279.957C278.846 279.649 278.699 279.259 278.699 278.788C278.699 278.396 278.809 278.054 279.027 277.76C279.246 277.467 279.548 277.238 279.934 277.074C280.319 276.907 280.761 276.824 281.259 276.824C281.975 276.824 282.539 276.979 282.951 277.29C283.362 277.598 283.634 278.011 283.766 278.529Z" fill="#1B1B1B"/>
<path d="M286.848 273.059V288.251" stroke="#3292FF" stroke-width="2.27891" stroke-linecap="round"/>
<defs>
<filter id="filter0_dddddd_45_1961" x="-1.69794" y="-21.9292" width="529.396" height="176.925" filterUnits="userSpaceOnUse" color-interpolation-filters="sRGB">
<feFlood flood-opacity="0" result="BackgroundImageFix"/>
<feColorMatrix in="SourceAlpha" type="matrix" values="0 0 0 0 0 0 0 0 0 0 0 0 0 0 0 0 0 0 127 0" result="hardAlpha"/>
<feMorphology radius="4" operator="erode" in="SourceAlpha" result="effect1_dropShadow_45_1961"/>
<feOffset dy="5"/>
<feGaussianBlur stdDeviation="0.75"/>
<feComposite in2="hardAlpha" operator="out"/>
<feColorMatrix type="matrix" values="0 0 0 0 0.0313726 0 0 0 0 0.0313726 0 0 0 0 0.0313726 0 0 0 0.05 0"/>
<feBlend mode="normal" in2="BackgroundImageFix" result="effect1_dropShadow_45_1961"/>
<feColorMatrix in="SourceAlpha" type="matrix" values="0 0 0 0 0 0 0 0 0 0 0 0 0 0 0 0 0 0 127 0" result="hardAlpha"/>
<feMorphology radius="4" operator="erode" in="SourceAlpha" result="effect2_dropShadow_45_1961"/>
<feOffset dy="6"/>
<feGaussianBlur stdDeviation="2"/>
<feComposite in2="hardAlpha" operator="out"/>
<feColorMatrix type="matrix" values="0 0 0 0 0.0313726 0 0 0 0 0.0313726 0 0 0 0 0.0313726 0 0 0 0.05 0"/>
<feBlend mode="normal" in2="effect1_dropShadow_45_1961" result="effect2_dropShadow_45_1961"/>
<feColorMatrix in="SourceAlpha" type="matrix" values="0 0 0 0 0 0 0 0 0 0 0 0 0 0 0 0 0 0 127 0" result="hardAlpha"/>
<feOffset dy="6"/>
<feGaussianBlur stdDeviation="6.5"/>
<feComposite in2="hardAlpha" operator="out"/>
<feColorMatrix type="matrix" values="0 0 0 0 0.0313726 0 0 0 0 0.0313726 0 0 0 0 0.0313726 0 0 0 0.03 0"/>
<feBlend mode="normal" in2="effect2_dropShadow_45_1961" result="effect3_dropShadow_45_1961"/>
<feColorMatrix in="SourceAlpha" type="matrix" values="0 0 0 0 0 0 0 0 0 0 0 0 0 0 0 0 0 0 127 0" result="hardAlpha"/>
<feMorphology radius="16" operator="erode" in="SourceAlpha" result="effect4_dropShadow_45_1961"/>
<feOffset dy="24"/>
<feGaussianBlur stdDeviation="12"/>
<feComposite in2="hardAlpha" operator="out"/>
<feColorMatrix type="matrix" values="0 0 0 0 0.0313726 0 0 0 0 0.0313726 0 0 0 0 0.0313726 0 0 0 0.04 0"/>
<feBlend mode="normal" in2="effect3_dropShadow_45_1961" result="effect4_dropShadow_45_1961"/>
<feColorMatrix in="SourceAlpha" type="matrix" values="0 0 0 0 0 0 0 0 0 0 0 0 0 0 0 0 0 0 127 0" result="hardAlpha"/>
<feMorphology radius="2" operator="erode" in="SourceAlpha" result="effect5_dropShadow_45_1961"/>
<feOffset dy="2.15"/>
<feGaussianBlur stdDeviation="0.25"/>
<feComposite in2="hardAlpha" operator="out"/>
<feColorMatrix type="matrix" values="0 0 0 0 0 0 0 0 0 0 0 0 0 0 0 0 0 0 0.25 0"/>
<feBlend mode="normal" in2="effect4_dropShadow_45_1961" result="effect5_dropShadow_45_1961"/>
<feColorMatrix in="SourceAlpha" type="matrix" values="0 0 0 0 0 0 0 0 0 0 0 0 0 0 0 0 0 0 127 0" result="hardAlpha"/>
<feMorphology radius="12" operator="erode" in="SourceAlpha" result="effect6_dropShadow_45_1961"/>
<feOffset dy="32"/>
<feGaussianBlur stdDeviation="32"/>
<feComposite in2="hardAlpha" operator="out"/>
<feColorMatrix type="matrix" values="0 0 0 0 0 0 0 0 0 0 0 0 0 0 0 0 0 0 0.075 0"/>
<feBlend mode="multiply" in2="effect5_dropShadow_45_1961" result="effect6_dropShadow_45_1961"/>
<feBlend mode="normal" in="SourceGraphic" in2="effect6_dropShadow_45_1961" result="shape"/>
</filter>
<filter id="filter1_dddddd_45_1961" x="-1.69794" y="57.0728" width="529.396" height="176.925" filterUnits="userSpaceOnUse" color-interpolation-filters="sRGB">
<feFlood flood-opacity="0" result="BackgroundImageFix"/>
<feColorMatrix in="SourceAlpha" type="matrix" values="0 0 0 0 0 0 0 0 0 0 0 0 0 0 0 0 0 0 127 0" result="hardAlpha"/>
<feMorphology radius="4" operator="erode" in="SourceAlpha" result="effect1_dropShadow_45_1961"/>
<feOffset dy="5"/>
<feGaussianBlur stdDeviation="0.75"/>
<feComposite in2="hardAlpha" operator="out"/>
<feColorMatrix type="matrix" values="0 0 0 0 0.0313726 0 0 0 0 0.0313726 0 0 0 0 0.0313726 0 0 0 0.05 0"/>
<feBlend mode="normal" in2="BackgroundImageFix" result="effect1_dropShadow_45_1961"/>
<feColorMatrix in="SourceAlpha" type="matrix" values="0 0 0 0 0 0 0 0 0 0 0 0 0 0 0 0 0 0 127 0" result="hardAlpha"/>
<feMorphology radius="4" operator="erode" in="SourceAlpha" result="effect2_dropShadow_45_1961"/>
<feOffset dy="6"/>
<feGaussianBlur stdDeviation="2"/>
<feComposite in2="hardAlpha" operator="out"/>
<feColorMatrix type="matrix" values="0 0 0 0 0.0313726 0 0 0 0 0.0313726 0 0 0 0 0.0313726 0 0 0 0.05 0"/>
<feBlend mode="normal" in2="effect1_dropShadow_45_1961" result="effect2_dropShadow_45_1961"/>
<feColorMatrix in="SourceAlpha" type="matrix" values="0 0 0 0 0 0 0 0 0 0 0 0 0 0 0 0 0 0 127 0" result="hardAlpha"/>
<feOffset dy="6"/>
<feGaussianBlur stdDeviation="6.5"/>
<feComposite in2="hardAlpha" operator="out"/>
<feColorMatrix type="matrix" values="0 0 0 0 0.0313726 0 0 0 0 0.0313726 0 0 0 0 0.0313726 0 0 0 0.03 0"/>
<feBlend mode="normal" in2="effect2_dropShadow_45_1961" result="effect3_dropShadow_45_1961"/>
<feColorMatrix in="SourceAlpha" type="matrix" values="0 0 0 0 0 0 0 0 0 0 0 0 0 0 0 0 0 0 127 0" result="hardAlpha"/>
<feMorphology radius="16" operator="erode" in="SourceAlpha" result="effect4_dropShadow_45_1961"/>
<feOffset dy="24"/>
<feGaussianBlur stdDeviation="12"/>
<feComposite in2="hardAlpha" operator="out"/>
<feColorMatrix type="matrix" values="0 0 0 0 0.0313726 0 0 0 0 0.0313726 0 0 0 0 0.0313726 0 0 0 0.04 0"/>
<feBlend mode="normal" in2="effect3_dropShadow_45_1961" result="effect4_dropShadow_45_1961"/>
<feColorMatrix in="SourceAlpha" type="matrix" values="0 0 0 0 0 0 0 0 0 0 0 0 0 0 0 0 0 0 127 0" result="hardAlpha"/>
<feMorphology radius="2" operator="erode" in="SourceAlpha" result="effect5_dropShadow_45_1961"/>
<feOffset dy="2.15"/>
<feGaussianBlur stdDeviation="0.25"/>
<feComposite in2="hardAlpha" operator="out"/>
<feColorMatrix type="matrix" values="0 0 0 0 0 0 0 0 0 0 0 0 0 0 0 0 0 0 0.25 0"/>
<feBlend mode="normal" in2="effect4_dropShadow_45_1961" result="effect5_dropShadow_45_1961"/>
<feColorMatrix in="SourceAlpha" type="matrix" values="0 0 0 0 0 0 0 0 0 0 0 0 0 0 0 0 0 0 127 0" result="hardAlpha"/>
<feMorphology radius="12" operator="erode" in="SourceAlpha" result="effect6_dropShadow_45_1961"/>
<feOffset dy="32"/>
<feGaussianBlur stdDeviation="32"/>
<feComposite in2="hardAlpha" operator="out"/>
<feColorMatrix type="matrix" values="0 0 0 0 0 0 0 0 0 0 0 0 0 0 0 0 0 0 0.075 0"/>
<feBlend mode="multiply" in2="effect5_dropShadow_45_1961" result="effect6_dropShadow_45_1961"/>
<feBlend mode="normal" in="SourceGraphic" in2="effect6_dropShadow_45_1961" result="shape"/>
</filter>
<filter id="filter2_dddddd_45_1961" x="-1.69794" y="136.075" width="529.396" height="176.925" filterUnits="userSpaceOnUse" color-interpolation-filters="sRGB">
<feFlood flood-opacity="0" result="BackgroundImageFix"/>
<feColorMatrix in="SourceAlpha" type="matrix" values="0 0 0 0 0 0 0 0 0 0 0 0 0 0 0 0 0 0 127 0" result="hardAlpha"/>
<feMorphology radius="4" operator="erode" in="SourceAlpha" result="effect1_dropShadow_45_1961"/>
<feOffset dy="5"/>
<feGaussianBlur stdDeviation="0.75"/>
<feComposite in2="hardAlpha" operator="out"/>
<feColorMatrix type="matrix" values="0 0 0 0 0.0313726 0 0 0 0 0.0313726 0 0 0 0 0.0313726 0 0 0 0.05 0"/>
<feBlend mode="normal" in2="BackgroundImageFix" result="effect1_dropShadow_45_1961"/>
<feColorMatrix in="SourceAlpha" type="matrix" values="0 0 0 0 0 0 0 0 0 0 0 0 0 0 0 0 0 0 127 0" result="hardAlpha"/>
<feMorphology radius="4" operator="erode" in="SourceAlpha" result="effect2_dropShadow_45_1961"/>
<feOffset dy="6"/>
<feGaussianBlur stdDeviation="2"/>
<feComposite in2="hardAlpha" operator="out"/>
<feColorMatrix type="matrix" values="0 0 0 0 0.0313726 0 0 0 0 0.0313726 0 0 0 0 0.0313726 0 0 0 0.05 0"/>
<feBlend mode="normal" in2="effect1_dropShadow_45_1961" result="effect2_dropShadow_45_1961"/>
<feColorMatrix in="SourceAlpha" type="matrix" values="0 0 0 0 0 0 0 0 0 0 0 0 0 0 0 0 0 0 127 0" result="hardAlpha"/>
<feOffset dy="6"/>
<feGaussianBlur stdDeviation="6.5"/>
<feComposite in2="hardAlpha" operator="out"/>
<feColorMatrix type="matrix" values="0 0 0 0 0.0313726 0 0 0 0 0.0313726 0 0 0 0 0.0313726 0 0 0 0.03 0"/>
<feBlend mode="normal" in2="effect2_dropShadow_45_1961" result="effect3_dropShadow_45_1961"/>
<feColorMatrix in="SourceAlpha" type="matrix" values="0 0 0 0 0 0 0 0 0 0 0 0 0 0 0 0 0 0 127 0" result="hardAlpha"/>
<feMorphology radius="16" operator="erode" in="SourceAlpha" result="effect4_dropShadow_45_1961"/>
<feOffset dy="24"/>
<feGaussianBlur stdDeviation="12"/>
<feComposite in2="hardAlpha" operator="out"/>
<feColorMatrix type="matrix" values="0 0 0 0 0.0313726 0 0 0 0 0.0313726 0 0 0 0 0.0313726 0 0 0 0.04 0"/>
<feBlend mode="normal" in2="effect3_dropShadow_45_1961" result="effect4_dropShadow_45_1961"/>
<feColorMatrix in="SourceAlpha" type="matrix" values="0 0 0 0 0 0 0 0 0 0 0 0 0 0 0 0 0 0 127 0" result="hardAlpha"/>
<feMorphology radius="2" operator="erode" in="SourceAlpha" result="effect5_dropShadow_45_1961"/>
<feOffset dy="2.15"/>
<feGaussianBlur stdDeviation="0.25"/>
<feComposite in2="hardAlpha" operator="out"/>
<feColorMatrix type="matrix" values="0 0 0 0 0 0 0 0 0 0 0 0 0 0 0 0 0 0 0.25 0"/>
<feBlend mode="normal" in2="effect4_dropShadow_45_1961" result="effect5_dropShadow_45_1961"/>
<feColorMatrix in="SourceAlpha" type="matrix" values="0 0 0 0 0 0 0 0 0 0 0 0 0 0 0 0 0 0 127 0" result="hardAlpha"/>
<feMorphology radius="12" operator="erode" in="SourceAlpha" result="effect6_dropShadow_45_1961"/>
<feOffset dy="32"/>
<feGaussianBlur stdDeviation="32"/>
<feComposite in2="hardAlpha" operator="out"/>
<feColorMatrix type="matrix" values="0 0 0 0 0 0 0 0 0 0 0 0 0 0 0 0 0 0 0.075 0"/>
<feBlend mode="multiply" in2="effect5_dropShadow_45_1961" result="effect6_dropShadow_45_1961"/>
<feBlend mode="normal" in="SourceGraphic" in2="effect6_dropShadow_45_1961" result="shape"/>
</filter>
<filter id="filter3_f_45_1961" x="434.678" y="180.384" width="24.3083" height="24.3084" filterUnits="userSpaceOnUse" color-interpolation-filters="sRGB">
<feFlood flood-opacity="0" result="BackgroundImageFix"/>
<feBlend mode="normal" in="SourceGraphic" in2="BackgroundImageFix" result="shape"/>
<feGaussianBlur stdDeviation="4.55781" result="effect1_foregroundBlur_45_1961"/>
</filter>
<filter id="filter4_dddddd_45_1961" x="-1.69794" y="215.077" width="529.396" height="176.925" filterUnits="userSpaceOnUse" color-interpolation-filters="sRGB">
<feFlood flood-opacity="0" result="BackgroundImageFix"/>
<feColorMatrix in="SourceAlpha" type="matrix" values="0 0 0 0 0 0 0 0 0 0 0 0 0 0 0 0 0 0 127 0" result="hardAlpha"/>
<feMorphology radius="4" operator="erode" in="SourceAlpha" result="effect1_dropShadow_45_1961"/>
<feOffset dy="5"/>
<feGaussianBlur stdDeviation="0.75"/>
<feComposite in2="hardAlpha" operator="out"/>
<feColorMatrix type="matrix" values="0 0 0 0 0.0313726 0 0 0 0 0.0313726 0 0 0 0 0.0313726 0 0 0 0.05 0"/>
<feBlend mode="normal" in2="BackgroundImageFix" result="effect1_dropShadow_45_1961"/>
<feColorMatrix in="SourceAlpha" type="matrix" values="0 0 0 0 0 0 0 0 0 0 0 0 0 0 0 0 0 0 127 0" result="hardAlpha"/>
<feMorphology radius="4" operator="erode" in="SourceAlpha" result="effect2_dropShadow_45_1961"/>
<feOffset dy="6"/>
<feGaussianBlur stdDeviation="2"/>
<feComposite in2="hardAlpha" operator="out"/>
<feColorMatrix type="matrix" values="0 0 0 0 0.0313726 0 0 0 0 0.0313726 0 0 0 0 0.0313726 0 0 0 0.05 0"/>
<feBlend mode="normal" in2="effect1_dropShadow_45_1961" result="effect2_dropShadow_45_1961"/>
<feColorMatrix in="SourceAlpha" type="matrix" values="0 0 0 0 0 0 0 0 0 0 0 0 0 0 0 0 0 0 127 0" result="hardAlpha"/>
<feOffset dy="6"/>
<feGaussianBlur stdDeviation="6.5"/>
<feComposite in2="hardAlpha" operator="out"/>
<feColorMatrix type="matrix" values="0 0 0 0 0.0313726 0 0 0 0 0.0313726 0 0 0 0 0.0313726 0 0 0 0.03 0"/>
<feBlend mode="normal" in2="effect2_dropShadow_45_1961" result="effect3_dropShadow_45_1961"/>
<feColorMatrix in="SourceAlpha" type="matrix" values="0 0 0 0 0 0 0 0 0 0 0 0 0 0 0 0 0 0 127 0" result="hardAlpha"/>
<feMorphology radius="16" operator="erode" in="SourceAlpha" result="effect4_dropShadow_45_1961"/>
<feOffset dy="24"/>
<feGaussianBlur stdDeviation="12"/>
<feComposite in2="hardAlpha" operator="out"/>
<feColorMatrix type="matrix" values="0 0 0 0 0.0313726 0 0 0 0 0.0313726 0 0 0 0 0.0313726 0 0 0 0.04 0"/>
<feBlend mode="normal" in2="effect3_dropShadow_45_1961" result="effect4_dropShadow_45_1961"/>
<feColorMatrix in="SourceAlpha" type="matrix" values="0 0 0 0 0 0 0 0 0 0 0 0 0 0 0 0 0 0 127 0" result="hardAlpha"/>
<feMorphology radius="2" operator="erode" in="SourceAlpha" result="effect5_dropShadow_45_1961"/>
<feOffset dy="2.15"/>
<feGaussianBlur stdDeviation="0.25"/>
<feComposite in2="hardAlpha" operator="out"/>
<feColorMatrix type="matrix" values="0 0 0 0 0 0 0 0 0 0 0 0 0 0 0 0 0 0 0.25 0"/>
<feBlend mode="normal" in2="effect4_dropShadow_45_1961" result="effect5_dropShadow_45_1961"/>
<feColorMatrix in="SourceAlpha" type="matrix" values="0 0 0 0 0 0 0 0 0 0 0 0 0 0 0 0 0 0 127 0" result="hardAlpha"/>
<feMorphology radius="12" operator="erode" in="SourceAlpha" result="effect6_dropShadow_45_1961"/>
<feOffset dy="32"/>
<feGaussianBlur stdDeviation="32"/>
<feComposite in2="hardAlpha" operator="out"/>
<feColorMatrix type="matrix" values="0 0 0 0 0 0 0 0 0 0 0 0 0 0 0 0 0 0 0.075 0"/>
<feBlend mode="multiply" in2="effect5_dropShadow_45_1961" result="effect6_dropShadow_45_1961"/>
<feBlend mode="normal" in="SourceGraphic" in2="effect6_dropShadow_45_1961" result="shape"/>
</filter>
<filter id="filter5_f_45_1961" x="434.678" y="259.385" width="24.3083" height="24.3084" filterUnits="userSpaceOnUse" color-interpolation-filters="sRGB">
<feFlood flood-opacity="0" result="BackgroundImageFix"/>
<feBlend mode="normal" in="SourceGraphic" in2="BackgroundImageFix" result="shape"/>
<feGaussianBlur stdDeviation="4.55781" result="effect1_foregroundBlur_45_1961"/>
</filter>
<linearGradient id="paint0_linear_45_1961" x1="263" y1="-1.9292" x2="263" y2="70.9958" gradientUnits="userSpaceOnUse">
<stop stop-color="#F6F6F6"/>
<stop offset="1" stop-color="#E6E6E6"/>
</linearGradient>
<linearGradient id="paint1_linear_45_1961" x1="263" y1="77.0728" x2="263" y2="149.998" gradientUnits="userSpaceOnUse">
<stop stop-color="#F6F6F6"/>
<stop offset="1" stop-color="#E6E6E6"/>
</linearGradient>
<linearGradient id="paint2_linear_45_1961" x1="263" y1="156.075" x2="263" y2="229" gradientUnits="userSpaceOnUse">
<stop stop-color="#F6F6F6"/>
<stop offset="1" stop-color="#E6E6E6"/>
</linearGradient>
<linearGradient id="paint3_linear_45_1961" x1="95.8802" y1="169.058" x2="95.8802" y2="216.018" gradientUnits="userSpaceOnUse">
<stop stop-color="#EBEBEB"/>
<stop offset="1" stop-color="#C4C4C4"/>
</linearGradient>
<linearGradient id="paint4_linear_45_1961" x1="263" y1="235.077" x2="263" y2="308.002" gradientUnits="userSpaceOnUse">
<stop stop-color="#F6F6F6"/>
<stop offset="1" stop-color="#E6E6E6"/>
</linearGradient>
<linearGradient id="paint5_linear_45_1961" x1="95.8802" y1="248.06" x2="95.8802" y2="295.019" gradientUnits="userSpaceOnUse">
<stop stop-color="#EBEBEB"/>
<stop offset="1" stop-color="#C4C4C4"/>
</linearGradient>
<clipPath id="clip0_45_1961">
<rect x="80.6875" y="177.345" width="30.3854" height="30.3854" rx="15.1927" fill="white"/>
</clipPath>
<clipPath id="clip1_45_1961">
<rect x="80.6875" y="256.347" width="30.3854" height="30.3854" rx="15.1927" fill="white"/>
</clipPath>
</defs>
</svg>
