<svg width="87" height="85" viewBox="0 0 87 85" fill="none" xmlns="http://www.w3.org/2000/svg">
<g filter="url(#filter0_b_45_964)">
<rect x="0.177185" y="0.0351562" width="86.664" height="84.6006" rx="42.3003" fill="url(#paint0_linear_45_964)"/>
<rect x="0.177185" y="0.0351562" width="86.664" height="84.6006" rx="42.3003" fill="url(#paint1_linear_45_964)"/>
<rect x="1.37212" y="1.23009" width="84.2742" height="82.2107" rx="41.1054" stroke="url(#paint2_linear_45_964)" stroke-opacity="0.15" stroke-width="2.38987"/>
<g clip-path="url(#clip0_45_964)">
<path d="M58.4906 50.2668C57.7562 50.2668 57.132 50.0097 56.6179 49.4957C56.1038 48.9816 55.8468 48.3574 55.8468 47.623V43.2167C55.8468 42.4823 56.1038 41.8581 56.6179 41.344C57.132 40.83 57.7562 40.5729 58.4906 40.5729C59.225 40.5729 59.8492 40.83 60.3632 41.344C60.8773 41.8581 61.1343 42.4823 61.1343 43.2167V47.623C61.1343 48.3574 60.8773 48.9816 60.3632 49.4957C59.8492 50.0097 59.225 50.2668 58.4906 50.2668ZM57.6093 56.4355V53.7037C56.1112 53.4687 54.8554 52.7857 53.8419 51.6547C52.8285 50.5238 52.3218 49.1799 52.3218 47.623H54.0843C54.0843 48.8567 54.5102 49.8996 55.3621 50.7514C56.214 51.6033 57.2568 52.0293 58.4906 52.0293C59.7243 52.0293 60.7672 51.6033 61.619 50.7514C62.4709 49.8996 62.8969 48.8567 62.8969 47.623H64.6594C64.6594 49.1799 64.1526 50.5238 63.1392 51.6547C62.1258 52.7857 60.87 53.4687 59.3718 53.7037V56.4355H57.6093ZM38.2217 42.3354C36.2829 42.3354 34.6232 41.6451 33.2426 40.2645C31.8619 38.8839 31.1716 37.2242 31.1716 35.2854C31.1716 33.3466 31.8619 31.6869 33.2426 30.3063C34.6232 28.9257 36.2829 28.2354 38.2217 28.2354C38.6329 28.2354 39.0368 28.2647 39.4334 28.3235C39.83 28.3822 40.2192 28.485 40.6011 28.6319C39.8373 29.5425 39.2498 30.5633 38.8386 31.6943C38.4273 32.8252 38.2217 34.0223 38.2217 35.2854C38.2217 36.5485 38.4273 37.7456 38.8386 38.8765C39.2498 40.0075 39.8373 41.0283 40.6011 41.9389C40.2192 42.0858 39.83 42.1886 39.4334 42.2473C39.0368 42.3061 38.6329 42.3354 38.2217 42.3354ZM24.1216 56.4355V51.5446C24.1216 50.5458 24.3713 49.6205 24.8706 48.7686C25.37 47.9167 26.0603 47.2705 26.9416 46.8299C28.0579 46.2424 29.2696 45.7356 30.5768 45.3097C31.884 44.8837 33.316 44.5533 34.8729 44.3183C33.6979 45.1408 32.7873 46.1836 32.141 47.4467C31.4948 48.7099 31.1716 50.0758 31.1716 51.5446V56.4355H24.1216ZM48.7968 42.3354C46.858 42.3354 45.1983 41.6451 43.8177 40.2645C42.437 38.8839 41.7467 37.2242 41.7467 35.2854C41.7467 33.3466 42.437 31.6869 43.8177 30.3063C45.1983 28.9257 46.858 28.2354 48.7968 28.2354C50.7355 28.2354 52.3952 28.9257 53.7759 30.3063C55.1565 31.6869 55.8468 33.3466 55.8468 35.2854C55.8468 37.2242 55.1565 38.8839 53.7759 40.2645C52.3952 41.6451 50.7355 42.3354 48.7968 42.3354ZM34.6967 56.4355V51.5446C34.6967 50.5458 34.9463 49.6205 35.4457 48.7686C35.9451 47.9167 36.6354 47.2705 37.5167 46.8299C39.0148 46.0661 40.7112 45.4198 42.6059 44.8911C44.5006 44.3623 46.5642 44.098 48.7968 44.098C49.1493 44.098 49.4944 44.1053 49.8322 44.12C50.17 44.1347 50.5005 44.1567 50.8236 44.1861C49.5899 46.4186 49.3549 48.7392 50.1186 51.148C50.8824 53.5568 52.3952 55.3193 54.6571 56.4355H34.6967Z" fill="#2F3132"/>
</g>
</g>
<defs>
<filter id="filter0_b_45_964" x="-50.8066" y="-50.9486" width="188.632" height="186.568" filterUnits="userSpaceOnUse" color-interpolation-filters="sRGB">
<feFlood flood-opacity="0" result="BackgroundImageFix"/>
<feGaussianBlur in="BackgroundImageFix" stdDeviation="25.4919"/>
<feComposite in2="SourceAlpha" operator="in" result="effect1_backgroundBlur_45_964"/>
<feBlend mode="normal" in="SourceGraphic" in2="effect1_backgroundBlur_45_964" result="shape"/>
</filter>
<linearGradient id="paint0_linear_45_964" x1="16.2682" y1="0.0351561" x2="70.2338" y2="84.6357" gradientUnits="userSpaceOnUse">
<stop stop-color="#DCF8C5"/>
<stop offset="1" stop-color="#98D664"/>
</linearGradient>
<linearGradient id="paint1_linear_45_964" x1="8.46969" y1="-9.90545" x2="70.9561" y2="84.6357" gradientUnits="userSpaceOnUse">
<stop stop-color="#ECE9FF"/>
<stop offset="1" stop-color="#AA99FF"/>
</linearGradient>
<linearGradient id="paint2_linear_45_964" x1="43.5092" y1="0.0351562" x2="43.5092" y2="84.6357" gradientUnits="userSpaceOnUse">
<stop stop-color="#E2E2E2"/>
<stop offset="1" stop-color="#E2E2E2" stop-opacity="0"/>
</linearGradient>
<clipPath id="clip0_45_964">
<rect width="42.3003" height="42.3003" fill="white" transform="translate(22.359 21.1855)"/>
</clipPath>
</defs>
</svg>
