<svg width="88" height="85" viewBox="0 0 88 85" fill="none" xmlns="http://www.w3.org/2000/svg">
<g filter="url(#filter0_b_45_992)">
<rect x="0.605225" y="0.0351562" width="86.664" height="84.6006" rx="42.3003" fill="url(#paint0_linear_45_992)"/>
<rect x="1.80016" y="1.23009" width="84.2742" height="82.2107" rx="41.1054" stroke="url(#paint1_linear_45_992)" stroke-opacity="0.15" stroke-width="2.38987"/>
<path d="M42.1873 51.0859H45.6873L46.2123 48.4609C46.5623 48.3151 46.8904 48.162 47.1966 48.0016C47.5029 47.8411 47.8164 47.6443 48.1373 47.4109L50.6748 48.1984L52.4248 45.2234L50.4123 43.4734C50.4706 43.0651 50.4998 42.6859 50.4998 42.3359C50.4998 41.9859 50.4706 41.6068 50.4123 41.1984L52.4248 39.4484L50.6748 36.4734L48.1373 37.2609C47.8164 37.0276 47.5029 36.8307 47.1966 36.6703C46.8904 36.5099 46.5623 36.3568 46.2123 36.2109L45.6873 33.5859H42.1873L41.6623 36.2109C41.3123 36.3568 40.9841 36.5099 40.6779 36.6703C40.3716 36.8307 40.0581 37.0276 39.7373 37.2609L37.1998 36.4734L35.4498 39.4484L37.4623 41.1984C37.4039 41.6068 37.3748 41.9859 37.3748 42.3359C37.3748 42.6859 37.4039 43.0651 37.4623 43.4734L35.4498 45.2234L37.1998 48.1984L39.7373 47.4109C40.0581 47.6443 40.3716 47.8411 40.6779 48.0016C40.9841 48.162 41.3123 48.3151 41.6623 48.4609L42.1873 51.0859ZM43.9373 45.8359C42.9748 45.8359 42.1508 45.4932 41.4654 44.8078C40.78 44.1224 40.4373 43.2984 40.4373 42.3359C40.4373 41.3734 40.78 40.5495 41.4654 39.8641C42.1508 39.1786 42.9748 38.8359 43.9373 38.8359C44.8998 38.8359 45.7237 39.1786 46.4091 39.8641C47.0945 40.5495 47.4373 41.3734 47.4373 42.3359C47.4373 43.2984 47.0945 44.1224 46.4091 44.8078C45.7237 45.4932 44.8998 45.8359 43.9373 45.8359ZM31.6873 58.0859C30.7248 58.0859 29.9008 57.7432 29.2154 57.0578C28.53 56.3724 28.1873 55.5484 28.1873 54.5859V30.0859C28.1873 29.1234 28.53 28.2995 29.2154 27.6141C29.9008 26.9286 30.7248 26.5859 31.6873 26.5859H56.1873C57.1498 26.5859 57.9737 26.9286 58.6591 27.6141C59.3445 28.2995 59.6873 29.1234 59.6873 30.0859V54.5859C59.6873 55.5484 59.3445 56.3724 58.6591 57.0578C57.9737 57.7432 57.1498 58.0859 56.1873 58.0859H31.6873Z" fill="#2F3132"/>
</g>
<defs>
<filter id="filter0_b_45_992" x="-50.3786" y="-50.9486" width="188.632" height="186.568" filterUnits="userSpaceOnUse" color-interpolation-filters="sRGB">
<feFlood flood-opacity="0" result="BackgroundImageFix"/>
<feGaussianBlur in="BackgroundImageFix" stdDeviation="25.4919"/>
<feComposite in2="SourceAlpha" operator="in" result="effect1_backgroundBlur_45_992"/>
<feBlend mode="normal" in="SourceGraphic" in2="effect1_backgroundBlur_45_992" result="shape"/>
</filter>
<linearGradient id="paint0_linear_45_992" x1="16.6963" y1="0.0351561" x2="70.6618" y2="84.6357" gradientUnits="userSpaceOnUse">
<stop stop-color="#FDA69A"/>
<stop offset="1" stop-color="#FF7461"/>
</linearGradient>
<linearGradient id="paint1_linear_45_992" x1="43.9372" y1="0.0351562" x2="43.9372" y2="84.6357" gradientUnits="userSpaceOnUse">
<stop stop-color="#E2E2E2"/>
<stop offset="1" stop-color="#E2E2E2" stop-opacity="0"/>
</linearGradient>
</defs>
</svg>
