<svg width="94" height="88" viewBox="0 0 94 88" fill="none" xmlns="http://www.w3.org/2000/svg">
<path d="M69.6617 10.4121H74.7788C78.5426 10.4121 81.5951 13.4647 81.5951 17.2284V27.0149H1.17926V17.2284C1.17926 13.4647 4.23012 10.4121 7.99554 10.4121H13.1111H69.6617Z" fill="#EA3B36"/>
<path d="M82.7739 28.1932H0V17.2277C0 12.8191 3.58669 9.23242 7.99528 9.23242H74.7787C79.1873 9.23242 82.7739 12.8191 82.7739 17.2277V28.1932ZM2.35799 25.8352H80.416V17.2277C80.416 14.1193 77.8872 11.5904 74.7787 11.5904H7.99528C4.88679 11.5904 2.35795 14.1193 2.35795 17.2277L2.35799 25.8352Z" fill="#3E4451"/>
<path d="M27.3306 21.6176C30.1731 18.7751 30.1731 14.1664 27.3306 11.3238C24.488 8.48123 19.8793 8.48123 17.0367 11.3238C14.1942 14.1664 14.1942 18.7751 17.0367 21.6176C19.8793 24.4602 24.488 24.4602 27.3306 21.6176Z" fill="white"/>
<path d="M65.7365 21.6176C68.579 18.7751 68.579 14.1664 65.7365 11.3238C62.8939 8.48123 58.2852 8.48123 55.4426 11.3238C52.6001 14.1664 52.6001 18.7751 55.4426 21.6176C58.2852 24.4602 62.8939 24.4602 65.7365 21.6176Z" fill="white"/>
<path d="M22.1841 0C19.2458 0 16.8552 2.39059 16.8552 5.32906V15.4953C16.8552 18.4337 19.2458 20.8243 22.1841 20.8243C25.1226 20.8243 27.5132 18.4337 27.5132 15.4953V5.32906C27.5132 2.39059 25.1226 0 22.1841 0Z" fill="#3E4451"/>
<path d="M60.5901 0C57.6516 0 55.261 2.39059 55.261 5.32906V15.4953C55.261 18.4337 57.6516 20.8243 60.5901 20.8243C63.5286 20.8243 65.9192 18.4337 65.9192 15.4953V5.32906C65.9192 2.39059 63.5286 0 60.5901 0Z" fill="#3E4451"/>
<path d="M58.1184 80.8897H7.99554C4.23012 80.8897 1.17926 77.8372 1.17926 74.0735V27.0146H81.5951V50.2296" fill="white"/>
<path d="M58.1182 82.0681H7.99528C3.58669 82.0681 0 78.4814 0 74.0729V27.014C0 26.3628 0.527777 25.835 1.179 25.835H81.595C82.2462 25.835 82.774 26.3628 82.774 27.014V50.2288C82.774 50.88 82.2462 51.4077 81.595 51.4077C80.9438 51.4077 80.416 50.88 80.416 50.2288V28.193H2.35799V74.0728C2.35799 77.1813 4.88683 79.7101 7.99532 79.7101H58.1182C58.7695 79.7101 59.2972 80.2379 59.2972 80.8891C59.2972 81.5403 58.7694 82.0681 58.1182 82.0681Z" fill="#3E4451"/>
<path d="M70.825 43.4933H64.5584C63.2931 43.4933 62.2638 42.464 62.2638 41.1987V35.8327C62.2638 34.5674 63.2931 33.5381 64.5584 33.5381H70.825C72.0902 33.5381 73.1197 34.5674 73.1197 35.8327V41.1987C73.1197 42.464 72.0902 43.4933 70.825 43.4933ZM64.6218 41.1353H70.7617V35.8961H64.6218V41.1353Z" fill="#3E4451"/>
<path d="M53.2897 43.4933H47.0231C45.7579 43.4933 44.7286 42.464 44.7286 41.1987V35.8327C44.7286 34.5674 45.7579 33.5381 47.0231 33.5381H53.2897C54.555 33.5381 55.5843 34.5674 55.5843 35.8327V41.1987C55.5843 42.464 54.5549 43.4933 53.2897 43.4933ZM47.0865 41.1353H53.2263V35.8961H47.0865V41.1353Z" fill="#3E4451"/>
<path d="M35.7518 43.4933H29.4852C28.22 43.4933 27.1907 42.464 27.1907 41.1987V35.8327C27.1907 34.5674 28.22 33.5381 29.4852 33.5381H35.7518C37.017 33.5381 38.0464 34.5674 38.0464 35.8327V41.1987C38.0464 42.464 37.017 43.4933 35.7518 43.4933ZM29.5486 41.1353H35.6884V35.8961H29.5486V41.1353Z" fill="#3E4451"/>
<path d="M18.214 43.4933H11.9474C10.6822 43.4933 9.65271 42.464 9.65271 41.1987V35.8327C9.65271 34.5674 10.6822 33.5381 11.9474 33.5381H18.214C19.4793 33.5381 20.5086 34.5674 20.5086 35.8327V41.1987C20.5086 42.464 19.4793 43.4933 18.214 43.4933ZM12.0107 41.1353H18.1506V35.8961H12.0107V41.1353Z" fill="#3E4451"/>
<path d="M63.4428 55.4042C62.7916 55.4042 62.2638 54.8764 62.2638 54.2252V51.1332C62.2638 49.8675 63.2934 48.8379 64.559 48.8379H70.8254C71.4766 48.8379 72.0044 49.3657 72.0044 50.0169C72.0044 50.6681 71.4766 51.1958 70.8254 51.1958H64.6218V54.2251C64.6217 54.8764 64.094 55.4042 63.4428 55.4042Z" fill="#3E4451"/>
<path d="M53.2897 58.7941H47.0231C45.7579 58.7941 44.7286 57.7648 44.7286 56.4995V51.1334C44.7286 49.8682 45.7579 48.8389 47.0231 48.8389H53.2897C54.555 48.8389 55.5843 49.8682 55.5843 51.1334V56.4995C55.5843 57.7647 54.5549 58.7941 53.2897 58.7941ZM47.0865 56.4361H53.2263V51.1968H47.0865V56.4361Z" fill="#3E4451"/>
<path d="M35.7518 58.7941H29.4852C28.22 58.7941 27.1907 57.7648 27.1907 56.4995V51.1334C27.1907 49.8682 28.22 48.8389 29.4852 48.8389H35.7518C37.017 48.8389 38.0464 49.8682 38.0464 51.1334V56.4995C38.0464 57.7647 37.017 58.7941 35.7518 58.7941ZM29.5486 56.4361H35.6884V51.1968H29.5486V56.4361Z" fill="#3E4451"/>
<path d="M18.214 58.7941H11.9474C10.6822 58.7941 9.65271 57.7648 9.65271 56.4995V51.1334C9.65271 49.8682 10.6822 48.8389 11.9474 48.8389H18.214C19.4793 48.8389 20.5086 49.8682 20.5086 51.1334V56.4995C20.5086 57.7647 19.4793 58.7941 18.214 58.7941ZM12.0107 56.4361H18.1506V51.1968H12.0107V56.4361Z" fill="#3E4451"/>
<path d="M53.2897 74.0939H47.0231C45.7579 74.0939 44.7286 73.0645 44.7286 71.7993V66.4332C44.7286 65.168 45.7579 64.1387 47.0231 64.1387H53.2897C54.555 64.1387 55.5843 65.168 55.5843 66.4332V71.7993C55.5843 73.0646 54.5549 74.0939 53.2897 74.0939ZM47.0865 71.7359H53.2263V66.4967H47.0865V71.7359Z" fill="#3E4451"/>
<path d="M35.7518 74.0939H29.4852C28.22 74.0939 27.1907 73.0645 27.1907 71.7993V66.4332C27.1907 65.168 28.22 64.1387 29.4852 64.1387H35.7518C37.017 64.1387 38.0464 65.168 38.0464 66.4332V71.7993C38.0464 73.0646 37.017 74.0939 35.7518 74.0939ZM29.5486 71.7359H35.6884V66.4967H29.5486V71.7359Z" fill="#3E4451"/>
<path d="M18.214 74.0939H11.9474C10.6822 74.0939 9.65271 73.0645 9.65271 71.7993V66.4332C9.65271 65.168 10.6822 64.1387 11.9474 64.1387H18.214C19.4793 64.1387 20.5086 65.168 20.5086 66.4332V71.7993C20.5086 73.0646 19.4793 74.0939 18.214 74.0939ZM12.0107 71.7359H18.1506V66.4967H12.0107V71.7359Z" fill="#3E4451"/>
<path d="M76.5857 86.8212C85.4821 86.8212 92.6941 79.6093 92.6941 70.7129C92.6941 61.8164 85.4821 54.6045 76.5857 54.6045C67.6893 54.6045 60.4774 61.8164 60.4774 70.7129C60.4774 79.6093 67.6893 86.8212 76.5857 86.8212Z" fill="white"/>
<path d="M76.5881 88.0005C67.0558 88.0005 59.3008 80.2455 59.3008 70.7132C59.3008 61.181 67.0558 53.4258 76.5881 53.4258C86.1203 53.4258 93.8755 61.181 93.8755 70.7132C93.8756 80.2455 86.1203 88.0005 76.5881 88.0005ZM76.5881 55.7837C68.3561 55.7837 61.6587 62.4811 61.6587 70.7132C61.6587 78.9453 68.3561 85.6426 76.5881 85.6426C84.8202 85.6426 91.5176 78.9453 91.5176 70.7132C91.5176 62.4811 84.8203 55.7837 76.5881 55.7837Z" fill="#3E4451"/>
<path d="M76.5875 71.8754C75.9363 71.8754 75.4085 71.3476 75.4085 70.6964V60.0423C75.4085 59.3911 75.9363 58.8633 76.5875 58.8633C77.2387 58.8633 77.7665 59.3911 77.7665 60.0423V70.6964C77.7665 71.3476 77.2387 71.8754 76.5875 71.8754Z" fill="#3E4451"/>
<path d="M71.1229 77.3391C70.8213 77.3391 70.5195 77.224 70.2892 76.9938C69.8288 76.5333 69.8288 75.7869 70.2892 75.3265L75.7536 69.8618C76.2142 69.4015 76.9606 69.4015 77.4211 69.8618C77.8815 70.3223 77.8815 71.0687 77.4211 71.5293L71.9566 76.9939C71.7264 77.224 71.4246 77.3391 71.1229 77.3391Z" fill="#3E4451"/>
</svg>
